<?xml version="1.0" encoding="UTF-8"?>
<svg xmlns="http://www.w3.org/2000/svg"
     xmlns:xlink="http://www.w3.org/1999/xlink"
     xmlns:gadfly="http://www.gadflyjl.org/ns"
     version="1.2"
     width="180mm" height="70mm" viewBox="0 0 180 70"
     stroke="none"
     fill="#000000"
     stroke-width="0.3"
     font-size="3.88"
>
<defs>
  <marker id="arrow" markerWidth="15" markerHeight="7" refX="5" refY="3.5" orient="auto" markerUnits="strokeWidth">
    <path d="M0,0 L15,3.5 L0,7 z" stroke="context-stroke" fill="context-stroke"/>
  </marker>
</defs>
<g class="plotroot xscalable yscalable" id="img-d6fab2f5-1">
  <g font-size="3.88" font-family="'PT Sans','Helvetica Neue','Helvetica',sans-serif" fill="#564A55" stroke="#000000" stroke-opacity="0.000" id="img-d6fab2f5-2">
    <g transform="translate(136.16,61.39)">
      <g class="primitive">
        <text text-anchor="middle" dy="0.6em">Apparent Growth Factor (-)</text>
      </g>
    </g>
  </g>
  <g class="guide xlabels" font-size="2.82" font-family="'PT Sans Caption','Helvetica Neue','Helvetica',sans-serif" fill="#6C606B" id="img-d6fab2f5-3">
    <g transform="translate(106.96,54.72)">
      <g class="primitive">
        <text text-anchor="middle" dy="0.6em">1.2</text>
      </g>
    </g>
    <g transform="translate(114.26,54.72)">
      <g class="primitive">
        <text text-anchor="middle" dy="0.6em"></text>
      </g>
    </g>
    <g transform="translate(121.56,54.72)">
      <g class="primitive">
        <text text-anchor="middle" dy="0.6em">1.4</text>
      </g>
    </g>
    <g transform="translate(128.86,54.72)">
      <g class="primitive">
        <text text-anchor="middle" dy="0.6em"></text>
      </g>
    </g>
    <g transform="translate(136.16,54.72)">
      <g class="primitive">
        <text text-anchor="middle" dy="0.6em">1.6</text>
      </g>
    </g>
    <g transform="translate(143.47,54.72)">
      <g class="primitive">
        <text text-anchor="middle" dy="0.6em"></text>
      </g>
    </g>
    <g transform="translate(150.77,54.72)">
      <g class="primitive">
        <text text-anchor="middle" dy="0.6em">1.8</text>
      </g>
    </g>
    <g transform="translate(158.07,54.72)">
      <g class="primitive">
        <text text-anchor="middle" dy="0.6em"></text>
      </g>
    </g>
    <g transform="translate(165.37,54.72)">
      <g class="primitive">
        <text text-anchor="middle" dy="0.6em">2.0</text>
      </g>
    </g>
  </g>
  <g class="guide colorkey" id="img-d6fab2f5-4">
    <g fill="#4C404B" font-size="2.82" font-family="'PT Sans','Helvetica Neue','Helvetica',sans-serif" id="img-d6fab2f5-5">
      <g transform="translate(171.84,22.92)" id="img-d6fab2f5-6" class="color_𝐁*Pg">
        <g class="primitive">
          <text dy="0.35em">𝐁*P<tspan dy="0.4em" font-size="83%">g</tspan></text>
        </g>
      </g>
      <g transform="translate(171.84,27.86)" id="img-d6fab2f5-7" class="color_k_=_1">
        <g class="primitive">
          <text dy="0.35em">k = 1</text>
        </g>
      </g>
      <g transform="translate(171.84,32.8)" id="img-d6fab2f5-8" class="color_k_=_2">
        <g class="primitive">
          <text dy="0.35em">k = 2</text>
        </g>
      </g>
      <g transform="translate(171.84,37.74)" id="img-d6fab2f5-9" class="color_k_=_3">
        <g class="primitive">
          <text dy="0.35em">k = 3</text>
        </g>
      </g>
    </g>
    <g fill-opacity="1" id="img-d6fab2f5-10">
      <g transform="translate(169.6,22.92)" id="img-d6fab2f5-11" fill="#000000" stroke="#FFFFFF" class="color_𝐁*Pg">
        <path d="M-1.24,-1.24 L1.24,-1.24 1.24,1.24 -1.24,1.24  z" class="primitive"/>
      </g>
      <g transform="translate(169.6,27.86)" id="img-d6fab2f5-12" fill="#8B0000" stroke="#FFFFFF" class="color_k_=_1">
        <path d="M-1.24,-1.24 L1.24,-1.24 1.24,1.24 -1.24,1.24  z" class="primitive"/>
      </g>
      <g transform="translate(169.6,32.8)" id="img-d6fab2f5-13" fill="#4F94CD" stroke="#FFFFFF" class="color_k_=_2">
        <path d="M-1.24,-1.24 L1.24,-1.24 1.24,1.24 -1.24,1.24  z" class="primitive"/>
      </g>
      <g transform="translate(169.6,37.74)" id="img-d6fab2f5-14" fill="#B8860B" stroke="#FFFFFF" class="color_k_=_3">
        <path d="M-1.24,-1.24 L1.24,-1.24 1.24,1.24 -1.24,1.24  z" class="primitive"/>
      </g>
    </g>
    <g fill="#362A35" font-size="3.88" font-family="'PT Sans','Helvetica Neue','Helvetica',sans-serif" stroke="#000000" stroke-opacity="0.000" id="img-d6fab2f5-15">
      <g transform="translate(168.37,17.78)" id="img-d6fab2f5-16">
        <g class="primitive">
          <text dy="-0em"></text>
        </g>
      </g>
    </g>
  </g>
  <g clip-path="url(#img-d6fab2f5-17)">
    <g id="img-d6fab2f5-18">
      <g pointer-events="visible" stroke-width="0.3" fill="#000000" fill-opacity="0.000" stroke="#000000" stroke-opacity="0.000" class="guide background" id="img-d6fab2f5-19">
        <g transform="translate(136.16,27.86)" id="img-d6fab2f5-20">
          <path d="M-31.21,-25.86 L31.21,-25.86 31.21,25.86 -31.21,25.86  z" class="primitive"/>
        </g>
      </g>
      <g class="guide ygridlines xfixed" stroke-dasharray="0.5,0.5" stroke-width="0.2" stroke="#D0D0E0" id="img-d6fab2f5-21">
        <g transform="translate(136.16,51.72)" id="img-d6fab2f5-22">
          <path fill="none" d="M-31.21,0 L31.21,0 " class="primitive"/>
        </g>
        <g transform="translate(136.16,42.17)" id="img-d6fab2f5-23">
          <path fill="none" d="M-31.21,0 L31.21,0 " class="primitive"/>
        </g>
        <g transform="translate(136.16,32.63)" id="img-d6fab2f5-24">
          <path fill="none" d="M-31.21,0 L31.21,0 " class="primitive"/>
        </g>
        <g transform="translate(136.16,23.09)" id="img-d6fab2f5-25">
          <path fill="none" d="M-31.21,0 L31.21,0 " class="primitive"/>
        </g>
        <g transform="translate(136.16,13.54)" id="img-d6fab2f5-26">
          <path fill="none" d="M-31.21,0 L31.21,0 " class="primitive"/>
        </g>
        <g transform="translate(136.16,4)" id="img-d6fab2f5-27">
          <path fill="none" d="M-31.21,0 L31.21,0 " class="primitive"/>
        </g>
      </g>
      <g class="guide xgridlines yfixed" stroke-dasharray="0.5,0.5" stroke-width="0.2" stroke="#D0D0E0" id="img-d6fab2f5-28">
        <g transform="translate(106.96,27.86)" id="img-d6fab2f5-29">
          <path fill="none" d="M0,-25.86 L0,25.86 " class="primitive"/>
        </g>
        <g transform="translate(114.26,27.86)" id="img-d6fab2f5-30">
          <path fill="none" d="M0,-25.86 L0,25.86 " class="primitive"/>
        </g>
        <g transform="translate(121.56,27.86)" id="img-d6fab2f5-31">
          <path fill="none" d="M0,-25.86 L0,25.86 " class="primitive"/>
        </g>
        <g transform="translate(128.86,27.86)" id="img-d6fab2f5-32">
          <path fill="none" d="M0,-25.86 L0,25.86 " class="primitive"/>
        </g>
        <g transform="translate(136.16,27.86)" id="img-d6fab2f5-33">
          <path fill="none" d="M0,-25.86 L0,25.86 " class="primitive"/>
        </g>
        <g transform="translate(143.47,27.86)" id="img-d6fab2f5-34">
          <path fill="none" d="M0,-25.86 L0,25.86 " class="primitive"/>
        </g>
        <g transform="translate(150.77,27.86)" id="img-d6fab2f5-35">
          <path fill="none" d="M0,-25.86 L0,25.86 " class="primitive"/>
        </g>
        <g transform="translate(158.07,27.86)" id="img-d6fab2f5-36">
          <path fill="none" d="M0,-25.86 L0,25.86 " class="primitive"/>
        </g>
        <g transform="translate(165.37,27.86)" id="img-d6fab2f5-37">
          <path fill="none" d="M0,-25.86 L0,25.86 " class="primitive"/>
        </g>
      </g>
      <g class="plotpanel" id="img-d6fab2f5-38">
        <metadata>
          <boundingbox value="104.95833333333334mm 2.0mm 62.411666666666655mm 51.715mm"/>
          <unitbox value="1.1726082118298284 26.047888504663103 0.8547835763403431 -27.095777009326206"/>
        </metadata>
        <g stroke-width="0.3" fill="#000000" fill-opacity="0.000" class="geometry" id="img-d6fab2f5-39">
          <g transform="translate(178.28,47.22)" id="img-d6fab2f5-40" stroke-dasharray="none" stroke="#000000" class="color_𝐁*Pg">
            <path fill="none" d="M-100.15,4.5 L-99.37,4.5 -99.37,4.5 -98.58,4.5 -98.58,4.5 -97.78,4.5 -97.78,4.5 -96.97,4.5 -96.97,4.5 -96.15,4.5 -96.15,4.5 -95.31,4.5 -95.31,4.5 -94.46,4.5 -94.46,4.5 -93.6,4.5 -93.6,4.5 -92.73,4.5 -92.73,4.5 -91.84,4.5 -91.84,4.5 -90.94,4.5 -90.94,4.5 -90.03,4.5 -90.03,4.5 -89.1,4.5 -89.1,4.5 -88.16,4.5 -88.16,4.5 -87.2,4.5 -87.2,4.5 -86.23,4.5 -86.23,4.5 -85.25,4.5 -85.25,4.5 -84.24,4.5 -84.24,4.5 -83.23,4.5 -83.23,4.5 -82.19,4.5 -82.19,4.5 -81.15,4.5 -81.15,4.5 -80.08,4.5 -80.08,4.5 -79,4.5 -79,4.5 -77.9,4.5 -77.9,4.5 -76.78,4.5 -76.78,4.5 -75.65,4.5 -75.65,4.5 -74.5,4.5 -74.5,4.5 -73.33,4.5 -73.33,4.5 -72.14,4.5 -72.14,4.49 -70.93,4.49 -70.93,4.49 -69.7,4.49 -69.7,4.48 -68.45,4.48 -68.45,4.44 -67.19,4.44 -67.19,4.36 -65.9,4.36 -65.9,4.18 -64.59,4.18 -64.59,3.83 -63.26,3.83 -63.26,3.24 -61.9,3.24 -61.9,2.31 -60.53,2.31 -60.53,0.93 -59.13,0.93 -59.13,-0.99 -57.7,-0.99 -57.7,-3.52 -56.26,-3.52 -56.26,-6.66 -54.79,-6.66 -54.79,-10.38 -53.29,-10.38 -53.29,-14.56 -51.77,-14.56 -51.77,-19.01 -50.23,-19.01 -50.23,-23.49 -48.65,-23.49 -48.65,-27.68 -47.05,-27.68 -47.05,-31.27 -45.43,-31.27 -45.43,-33.96 -43.77,-33.96 -43.77,-35.47 -42.08,-35.47 -42.08,-35.67 -40.37,-35.67 -40.37,-34.54 -38.63,-34.54 -38.63,-32.18 -36.85,-32.18 -36.85,-28.79 -35.05,-28.79 -35.05,-24.67 -33.21,-24.67 -33.21,-20.14 -31.34,-20.14 -31.34,-15.55 -29.43,-15.55 -29.43,-11.17 -27.49,-11.17 -27.49,-7.23 -25.52,-7.23 -25.52,-3.88 -23.51,-3.88 -23.51,-1.2 -21.46,-1.2 -21.46,0.83 -19.38,0.83 -19.38,2.28 -17.26,2.28 -17.26,3.27 -15.1,3.27 -15.1,3.88 -12.89,3.88 -12.89,4.22 -10.65,4.22 -10.65,4.39 -8.37,4.39 -8.37,4.46 -6.04,4.46 -6.04,4.49 -3.67,4.49 -3.67,4.5 -1.26,4.5 -1.26,4.5 1.21,4.5 1.21,4.5 3.71,4.5 3.71,4.5 6.27,4.5 6.27,4.5 8.88,4.5 8.88,4.5 11.53,4.5 11.53,4.5 14.24,4.5 14.24,4.5 17,4.5 17,4.5 19.82,4.5 19.82,4.5 22.69,4.5 22.69,4.5 25.61,4.5 25.61,4.5 28.6,4.5 28.6,4.5 31.64,4.5 31.64,4.5 34.75,4.5 34.75,4.5 37.91,4.5 37.91,4.5 41.14,4.5 41.14,4.5 44.44,4.5 44.44,4.5 47.8,4.5 47.8,4.5 51.24,4.5 51.24,4.5 54.74,4.5 54.74,4.5 58.31,4.5 58.31,4.5 61.96,4.5 61.96,4.5 65.68,4.5 65.68,4.5 69.49,4.5 69.49,4.5 73.37,4.5 73.37,4.5 77.33,4.5 77.33,4.5 81.37,4.5 81.37,4.5 85.5,4.5 85.5,4.5 89.72,4.5 89.72,4.5 94.03,4.5 94.03,4.5 98.42,4.5 98.42,4.5 102.92,4.5 102.92,4.5 107.5,4.5 107.5,4.5 112.19,4.5 112.19,4.5 116.98,4.5 116.98,4.5 121.87,4.5 121.87,4.5 126.87,4.5 126.87,4.5 131.97,4.5 131.97,4.5 137.19,4.5 137.19,4.5 142.52,4.5 142.52,4.5 147.97,4.5 147.97,4.5 153.54,4.5 153.54,4.5 159.23,4.5 159.23,4.5 165.05,4.5 165.05,4.5 170.99,4.5 170.99,4.5 177.07,4.5 177.07,4.5 183.28,4.5 183.28,4.5 189.63,4.5 189.63,4.5 196.12,4.5 196.12,4.5 202.76,4.5 202.76,4.5 " class="primitive"/>
          </g>
          <g transform="translate(178.28,50.5)" id="img-d6fab2f5-41" stroke-dasharray="none" stroke="#4F94CD" class="color_k_=_2">
            <path fill="none" d="M-100.15,1.21 L-99.37,1.21 -99.37,1.21 -98.58,1.21 -98.58,1.21 -97.78,1.21 -97.78,1.21 -96.97,1.21 -96.97,1.21 -96.15,1.21 -96.15,1.21 -95.31,1.21 -95.31,1.21 -94.46,1.21 -94.46,1.21 -93.6,1.21 -93.6,1.21 -92.73,1.21 -92.73,1.21 -91.84,1.21 -91.84,1.21 -90.94,1.21 -90.94,1.21 -90.03,1.21 -90.03,1.21 -89.1,1.21 -89.1,1.21 -88.16,1.21 -88.16,1.21 -87.2,1.21 -87.2,1.21 -86.23,1.21 -86.23,1.21 -85.25,1.21 -85.25,1.21 -84.24,1.21 -84.24,1.21 -83.23,1.21 -83.23,1.21 -82.19,1.21 -82.19,1.21 -81.15,1.21 -81.15,1.21 -80.08,1.21 -80.08,1.21 -79,1.21 -79,1.21 -77.9,1.21 -77.9,1.21 -76.78,1.21 -76.78,1.21 -75.65,1.21 -75.65,1.21 -74.5,1.21 -74.5,1.21 -73.33,1.21 -73.33,1.21 -72.14,1.21 -72.14,1.21 -70.93,1.21 -70.93,1.21 -69.7,1.21 -69.7,1.2 -68.45,1.2 -68.45,1.18 -67.19,1.18 -67.19,1.12 -65.9,1.12 -65.9,1.01 -64.59,1.01 -64.59,0.82 -63.26,0.82 -63.26,0.52 -61.9,0.52 -61.9,0.08 -60.53,0.08 -60.53,-0.53 -59.13,-0.53 -59.13,-1.33 -57.7,-1.33 -57.7,-2.31 -56.26,-2.31 -56.26,-3.45 -54.79,-3.45 -54.79,-4.69 -53.29,-4.69 -53.29,-5.98 -51.77,-5.98 -51.77,-7.24 -50.23,-7.24 -50.23,-8.37 -48.65,-8.37 -48.65,-9.28 -47.05,-9.28 -47.05,-9.87 -45.43,-9.87 -45.43,-10.07 -43.77,-10.07 -43.77,-9.85 -42.08,-9.85 -42.08,-9.26 -40.37,-9.26 -40.37,-8.34 -38.63,-8.34 -38.63,-7.19 -36.85,-7.19 -36.85,-5.89 -35.05,-5.89 -35.05,-4.54 -33.21,-4.54 -33.21,-3.24 -31.34,-3.24 -31.34,-2.08 -29.43,-2.08 -29.43,-1.11 -27.49,-1.11 -27.49,-0.33 -25.52,-0.33 -25.52,0.25 -23.51,0.25 -23.51,0.66 -21.46,0.66 -21.46,0.93 -19.38,0.93 -19.38,1.08 -17.26,1.08 -17.26,1.16 -15.1,1.16 -15.1,1.2 -12.89,1.2 -12.89,1.21 -10.65,1.21 -10.65,1.21 -8.37,1.21 -8.37,1.21 -6.04,1.21 -6.04,1.21 -3.67,1.21 -3.67,1.21 -1.26,1.21 -1.26,1.21 1.21,1.21 1.21,1.21 3.71,1.21 3.71,1.21 6.27,1.21 6.27,1.21 8.88,1.21 8.88,1.21 11.53,1.21 11.53,1.21 14.24,1.21 14.24,1.21 17,1.21 17,1.21 19.82,1.21 19.82,1.21 22.69,1.21 22.69,1.21 25.61,1.21 25.61,1.21 28.6,1.21 28.6,1.21 31.64,1.21 31.64,1.21 34.75,1.21 34.75,1.21 37.91,1.21 37.91,1.21 41.14,1.21 41.14,1.21 44.44,1.21 44.44,1.21 47.8,1.21 47.8,1.21 51.24,1.21 51.24,1.21 54.74,1.21 54.74,1.21 58.31,1.21 58.31,1.21 61.96,1.21 61.96,1.21 65.68,1.21 65.68,1.21 69.49,1.21 69.49,1.21 73.37,1.21 73.37,1.21 77.33,1.21 77.33,1.21 81.37,1.21 81.37,1.21 85.5,1.21 85.5,1.21 89.72,1.21 89.72,1.21 94.03,1.21 94.03,1.21 98.42,1.21 98.42,1.21 102.92,1.21 102.92,1.21 107.5,1.21 107.5,1.21 112.19,1.21 112.19,1.21 116.98,1.21 116.98,1.21 121.87,1.21 121.87,1.21 126.87,1.21 126.87,1.21 131.97,1.21 131.97,1.21 137.19,1.21 137.19,1.21 142.52,1.21 142.52,1.21 147.97,1.21 147.97,1.21 153.54,1.21 153.54,1.21 159.23,1.21 159.23,1.21 165.05,1.21 165.05,1.21 170.99,1.21 170.99,1.21 177.07,1.21 177.07,1.21 183.28,1.21 183.28,1.21 189.63,1.21 189.63,1.21 196.12,1.21 196.12,1.21 202.76,1.21 202.76,1.21 " class="primitive"/>
          </g>
          <g transform="translate(178.28,48.8)" id="img-d6fab2f5-42" stroke-dasharray="none" stroke="#8B0000" class="color_k_=_1">
            <path fill="none" d="M-100.15,2.92 L-99.37,2.92 -99.37,2.92 -98.58,2.92 -98.58,2.92 -97.78,2.92 -97.78,2.92 -96.97,2.92 -96.97,2.92 -96.15,2.92 -96.15,2.92 -95.31,2.92 -95.31,2.92 -94.46,2.92 -94.46,2.92 -93.6,2.92 -93.6,2.92 -92.73,2.92 -92.73,2.92 -91.84,2.92 -91.84,2.92 -90.94,2.92 -90.94,2.92 -90.03,2.92 -90.03,2.92 -89.1,2.92 -89.1,2.92 -88.16,2.92 -88.16,2.92 -87.2,2.92 -87.2,2.92 -86.23,2.92 -86.23,2.92 -85.25,2.92 -85.25,2.92 -84.24,2.92 -84.24,2.92 -83.23,2.92 -83.23,2.92 -82.19,2.92 -82.19,2.92 -81.15,2.92 -81.15,2.92 -80.08,2.92 -80.08,2.92 -79,2.92 -79,2.92 -77.9,2.92 -77.9,2.92 -76.78,2.92 -76.78,2.92 -75.65,2.92 -75.65,2.92 -74.5,2.92 -74.5,2.92 -73.33,2.92 -73.33,2.92 -72.14,2.92 -72.14,2.92 -70.93,2.92 -70.93,2.92 -69.7,2.92 -69.7,2.92 -68.45,2.92 -68.45,2.92 -67.19,2.92 -67.19,2.9 -65.9,2.9 -65.9,2.85 -64.59,2.85 -64.59,2.71 -63.26,2.71 -63.26,2.44 -61.9,2.44 -61.9,1.97 -60.53,1.97 -60.53,1.23 -59.13,1.23 -59.13,0.16 -57.7,0.16 -57.7,-1.31 -56.26,-1.31 -56.26,-3.22 -54.79,-3.22 -54.79,-5.57 -53.29,-5.57 -53.29,-8.29 -51.77,-8.29 -51.77,-11.25 -50.23,-11.25 -50.23,-14.32 -48.65,-14.32 -48.65,-17.29 -47.05,-17.29 -47.05,-19.94 -45.43,-19.94 -45.43,-22.06 -43.77,-22.06 -43.77,-23.43 -42.08,-23.43 -42.08,-23.89 -40.37,-23.89 -40.37,-23.42 -38.63,-23.42 -38.63,-22.06 -36.85,-22.06 -36.85,-19.94 -35.05,-19.94 -35.05,-17.26 -33.21,-17.26 -33.21,-14.24 -31.34,-14.24 -31.34,-11.1 -29.43,-11.1 -29.43,-8.06 -27.49,-8.06 -27.49,-5.31 -25.52,-5.31 -25.52,-2.94 -23.51,-2.94 -23.51,-1.05 -21.46,-1.05 -21.46,0.39 -19.38,0.39 -19.38,1.42 -17.26,1.42 -17.26,2.11 -15.1,2.11 -15.1,2.54 -12.89,2.54 -12.89,2.77 -10.65,2.77 -10.65,2.87 -8.37,2.87 -8.37,2.9 -6.04,2.9 -6.04,2.92 -3.67,2.92 -3.67,2.92 -1.26,2.92 -1.26,2.92 1.21,2.92 1.21,2.92 3.71,2.92 3.71,2.92 6.27,2.92 6.27,2.92 8.88,2.92 8.88,2.92 11.53,2.92 11.53,2.92 14.24,2.92 14.24,2.92 17,2.92 17,2.92 19.82,2.92 19.82,2.92 22.69,2.92 22.69,2.92 25.61,2.92 25.61,2.92 28.6,2.92 28.6,2.92 31.64,2.92 31.64,2.92 34.75,2.92 34.75,2.92 37.91,2.92 37.91,2.92 41.14,2.92 41.14,2.92 44.44,2.92 44.44,2.92 47.8,2.92 47.8,2.92 51.24,2.92 51.24,2.92 54.74,2.92 54.74,2.92 58.31,2.92 58.31,2.92 61.96,2.92 61.96,2.92 65.68,2.92 65.68,2.92 69.49,2.92 69.49,2.92 73.37,2.92 73.37,2.92 77.33,2.92 77.33,2.92 81.37,2.92 81.37,2.92 85.5,2.92 85.5,2.92 89.72,2.92 89.72,2.92 94.03,2.92 94.03,2.92 98.42,2.92 98.42,2.92 102.92,2.92 102.92,2.92 107.5,2.92 107.5,2.92 112.19,2.92 112.19,2.92 116.98,2.92 116.98,2.92 121.87,2.92 121.87,2.92 126.87,2.92 126.87,2.92 131.97,2.92 131.97,2.92 137.19,2.92 137.19,2.92 142.52,2.92 142.52,2.92 147.97,2.92 147.97,2.92 153.54,2.92 153.54,2.92 159.23,2.92 159.23,2.92 165.05,2.92 165.05,2.92 170.99,2.92 170.99,2.92 177.07,2.92 177.07,2.92 183.28,2.92 183.28,2.92 189.63,2.92 189.63,2.92 196.12,2.92 196.12,2.92 202.76,2.92 202.76,2.92 " class="primitive"/>
          </g>
          <g transform="translate(178.28,51.32)" id="img-d6fab2f5-43" stroke-dasharray="none" stroke="#B8860B" class="color_k_=_3">
            <path fill="none" d="M-100.15,0.39 L-99.37,0.39 -99.37,0.39 -98.58,0.39 -98.58,0.39 -97.78,0.39 -97.78,0.39 -96.97,0.39 -96.97,0.39 -96.15,0.39 -96.15,0.39 -95.31,0.39 -95.31,0.39 -94.46,0.39 -94.46,0.39 -93.6,0.39 -93.6,0.39 -92.73,0.39 -92.73,0.39 -91.84,0.39 -91.84,0.39 -90.94,0.39 -90.94,0.39 -90.03,0.39 -90.03,0.39 -89.1,0.39 -89.1,0.39 -88.16,0.39 -88.16,0.39 -87.2,0.39 -87.2,0.39 -86.23,0.39 -86.23,0.39 -85.25,0.39 -85.25,0.39 -84.24,0.39 -84.24,0.39 -83.23,0.39 -83.23,0.39 -82.19,0.39 -82.19,0.39 -81.15,0.39 -81.15,0.39 -80.08,0.39 -80.08,0.39 -79,0.39 -79,0.39 -77.9,0.39 -77.9,0.39 -76.78,0.39 -76.78,0.39 -75.65,0.39 -75.65,0.39 -74.5,0.39 -74.5,0.39 -73.33,0.39 -73.33,0.39 -72.14,0.39 -72.14,0.39 -70.93,0.39 -70.93,0.38 -69.7,0.38 -69.7,0.37 -68.45,0.37 -68.45,0.34 -67.19,0.34 -67.19,0.29 -65.9,0.29 -65.9,0.2 -64.59,0.2 -64.59,0.08 -63.26,0.08 -63.26,-0.1 -61.9,-0.1 -61.9,-0.34 -60.53,-0.34 -60.53,-0.63 -59.13,-0.63 -59.13,-0.98 -57.7,-0.98 -57.7,-1.37 -56.26,-1.37 -56.26,-1.78 -54.79,-1.78 -54.79,-2.19 -53.29,-2.19 -53.29,-2.58 -51.77,-2.58 -51.77,-2.89 -50.23,-2.89 -50.23,-3.12 -48.65,-3.12 -48.65,-3.23 -47.05,-3.23 -47.05,-3.21 -45.43,-3.21 -45.43,-3.07 -43.77,-3.07 -43.77,-2.81 -42.08,-2.81 -42.08,-2.46 -40.37,-2.46 -40.37,-2.05 -38.63,-2.05 -38.63,-1.61 -36.85,-1.61 -36.85,-1.18 -35.05,-1.18 -35.05,-0.79 -33.21,-0.79 -33.21,-0.45 -31.34,-0.45 -31.34,-0.17 -29.43,-0.17 -29.43,0.04 -27.49,0.04 -27.49,0.18 -25.52,0.18 -25.52,0.28 -23.51,0.28 -23.51,0.34 -21.46,0.34 -21.46,0.37 -19.38,0.37 -19.38,0.38 -17.26,0.38 -17.26,0.39 -15.1,0.39 -15.1,0.39 -12.89,0.39 -12.89,0.39 -10.65,0.39 -10.65,0.39 -8.37,0.39 -8.37,0.39 -6.04,0.39 -6.04,0.39 -3.67,0.39 -3.67,0.39 -1.26,0.39 -1.26,0.39 1.21,0.39 1.21,0.39 3.71,0.39 3.71,0.39 6.27,0.39 6.27,0.39 8.88,0.39 8.88,0.39 11.53,0.39 11.53,0.39 14.24,0.39 14.24,0.39 17,0.39 17,0.39 19.82,0.39 19.82,0.39 22.69,0.39 22.69,0.39 25.61,0.39 25.61,0.39 28.6,0.39 28.6,0.39 31.64,0.39 31.64,0.39 34.75,0.39 34.75,0.39 37.91,0.39 37.91,0.39 41.14,0.39 41.14,0.39 44.44,0.39 44.44,0.39 47.8,0.39 47.8,0.39 51.24,0.39 51.24,0.39 54.74,0.39 54.74,0.39 58.31,0.39 58.31,0.39 61.96,0.39 61.96,0.39 65.68,0.39 65.68,0.39 69.49,0.39 69.49,0.39 73.37,0.39 73.37,0.39 77.33,0.39 77.33,0.39 81.37,0.39 81.37,0.39 85.5,0.39 85.5,0.39 89.72,0.39 89.72,0.39 94.03,0.39 94.03,0.39 98.42,0.39 98.42,0.39 102.92,0.39 102.92,0.39 107.5,0.39 107.5,0.39 112.19,0.39 112.19,0.39 116.98,0.39 116.98,0.39 121.87,0.39 121.87,0.39 126.87,0.39 126.87,0.39 131.97,0.39 131.97,0.39 137.19,0.39 137.19,0.39 142.52,0.39 142.52,0.39 147.97,0.39 147.97,0.39 153.54,0.39 153.54,0.39 159.23,0.39 159.23,0.39 165.05,0.39 165.05,0.39 170.99,0.39 170.99,0.39 177.07,0.39 177.07,0.39 183.28,0.39 183.28,0.39 189.63,0.39 189.63,0.39 196.12,0.39 196.12,0.39 202.76,0.39 202.76,0.39 " class="primitive"/>
          </g>
        </g>
      </g>
    </g>
  </g>
  <g class="guide ylabels" font-size="2.82" font-family="'PT Sans Caption','Helvetica Neue','Helvetica',sans-serif" fill="#6C606B" id="img-d6fab2f5-44">
    <g transform="translate(103.96,51.72)" id="img-d6fab2f5-45">
      <g class="primitive">
        <text text-anchor="end" dy="0.35em">0</text>
      </g>
    </g>
    <g transform="translate(103.96,42.17)" id="img-d6fab2f5-46">
      <g class="primitive">
        <text text-anchor="end" dy="0.35em">5</text>
      </g>
    </g>
    <g transform="translate(103.96,32.63)" id="img-d6fab2f5-47">
      <g class="primitive">
        <text text-anchor="end" dy="0.35em">10</text>
      </g>
    </g>
    <g transform="translate(103.96,23.09)" id="img-d6fab2f5-48">
      <g class="primitive">
        <text text-anchor="end" dy="0.35em">15</text>
      </g>
    </g>
    <g transform="translate(103.96,13.54)" id="img-d6fab2f5-49">
      <g class="primitive">
        <text text-anchor="end" dy="0.35em">20</text>
      </g>
    </g>
    <g transform="translate(103.96,4)" id="img-d6fab2f5-50">
      <g class="primitive">
        <text text-anchor="end" dy="0.35em">25</text>
      </g>
    </g>
  </g>
  <g font-size="3.88" font-family="'PT Sans','Helvetica Neue','Helvetica',sans-serif" fill="#564A55" stroke="#000000" stroke-opacity="0.000" id="img-d6fab2f5-51">
    <g transform="translate(95.81,25.86)" id="img-d6fab2f5-52">
      <g class="primitive">
        <text text-anchor="middle" dy="0.35em" transform="rotate(-90,0, 2)">Concentration (cm⁻³)</text>
      </g>
    </g>
  </g>
</g>
<g class="plotroot xscalable yscalable" id="img-d6fab2f5-53">
  <g font-size="3.88" font-family="'PT Sans','Helvetica Neue','Helvetica',sans-serif" fill="#564A55" stroke="#000000" stroke-opacity="0.000" id="img-d6fab2f5-54">
    <g transform="translate(47.7,61.39)" id="img-d6fab2f5-55">
      <g class="primitive">
        <text text-anchor="middle" dy="0.6em">Growth Factor (-)</text>
      </g>
    </g>
  </g>
  <g class="guide xlabels" font-size="2.82" font-family="'PT Sans Caption','Helvetica Neue','Helvetica',sans-serif" fill="#6C606B" id="img-d6fab2f5-56">
    <g transform="translate(16.96,54.72)" id="img-d6fab2f5-57">
      <g class="primitive">
        <text text-anchor="middle" dy="0.6em"></text>
      </g>
    </g>
    <g transform="translate(20.57,54.72)" id="img-d6fab2f5-58">
      <g class="primitive">
        <text text-anchor="middle" dy="0.6em"></text>
      </g>
    </g>
    <g transform="translate(24.19,54.72)" id="img-d6fab2f5-59">
      <g class="primitive">
        <text text-anchor="middle" dy="0.6em">1.0</text>
      </g>
    </g>
    <g transform="translate(27.81,54.72)" id="img-d6fab2f5-60">
      <g class="primitive">
        <text text-anchor="middle" dy="0.6em"></text>
      </g>
    </g>
    <g transform="translate(31.42,54.72)" id="img-d6fab2f5-61">
      <g class="primitive">
        <text text-anchor="middle" dy="0.6em"></text>
      </g>
    </g>
    <g transform="translate(35.04,54.72)" id="img-d6fab2f5-62">
      <g class="primitive">
        <text text-anchor="middle" dy="0.6em"></text>
      </g>
    </g>
    <g transform="translate(38.66,54.72)" id="img-d6fab2f5-63">
      <g class="primitive">
        <text text-anchor="middle" dy="0.6em"></text>
      </g>
    </g>
    <g transform="translate(42.27,54.72)" id="img-d6fab2f5-64">
      <g class="primitive">
        <text text-anchor="middle" dy="0.6em">1.5</text>
      </g>
    </g>
    <g transform="translate(45.89,54.72)" id="img-d6fab2f5-65">
      <g class="primitive">
        <text text-anchor="middle" dy="0.6em"></text>
      </g>
    </g>
    <g transform="translate(49.51,54.72)" id="img-d6fab2f5-66">
      <g class="primitive">
        <text text-anchor="middle" dy="0.6em"></text>
      </g>
    </g>
    <g transform="translate(53.12,54.72)" id="img-d6fab2f5-67">
      <g class="primitive">
        <text text-anchor="middle" dy="0.6em"></text>
      </g>
    </g>
    <g transform="translate(56.74,54.72)" id="img-d6fab2f5-68">
      <g class="primitive">
        <text text-anchor="middle" dy="0.6em"></text>
      </g>
    </g>
    <g transform="translate(60.35,54.72)" id="img-d6fab2f5-69">
      <g class="primitive">
        <text text-anchor="middle" dy="0.6em">2.0</text>
      </g>
    </g>
    <g transform="translate(63.97,54.72)" id="img-d6fab2f5-70">
      <g class="primitive">
        <text text-anchor="middle" dy="0.6em"></text>
      </g>
    </g>
    <g transform="translate(67.59,54.72)" id="img-d6fab2f5-71">
      <g class="primitive">
        <text text-anchor="middle" dy="0.6em"></text>
      </g>
    </g>
    <g transform="translate(71.2,54.72)" id="img-d6fab2f5-72">
      <g class="primitive">
        <text text-anchor="middle" dy="0.6em"></text>
      </g>
    </g>
    <g transform="translate(74.82,54.72)" id="img-d6fab2f5-73">
      <g class="primitive">
        <text text-anchor="middle" dy="0.6em"></text>
      </g>
    </g>
    <g transform="translate(78.44,54.72)" id="img-d6fab2f5-74">
      <g class="primitive">
        <text text-anchor="middle" dy="0.6em">2.5</text>
      </g>
    </g>
  </g>
  <g class="guide colorkey" id="img-d6fab2f5-75">
    <g class="color_Pg" id="img-d6fab2f5-76">
      <g fill="#4C404B" font-size="2.82" font-family="'PT Sans','Helvetica Neue','Helvetica',sans-serif" id="img-d6fab2f5-77">
        <g transform="translate(84.91,30.33)" id="img-d6fab2f5-78">
          <g class="primitive">
            <text dy="0.35em">P<tspan dy="0.4em" font-size="83%">g</tspan></text>
          </g>
        </g>
      </g>
      <g fill-opacity="1" fill="#000000" stroke="#FFFFFF" id="img-d6fab2f5-79">
        <g transform="translate(82.67,30.33)" id="img-d6fab2f5-80">
          <path d="M-1.24,-1.24 L1.24,-1.24 1.24,1.24 -1.24,1.24  z" class="primitive"/>
        </g>
      </g>
    </g>
    <g fill="#362A35" font-size="3.88" font-family="'PT Sans','Helvetica Neue','Helvetica',sans-serif" stroke="#000000" stroke-opacity="0.000" id="img-d6fab2f5-81">
      <g transform="translate(81.44,25.19)" id="img-d6fab2f5-82">
        <g class="primitive">
          <text dy="-0em"></text>
        </g>
      </g>
    </g>
  </g>
  <g clip-path="url(#img-d6fab2f5-83)">
    <g id="img-d6fab2f5-84">
      <g pointer-events="visible" stroke-width="0.3" fill="#000000" fill-opacity="0.000" stroke="#000000" stroke-opacity="0.000" class="guide background" id="img-d6fab2f5-85">
        <g transform="translate(47.7,27.86)" id="img-d6fab2f5-86">
          <path d="M-32.74,-25.86 L32.74,-25.86 32.74,25.86 -32.74,25.86  z" class="primitive"/>
        </g>
      </g>
      <g class="guide ygridlines xfixed" stroke-dasharray="0.5,0.5" stroke-width="0.2" stroke="#D0D0E0" id="img-d6fab2f5-87">
        <g transform="translate(47.7,51.72)" id="img-d6fab2f5-88">
          <path fill="none" d="M-32.74,0 L32.74,0 " class="primitive"/>
        </g>
        <g transform="translate(47.7,42.17)" id="img-d6fab2f5-89">
          <path fill="none" d="M-32.74,0 L32.74,0 " class="primitive"/>
        </g>
        <g transform="translate(47.7,32.63)" id="img-d6fab2f5-90">
          <path fill="none" d="M-32.74,0 L32.74,0 " class="primitive"/>
        </g>
        <g transform="translate(47.7,23.09)" id="img-d6fab2f5-91">
          <path fill="none" d="M-32.74,0 L32.74,0 " class="primitive"/>
        </g>
        <g transform="translate(47.7,13.54)" id="img-d6fab2f5-92">
          <path fill="none" d="M-32.74,0 L32.74,0 " class="primitive"/>
        </g>
        <g transform="translate(47.7,4)" id="img-d6fab2f5-93">
          <path fill="none" d="M-32.74,0 L32.74,0 " class="primitive"/>
        </g>
      </g>
      <g class="guide xgridlines yfixed" stroke-dasharray="0.5,0.5" stroke-width="0.2" stroke="#D0D0E0" id="img-d6fab2f5-94">
        <g transform="translate(16.96,27.86)" id="img-d6fab2f5-95">
          <path fill="none" d="M0,-25.86 L0,25.86 " class="primitive"/>
        </g>
        <g transform="translate(20.57,27.86)" id="img-d6fab2f5-96">
          <path fill="none" d="M0,-25.86 L0,25.86 " class="primitive"/>
        </g>
        <g transform="translate(24.19,27.86)" id="img-d6fab2f5-97">
          <path fill="none" d="M0,-25.86 L0,25.86 " class="primitive"/>
        </g>
        <g transform="translate(27.81,27.86)" id="img-d6fab2f5-98">
          <path fill="none" d="M0,-25.86 L0,25.86 " class="primitive"/>
        </g>
        <g transform="translate(31.42,27.86)" id="img-d6fab2f5-99">
          <path fill="none" d="M0,-25.86 L0,25.86 " class="primitive"/>
        </g>
        <g transform="translate(35.04,27.86)" id="img-d6fab2f5-100">
          <path fill="none" d="M0,-25.86 L0,25.86 " class="primitive"/>
        </g>
        <g transform="translate(38.66,27.86)" id="img-d6fab2f5-101">
          <path fill="none" d="M0,-25.86 L0,25.86 " class="primitive"/>
        </g>
        <g transform="translate(42.27,27.86)" id="img-d6fab2f5-102">
          <path fill="none" d="M0,-25.86 L0,25.86 " class="primitive"/>
        </g>
        <g transform="translate(45.89,27.86)" id="img-d6fab2f5-103">
          <path fill="none" d="M0,-25.86 L0,25.86 " class="primitive"/>
        </g>
        <g transform="translate(49.51,27.86)" id="img-d6fab2f5-104">
          <path fill="none" d="M0,-25.86 L0,25.86 " class="primitive"/>
        </g>
        <g transform="translate(53.12,27.86)" id="img-d6fab2f5-105">
          <path fill="none" d="M0,-25.86 L0,25.86 " class="primitive"/>
        </g>
        <g transform="translate(56.74,27.86)" id="img-d6fab2f5-106">
          <path fill="none" d="M0,-25.86 L0,25.86 " class="primitive"/>
        </g>
        <g transform="translate(60.35,27.86)" id="img-d6fab2f5-107">
          <path fill="none" d="M0,-25.86 L0,25.86 " class="primitive"/>
        </g>
        <g transform="translate(63.97,27.86)" id="img-d6fab2f5-108">
          <path fill="none" d="M0,-25.86 L0,25.86 " class="primitive"/>
        </g>
        <g transform="translate(67.59,27.86)" id="img-d6fab2f5-109">
          <path fill="none" d="M0,-25.86 L0,25.86 " class="primitive"/>
        </g>
        <g transform="translate(71.2,27.86)" id="img-d6fab2f5-110">
          <path fill="none" d="M0,-25.86 L0,25.86 " class="primitive"/>
        </g>
        <g transform="translate(74.82,27.86)" id="img-d6fab2f5-111">
          <path fill="none" d="M0,-25.86 L0,25.86 " class="primitive"/>
        </g>
        <g transform="translate(78.44,27.86)" id="img-d6fab2f5-112">
          <path fill="none" d="M0,-25.86 L0,25.86 " class="primitive"/>
        </g>
      </g>
      <g class="plotpanel" id="img-d6fab2f5-113">
        <metadata>
          <boundingbox value="14.958333333333329mm 2.0mm 65.47833333333334mm 51.715mm"/>
          <unitbox value="0.7446959633475209 52.095777009326206 1.8106080733049585 -54.19155401865241"/>
        </metadata>
        <g stroke-width="0.3" fill="#000000" fill-opacity="0.000" class="geometry" id="img-d6fab2f5-114">
          <g class="color_Pg" stroke-dasharray="none" stroke="#000000" id="img-d6fab2f5-115">
            <g transform="translate(66.75,51.37)" id="img-d6fab2f5-116">
              <path fill="none" d="M-49.6,0.34 L-49.22,0.34 -49.22,0.34 -48.83,0.34 -48.83,0.34 -48.43,0.34 -48.43,0.34 -48.03,0.34 -48.03,0.34 -47.62,0.34 -47.62,0.34 -47.21,0.34 -47.21,0.34 -46.79,0.34 -46.79,0.34 -46.36,0.34 -46.36,0.34 -45.93,0.34 -45.93,0.34 -45.49,0.34 -45.49,0.34 -45.04,0.34 -45.04,0.34 -44.59,0.34 -44.59,0.34 -44.13,0.34 -44.13,0.34 -43.66,0.34 -43.66,0.34 -43.19,0.34 -43.19,0.34 -42.71,0.34 -42.71,0.34 -42.22,0.34 -42.22,0.34 -41.73,0.34 -41.73,0.34 -41.22,0.34 -41.22,0.34 -40.71,0.34 -40.71,0.34 -40.19,0.34 -40.19,0.34 -39.66,0.34 -39.66,0.34 -39.13,0.34 -39.13,0.34 -38.58,0.34 -38.58,0.34 -38.03,0.34 -38.03,0.34 -37.47,0.34 -37.47,0.34 -36.9,0.34 -36.9,0.34 -36.32,0.34 -36.32,0.34 -35.73,0.34 -35.73,0.34 -35.13,0.34 -35.13,0.34 -34.52,0.34 -34.52,0.34 -33.9,0.34 -33.9,0.34 -33.28,0.34 -33.28,0.34 -32.64,0.34 -32.64,0.34 -31.99,0.34 -31.99,0.34 -31.33,0.34 -31.33,0.34 -30.66,0.34 -30.66,0.34 -29.98,0.34 -29.98,0.34 -29.29,0.34 -29.29,0.34 -28.58,0.34 -28.58,0.34 -27.86,0.34 -27.86,0.34 -27.14,0.34 -27.14,0.34 -26.4,0.34 -26.4,0.34 -25.64,0.34 -25.64,0.34 -24.88,0.34 -24.88,0.34 -24.1,0.34 -24.1,0.34 -23.3,0.34 -23.3,0.34 -22.5,0.34 -22.5,0.34 -21.68,0.34 -21.68,0.34 -20.84,0.34 -20.84,-40.66 -20,-40.66 -20,0.34 -19.13,0.34 -19.13,0.34 -18.25,0.34 -18.25,0.34 -17.36,0.34 -17.36,0.34 -16.45,0.34 -16.45,0.34 -15.52,0.34 -15.52,0.34 -14.58,0.34 -14.58,0.34 -13.62,0.34 -13.62,0.34 -12.64,0.34 -12.64,0.34 -11.64,0.34 -11.64,0.34 -10.63,0.34 -10.63,0.34 -9.6,0.34 -9.6,0.34 -8.55,0.34 -8.55,0.34 -7.48,0.34 -7.48,0.34 -6.39,0.34 -6.39,0.34 -5.28,0.34 -5.28,0.34 -4.15,0.34 -4.15,0.34 -2.99,0.34 -2.99,0.34 -1.82,0.34 -1.82,0.34 -0.62,0.34 -0.62,0.34 0.6,0.34 0.6,0.34 1.84,0.34 1.84,0.34 3.11,0.34 3.11,0.34 4.4,0.34 4.4,0.34 5.71,0.34 5.71,0.34 7.05,0.34 7.05,0.34 8.42,0.34 8.42,0.34 9.81,0.34 9.81,0.34 11.24,0.34 11.24,0.34 12.69,0.34 12.69,0.34 14.16,0.34 14.16,0.34 15.67,0.34 15.67,0.34 17.21,0.34 17.21,0.34 18.78,0.34 18.78,0.34 20.38,0.34 20.38,0.34 22.01,0.34 22.01,0.34 23.68,0.34 23.68,0.34 25.38,0.34 25.38,0.34 27.11,0.34 27.11,0.34 28.88,0.34 28.88,0.34 30.69,0.34 30.69,0.34 32.53,0.34 32.53,0.34 34.42,0.34 34.42,0.34 36.34,0.34 36.34,0.34 38.3,0.34 38.3,0.34 40.3,0.34 40.3,0.34 42.35,0.34 42.35,0.34 44.44,0.34 44.44,0.34 46.57,0.34 46.57,0.34 48.75,0.34 48.75,0.34 50.97,0.34 50.97,0.34 53.25,0.34 53.25,0.34 55.57,0.34 55.57,0.34 57.94,0.34 57.94,0.34 60.36,0.34 60.36,0.34 62.84,0.34 62.84,0.34 65.37,0.34 65.37,0.34 67.95,0.34 67.95,0.34 70.59,0.34 70.59,0.34 73.29,0.34 73.29,0.34 76.05,0.34 76.05,0.34 78.87,0.34 78.87,0.34 81.75,0.34 81.75,0.34 84.69,0.34 84.69,0.34 87.7,0.34 87.7,0.34 90.78,0.34 90.78,0.34 93.92,0.34 93.92,0.34 97.14,0.34 97.14,0.34 100.42,0.34 100.42,0.34 " class="primitive"/>
            </g>
          </g>
        </g>
      </g>
    </g>
  </g>
  <g class="guide ylabels" font-size="2.82" font-family="'PT Sans Caption','Helvetica Neue','Helvetica',sans-serif" fill="#6C606B" id="img-d6fab2f5-117">
    <g transform="translate(13.96,51.72)" id="img-d6fab2f5-118">
      <g class="primitive">
        <text text-anchor="end" dy="0.35em">0</text>
      </g>
    </g>
    <g transform="translate(13.96,42.17)" id="img-d6fab2f5-119">
      <g class="primitive">
        <text text-anchor="end" dy="0.35em">10</text>
      </g>
    </g>
    <g transform="translate(13.96,32.63)" id="img-d6fab2f5-120">
      <g class="primitive">
        <text text-anchor="end" dy="0.35em">20</text>
      </g>
    </g>
    <g transform="translate(13.96,23.09)" id="img-d6fab2f5-121">
      <g class="primitive">
        <text text-anchor="end" dy="0.35em">30</text>
      </g>
    </g>
    <g transform="translate(13.96,13.54)" id="img-d6fab2f5-122">
      <g class="primitive">
        <text text-anchor="end" dy="0.35em">40</text>
      </g>
    </g>
    <g transform="translate(13.96,4)" id="img-d6fab2f5-123">
      <g class="primitive">
        <text text-anchor="end" dy="0.35em">50</text>
      </g>
    </g>
  </g>
  <g font-size="3.88" font-family="'PT Sans','Helvetica Neue','Helvetica',sans-serif" fill="#564A55" stroke="#000000" stroke-opacity="0.000" id="img-d6fab2f5-124">
    <g transform="translate(5.81,25.86)" id="img-d6fab2f5-125">
      <g class="primitive">
        <text text-anchor="middle" dy="0.35em" transform="rotate(-90,0, 2)">Probability Density (-)</text>
      </g>
    </g>
  </g>
</g>
<defs>
  <clipPath id="img-d6fab2f5-17">
    <path d="M104.96,2 L167.37,2 167.37,53.72 104.96,53.72 " />
  </clipPath>
  <clipPath id="img-d6fab2f5-83">
    <path d="M14.96,2 L80.44,2 80.44,53.72 14.96,53.72 " />
  </clipPath>
</defs>
</svg>
