<?xml version="1.0" encoding="UTF-8"?>
<svg xmlns="http://www.w3.org/2000/svg"
     xmlns:xlink="http://www.w3.org/1999/xlink"
     xmlns:gadfly="http://www.gadflyjl.org/ns"
     version="1.2"
     width="180mm" height="70mm" viewBox="0 0 180 70"
     stroke="none"
     fill="#000000"
     stroke-width="0.3"
     font-size="3.88"
>
<defs>
  <marker id="arrow" markerWidth="15" markerHeight="7" refX="5" refY="3.5" orient="auto" markerUnits="strokeWidth">
    <path d="M0,0 L15,3.5 L0,7 z" stroke="context-stroke" fill="context-stroke"/>
  </marker>
</defs>
<g class="plotroot xscalable yscalable" id="img-1603cc5e-1">
  <g font-size="3.88" font-family="'PT Sans','Helvetica Neue','Helvetica',sans-serif" fill="#564A55" stroke="#000000" stroke-opacity="0.000" id="img-1603cc5e-2">
    <g transform="translate(135.17,61.39)">
      <g class="primitive">
        <text text-anchor="middle" dy="0.6em">Apparent Growth Factor (-)</text>
      </g>
    </g>
  </g>
  <g class="guide xlabels" font-size="2.82" font-family="'PT Sans Caption','Helvetica Neue','Helvetica',sans-serif" fill="#6C606B" id="img-1603cc5e-3">
    <g transform="translate(106.96,54.71)">
      <g class="primitive">
        <text text-anchor="middle" dy="0.6em">1.2</text>
      </g>
    </g>
    <g transform="translate(114.01,54.71)">
      <g class="primitive">
        <text text-anchor="middle" dy="0.6em"></text>
      </g>
    </g>
    <g transform="translate(121.07,54.71)">
      <g class="primitive">
        <text text-anchor="middle" dy="0.6em">1.4</text>
      </g>
    </g>
    <g transform="translate(128.12,54.71)">
      <g class="primitive">
        <text text-anchor="middle" dy="0.6em"></text>
      </g>
    </g>
    <g transform="translate(135.17,54.71)">
      <g class="primitive">
        <text text-anchor="middle" dy="0.6em">1.6</text>
      </g>
    </g>
    <g transform="translate(142.23,54.71)">
      <g class="primitive">
        <text text-anchor="middle" dy="0.6em"></text>
      </g>
    </g>
    <g transform="translate(149.28,54.71)">
      <g class="primitive">
        <text text-anchor="middle" dy="0.6em">1.8</text>
      </g>
    </g>
    <g transform="translate(156.34,54.71)">
      <g class="primitive">
        <text text-anchor="middle" dy="0.6em"></text>
      </g>
    </g>
    <g transform="translate(163.39,54.71)">
      <g class="primitive">
        <text text-anchor="middle" dy="0.6em">2.0</text>
      </g>
    </g>
  </g>
  <g class="guide colorkey" id="img-1603cc5e-4">
    <g fill="#4C404B" font-size="2.82" font-family="'PT Sans','Helvetica Neue','Helvetica',sans-serif" id="img-1603cc5e-5">
      <g transform="translate(169.86,22.92)" id="img-1603cc5e-6" class="color_𝐀₂Pgf">
        <g class="primitive">
          <text dy="0.35em">𝐀₂P<tspan dy="0.4em" font-size="83%">gf</tspan></text>
        </g>
      </g>
      <g transform="translate(169.86,27.86)" id="img-1603cc5e-7" class="color_k_=_1">
        <g class="primitive">
          <text dy="0.35em">k = 1</text>
        </g>
      </g>
      <g transform="translate(169.86,32.8)" id="img-1603cc5e-8" class="color_k_=_2">
        <g class="primitive">
          <text dy="0.35em">k = 2</text>
        </g>
      </g>
      <g transform="translate(169.86,37.74)" id="img-1603cc5e-9" class="color_k_=_3">
        <g class="primitive">
          <text dy="0.35em">k = 3</text>
        </g>
      </g>
    </g>
    <g fill-opacity="1" id="img-1603cc5e-10">
      <g transform="translate(167.62,22.92)" id="img-1603cc5e-11" class="color_𝐀₂Pgf" fill="#000000" stroke="#FFFFFF">
        <path d="M-1.24,-1.24 L1.24,-1.24 1.24,1.24 -1.24,1.24  z" class="primitive"/>
      </g>
      <g transform="translate(167.62,27.86)" id="img-1603cc5e-12" class="color_k_=_1" fill="#8B0000" stroke="#FFFFFF">
        <path d="M-1.24,-1.24 L1.24,-1.24 1.24,1.24 -1.24,1.24  z" class="primitive"/>
      </g>
      <g transform="translate(167.62,32.8)" id="img-1603cc5e-13" class="color_k_=_2" fill="#4F94CD" stroke="#FFFFFF">
        <path d="M-1.24,-1.24 L1.24,-1.24 1.24,1.24 -1.24,1.24  z" class="primitive"/>
      </g>
      <g transform="translate(167.62,37.74)" id="img-1603cc5e-14" class="color_k_=_3" fill="#B8860B" stroke="#FFFFFF">
        <path d="M-1.24,-1.24 L1.24,-1.24 1.24,1.24 -1.24,1.24  z" class="primitive"/>
      </g>
    </g>
    <g fill="#362A35" font-size="3.88" font-family="'PT Sans','Helvetica Neue','Helvetica',sans-serif" stroke="#000000" stroke-opacity="0.000" id="img-1603cc5e-15">
      <g transform="translate(166.39,17.78)" id="img-1603cc5e-16">
        <g class="primitive">
          <text dy="-0em"></text>
        </g>
      </g>
    </g>
  </g>
  <g clip-path="url(#img-1603cc5e-17)">
    <g id="img-1603cc5e-18">
      <g pointer-events="visible" stroke-width="0.3" fill="#000000" fill-opacity="0.000" stroke="#000000" stroke-opacity="0.000" class="guide background" id="img-1603cc5e-19">
        <g transform="translate(135.17,27.86)" id="img-1603cc5e-20">
          <path d="M-30.22,-25.86 L30.22,-25.86 30.22,25.86 -30.22,25.86  z" class="primitive"/>
        </g>
      </g>
      <g class="guide ygridlines xfixed" stroke-dasharray="0.5,0.5" stroke-width="0.2" stroke="#D0D0E0" id="img-1603cc5e-21">
        <g transform="translate(135.17,51.71)" id="img-1603cc5e-22">
          <path fill="none" d="M-30.22,0 L30.22,0 " class="primitive"/>
        </g>
        <g transform="translate(135.17,42.17)" id="img-1603cc5e-23">
          <path fill="none" d="M-30.22,0 L30.22,0 " class="primitive"/>
        </g>
        <g transform="translate(135.17,32.63)" id="img-1603cc5e-24">
          <path fill="none" d="M-30.22,0 L30.22,0 " class="primitive"/>
        </g>
        <g transform="translate(135.17,23.09)" id="img-1603cc5e-25">
          <path fill="none" d="M-30.22,0 L30.22,0 " class="primitive"/>
        </g>
        <g transform="translate(135.17,13.54)" id="img-1603cc5e-26">
          <path fill="none" d="M-30.22,0 L30.22,0 " class="primitive"/>
        </g>
        <g transform="translate(135.17,4)" id="img-1603cc5e-27">
          <path fill="none" d="M-30.22,0 L30.22,0 " class="primitive"/>
        </g>
      </g>
      <g class="guide xgridlines yfixed" stroke-dasharray="0.5,0.5" stroke-width="0.2" stroke="#D0D0E0" id="img-1603cc5e-28">
        <g transform="translate(106.96,27.86)" id="img-1603cc5e-29">
          <path fill="none" d="M0,-25.86 L0,25.86 " class="primitive"/>
        </g>
        <g transform="translate(114.01,27.86)" id="img-1603cc5e-30">
          <path fill="none" d="M0,-25.86 L0,25.86 " class="primitive"/>
        </g>
        <g transform="translate(121.07,27.86)" id="img-1603cc5e-31">
          <path fill="none" d="M0,-25.86 L0,25.86 " class="primitive"/>
        </g>
        <g transform="translate(128.12,27.86)" id="img-1603cc5e-32">
          <path fill="none" d="M0,-25.86 L0,25.86 " class="primitive"/>
        </g>
        <g transform="translate(135.17,27.86)" id="img-1603cc5e-33">
          <path fill="none" d="M0,-25.86 L0,25.86 " class="primitive"/>
        </g>
        <g transform="translate(142.23,27.86)" id="img-1603cc5e-34">
          <path fill="none" d="M0,-25.86 L0,25.86 " class="primitive"/>
        </g>
        <g transform="translate(149.28,27.86)" id="img-1603cc5e-35">
          <path fill="none" d="M0,-25.86 L0,25.86 " class="primitive"/>
        </g>
        <g transform="translate(156.34,27.86)" id="img-1603cc5e-36">
          <path fill="none" d="M0,-25.86 L0,25.86 " class="primitive"/>
        </g>
        <g transform="translate(163.39,27.86)" id="img-1603cc5e-37">
          <path fill="none" d="M0,-25.86 L0,25.86 " class="primitive"/>
        </g>
      </g>
      <g class="plotpanel" id="img-1603cc5e-38">
        <metadata>
          <boundingbox value="104.95833333333334mm 2.0mm 60.431666666666665mm 51.714999999999996mm"/>
          <unitbox value="1.1716471248412534 26.047888504663103 0.8567057503174932 -27.095777009326206"/>
        </metadata>
        <g stroke-width="0.3" fill="#000000" fill-opacity="0.000" class="geometry" id="img-1603cc5e-39">
          <g transform="translate(125.98,43.76)" id="img-1603cc5e-40" stroke="#000000" class="color_𝐀₂Pgf" stroke-dasharray="none">
            <path fill="none" d="M-46.74,7.95 L-45.74,7.95 -45.74,7.95 -44.72,7.95 -44.72,7.95 -43.68,7.95 -43.68,7.95 -42.61,7.95 -42.61,7.95 -41.53,7.95 -41.53,7.95 -40.42,7.95 -40.42,7.95 -39.3,7.95 -39.3,7.95 -38.14,7.95 -38.14,7.95 -36.97,7.95 -36.97,7.95 -35.77,7.95 -35.77,7.95 -34.55,7.95 -34.55,7.95 -33.3,7.95 -33.3,7.95 -32.03,7.95 -32.03,7.95 -30.73,7.95 -30.73,7.95 -29.4,7.95 -29.4,7.95 -28.05,7.95 -28.05,7.95 -26.67,7.95 -26.67,7.95 -25.26,7.95 -25.26,7.95 -23.82,7.95 -23.82,7.95 -22.35,7.95 -22.35,7.95 -20.84,7.95 -20.84,7.94 -19.31,7.94 -19.31,7.92 -17.74,7.92 -17.74,7.87 -16.14,7.87 -16.14,7.73 -14.5,7.73 -14.5,7.41 -12.83,7.41 -12.83,6.75 -11.12,6.75 -11.12,5.52 -9.38,5.52 -9.38,3.48 -7.59,3.48 -7.59,0.4 -5.77,0.4 -5.77,-3.87 -3.9,-3.87 -3.9,-9.28 -1.99,-9.28 -1.99,-15.64 -0.04,-15.64 -0.04,-22.4 1.95,-22.4 1.95,-28.84 4,-28.84 4,-34.14 6.08,-34.14 6.08,-37.55 8.22,-37.55 8.22,-38.49 10.4,-38.49 10.4,-36.79 12.64,-36.79 12.64,-32.62 14.93,-32.62 14.93,-26.67 17.27,-26.67 17.27,-19.81 19.67,-19.81 19.67,-12.85 22.13,-12.85 22.13,-6.53 24.64,-6.53 24.64,-1.34 27.22,-1.34 27.22,2.48 29.86,2.48 29.86,5.05 32.56,5.05 32.56,6.6 35.33,6.6 35.33,7.43 38.17,7.43 38.17,7.79 41.08,7.79 41.08,7.92 44.06,7.92 44.06,7.95 47.12,7.95 47.12,7.95 50.25,7.95 50.25,7.95 53.46,7.95 53.46,7.95 56.76,7.95 56.76,7.95 60.14,7.95 60.14,7.95 63.61,7.95 63.61,7.95 67.17,7.95 67.17,7.95 70.82,7.95 70.82,7.95 " class="primitive"/>
          </g>
          <g transform="translate(125.98,49.76)" id="img-1603cc5e-41" stroke="#4F94CD" class="color_k_=_2" stroke-dasharray="none">
            <path fill="none" d="M-46.74,1.96 L-45.74,1.96 -45.74,1.96 -44.72,1.96 -44.72,1.96 -43.68,1.96 -43.68,1.96 -42.61,1.96 -42.61,1.96 -41.53,1.96 -41.53,1.96 -40.42,1.96 -40.42,1.96 -39.3,1.96 -39.3,1.96 -38.14,1.96 -38.14,1.96 -36.97,1.96 -36.97,1.96 -35.77,1.96 -35.77,1.96 -34.55,1.96 -34.55,1.96 -33.3,1.96 -33.3,1.96 -32.03,1.96 -32.03,1.96 -30.73,1.96 -30.73,1.96 -29.4,1.96 -29.4,1.96 -28.05,1.96 -28.05,1.96 -26.67,1.96 -26.67,1.96 -25.26,1.96 -25.26,1.96 -23.82,1.96 -23.82,1.96 -22.35,1.96 -22.35,1.96 -20.84,1.96 -20.84,1.96 -19.31,1.96 -19.31,1.95 -17.74,1.95 -17.74,1.92 -16.14,1.92 -16.14,1.83 -14.5,1.83 -14.5,1.65 -12.83,1.65 -12.83,1.3 -11.12,1.3 -11.12,0.74 -9.38,0.74 -9.38,-0.1 -7.59,-0.1 -7.59,-1.24 -5.77,-1.24 -5.77,-2.67 -3.9,-2.67 -3.9,-4.29 -1.99,-4.29 -1.99,-5.95 -0.04,-5.95 -0.04,-7.48 1.95,-7.48 1.95,-8.67 4,-8.67 4,-9.35 6.08,-9.35 6.08,-9.4 8.22,-9.4 8.22,-8.81 10.4,-8.81 10.4,-7.68 12.64,-7.68 12.64,-6.17 14.93,-6.17 14.93,-4.48 17.27,-4.48 17.27,-2.81 19.67,-2.81 19.67,-1.31 22.13,-1.31 22.13,-0.12 24.64,-0.12 24.64,0.76 27.22,0.76 27.22,1.34 29.86,1.34 29.86,1.68 32.56,1.68 32.56,1.86 35.33,1.86 35.33,1.93 38.17,1.93 38.17,1.95 41.08,1.95 41.08,1.96 44.06,1.96 44.06,1.96 47.12,1.96 47.12,1.96 50.25,1.96 50.25,1.96 53.46,1.96 53.46,1.96 56.76,1.96 56.76,1.96 60.14,1.96 60.14,1.96 63.61,1.96 63.61,1.96 67.17,1.96 67.17,1.96 70.82,1.96 70.82,1.96 " class="primitive"/>
          </g>
          <g transform="translate(125.98,46.6)" id="img-1603cc5e-42" stroke="#8B0000" class="color_k_=_1" stroke-dasharray="none">
            <path fill="none" d="M-46.74,5.12 L-45.74,5.12 -45.74,5.12 -44.72,5.12 -44.72,5.12 -43.68,5.12 -43.68,5.12 -42.61,5.12 -42.61,5.12 -41.53,5.12 -41.53,5.12 -40.42,5.12 -40.42,5.12 -39.3,5.12 -39.3,5.12 -38.14,5.12 -38.14,5.12 -36.97,5.12 -36.97,5.12 -35.77,5.12 -35.77,5.12 -34.55,5.12 -34.55,5.12 -33.3,5.12 -33.3,5.12 -32.03,5.12 -32.03,5.12 -30.73,5.12 -30.73,5.12 -29.4,5.12 -29.4,5.12 -28.05,5.12 -28.05,5.12 -26.67,5.12 -26.67,5.12 -25.26,5.12 -25.26,5.12 -23.82,5.12 -23.82,5.12 -22.35,5.12 -22.35,5.12 -20.84,5.12 -20.84,5.12 -19.31,5.12 -19.31,5.12 -17.74,5.12 -17.74,5.12 -16.14,5.12 -16.14,5.11 -14.5,5.11 -14.5,5.05 -12.83,5.05 -12.83,4.83 -11.12,4.83 -11.12,4.29 -9.38,4.29 -9.38,3.26 -7.59,3.26 -7.59,1.53 -5.77,1.53 -5.77,-1.03 -3.9,-1.03 -3.9,-4.49 -1.99,-4.49 -1.99,-8.76 -0.04,-8.76 -0.04,-13.48 1.95,-13.48 1.95,-18.15 4,-18.15 4,-22.17 6.08,-22.17 6.08,-24.96 8.22,-24.96 8.22,-26.03 10.4,-26.03 10.4,-25.19 12.64,-25.19 12.64,-22.53 14.93,-22.53 14.93,-18.56 17.27,-18.56 17.27,-13.88 19.67,-13.88 19.67,-9.09 22.13,-9.09 22.13,-4.74 24.64,-4.74 24.64,-1.16 27.22,-1.16 27.22,1.45 29.86,1.45 29.86,3.19 32.56,3.19 32.56,4.24 35.33,4.24 35.33,4.79 38.17,4.79 38.17,5.03 41.08,5.03 41.08,5.1 44.06,5.1 44.06,5.12 47.12,5.12 47.12,5.12 50.25,5.12 50.25,5.12 53.46,5.12 53.46,5.12 56.76,5.12 56.76,5.12 60.14,5.12 60.14,5.12 63.61,5.12 63.61,5.12 67.17,5.12 67.17,5.12 70.82,5.12 70.82,5.12 " class="primitive"/>
          </g>
          <g transform="translate(125.98,51.08)" id="img-1603cc5e-43" stroke="#B8860B" class="color_k_=_3" stroke-dasharray="none">
            <path fill="none" d="M-46.74,0.63 L-45.74,0.63 -45.74,0.63 -44.72,0.63 -44.72,0.63 -43.68,0.63 -43.68,0.63 -42.61,0.63 -42.61,0.63 -41.53,0.63 -41.53,0.63 -40.42,0.63 -40.42,0.63 -39.3,0.63 -39.3,0.63 -38.14,0.63 -38.14,0.63 -36.97,0.63 -36.97,0.63 -35.77,0.63 -35.77,0.63 -34.55,0.63 -34.55,0.63 -33.3,0.63 -33.3,0.63 -32.03,0.63 -32.03,0.63 -30.73,0.63 -30.73,0.63 -29.4,0.63 -29.4,0.63 -28.05,0.63 -28.05,0.63 -26.67,0.63 -26.67,0.63 -25.26,0.63 -25.26,0.63 -23.82,0.63 -23.82,0.63 -22.35,0.63 -22.35,0.63 -20.84,0.63 -20.84,0.62 -19.31,0.62 -19.31,0.61 -17.74,0.61 -17.74,0.57 -16.14,0.57 -16.14,0.49 -14.5,0.49 -14.5,0.36 -12.83,0.36 -12.83,0.15 -11.12,0.15 -11.12,-0.14 -9.38,-0.14 -9.38,-0.52 -7.59,-0.52 -7.59,-0.98 -5.77,-0.98 -5.77,-1.49 -3.9,-1.49 -3.9,-1.99 -1.99,-1.99 -1.99,-2.44 -0.04,-2.44 -0.04,-2.77 1.95,-2.77 1.95,-2.93 4,-2.93 4,-2.91 6.08,-2.91 6.08,-2.69 8.22,-2.69 8.22,-2.33 10.4,-2.33 10.4,-1.87 12.64,-1.87 12.64,-1.36 14.93,-1.36 14.93,-0.86 17.27,-0.86 17.27,-0.41 19.67,-0.41 19.67,-0.05 22.13,-0.05 22.13,0.22 24.64,0.22 24.64,0.41 27.22,0.41 27.22,0.53 29.86,0.53 29.86,0.59 32.56,0.59 32.56,0.62 35.33,0.62 35.33,0.63 38.17,0.63 38.17,0.63 41.08,0.63 41.08,0.63 44.06,0.63 44.06,0.63 47.12,0.63 47.12,0.63 50.25,0.63 50.25,0.63 53.46,0.63 53.46,0.63 56.76,0.63 56.76,0.63 60.14,0.63 60.14,0.63 63.61,0.63 63.61,0.63 67.17,0.63 67.17,0.63 70.82,0.63 70.82,0.63 " class="primitive"/>
          </g>
        </g>
      </g>
    </g>
  </g>
  <g class="guide ylabels" font-size="2.82" font-family="'PT Sans Caption','Helvetica Neue','Helvetica',sans-serif" fill="#6C606B" id="img-1603cc5e-44">
    <g transform="translate(103.96,51.71)" id="img-1603cc5e-45">
      <g class="primitive">
        <text text-anchor="end" dy="0.35em">0</text>
      </g>
    </g>
    <g transform="translate(103.96,42.17)" id="img-1603cc5e-46">
      <g class="primitive">
        <text text-anchor="end" dy="0.35em">5</text>
      </g>
    </g>
    <g transform="translate(103.96,32.63)" id="img-1603cc5e-47">
      <g class="primitive">
        <text text-anchor="end" dy="0.35em">10</text>
      </g>
    </g>
    <g transform="translate(103.96,23.09)" id="img-1603cc5e-48">
      <g class="primitive">
        <text text-anchor="end" dy="0.35em">15</text>
      </g>
    </g>
    <g transform="translate(103.96,13.54)" id="img-1603cc5e-49">
      <g class="primitive">
        <text text-anchor="end" dy="0.35em">20</text>
      </g>
    </g>
    <g transform="translate(103.96,4)" id="img-1603cc5e-50">
      <g class="primitive">
        <text text-anchor="end" dy="0.35em">25</text>
      </g>
    </g>
  </g>
  <g font-size="3.88" font-family="'PT Sans','Helvetica Neue','Helvetica',sans-serif" fill="#564A55" stroke="#000000" stroke-opacity="0.000" id="img-1603cc5e-51">
    <g transform="translate(95.81,25.86)" id="img-1603cc5e-52">
      <g class="primitive">
        <text text-anchor="middle" dy="0.35em" transform="rotate(-90,0, 2)">Number concentration (cm⁻³)</text>
      </g>
    </g>
  </g>
</g>
<g class="plotroot xscalable yscalable" id="img-1603cc5e-53">
  <g font-size="3.88" font-family="'PT Sans','Helvetica Neue','Helvetica',sans-serif" fill="#564A55" stroke="#000000" stroke-opacity="0.000" id="img-1603cc5e-54">
    <g transform="translate(47.58,61.39)" id="img-1603cc5e-55">
      <g class="primitive">
        <text text-anchor="middle" dy="0.6em">Growth Factor (-)</text>
      </g>
    </g>
  </g>
  <g class="guide xlabels" font-size="2.82" font-family="'PT Sans Caption','Helvetica Neue','Helvetica',sans-serif" fill="#6C606B" id="img-1603cc5e-56">
    <g transform="translate(17.63,54.72)" id="img-1603cc5e-57">
      <g class="primitive">
        <text text-anchor="middle" dy="0.6em"></text>
      </g>
    </g>
    <g transform="translate(21.16,54.72)" id="img-1603cc5e-58">
      <g class="primitive">
        <text text-anchor="middle" dy="0.6em"></text>
      </g>
    </g>
    <g transform="translate(24.68,54.72)" id="img-1603cc5e-59">
      <g class="primitive">
        <text text-anchor="middle" dy="0.6em">1.0</text>
      </g>
    </g>
    <g transform="translate(28.2,54.72)" id="img-1603cc5e-60">
      <g class="primitive">
        <text text-anchor="middle" dy="0.6em"></text>
      </g>
    </g>
    <g transform="translate(31.73,54.72)" id="img-1603cc5e-61">
      <g class="primitive">
        <text text-anchor="middle" dy="0.6em"></text>
      </g>
    </g>
    <g transform="translate(35.25,54.72)" id="img-1603cc5e-62">
      <g class="primitive">
        <text text-anchor="middle" dy="0.6em"></text>
      </g>
    </g>
    <g transform="translate(38.77,54.72)" id="img-1603cc5e-63">
      <g class="primitive">
        <text text-anchor="middle" dy="0.6em"></text>
      </g>
    </g>
    <g transform="translate(42.3,54.72)" id="img-1603cc5e-64">
      <g class="primitive">
        <text text-anchor="middle" dy="0.6em">1.5</text>
      </g>
    </g>
    <g transform="translate(45.82,54.72)" id="img-1603cc5e-65">
      <g class="primitive">
        <text text-anchor="middle" dy="0.6em"></text>
      </g>
    </g>
    <g transform="translate(49.35,54.72)" id="img-1603cc5e-66">
      <g class="primitive">
        <text text-anchor="middle" dy="0.6em"></text>
      </g>
    </g>
    <g transform="translate(52.87,54.72)" id="img-1603cc5e-67">
      <g class="primitive">
        <text text-anchor="middle" dy="0.6em"></text>
      </g>
    </g>
    <g transform="translate(56.39,54.72)" id="img-1603cc5e-68">
      <g class="primitive">
        <text text-anchor="middle" dy="0.6em"></text>
      </g>
    </g>
    <g transform="translate(59.92,54.72)" id="img-1603cc5e-69">
      <g class="primitive">
        <text text-anchor="middle" dy="0.6em">2.0</text>
      </g>
    </g>
    <g transform="translate(63.44,54.72)" id="img-1603cc5e-70">
      <g class="primitive">
        <text text-anchor="middle" dy="0.6em"></text>
      </g>
    </g>
    <g transform="translate(66.97,54.72)" id="img-1603cc5e-71">
      <g class="primitive">
        <text text-anchor="middle" dy="0.6em"></text>
      </g>
    </g>
    <g transform="translate(70.49,54.72)" id="img-1603cc5e-72">
      <g class="primitive">
        <text text-anchor="middle" dy="0.6em"></text>
      </g>
    </g>
    <g transform="translate(74.01,54.72)" id="img-1603cc5e-73">
      <g class="primitive">
        <text text-anchor="middle" dy="0.6em"></text>
      </g>
    </g>
    <g transform="translate(77.54,54.72)" id="img-1603cc5e-74">
      <g class="primitive">
        <text text-anchor="middle" dy="0.6em">2.5</text>
      </g>
    </g>
  </g>
  <g class="guide colorkey" id="img-1603cc5e-75">
    <g class="color_Pgf" id="img-1603cc5e-76">
      <g fill="#4C404B" font-size="2.82" font-family="'PT Sans','Helvetica Neue','Helvetica',sans-serif" id="img-1603cc5e-77">
        <g transform="translate(84.01,30.33)" id="img-1603cc5e-78">
          <g class="primitive">
            <text dy="0.35em">P<tspan dy="0.4em" font-size="83%">gf</tspan></text>
          </g>
        </g>
      </g>
      <g fill-opacity="1" fill="#000000" stroke="#FFFFFF" id="img-1603cc5e-79">
        <g transform="translate(81.77,30.33)" id="img-1603cc5e-80">
          <path d="M-1.24,-1.24 L1.24,-1.24 1.24,1.24 -1.24,1.24  z" class="primitive"/>
        </g>
      </g>
    </g>
    <g fill="#362A35" font-size="3.88" font-family="'PT Sans','Helvetica Neue','Helvetica',sans-serif" stroke="#000000" stroke-opacity="0.000" id="img-1603cc5e-81">
      <g transform="translate(80.54,25.19)" id="img-1603cc5e-82">
        <g class="primitive">
          <text dy="-0em"></text>
        </g>
      </g>
    </g>
  </g>
  <g clip-path="url(#img-1603cc5e-83)">
    <g id="img-1603cc5e-84">
      <g pointer-events="visible" stroke-width="0.3" fill="#000000" fill-opacity="0.000" stroke="#000000" stroke-opacity="0.000" class="guide background" id="img-1603cc5e-85">
        <g transform="translate(47.58,27.86)" id="img-1603cc5e-86">
          <path d="M-31.95,-25.86 L31.95,-25.86 31.95,25.86 -31.95,25.86  z" class="primitive"/>
        </g>
      </g>
      <g class="guide ygridlines xfixed" stroke-dasharray="0.5,0.5" stroke-width="0.2" stroke="#D0D0E0" id="img-1603cc5e-87">
        <g transform="translate(47.58,51.72)" id="img-1603cc5e-88">
          <path fill="none" d="M-31.95,0 L31.95,0 " class="primitive"/>
        </g>
        <g transform="translate(47.58,42.17)" id="img-1603cc5e-89">
          <path fill="none" d="M-31.95,0 L31.95,0 " class="primitive"/>
        </g>
        <g transform="translate(47.58,32.63)" id="img-1603cc5e-90">
          <path fill="none" d="M-31.95,0 L31.95,0 " class="primitive"/>
        </g>
        <g transform="translate(47.58,23.09)" id="img-1603cc5e-91">
          <path fill="none" d="M-31.95,0 L31.95,0 " class="primitive"/>
        </g>
        <g transform="translate(47.58,13.54)" id="img-1603cc5e-92">
          <path fill="none" d="M-31.95,0 L31.95,0 " class="primitive"/>
        </g>
        <g transform="translate(47.58,4)" id="img-1603cc5e-93">
          <path fill="none" d="M-31.95,0 L31.95,0 " class="primitive"/>
        </g>
      </g>
      <g class="guide xgridlines yfixed" stroke-dasharray="0.5,0.5" stroke-width="0.2" stroke="#D0D0E0" id="img-1603cc5e-94">
        <g transform="translate(17.63,27.86)" id="img-1603cc5e-95">
          <path fill="none" d="M0,-25.86 L0,25.86 " class="primitive"/>
        </g>
        <g transform="translate(21.16,27.86)" id="img-1603cc5e-96">
          <path fill="none" d="M0,-25.86 L0,25.86 " class="primitive"/>
        </g>
        <g transform="translate(24.68,27.86)" id="img-1603cc5e-97">
          <path fill="none" d="M0,-25.86 L0,25.86 " class="primitive"/>
        </g>
        <g transform="translate(28.2,27.86)" id="img-1603cc5e-98">
          <path fill="none" d="M0,-25.86 L0,25.86 " class="primitive"/>
        </g>
        <g transform="translate(31.73,27.86)" id="img-1603cc5e-99">
          <path fill="none" d="M0,-25.86 L0,25.86 " class="primitive"/>
        </g>
        <g transform="translate(35.25,27.86)" id="img-1603cc5e-100">
          <path fill="none" d="M0,-25.86 L0,25.86 " class="primitive"/>
        </g>
        <g transform="translate(38.77,27.86)" id="img-1603cc5e-101">
          <path fill="none" d="M0,-25.86 L0,25.86 " class="primitive"/>
        </g>
        <g transform="translate(42.3,27.86)" id="img-1603cc5e-102">
          <path fill="none" d="M0,-25.86 L0,25.86 " class="primitive"/>
        </g>
        <g transform="translate(45.82,27.86)" id="img-1603cc5e-103">
          <path fill="none" d="M0,-25.86 L0,25.86 " class="primitive"/>
        </g>
        <g transform="translate(49.35,27.86)" id="img-1603cc5e-104">
          <path fill="none" d="M0,-25.86 L0,25.86 " class="primitive"/>
        </g>
        <g transform="translate(52.87,27.86)" id="img-1603cc5e-105">
          <path fill="none" d="M0,-25.86 L0,25.86 " class="primitive"/>
        </g>
        <g transform="translate(56.39,27.86)" id="img-1603cc5e-106">
          <path fill="none" d="M0,-25.86 L0,25.86 " class="primitive"/>
        </g>
        <g transform="translate(59.92,27.86)" id="img-1603cc5e-107">
          <path fill="none" d="M0,-25.86 L0,25.86 " class="primitive"/>
        </g>
        <g transform="translate(63.44,27.86)" id="img-1603cc5e-108">
          <path fill="none" d="M0,-25.86 L0,25.86 " class="primitive"/>
        </g>
        <g transform="translate(66.97,27.86)" id="img-1603cc5e-109">
          <path fill="none" d="M0,-25.86 L0,25.86 " class="primitive"/>
        </g>
        <g transform="translate(70.49,27.86)" id="img-1603cc5e-110">
          <path fill="none" d="M0,-25.86 L0,25.86 " class="primitive"/>
        </g>
        <g transform="translate(74.01,27.86)" id="img-1603cc5e-111">
          <path fill="none" d="M0,-25.86 L0,25.86 " class="primitive"/>
        </g>
        <g transform="translate(77.54,27.86)" id="img-1603cc5e-112">
          <path fill="none" d="M0,-25.86 L0,25.86 " class="primitive"/>
        </g>
      </g>
      <g class="plotpanel" id="img-1603cc5e-113">
        <metadata>
          <boundingbox value="15.63166666666666mm 2.0mm 63.905mm 51.715mm"/>
          <unitbox value="0.7432434688256406 1.041915540186524 1.8135130623487188 -1.0838310803730482"/>
        </metadata>
        <g stroke-width="0.3" fill="#000000" fill-opacity="0.000" class="geometry" id="img-1603cc5e-114">
          <g class="color_Pgf" stroke-dasharray="none" stroke="#000000" id="img-1603cc5e-115">
            <g transform="translate(41.23,50.91)" id="img-1603cc5e-116">
              <path fill="none" d="M-23.35,0.8 L-22.85,0.8 -22.85,0.8 -22.34,0.8 -22.34,0.8 -21.82,0.8 -21.82,0.8 -21.29,0.8 -21.29,0.8 -20.75,0.8 -20.75,0.8 -20.19,0.8 -20.19,0.8 -19.63,0.8 -19.63,0.8 -19.06,0.8 -19.06,0.8 -18.47,0.8 -18.47,0.8 -17.87,0.8 -17.87,0.8 -17.26,0.8 -17.26,0.8 -16.64,0.8 -16.64,0.8 -16,0.8 -16,0.8 -15.35,0.8 -15.35,0.8 -14.69,0.8 -14.69,0.8 -14.01,0.8 -14.01,0.8 -13.32,0.8 -13.32,0.8 -12.62,0.8 -12.62,0.8 -11.9,0.8 -11.9,0.8 -11.16,0.8 -11.16,0.8 -10.41,0.8 -10.41,0.8 -9.65,0.8 -9.65,0.8 -8.86,0.8 -8.86,0.8 -8.06,0.8 -8.06,0.8 -7.24,0.8 -7.24,0.8 -6.41,0.8 -6.41,0.8 -5.56,0.8 -5.56,0.8 -4.68,0.8 -4.68,0.8 -3.79,0.8 -3.79,0.8 -2.88,0.8 -2.88,0.8 -1.95,0.8 -1.95,0.8 -0.99,0.8 -0.99,0.8 -0.02,0.8 -0.02,0.8 0.98,0.8 0.98,0.8 2,0.8 2,0.8 3.04,0.8 3.04,0.8 4.11,0.8 4.11,-46.91 5.2,-46.91 5.2,0.8 6.32,0.8 6.32,0.8 7.46,0.8 7.46,0.8 8.63,0.8 8.63,0.8 9.83,0.8 9.83,0.8 11.05,0.8 11.05,0.8 12.31,0.8 12.31,0.8 13.6,0.8 13.6,0.8 14.92,0.8 14.92,0.8 16.27,0.8 16.27,0.8 17.65,0.8 17.65,0.8 19.07,0.8 19.07,0.8 20.52,0.8 20.52,0.8 22.01,0.8 22.01,0.8 23.54,0.8 23.54,0.8 25.1,0.8 25.1,0.8 26.71,0.8 26.71,0.8 28.35,0.8 28.35,0.8 30.04,0.8 30.04,0.8 31.78,0.8 31.78,0.8 33.55,0.8 33.55,0.8 35.38,0.8 35.38,0.8 " class="primitive"/>
            </g>
          </g>
        </g>
      </g>
    </g>
  </g>
  <g class="guide ylabels" font-size="2.82" font-family="'PT Sans Caption','Helvetica Neue','Helvetica',sans-serif" fill="#6C606B" id="img-1603cc5e-117">
    <g transform="translate(14.63,51.72)" id="img-1603cc5e-118">
      <g class="primitive">
        <text text-anchor="end" dy="0.35em">0.0</text>
      </g>
    </g>
    <g transform="translate(14.63,42.17)" id="img-1603cc5e-119">
      <g class="primitive">
        <text text-anchor="end" dy="0.35em">0.2</text>
      </g>
    </g>
    <g transform="translate(14.63,32.63)" id="img-1603cc5e-120">
      <g class="primitive">
        <text text-anchor="end" dy="0.35em">0.4</text>
      </g>
    </g>
    <g transform="translate(14.63,23.09)" id="img-1603cc5e-121">
      <g class="primitive">
        <text text-anchor="end" dy="0.35em">0.6</text>
      </g>
    </g>
    <g transform="translate(14.63,13.54)" id="img-1603cc5e-122">
      <g class="primitive">
        <text text-anchor="end" dy="0.35em">0.8</text>
      </g>
    </g>
    <g transform="translate(14.63,4)" id="img-1603cc5e-123">
      <g class="primitive">
        <text text-anchor="end" dy="0.35em">1.0</text>
      </g>
    </g>
  </g>
  <g font-size="3.88" font-family="'PT Sans','Helvetica Neue','Helvetica',sans-serif" fill="#564A55" stroke="#000000" stroke-opacity="0.000" id="img-1603cc5e-124">
    <g transform="translate(5.81,25.86)" id="img-1603cc5e-125">
      <g class="primitive">
        <text text-anchor="middle" dy="0.35em" transform="rotate(-90,0, 2)">Frequency (-)</text>
      </g>
    </g>
  </g>
</g>
<defs>
  <clipPath id="img-1603cc5e-17">
    <path d="M104.96,2 L165.39,2 165.39,53.71 104.96,53.71 " />
  </clipPath>
  <clipPath id="img-1603cc5e-83">
    <path d="M15.63,2 L79.54,2 79.54,53.72 15.63,53.72 " />
  </clipPath>
</defs>
</svg>
