<?xml version="1.0" encoding="UTF-8"?>
<svg xmlns="http://www.w3.org/2000/svg"
     xmlns:xlink="http://www.w3.org/1999/xlink"
     xmlns:gadfly="http://www.gadflyjl.org/ns"
     version="1.2"
     width="180mm" height="70mm" viewBox="0 0 180 70"
     stroke="none"
     fill="#000000"
     stroke-width="0.3"
     font-size="3.88"
>
<defs>
  <marker id="arrow" markerWidth="15" markerHeight="7" refX="5" refY="3.5" orient="auto" markerUnits="strokeWidth">
    <path d="M0,0 L15,3.5 L0,7 z" stroke="context-stroke" fill="context-stroke"/>
  </marker>
</defs>
<g class="plotroot xscalable yscalable" id="img-8213e5c5-1">
  <g font-size="3.88" font-family="'PT Sans','Helvetica Neue','Helvetica',sans-serif" fill="#564A55" stroke="#000000" stroke-opacity="0.000" id="img-8213e5c5-2">
    <g transform="translate(136.16,61.39)">
      <g class="primitive">
        <text text-anchor="middle" dy="0.6em">Apparent Growth Factor (-)</text>
      </g>
    </g>
  </g>
  <g class="guide xlabels" font-size="2.82" font-family="'PT Sans Caption','Helvetica Neue','Helvetica',sans-serif" fill="#6C606B" id="img-8213e5c5-3">
    <g transform="translate(106.96,54.72)">
      <g class="primitive">
        <text text-anchor="middle" dy="0.6em">1.2</text>
      </g>
    </g>
    <g transform="translate(114.26,54.72)">
      <g class="primitive">
        <text text-anchor="middle" dy="0.6em"></text>
      </g>
    </g>
    <g transform="translate(121.56,54.72)">
      <g class="primitive">
        <text text-anchor="middle" dy="0.6em">1.4</text>
      </g>
    </g>
    <g transform="translate(128.86,54.72)">
      <g class="primitive">
        <text text-anchor="middle" dy="0.6em"></text>
      </g>
    </g>
    <g transform="translate(136.16,54.72)">
      <g class="primitive">
        <text text-anchor="middle" dy="0.6em">1.6</text>
      </g>
    </g>
    <g transform="translate(143.47,54.72)">
      <g class="primitive">
        <text text-anchor="middle" dy="0.6em"></text>
      </g>
    </g>
    <g transform="translate(150.77,54.72)">
      <g class="primitive">
        <text text-anchor="middle" dy="0.6em">1.8</text>
      </g>
    </g>
    <g transform="translate(158.07,54.72)">
      <g class="primitive">
        <text text-anchor="middle" dy="0.6em"></text>
      </g>
    </g>
    <g transform="translate(165.37,54.72)">
      <g class="primitive">
        <text text-anchor="middle" dy="0.6em">2.0</text>
      </g>
    </g>
  </g>
  <g class="guide colorkey" id="img-8213e5c5-4">
    <g fill="#4C404B" font-size="2.82" font-family="'PT Sans','Helvetica Neue','Helvetica',sans-serif" id="img-8213e5c5-5">
      <g transform="translate(171.84,22.92)" id="img-8213e5c5-6" class="color_𝐁*Pg">
        <g class="primitive">
          <text dy="0.35em">𝐁*P<tspan dy="0.4em" font-size="83%">g</tspan></text>
        </g>
      </g>
      <g transform="translate(171.84,27.86)" id="img-8213e5c5-7" class="color_k_=_1">
        <g class="primitive">
          <text dy="0.35em">k = 1</text>
        </g>
      </g>
      <g transform="translate(171.84,32.8)" id="img-8213e5c5-8" class="color_k_=_2">
        <g class="primitive">
          <text dy="0.35em">k = 2</text>
        </g>
      </g>
      <g transform="translate(171.84,37.74)" id="img-8213e5c5-9" class="color_k_=_3">
        <g class="primitive">
          <text dy="0.35em">k = 3</text>
        </g>
      </g>
    </g>
    <g fill-opacity="1" id="img-8213e5c5-10">
      <g transform="translate(169.6,22.92)" id="img-8213e5c5-11" fill="#000000" stroke="#FFFFFF" class="color_𝐁*Pg">
        <path d="M-1.24,-1.24 L1.24,-1.24 1.24,1.24 -1.24,1.24  z" class="primitive"/>
      </g>
      <g transform="translate(169.6,27.86)" id="img-8213e5c5-12" fill="#8B0000" stroke="#FFFFFF" class="color_k_=_1">
        <path d="M-1.24,-1.24 L1.24,-1.24 1.24,1.24 -1.24,1.24  z" class="primitive"/>
      </g>
      <g transform="translate(169.6,32.8)" id="img-8213e5c5-13" fill="#4F94CD" stroke="#FFFFFF" class="color_k_=_2">
        <path d="M-1.24,-1.24 L1.24,-1.24 1.24,1.24 -1.24,1.24  z" class="primitive"/>
      </g>
      <g transform="translate(169.6,37.74)" id="img-8213e5c5-14" fill="#B8860B" stroke="#FFFFFF" class="color_k_=_3">
        <path d="M-1.24,-1.24 L1.24,-1.24 1.24,1.24 -1.24,1.24  z" class="primitive"/>
      </g>
    </g>
    <g fill="#362A35" font-size="3.88" font-family="'PT Sans','Helvetica Neue','Helvetica',sans-serif" stroke="#000000" stroke-opacity="0.000" id="img-8213e5c5-15">
      <g transform="translate(168.37,17.78)" id="img-8213e5c5-16">
        <g class="primitive">
          <text dy="-0em"></text>
        </g>
      </g>
    </g>
  </g>
  <g clip-path="url(#img-8213e5c5-17)">
    <g id="img-8213e5c5-18">
      <g pointer-events="visible" stroke-width="0.3" fill="#000000" fill-opacity="0.000" stroke="#000000" stroke-opacity="0.000" class="guide background" id="img-8213e5c5-19">
        <g transform="translate(136.16,27.86)" id="img-8213e5c5-20">
          <path d="M-31.21,-25.86 L31.21,-25.86 31.21,25.86 -31.21,25.86  z" class="primitive"/>
        </g>
      </g>
      <g class="guide ygridlines xfixed" stroke-dasharray="0.5,0.5" stroke-width="0.2" stroke="#D0D0E0" id="img-8213e5c5-21">
        <g transform="translate(136.16,51.72)" id="img-8213e5c5-22">
          <path fill="none" d="M-31.21,0 L31.21,0 " class="primitive"/>
        </g>
        <g transform="translate(136.16,42.17)" id="img-8213e5c5-23">
          <path fill="none" d="M-31.21,0 L31.21,0 " class="primitive"/>
        </g>
        <g transform="translate(136.16,32.63)" id="img-8213e5c5-24">
          <path fill="none" d="M-31.21,0 L31.21,0 " class="primitive"/>
        </g>
        <g transform="translate(136.16,23.09)" id="img-8213e5c5-25">
          <path fill="none" d="M-31.21,0 L31.21,0 " class="primitive"/>
        </g>
        <g transform="translate(136.16,13.54)" id="img-8213e5c5-26">
          <path fill="none" d="M-31.21,0 L31.21,0 " class="primitive"/>
        </g>
        <g transform="translate(136.16,4)" id="img-8213e5c5-27">
          <path fill="none" d="M-31.21,0 L31.21,0 " class="primitive"/>
        </g>
      </g>
      <g class="guide xgridlines yfixed" stroke-dasharray="0.5,0.5" stroke-width="0.2" stroke="#D0D0E0" id="img-8213e5c5-28">
        <g transform="translate(106.96,27.86)" id="img-8213e5c5-29">
          <path fill="none" d="M0,-25.86 L0,25.86 " class="primitive"/>
        </g>
        <g transform="translate(114.26,27.86)" id="img-8213e5c5-30">
          <path fill="none" d="M0,-25.86 L0,25.86 " class="primitive"/>
        </g>
        <g transform="translate(121.56,27.86)" id="img-8213e5c5-31">
          <path fill="none" d="M0,-25.86 L0,25.86 " class="primitive"/>
        </g>
        <g transform="translate(128.86,27.86)" id="img-8213e5c5-32">
          <path fill="none" d="M0,-25.86 L0,25.86 " class="primitive"/>
        </g>
        <g transform="translate(136.16,27.86)" id="img-8213e5c5-33">
          <path fill="none" d="M0,-25.86 L0,25.86 " class="primitive"/>
        </g>
        <g transform="translate(143.47,27.86)" id="img-8213e5c5-34">
          <path fill="none" d="M0,-25.86 L0,25.86 " class="primitive"/>
        </g>
        <g transform="translate(150.77,27.86)" id="img-8213e5c5-35">
          <path fill="none" d="M0,-25.86 L0,25.86 " class="primitive"/>
        </g>
        <g transform="translate(158.07,27.86)" id="img-8213e5c5-36">
          <path fill="none" d="M0,-25.86 L0,25.86 " class="primitive"/>
        </g>
        <g transform="translate(165.37,27.86)" id="img-8213e5c5-37">
          <path fill="none" d="M0,-25.86 L0,25.86 " class="primitive"/>
        </g>
      </g>
      <g class="plotpanel" id="img-8213e5c5-38">
        <metadata>
          <boundingbox value="104.95833333333334mm 2.0mm 62.411666666666655mm 51.715mm"/>
          <unitbox value="1.1726082118298284 26.047888504663103 0.8547835763403431 -27.095777009326206"/>
        </metadata>
        <g stroke-width="0.3" fill="#000000" fill-opacity="0.000" class="geometry" id="img-8213e5c5-39">
          <g transform="translate(126.65,44.94)" id="img-8213e5c5-40" stroke-dasharray="none" stroke="#000000" class="color_𝐁*Pg">
            <path fill="none" d="M-48.38,6.78 L-47.35,6.78 -47.35,6.78 -46.29,6.78 -46.29,6.78 -45.21,6.78 -45.21,6.78 -44.11,6.78 -44.11,6.78 -42.99,6.78 -42.99,6.78 -41.84,6.78 -41.84,6.78 -40.67,6.78 -40.67,6.78 -39.48,6.78 -39.48,6.78 -38.27,6.78 -38.27,6.78 -37.03,6.78 -37.03,6.78 -35.76,6.78 -35.76,6.78 -34.47,6.78 -34.47,6.78 -33.15,6.78 -33.15,6.78 -31.81,6.78 -31.81,6.78 -30.44,6.78 -30.44,6.78 -29.04,6.78 -29.04,6.78 -27.6,6.78 -27.6,6.78 -26.14,6.78 -26.14,6.78 -24.65,6.78 -24.65,6.78 -23.13,6.78 -23.13,6.78 -21.57,6.78 -21.57,6.78 -19.99,6.78 -19.99,6.77 -18.36,6.77 -18.36,6.75 -16.71,6.75 -16.71,6.67 -15.01,6.67 -15.01,6.46 -13.28,6.46 -13.28,5.97 -11.51,5.97 -11.51,5.01 -9.7,5.01 -9.7,3.34 -7.86,3.34 -7.86,0.76 -5.97,0.76 -5.97,-2.88 -4.04,-2.88 -4.04,-7.57 -2.06,-7.57 -2.06,-13.11 -0.04,-13.11 -0.04,-19.02 2.02,-19.02 2.02,-24.69 4.14,-24.69 4.14,-29.37 6.3,-29.37 6.3,-32.37 8.51,-32.37 8.51,-33.2 10.77,-33.2 10.77,-31.68 13.09,-31.68 13.09,-28.08 15.45,-28.08 15.45,-22.95 17.88,-22.95 17.88,-17.02 20.36,-17.02 20.36,-11.06 22.91,-11.06 22.91,-5.66 25.51,-5.66 25.51,-1.25 28.18,-1.25 28.18,2.02 30.91,2.02 30.91,4.23 33.71,4.23 33.71,5.57 36.57,5.57 36.57,6.29 39.51,6.29 39.51,6.62 42.52,6.62 42.52,6.74 45.61,6.74 45.61,6.77 48.77,6.77 48.77,6.78 52.01,6.78 52.01,6.78 55.34,6.78 55.34,6.78 58.75,6.78 58.75,6.78 62.25,6.78 62.25,6.78 65.84,6.78 65.84,6.78 69.52,6.78 69.52,6.78 73.3,6.78 73.3,6.78 " class="primitive"/>
          </g>
          <g transform="translate(126.65,50.04)" id="img-8213e5c5-41" stroke-dasharray="none" stroke="#4F94CD" class="color_k_=_2">
            <path fill="none" d="M-48.38,1.68 L-47.35,1.68 -47.35,1.68 -46.29,1.68 -46.29,1.68 -45.21,1.68 -45.21,1.68 -44.11,1.68 -44.11,1.68 -42.99,1.68 -42.99,1.68 -41.84,1.68 -41.84,1.68 -40.67,1.68 -40.67,1.68 -39.48,1.68 -39.48,1.68 -38.27,1.68 -38.27,1.68 -37.03,1.68 -37.03,1.68 -35.76,1.68 -35.76,1.68 -34.47,1.68 -34.47,1.68 -33.15,1.68 -33.15,1.68 -31.81,1.68 -31.81,1.68 -30.44,1.68 -30.44,1.68 -29.04,1.68 -29.04,1.68 -27.6,1.68 -27.6,1.68 -26.14,1.68 -26.14,1.68 -24.65,1.68 -24.65,1.68 -23.13,1.68 -23.13,1.68 -21.57,1.68 -21.57,1.68 -19.99,1.68 -19.99,1.67 -18.36,1.67 -18.36,1.65 -16.71,1.65 -16.71,1.59 -15.01,1.59 -15.01,1.46 -13.28,1.46 -13.28,1.19 -11.51,1.19 -11.51,0.73 -9.7,0.73 -9.7,0.02 -7.86,0.02 -7.86,-0.96 -5.97,-0.96 -5.97,-2.21 -4.04,-2.21 -4.04,-3.64 -2.06,-3.64 -2.06,-5.15 -0.04,-5.15 -0.04,-6.54 2.02,-6.54 2.02,-7.63 4.14,-7.63 4.14,-8.25 6.3,-8.25 6.3,-8.29 8.51,-8.29 8.51,-7.75 10.77,-7.75 10.77,-6.69 13.09,-6.69 13.09,-5.31 15.45,-5.31 15.45,-3.77 17.88,-3.77 17.88,-2.29 20.36,-2.29 20.36,-1 22.91,-1 22.91,0.01 25.51,0.01 25.51,0.73 28.18,0.73 28.18,1.2 30.91,1.2 30.91,1.46 33.71,1.46 33.71,1.6 36.57,1.6 36.57,1.66 39.51,1.66 39.51,1.67 42.52,1.67 42.52,1.68 45.61,1.68 45.61,1.68 48.77,1.68 48.77,1.68 52.01,1.68 52.01,1.68 55.34,1.68 55.34,1.68 58.75,1.68 58.75,1.68 62.25,1.68 62.25,1.68 65.84,1.68 65.84,1.68 69.52,1.68 69.52,1.68 73.3,1.68 73.3,1.68 " class="primitive"/>
          </g>
          <g transform="translate(126.65,47.32)" id="img-8213e5c5-42" stroke-dasharray="none" stroke="#8B0000" class="color_k_=_1">
            <path fill="none" d="M-48.38,4.4 L-47.35,4.4 -47.35,4.4 -46.29,4.4 -46.29,4.4 -45.21,4.4 -45.21,4.4 -44.11,4.4 -44.11,4.4 -42.99,4.4 -42.99,4.4 -41.84,4.4 -41.84,4.4 -40.67,4.4 -40.67,4.4 -39.48,4.4 -39.48,4.4 -38.27,4.4 -38.27,4.4 -37.03,4.4 -37.03,4.4 -35.76,4.4 -35.76,4.4 -34.47,4.4 -34.47,4.4 -33.15,4.4 -33.15,4.4 -31.81,4.4 -31.81,4.4 -30.44,4.4 -30.44,4.4 -29.04,4.4 -29.04,4.4 -27.6,4.4 -27.6,4.4 -26.14,4.4 -26.14,4.4 -24.65,4.4 -24.65,4.4 -23.13,4.4 -23.13,4.4 -21.57,4.4 -21.57,4.4 -19.99,4.4 -19.99,4.4 -18.36,4.4 -18.36,4.4 -16.71,4.4 -16.71,4.39 -15.01,4.39 -15.01,4.35 -13.28,4.35 -13.28,4.16 -11.51,4.16 -11.51,3.71 -9.7,3.71 -9.7,2.83 -7.86,2.83 -7.86,1.35 -5.97,1.35 -5.97,-0.85 -4.04,-0.85 -4.04,-3.84 -2.06,-3.84 -2.06,-7.51 -0.04,-7.51 -0.04,-11.57 2.02,-11.57 2.02,-15.58 4.14,-15.58 4.14,-19.04 6.3,-19.04 6.3,-21.45 8.51,-21.45 8.51,-22.37 10.77,-22.37 10.77,-21.6 13.09,-21.6 13.09,-19.35 15.45,-19.35 15.45,-15.96 17.88,-15.96 17.88,-11.95 20.36,-11.95 20.36,-7.84 22.91,-7.84 22.91,-4.11 25.51,-4.11 25.51,-1.05 28.18,-1.05 28.18,1.21 30.91,1.21 30.91,2.73 33.71,2.73 33.71,3.64 36.57,3.64 36.57,4.12 39.51,4.12 39.51,4.32 42.52,4.32 42.52,4.38 45.61,4.38 45.61,4.39 48.77,4.39 48.77,4.4 52.01,4.4 52.01,4.4 55.34,4.4 55.34,4.4 58.75,4.4 58.75,4.4 62.25,4.4 62.25,4.4 65.84,4.4 65.84,4.4 69.52,4.4 69.52,4.4 73.3,4.4 73.3,4.4 " class="primitive"/>
          </g>
          <g transform="translate(126.65,51.21)" id="img-8213e5c5-43" stroke-dasharray="none" stroke="#B8860B" class="color_k_=_3">
            <path fill="none" d="M-48.38,0.51 L-47.35,0.51 -47.35,0.51 -46.29,0.51 -46.29,0.51 -45.21,0.51 -45.21,0.51 -44.11,0.51 -44.11,0.51 -42.99,0.51 -42.99,0.51 -41.84,0.51 -41.84,0.51 -40.67,0.51 -40.67,0.51 -39.48,0.51 -39.48,0.51 -38.27,0.51 -38.27,0.51 -37.03,0.51 -37.03,0.51 -35.76,0.51 -35.76,0.51 -34.47,0.51 -34.47,0.51 -33.15,0.51 -33.15,0.51 -31.81,0.51 -31.81,0.51 -30.44,0.51 -30.44,0.51 -29.04,0.51 -29.04,0.51 -27.6,0.51 -27.6,0.51 -26.14,0.51 -26.14,0.51 -24.65,0.51 -24.65,0.51 -23.13,0.51 -23.13,0.51 -21.57,0.51 -21.57,0.5 -19.99,0.5 -19.99,0.49 -18.36,0.49 -18.36,0.47 -16.71,0.47 -16.71,0.42 -15.01,0.42 -15.01,0.32 -13.28,0.32 -13.28,0.16 -11.51,0.16 -11.51,-0.07 -9.7,-0.07 -9.7,-0.39 -7.86,-0.39 -7.86,-0.79 -5.97,-0.79 -5.97,-1.23 -4.04,-1.23 -4.04,-1.68 -2.06,-1.68 -2.06,-2.09 -0.04,-2.09 -0.04,-2.39 2.02,-2.39 2.02,-2.54 4.14,-2.54 4.14,-2.51 6.3,-2.51 6.3,-2.3 8.51,-2.3 8.51,-1.94 10.77,-1.94 10.77,-1.49 13.09,-1.49 13.09,-1.01 15.45,-1.01 15.45,-0.56 17.88,-0.56 17.88,-0.18 20.36,-0.18 20.36,0.11 22.91,0.11 22.91,0.3 25.51,0.3 25.51,0.42 28.18,0.42 28.18,0.47 30.91,0.47 30.91,0.5 33.71,0.5 33.71,0.51 36.57,0.51 36.57,0.51 39.51,0.51 39.51,0.51 42.52,0.51 42.52,0.51 45.61,0.51 45.61,0.51 48.77,0.51 48.77,0.51 52.01,0.51 52.01,0.51 55.34,0.51 55.34,0.51 58.75,0.51 58.75,0.51 62.25,0.51 62.25,0.51 65.84,0.51 65.84,0.51 69.52,0.51 69.52,0.51 73.3,0.51 73.3,0.51 " class="primitive"/>
          </g>
        </g>
      </g>
    </g>
  </g>
  <g class="guide ylabels" font-size="2.82" font-family="'PT Sans Caption','Helvetica Neue','Helvetica',sans-serif" fill="#6C606B" id="img-8213e5c5-44">
    <g transform="translate(103.96,51.72)" id="img-8213e5c5-45">
      <g class="primitive">
        <text text-anchor="end" dy="0.35em">0</text>
      </g>
    </g>
    <g transform="translate(103.96,42.17)" id="img-8213e5c5-46">
      <g class="primitive">
        <text text-anchor="end" dy="0.35em">5</text>
      </g>
    </g>
    <g transform="translate(103.96,32.63)" id="img-8213e5c5-47">
      <g class="primitive">
        <text text-anchor="end" dy="0.35em">10</text>
      </g>
    </g>
    <g transform="translate(103.96,23.09)" id="img-8213e5c5-48">
      <g class="primitive">
        <text text-anchor="end" dy="0.35em">15</text>
      </g>
    </g>
    <g transform="translate(103.96,13.54)" id="img-8213e5c5-49">
      <g class="primitive">
        <text text-anchor="end" dy="0.35em">20</text>
      </g>
    </g>
    <g transform="translate(103.96,4)" id="img-8213e5c5-50">
      <g class="primitive">
        <text text-anchor="end" dy="0.35em">25</text>
      </g>
    </g>
  </g>
  <g font-size="3.88" font-family="'PT Sans','Helvetica Neue','Helvetica',sans-serif" fill="#564A55" stroke="#000000" stroke-opacity="0.000" id="img-8213e5c5-51">
    <g transform="translate(95.81,25.86)" id="img-8213e5c5-52">
      <g class="primitive">
        <text text-anchor="middle" dy="0.35em" transform="rotate(-90,0, 2)">Concentration (cm⁻³)</text>
      </g>
    </g>
  </g>
</g>
<g class="plotroot xscalable yscalable" id="img-8213e5c5-53">
  <g font-size="3.88" font-family="'PT Sans','Helvetica Neue','Helvetica',sans-serif" fill="#564A55" stroke="#000000" stroke-opacity="0.000" id="img-8213e5c5-54">
    <g transform="translate(47.7,61.39)" id="img-8213e5c5-55">
      <g class="primitive">
        <text text-anchor="middle" dy="0.6em">Growth Factor (-)</text>
      </g>
    </g>
  </g>
  <g class="guide xlabels" font-size="2.82" font-family="'PT Sans Caption','Helvetica Neue','Helvetica',sans-serif" fill="#6C606B" id="img-8213e5c5-56">
    <g transform="translate(16.96,54.72)" id="img-8213e5c5-57">
      <g class="primitive">
        <text text-anchor="middle" dy="0.6em"></text>
      </g>
    </g>
    <g transform="translate(20.57,54.72)" id="img-8213e5c5-58">
      <g class="primitive">
        <text text-anchor="middle" dy="0.6em"></text>
      </g>
    </g>
    <g transform="translate(24.19,54.72)" id="img-8213e5c5-59">
      <g class="primitive">
        <text text-anchor="middle" dy="0.6em">1.0</text>
      </g>
    </g>
    <g transform="translate(27.81,54.72)" id="img-8213e5c5-60">
      <g class="primitive">
        <text text-anchor="middle" dy="0.6em"></text>
      </g>
    </g>
    <g transform="translate(31.42,54.72)" id="img-8213e5c5-61">
      <g class="primitive">
        <text text-anchor="middle" dy="0.6em"></text>
      </g>
    </g>
    <g transform="translate(35.04,54.72)" id="img-8213e5c5-62">
      <g class="primitive">
        <text text-anchor="middle" dy="0.6em"></text>
      </g>
    </g>
    <g transform="translate(38.66,54.72)" id="img-8213e5c5-63">
      <g class="primitive">
        <text text-anchor="middle" dy="0.6em"></text>
      </g>
    </g>
    <g transform="translate(42.27,54.72)" id="img-8213e5c5-64">
      <g class="primitive">
        <text text-anchor="middle" dy="0.6em">1.5</text>
      </g>
    </g>
    <g transform="translate(45.89,54.72)" id="img-8213e5c5-65">
      <g class="primitive">
        <text text-anchor="middle" dy="0.6em"></text>
      </g>
    </g>
    <g transform="translate(49.51,54.72)" id="img-8213e5c5-66">
      <g class="primitive">
        <text text-anchor="middle" dy="0.6em"></text>
      </g>
    </g>
    <g transform="translate(53.12,54.72)" id="img-8213e5c5-67">
      <g class="primitive">
        <text text-anchor="middle" dy="0.6em"></text>
      </g>
    </g>
    <g transform="translate(56.74,54.72)" id="img-8213e5c5-68">
      <g class="primitive">
        <text text-anchor="middle" dy="0.6em"></text>
      </g>
    </g>
    <g transform="translate(60.35,54.72)" id="img-8213e5c5-69">
      <g class="primitive">
        <text text-anchor="middle" dy="0.6em">2.0</text>
      </g>
    </g>
    <g transform="translate(63.97,54.72)" id="img-8213e5c5-70">
      <g class="primitive">
        <text text-anchor="middle" dy="0.6em"></text>
      </g>
    </g>
    <g transform="translate(67.59,54.72)" id="img-8213e5c5-71">
      <g class="primitive">
        <text text-anchor="middle" dy="0.6em"></text>
      </g>
    </g>
    <g transform="translate(71.2,54.72)" id="img-8213e5c5-72">
      <g class="primitive">
        <text text-anchor="middle" dy="0.6em"></text>
      </g>
    </g>
    <g transform="translate(74.82,54.72)" id="img-8213e5c5-73">
      <g class="primitive">
        <text text-anchor="middle" dy="0.6em"></text>
      </g>
    </g>
    <g transform="translate(78.44,54.72)" id="img-8213e5c5-74">
      <g class="primitive">
        <text text-anchor="middle" dy="0.6em">2.5</text>
      </g>
    </g>
  </g>
  <g class="guide colorkey" id="img-8213e5c5-75">
    <g class="color_Pg" id="img-8213e5c5-76">
      <g fill="#4C404B" font-size="2.82" font-family="'PT Sans','Helvetica Neue','Helvetica',sans-serif" id="img-8213e5c5-77">
        <g transform="translate(84.91,30.33)" id="img-8213e5c5-78">
          <g class="primitive">
            <text dy="0.35em">P<tspan dy="0.4em" font-size="83%">g</tspan></text>
          </g>
        </g>
      </g>
      <g fill-opacity="1" fill="#000000" stroke="#FFFFFF" id="img-8213e5c5-79">
        <g transform="translate(82.67,30.33)" id="img-8213e5c5-80">
          <path d="M-1.24,-1.24 L1.24,-1.24 1.24,1.24 -1.24,1.24  z" class="primitive"/>
        </g>
      </g>
    </g>
    <g fill="#362A35" font-size="3.88" font-family="'PT Sans','Helvetica Neue','Helvetica',sans-serif" stroke="#000000" stroke-opacity="0.000" id="img-8213e5c5-81">
      <g transform="translate(81.44,25.19)" id="img-8213e5c5-82">
        <g class="primitive">
          <text dy="-0em"></text>
        </g>
      </g>
    </g>
  </g>
  <g clip-path="url(#img-8213e5c5-83)">
    <g id="img-8213e5c5-84">
      <g pointer-events="visible" stroke-width="0.3" fill="#000000" fill-opacity="0.000" stroke="#000000" stroke-opacity="0.000" class="guide background" id="img-8213e5c5-85">
        <g transform="translate(47.7,27.86)" id="img-8213e5c5-86">
          <path d="M-32.74,-25.86 L32.74,-25.86 32.74,25.86 -32.74,25.86  z" class="primitive"/>
        </g>
      </g>
      <g class="guide ygridlines xfixed" stroke-dasharray="0.5,0.5" stroke-width="0.2" stroke="#D0D0E0" id="img-8213e5c5-87">
        <g transform="translate(47.7,51.72)" id="img-8213e5c5-88">
          <path fill="none" d="M-32.74,0 L32.74,0 " class="primitive"/>
        </g>
        <g transform="translate(47.7,39.79)" id="img-8213e5c5-89">
          <path fill="none" d="M-32.74,0 L32.74,0 " class="primitive"/>
        </g>
        <g transform="translate(47.7,27.86)" id="img-8213e5c5-90">
          <path fill="none" d="M-32.74,0 L32.74,0 " class="primitive"/>
        </g>
        <g transform="translate(47.7,15.93)" id="img-8213e5c5-91">
          <path fill="none" d="M-32.74,0 L32.74,0 " class="primitive"/>
        </g>
        <g transform="translate(47.7,4)" id="img-8213e5c5-92">
          <path fill="none" d="M-32.74,0 L32.74,0 " class="primitive"/>
        </g>
      </g>
      <g class="guide xgridlines yfixed" stroke-dasharray="0.5,0.5" stroke-width="0.2" stroke="#D0D0E0" id="img-8213e5c5-93">
        <g transform="translate(16.96,27.86)" id="img-8213e5c5-94">
          <path fill="none" d="M0,-25.86 L0,25.86 " class="primitive"/>
        </g>
        <g transform="translate(20.57,27.86)" id="img-8213e5c5-95">
          <path fill="none" d="M0,-25.86 L0,25.86 " class="primitive"/>
        </g>
        <g transform="translate(24.19,27.86)" id="img-8213e5c5-96">
          <path fill="none" d="M0,-25.86 L0,25.86 " class="primitive"/>
        </g>
        <g transform="translate(27.81,27.86)" id="img-8213e5c5-97">
          <path fill="none" d="M0,-25.86 L0,25.86 " class="primitive"/>
        </g>
        <g transform="translate(31.42,27.86)" id="img-8213e5c5-98">
          <path fill="none" d="M0,-25.86 L0,25.86 " class="primitive"/>
        </g>
        <g transform="translate(35.04,27.86)" id="img-8213e5c5-99">
          <path fill="none" d="M0,-25.86 L0,25.86 " class="primitive"/>
        </g>
        <g transform="translate(38.66,27.86)" id="img-8213e5c5-100">
          <path fill="none" d="M0,-25.86 L0,25.86 " class="primitive"/>
        </g>
        <g transform="translate(42.27,27.86)" id="img-8213e5c5-101">
          <path fill="none" d="M0,-25.86 L0,25.86 " class="primitive"/>
        </g>
        <g transform="translate(45.89,27.86)" id="img-8213e5c5-102">
          <path fill="none" d="M0,-25.86 L0,25.86 " class="primitive"/>
        </g>
        <g transform="translate(49.51,27.86)" id="img-8213e5c5-103">
          <path fill="none" d="M0,-25.86 L0,25.86 " class="primitive"/>
        </g>
        <g transform="translate(53.12,27.86)" id="img-8213e5c5-104">
          <path fill="none" d="M0,-25.86 L0,25.86 " class="primitive"/>
        </g>
        <g transform="translate(56.74,27.86)" id="img-8213e5c5-105">
          <path fill="none" d="M0,-25.86 L0,25.86 " class="primitive"/>
        </g>
        <g transform="translate(60.35,27.86)" id="img-8213e5c5-106">
          <path fill="none" d="M0,-25.86 L0,25.86 " class="primitive"/>
        </g>
        <g transform="translate(63.97,27.86)" id="img-8213e5c5-107">
          <path fill="none" d="M0,-25.86 L0,25.86 " class="primitive"/>
        </g>
        <g transform="translate(67.59,27.86)" id="img-8213e5c5-108">
          <path fill="none" d="M0,-25.86 L0,25.86 " class="primitive"/>
        </g>
        <g transform="translate(71.2,27.86)" id="img-8213e5c5-109">
          <path fill="none" d="M0,-25.86 L0,25.86 " class="primitive"/>
        </g>
        <g transform="translate(74.82,27.86)" id="img-8213e5c5-110">
          <path fill="none" d="M0,-25.86 L0,25.86 " class="primitive"/>
        </g>
        <g transform="translate(78.44,27.86)" id="img-8213e5c5-111">
          <path fill="none" d="M0,-25.86 L0,25.86 " class="primitive"/>
        </g>
      </g>
      <g class="plotpanel" id="img-8213e5c5-112">
        <metadata>
          <boundingbox value="14.958333333333329mm 2.0mm 65.47833333333334mm 51.715mm"/>
          <unitbox value="0.7446959633475209 41.676621607460966 1.8106080733049585 -43.35324321492193"/>
        </metadata>
        <g stroke-width="0.3" fill="#000000" fill-opacity="0.000" class="geometry" id="img-8213e5c5-113">
          <g class="color_Pg" stroke-dasharray="none" stroke="#000000" id="img-8213e5c5-114">
            <g transform="translate(41.18,51.06)" id="img-8213e5c5-115">
              <path fill="none" d="M-23.96,0.65 L-23.45,0.65 -23.45,0.65 -22.93,0.65 -22.93,0.65 -22.39,0.65 -22.39,0.65 -21.85,0.65 -21.85,0.65 -21.29,0.65 -21.29,0.65 -20.72,0.65 -20.72,0.65 -20.15,0.65 -20.15,0.65 -19.56,0.65 -19.56,0.65 -18.95,0.65 -18.95,0.65 -18.34,0.65 -18.34,0.65 -17.71,0.65 -17.71,0.65 -17.07,0.65 -17.07,0.65 -16.42,0.65 -16.42,0.65 -15.75,0.65 -15.75,0.65 -15.08,0.65 -15.08,0.65 -14.38,0.65 -14.38,0.65 -13.67,0.65 -13.67,0.65 -12.95,0.65 -12.95,0.65 -12.21,0.65 -12.21,0.65 -11.46,0.65 -11.46,0.65 -10.69,0.65 -10.69,0.65 -9.9,0.65 -9.9,0.65 -9.1,0.65 -9.1,0.65 -8.27,0.65 -8.27,0.65 -7.44,0.65 -7.44,0.65 -6.58,0.65 -6.58,0.65 -5.7,0.65 -5.7,0.65 -4.81,0.65 -4.81,0.65 -3.89,0.65 -3.89,0.65 -2.96,0.65 -2.96,0.65 -2,0.65 -2,0.65 -1.02,0.65 -1.02,0.65 -0.02,0.65 -0.02,0.65 1,0.65 1,0.65 2.05,0.65 2.05,0.65 3.12,0.65 3.12,0.65 4.21,0.65 4.21,-38.29 5.33,-38.29 5.33,0.65 6.48,0.65 6.48,0.65 7.65,0.65 7.65,0.65 8.86,0.65 8.86,0.65 10.09,0.65 10.09,0.65 11.35,0.65 11.35,0.65 12.63,0.65 12.63,0.65 13.96,0.65 13.96,0.65 15.31,0.65 15.31,0.65 16.69,0.65 16.69,0.65 18.11,0.65 18.11,0.65 19.57,0.65 19.57,0.65 21.06,0.65 21.06,0.65 22.59,0.65 22.59,0.65 24.16,0.65 24.16,0.65 25.76,0.65 25.76,0.65 27.41,0.65 27.41,0.65 29.1,0.65 29.1,0.65 30.83,0.65 30.83,0.65 32.61,0.65 32.61,0.65 34.43,0.65 34.43,0.65 36.31,0.65 36.31,0.65 " class="primitive"/>
            </g>
          </g>
        </g>
      </g>
    </g>
  </g>
  <g class="guide ylabels" font-size="2.82" font-family="'PT Sans Caption','Helvetica Neue','Helvetica',sans-serif" fill="#6C606B" id="img-8213e5c5-116">
    <g transform="translate(13.96,51.72)" id="img-8213e5c5-117">
      <g class="primitive">
        <text text-anchor="end" dy="0.35em">0</text>
      </g>
    </g>
    <g transform="translate(13.96,39.79)" id="img-8213e5c5-118">
      <g class="primitive">
        <text text-anchor="end" dy="0.35em">10</text>
      </g>
    </g>
    <g transform="translate(13.96,27.86)" id="img-8213e5c5-119">
      <g class="primitive">
        <text text-anchor="end" dy="0.35em">20</text>
      </g>
    </g>
    <g transform="translate(13.96,15.93)" id="img-8213e5c5-120">
      <g class="primitive">
        <text text-anchor="end" dy="0.35em">30</text>
      </g>
    </g>
    <g transform="translate(13.96,4)" id="img-8213e5c5-121">
      <g class="primitive">
        <text text-anchor="end" dy="0.35em">40</text>
      </g>
    </g>
  </g>
  <g font-size="3.88" font-family="'PT Sans','Helvetica Neue','Helvetica',sans-serif" fill="#564A55" stroke="#000000" stroke-opacity="0.000" id="img-8213e5c5-122">
    <g transform="translate(5.81,25.86)" id="img-8213e5c5-123">
      <g class="primitive">
        <text text-anchor="middle" dy="0.35em" transform="rotate(-90,0, 2)">Probability Density (-)</text>
      </g>
    </g>
  </g>
</g>
<defs>
  <clipPath id="img-8213e5c5-17">
    <path d="M104.96,2 L167.37,2 167.37,53.72 104.96,53.72 " />
  </clipPath>
  <clipPath id="img-8213e5c5-83">
    <path d="M14.96,2 L80.44,2 80.44,53.72 14.96,53.72 " />
  </clipPath>
</defs>
</svg>
