<?xml version="1.0" encoding="UTF-8"?>
<svg xmlns="http://www.w3.org/2000/svg"
     xmlns:xlink="http://www.w3.org/1999/xlink"
     xmlns:gadfly="http://www.gadflyjl.org/ns"
     version="1.2"
     width="180mm" height="70mm" viewBox="0 0 180 70"
     stroke="none"
     fill="#000000"
     stroke-width="0.3"
     font-size="3.88"
>
<defs>
  <marker id="arrow" markerWidth="15" markerHeight="7" refX="5" refY="3.5" orient="auto" markerUnits="strokeWidth">
    <path d="M0,0 L15,3.5 L0,7 z" stroke="context-stroke" fill="context-stroke"/>
  </marker>
</defs>
<g class="plotroot xscalable yscalable" id="img-f0ee02ed-1">
  <g font-size="3.88" font-family="'PT Sans','Helvetica Neue','Helvetica',sans-serif" fill="#564A55" stroke="#000000" stroke-opacity="0.000" id="img-f0ee02ed-2">
    <g transform="translate(132.41,61.39)">
      <g class="primitive">
        <text text-anchor="middle" dy="0.6em">Apparent Growth Factor (-)</text>
      </g>
    </g>
  </g>
  <g class="guide xlabels" font-size="2.82" font-family="'PT Sans Caption','Helvetica Neue','Helvetica',sans-serif" fill="#6C606B" id="img-f0ee02ed-3">
    <g transform="translate(106.96,54.72)">
      <g class="primitive">
        <text text-anchor="middle" dy="0.6em"></text>
      </g>
    </g>
    <g transform="translate(109.95,54.72)">
      <g class="primitive">
        <text text-anchor="middle" dy="0.6em"></text>
      </g>
    </g>
    <g transform="translate(112.95,54.72)">
      <g class="primitive">
        <text text-anchor="middle" dy="0.6em">1.0</text>
      </g>
    </g>
    <g transform="translate(115.94,54.72)">
      <g class="primitive">
        <text text-anchor="middle" dy="0.6em"></text>
      </g>
    </g>
    <g transform="translate(118.94,54.72)">
      <g class="primitive">
        <text text-anchor="middle" dy="0.6em"></text>
      </g>
    </g>
    <g transform="translate(121.93,54.72)">
      <g class="primitive">
        <text text-anchor="middle" dy="0.6em"></text>
      </g>
    </g>
    <g transform="translate(124.93,54.72)">
      <g class="primitive">
        <text text-anchor="middle" dy="0.6em"></text>
      </g>
    </g>
    <g transform="translate(127.92,54.72)">
      <g class="primitive">
        <text text-anchor="middle" dy="0.6em">1.5</text>
      </g>
    </g>
    <g transform="translate(130.92,54.72)">
      <g class="primitive">
        <text text-anchor="middle" dy="0.6em"></text>
      </g>
    </g>
    <g transform="translate(133.91,54.72)">
      <g class="primitive">
        <text text-anchor="middle" dy="0.6em"></text>
      </g>
    </g>
    <g transform="translate(136.9,54.72)">
      <g class="primitive">
        <text text-anchor="middle" dy="0.6em"></text>
      </g>
    </g>
    <g transform="translate(139.9,54.72)">
      <g class="primitive">
        <text text-anchor="middle" dy="0.6em"></text>
      </g>
    </g>
    <g transform="translate(142.89,54.72)">
      <g class="primitive">
        <text text-anchor="middle" dy="0.6em">2.0</text>
      </g>
    </g>
    <g transform="translate(145.89,54.72)">
      <g class="primitive">
        <text text-anchor="middle" dy="0.6em"></text>
      </g>
    </g>
    <g transform="translate(148.88,54.72)">
      <g class="primitive">
        <text text-anchor="middle" dy="0.6em"></text>
      </g>
    </g>
    <g transform="translate(151.88,54.72)">
      <g class="primitive">
        <text text-anchor="middle" dy="0.6em"></text>
      </g>
    </g>
    <g transform="translate(154.87,54.72)">
      <g class="primitive">
        <text text-anchor="middle" dy="0.6em"></text>
      </g>
    </g>
    <g transform="translate(157.87,54.72)">
      <g class="primitive">
        <text text-anchor="middle" dy="0.6em">2.5</text>
      </g>
    </g>
  </g>
  <g class="guide colorkey" id="img-f0ee02ed-4">
    <g fill="#4C404B" font-size="2.82" font-family="'PT Sans','Helvetica Neue','Helvetica',sans-serif" id="img-f0ee02ed-5">
      <g transform="translate(163.68,24.23)" id="img-f0ee02ed-6" class="color_Populations">
        <g class="primitive">
          <text dy="0.35em">Populations</text>
        </g>
      </g>
      <g transform="translate(163.68,27.86)" id="img-f0ee02ed-7" class="color_Bimodal">
        <g class="primitive">
          <text dy="0.35em">Bimodal</text>
        </g>
      </g>
      <g transform="translate(163.68,31.48)" id="img-f0ee02ed-8" class="color_Truncated">
        <g class="primitive">
          <text dy="0.35em">Truncated</text>
        </g>
      </g>
      <g transform="translate(163.68,35.11)" id="img-f0ee02ed-9" class="color_Uniform">
        <g class="primitive">
          <text dy="0.35em">Uniform</text>
        </g>
      </g>
    </g>
    <g fill-opacity="1" id="img-f0ee02ed-10">
      <g transform="translate(161.77,24.23)" id="img-f0ee02ed-11" fill="#000000" class="color_Populations" stroke="#FFFFFF">
        <path d="M-0.91,-0.91 L0.91,-0.91 0.91,0.91 -0.91,0.91  z" class="primitive"/>
      </g>
      <g transform="translate(161.77,27.86)" id="img-f0ee02ed-12" fill="#8B0000" class="color_Bimodal" stroke="#FFFFFF">
        <path d="M-0.91,-0.91 L0.91,-0.91 0.91,0.91 -0.91,0.91  z" class="primitive"/>
      </g>
      <g transform="translate(161.77,31.48)" id="img-f0ee02ed-13" fill="#4F94CD" class="color_Truncated" stroke="#FFFFFF">
        <path d="M-0.91,-0.91 L0.91,-0.91 0.91,0.91 -0.91,0.91  z" class="primitive"/>
      </g>
      <g transform="translate(161.77,35.11)" id="img-f0ee02ed-14" fill="#B8860B" class="color_Uniform" stroke="#FFFFFF">
        <path d="M-0.91,-0.91 L0.91,-0.91 0.91,0.91 -0.91,0.91  z" class="primitive"/>
      </g>
    </g>
    <g fill="#362A35" font-size="3.88" font-family="'PT Sans','Helvetica Neue','Helvetica',sans-serif" stroke="#000000" stroke-opacity="0.000" id="img-f0ee02ed-15">
      <g transform="translate(160.87,20.41)" id="img-f0ee02ed-16">
        <g class="primitive">
          <text dy="-0em"></text>
        </g>
      </g>
    </g>
  </g>
  <g clip-path="url(#img-f0ee02ed-17)">
    <g id="img-f0ee02ed-18">
      <g pointer-events="visible" stroke-width="0.3" fill="#000000" fill-opacity="0.000" stroke="#000000" stroke-opacity="0.000" class="guide background" id="img-f0ee02ed-19">
        <g transform="translate(132.41,27.86)" id="img-f0ee02ed-20">
          <path d="M-27.45,-25.86 L27.45,-25.86 27.45,25.86 -27.45,25.86  z" class="primitive"/>
        </g>
      </g>
      <g class="guide ygridlines xfixed" stroke-dasharray="0.5,0.5" stroke-width="0.2" stroke="#D0D0E0" id="img-f0ee02ed-21">
        <g transform="translate(132.41,51.72)" id="img-f0ee02ed-22">
          <path fill="none" d="M-27.45,0 L27.45,0 " class="primitive"/>
        </g>
        <g transform="translate(132.41,35.81)" id="img-f0ee02ed-23">
          <path fill="none" d="M-27.45,0 L27.45,0 " class="primitive"/>
        </g>
        <g transform="translate(132.41,19.91)" id="img-f0ee02ed-24">
          <path fill="none" d="M-27.45,0 L27.45,0 " class="primitive"/>
        </g>
        <g transform="translate(132.41,4)" id="img-f0ee02ed-25">
          <path fill="none" d="M-27.45,0 L27.45,0 " class="primitive"/>
        </g>
      </g>
      <g class="guide xgridlines yfixed" stroke-dasharray="0.5,0.5" stroke-width="0.2" stroke="#D0D0E0" id="img-f0ee02ed-26">
        <g transform="translate(106.96,27.86)" id="img-f0ee02ed-27">
          <path fill="none" d="M0,-25.86 L0,25.86 " class="primitive"/>
        </g>
        <g transform="translate(109.95,27.86)" id="img-f0ee02ed-28">
          <path fill="none" d="M0,-25.86 L0,25.86 " class="primitive"/>
        </g>
        <g transform="translate(112.95,27.86)" id="img-f0ee02ed-29">
          <path fill="none" d="M0,-25.86 L0,25.86 " class="primitive"/>
        </g>
        <g transform="translate(115.94,27.86)" id="img-f0ee02ed-30">
          <path fill="none" d="M0,-25.86 L0,25.86 " class="primitive"/>
        </g>
        <g transform="translate(118.94,27.86)" id="img-f0ee02ed-31">
          <path fill="none" d="M0,-25.86 L0,25.86 " class="primitive"/>
        </g>
        <g transform="translate(121.93,27.86)" id="img-f0ee02ed-32">
          <path fill="none" d="M0,-25.86 L0,25.86 " class="primitive"/>
        </g>
        <g transform="translate(124.93,27.86)" id="img-f0ee02ed-33">
          <path fill="none" d="M0,-25.86 L0,25.86 " class="primitive"/>
        </g>
        <g transform="translate(127.92,27.86)" id="img-f0ee02ed-34">
          <path fill="none" d="M0,-25.86 L0,25.86 " class="primitive"/>
        </g>
        <g transform="translate(130.92,27.86)" id="img-f0ee02ed-35">
          <path fill="none" d="M0,-25.86 L0,25.86 " class="primitive"/>
        </g>
        <g transform="translate(133.91,27.86)" id="img-f0ee02ed-36">
          <path fill="none" d="M0,-25.86 L0,25.86 " class="primitive"/>
        </g>
        <g transform="translate(136.9,27.86)" id="img-f0ee02ed-37">
          <path fill="none" d="M0,-25.86 L0,25.86 " class="primitive"/>
        </g>
        <g transform="translate(139.9,27.86)" id="img-f0ee02ed-38">
          <path fill="none" d="M0,-25.86 L0,25.86 " class="primitive"/>
        </g>
        <g transform="translate(142.89,27.86)" id="img-f0ee02ed-39">
          <path fill="none" d="M0,-25.86 L0,25.86 " class="primitive"/>
        </g>
        <g transform="translate(145.89,27.86)" id="img-f0ee02ed-40">
          <path fill="none" d="M0,-25.86 L0,25.86 " class="primitive"/>
        </g>
        <g transform="translate(148.88,27.86)" id="img-f0ee02ed-41">
          <path fill="none" d="M0,-25.86 L0,25.86 " class="primitive"/>
        </g>
        <g transform="translate(151.88,27.86)" id="img-f0ee02ed-42">
          <path fill="none" d="M0,-25.86 L0,25.86 " class="primitive"/>
        </g>
        <g transform="translate(154.87,27.86)" id="img-f0ee02ed-43">
          <path fill="none" d="M0,-25.86 L0,25.86 " class="primitive"/>
        </g>
        <g transform="translate(157.87,27.86)" id="img-f0ee02ed-44">
          <path fill="none" d="M0,-25.86 L0,25.86 " class="primitive"/>
        </g>
      </g>
      <g class="plotpanel" id="img-f0ee02ed-45">
        <metadata>
          <boundingbox value="104.95833333333334mm 2.0mm 54.908333333333324mm 51.715mm"/>
          <unitbox value="0.7332132918644623 15.628733102797863 1.8335734162710755 -16.257466205595723"/>
        </metadata>
        <g stroke-width="0.3" fill="#000000" fill-opacity="0.000" class="geometry" id="img-f0ee02ed-46">
          <g transform="translate(127.17,40.32)" id="img-f0ee02ed-47" stroke-dasharray="none" class="color_Populations" stroke="#000000">
            <path fill="none" d="M-19.79,11.26 L-18.93,11.26 -18.93,10.41 -18.02,10.41 -18.02,7.68 -17.08,7.68 -17.08,1.88 -16.11,1.88 -16.11,-6.84 -15.09,-6.84 -15.09,-15.95 -14.03,-15.95 -14.03,-21.47 -12.93,-21.47 -12.93,-20.81 -11.78,-20.81 -11.78,-15.26 -10.58,-15.26 -10.58,-8.52 -9.33,-8.52 -9.33,-3.57 -8.03,-3.57 -8.03,-0.61 -6.67,-0.61 -6.67,1.82 -5.25,1.82 -5.25,4.46 -3.77,4.46 -3.77,6.71 -2.22,6.71 -2.22,7.49 -0.6,7.49 -0.6,6.64 1.1,6.64 1.1,5.22 2.87,5.22 2.87,4.57 4.73,4.57 4.73,5.21 6.67,5.21 6.67,6.24 8.71,6.24 8.71,6.1 10.84,6.1 10.84,3.77 13.08,3.77 13.08,-0.22 15.44,-0.22 15.44,-3.83 17.91,-3.83 17.91,-4.77 20.5,-4.77 20.5,-2.18 23.23,-2.18 23.23,2.54 26.1,2.54 26.1,7.06 29.12,7.06 29.12,9.89 " class="primitive"/>
          </g>
          <g transform="translate(127.17,40.26)" id="img-f0ee02ed-48" stroke-dasharray="none" class="color_Truncated" stroke="#4F94CD">
            <path fill="none" d="M-19.79,11.43 L-18.93,11.43 -18.93,11.3 -18.02,11.3 -18.02,10.77 -17.08,10.77 -17.08,9.37 -16.11,9.37 -16.11,6.56 -15.09,6.56 -15.09,2.09 -14.03,2.09 -14.03,-3.7 -12.93,-3.7 -12.93,-9.87 -11.78,-9.87 -11.78,-15.39 -10.58,-15.39 -10.58,-19.48 -9.33,-19.48 -9.33,-21.81 -8.03,-21.81 -8.03,-22.38 -6.67,-22.38 -6.67,-21.28 -5.25,-21.28 -5.25,-18.7 -3.77,-18.7 -3.77,-14.9 -2.22,-14.9 -2.22,-10.3 -0.6,-10.3 -0.6,-5.42 1.1,-5.42 1.1,-0.79 2.87,-0.79 2.87,3.2 4.73,3.2 4.73,6.3 6.67,6.3 6.67,8.5 8.71,8.5 8.71,9.9 10.84,9.9 10.84,10.71 13.08,10.71 13.08,11.13 15.44,11.13 15.44,11.33 17.91,11.33 17.91,11.41 20.5,11.41 20.5,11.44 23.23,11.44 23.23,11.45 26.1,11.45 26.1,11.45 29.12,11.45 29.12,11.45 " class="primitive"/>
          </g>
          <g transform="translate(127.17,40.33)" id="img-f0ee02ed-49" stroke-dasharray="none" class="color_Bimodal" stroke="#8B0000">
            <path fill="none" d="M-19.79,11.38 L-18.93,11.38 -18.93,11.38 -18.02,11.38 -18.02,11.38 -17.08,11.38 -17.08,11.37 -16.11,11.37 -16.11,11.33 -15.09,11.33 -15.09,11.2 -14.03,11.2 -14.03,10.79 -12.93,10.79 -12.93,9.74 -11.78,9.74 -11.78,7.43 -10.58,7.43 -10.58,3.28 -9.33,3.28 -9.33,-2.8 -8.03,-2.8 -8.03,-9.92 -6.67,-9.92 -6.67,-16.21 -5.25,-16.21 -5.25,-19.7 -3.77,-19.7 -3.77,-19.51 -2.22,-19.51 -2.22,-16.51 -0.6,-16.51 -0.6,-12.71 1.1,-12.71 1.1,-9.93 2.87,-9.93 2.87,-8.73 4.73,-8.73 4.73,-8.45 6.67,-8.45 6.67,-7.95 8.71,-7.95 8.71,-6.43 10.84,-6.43 10.84,-3.77 13.08,-3.77 13.08,-0.38 15.44,-0.38 15.44,3.1 17.91,3.1 17.91,6.12 20.5,6.12 20.5,8.38 23.23,8.38 23.23,9.87 26.1,9.87 26.1,10.71 29.12,10.71 29.12,11.13 " class="primitive"/>
          </g>
          <g transform="translate(127.17,40.33)" id="img-f0ee02ed-50" stroke-dasharray="none" class="color_Uniform" stroke="#B8860B">
            <path fill="none" d="M-19.79,11.38 L-18.93,11.38 -18.93,11.38 -18.02,11.38 -18.02,11.38 -17.08,11.38 -17.08,11.38 -16.11,11.38 -16.11,11.38 -15.09,11.38 -15.09,11.38 -14.03,11.38 -14.03,11.38 -12.93,11.38 -12.93,11.38 -11.78,11.38 -11.78,11.38 -10.58,11.38 -10.58,11.33 -9.33,11.33 -9.33,10.99 -8.03,10.99 -8.03,9.8 -6.67,9.8 -6.67,6.84 -5.25,6.84 -5.25,1.33 -3.77,1.33 -3.77,-6.75 -2.22,-6.75 -2.22,-16.19 -0.6,-16.19 -0.6,-25.03 1.1,-25.03 1.1,-31.46 2.87,-31.46 2.87,-34.3 4.73,-34.3 4.73,-32.98 6.67,-32.98 6.67,-27.38 8.71,-27.38 8.71,-18.36 10.84,-18.36 10.84,-8.02 13.08,-8.02 13.08,1.02 15.44,1.02 15.44,7.06 17.91,7.06 17.91,10.07 20.5,10.07 20.5,11.13 23.23,11.13 23.23,11.36 26.1,11.36 26.1,11.38 29.12,11.38 29.12,11.38 " class="primitive"/>
          </g>
        </g>
      </g>
    </g>
  </g>
  <g class="guide ylabels" font-size="2.82" font-family="'PT Sans Caption','Helvetica Neue','Helvetica',sans-serif" fill="#6C606B" id="img-f0ee02ed-51">
    <g transform="translate(103.96,51.72)" id="img-f0ee02ed-52">
      <g class="primitive">
        <text text-anchor="end" dy="0.35em">0</text>
      </g>
    </g>
    <g transform="translate(103.96,35.81)" id="img-f0ee02ed-53">
      <g class="primitive">
        <text text-anchor="end" dy="0.35em">5</text>
      </g>
    </g>
    <g transform="translate(103.96,19.91)" id="img-f0ee02ed-54">
      <g class="primitive">
        <text text-anchor="end" dy="0.35em">10</text>
      </g>
    </g>
    <g transform="translate(103.96,4)" id="img-f0ee02ed-55">
      <g class="primitive">
        <text text-anchor="end" dy="0.35em">15</text>
      </g>
    </g>
  </g>
  <g font-size="3.88" font-family="'PT Sans','Helvetica Neue','Helvetica',sans-serif" fill="#564A55" stroke="#000000" stroke-opacity="0.000" id="img-f0ee02ed-56">
    <g transform="translate(95.81,25.86)" id="img-f0ee02ed-57">
      <g class="primitive">
        <text text-anchor="middle" dy="0.35em" transform="rotate(-90,0, 2)">Concentration (cm⁻³)</text>
      </g>
    </g>
  </g>
</g>
<g class="plotroot xscalable yscalable" id="img-f0ee02ed-58">
  <g font-size="3.88" font-family="'PT Sans','Helvetica Neue','Helvetica',sans-serif" fill="#564A55" stroke="#000000" stroke-opacity="0.000" id="img-f0ee02ed-59">
    <g transform="translate(42.41,61.39)" id="img-f0ee02ed-60">
      <g class="primitive">
        <text text-anchor="middle" dy="0.6em">Growth Factor (-)</text>
      </g>
    </g>
  </g>
  <g class="guide xlabels" font-size="2.82" font-family="'PT Sans Caption','Helvetica Neue','Helvetica',sans-serif" fill="#6C606B" id="img-f0ee02ed-61">
    <g transform="translate(16.96,54.72)" id="img-f0ee02ed-62">
      <g class="primitive">
        <text text-anchor="middle" dy="0.6em"></text>
      </g>
    </g>
    <g transform="translate(19.95,54.72)" id="img-f0ee02ed-63">
      <g class="primitive">
        <text text-anchor="middle" dy="0.6em"></text>
      </g>
    </g>
    <g transform="translate(22.95,54.72)" id="img-f0ee02ed-64">
      <g class="primitive">
        <text text-anchor="middle" dy="0.6em">1.0</text>
      </g>
    </g>
    <g transform="translate(25.94,54.72)" id="img-f0ee02ed-65">
      <g class="primitive">
        <text text-anchor="middle" dy="0.6em"></text>
      </g>
    </g>
    <g transform="translate(28.94,54.72)" id="img-f0ee02ed-66">
      <g class="primitive">
        <text text-anchor="middle" dy="0.6em"></text>
      </g>
    </g>
    <g transform="translate(31.93,54.72)" id="img-f0ee02ed-67">
      <g class="primitive">
        <text text-anchor="middle" dy="0.6em"></text>
      </g>
    </g>
    <g transform="translate(34.93,54.72)" id="img-f0ee02ed-68">
      <g class="primitive">
        <text text-anchor="middle" dy="0.6em"></text>
      </g>
    </g>
    <g transform="translate(37.92,54.72)" id="img-f0ee02ed-69">
      <g class="primitive">
        <text text-anchor="middle" dy="0.6em">1.5</text>
      </g>
    </g>
    <g transform="translate(40.92,54.72)" id="img-f0ee02ed-70">
      <g class="primitive">
        <text text-anchor="middle" dy="0.6em"></text>
      </g>
    </g>
    <g transform="translate(43.91,54.72)" id="img-f0ee02ed-71">
      <g class="primitive">
        <text text-anchor="middle" dy="0.6em"></text>
      </g>
    </g>
    <g transform="translate(46.9,54.72)" id="img-f0ee02ed-72">
      <g class="primitive">
        <text text-anchor="middle" dy="0.6em"></text>
      </g>
    </g>
    <g transform="translate(49.9,54.72)" id="img-f0ee02ed-73">
      <g class="primitive">
        <text text-anchor="middle" dy="0.6em"></text>
      </g>
    </g>
    <g transform="translate(52.89,54.72)" id="img-f0ee02ed-74">
      <g class="primitive">
        <text text-anchor="middle" dy="0.6em">2.0</text>
      </g>
    </g>
    <g transform="translate(55.89,54.72)" id="img-f0ee02ed-75">
      <g class="primitive">
        <text text-anchor="middle" dy="0.6em"></text>
      </g>
    </g>
    <g transform="translate(58.88,54.72)" id="img-f0ee02ed-76">
      <g class="primitive">
        <text text-anchor="middle" dy="0.6em"></text>
      </g>
    </g>
    <g transform="translate(61.88,54.72)" id="img-f0ee02ed-77">
      <g class="primitive">
        <text text-anchor="middle" dy="0.6em"></text>
      </g>
    </g>
    <g transform="translate(64.87,54.72)" id="img-f0ee02ed-78">
      <g class="primitive">
        <text text-anchor="middle" dy="0.6em"></text>
      </g>
    </g>
    <g transform="translate(67.87,54.72)" id="img-f0ee02ed-79">
      <g class="primitive">
        <text text-anchor="middle" dy="0.6em">2.5</text>
      </g>
    </g>
  </g>
  <g class="guide colorkey" id="img-f0ee02ed-80">
    <g fill="#4C404B" font-size="2.82" font-family="'PT Sans','Helvetica Neue','Helvetica',sans-serif" id="img-f0ee02ed-81">
      <g transform="translate(73.68,24.23)" id="img-f0ee02ed-82" class="color_Populations">
        <g class="primitive">
          <text dy="0.35em">Populations</text>
        </g>
      </g>
      <g transform="translate(73.68,27.86)" id="img-f0ee02ed-83" class="color_Bimodal">
        <g class="primitive">
          <text dy="0.35em">Bimodal</text>
        </g>
      </g>
      <g transform="translate(73.68,31.48)" id="img-f0ee02ed-84" class="color_Truncated">
        <g class="primitive">
          <text dy="0.35em">Truncated</text>
        </g>
      </g>
      <g transform="translate(73.68,35.11)" id="img-f0ee02ed-85" class="color_Uniform">
        <g class="primitive">
          <text dy="0.35em">Uniform</text>
        </g>
      </g>
    </g>
    <g fill-opacity="1" id="img-f0ee02ed-86">
      <g transform="translate(71.77,24.23)" id="img-f0ee02ed-87" fill="#000000" class="color_Populations" stroke="#FFFFFF">
        <path d="M-0.91,-0.91 L0.91,-0.91 0.91,0.91 -0.91,0.91  z" class="primitive"/>
      </g>
      <g transform="translate(71.77,27.86)" id="img-f0ee02ed-88" fill="#8B0000" class="color_Bimodal" stroke="#FFFFFF">
        <path d="M-0.91,-0.91 L0.91,-0.91 0.91,0.91 -0.91,0.91  z" class="primitive"/>
      </g>
      <g transform="translate(71.77,31.48)" id="img-f0ee02ed-89" fill="#4F94CD" class="color_Truncated" stroke="#FFFFFF">
        <path d="M-0.91,-0.91 L0.91,-0.91 0.91,0.91 -0.91,0.91  z" class="primitive"/>
      </g>
      <g transform="translate(71.77,35.11)" id="img-f0ee02ed-90" fill="#B8860B" class="color_Uniform" stroke="#FFFFFF">
        <path d="M-0.91,-0.91 L0.91,-0.91 0.91,0.91 -0.91,0.91  z" class="primitive"/>
      </g>
    </g>
    <g fill="#362A35" font-size="3.88" font-family="'PT Sans','Helvetica Neue','Helvetica',sans-serif" stroke="#000000" stroke-opacity="0.000" id="img-f0ee02ed-91">
      <g transform="translate(70.87,20.41)" id="img-f0ee02ed-92">
        <g class="primitive">
          <text dy="-0em"></text>
        </g>
      </g>
    </g>
  </g>
  <g clip-path="url(#img-f0ee02ed-93)">
    <g id="img-f0ee02ed-94">
      <g pointer-events="visible" stroke-width="0.3" fill="#000000" fill-opacity="0.000" stroke="#000000" stroke-opacity="0.000" class="guide background" id="img-f0ee02ed-95">
        <g transform="translate(42.41,27.86)" id="img-f0ee02ed-96">
          <path d="M-27.45,-25.86 L27.45,-25.86 27.45,25.86 -27.45,25.86  z" class="primitive"/>
        </g>
      </g>
      <g class="guide ygridlines xfixed" stroke-dasharray="0.5,0.5" stroke-width="0.2" stroke="#D0D0E0" id="img-f0ee02ed-97">
        <g transform="translate(42.41,51.72)" id="img-f0ee02ed-98">
          <path fill="none" d="M-27.45,0 L27.45,0 " class="primitive"/>
        </g>
        <g transform="translate(42.41,35.81)" id="img-f0ee02ed-99">
          <path fill="none" d="M-27.45,0 L27.45,0 " class="primitive"/>
        </g>
        <g transform="translate(42.41,19.91)" id="img-f0ee02ed-100">
          <path fill="none" d="M-27.45,0 L27.45,0 " class="primitive"/>
        </g>
        <g transform="translate(42.41,4)" id="img-f0ee02ed-101">
          <path fill="none" d="M-27.45,0 L27.45,0 " class="primitive"/>
        </g>
      </g>
      <g class="guide xgridlines yfixed" stroke-dasharray="0.5,0.5" stroke-width="0.2" stroke="#D0D0E0" id="img-f0ee02ed-102">
        <g transform="translate(16.96,27.86)" id="img-f0ee02ed-103">
          <path fill="none" d="M0,-25.86 L0,25.86 " class="primitive"/>
        </g>
        <g transform="translate(19.95,27.86)" id="img-f0ee02ed-104">
          <path fill="none" d="M0,-25.86 L0,25.86 " class="primitive"/>
        </g>
        <g transform="translate(22.95,27.86)" id="img-f0ee02ed-105">
          <path fill="none" d="M0,-25.86 L0,25.86 " class="primitive"/>
        </g>
        <g transform="translate(25.94,27.86)" id="img-f0ee02ed-106">
          <path fill="none" d="M0,-25.86 L0,25.86 " class="primitive"/>
        </g>
        <g transform="translate(28.94,27.86)" id="img-f0ee02ed-107">
          <path fill="none" d="M0,-25.86 L0,25.86 " class="primitive"/>
        </g>
        <g transform="translate(31.93,27.86)" id="img-f0ee02ed-108">
          <path fill="none" d="M0,-25.86 L0,25.86 " class="primitive"/>
        </g>
        <g transform="translate(34.93,27.86)" id="img-f0ee02ed-109">
          <path fill="none" d="M0,-25.86 L0,25.86 " class="primitive"/>
        </g>
        <g transform="translate(37.92,27.86)" id="img-f0ee02ed-110">
          <path fill="none" d="M0,-25.86 L0,25.86 " class="primitive"/>
        </g>
        <g transform="translate(40.92,27.86)" id="img-f0ee02ed-111">
          <path fill="none" d="M0,-25.86 L0,25.86 " class="primitive"/>
        </g>
        <g transform="translate(43.91,27.86)" id="img-f0ee02ed-112">
          <path fill="none" d="M0,-25.86 L0,25.86 " class="primitive"/>
        </g>
        <g transform="translate(46.9,27.86)" id="img-f0ee02ed-113">
          <path fill="none" d="M0,-25.86 L0,25.86 " class="primitive"/>
        </g>
        <g transform="translate(49.9,27.86)" id="img-f0ee02ed-114">
          <path fill="none" d="M0,-25.86 L0,25.86 " class="primitive"/>
        </g>
        <g transform="translate(52.89,27.86)" id="img-f0ee02ed-115">
          <path fill="none" d="M0,-25.86 L0,25.86 " class="primitive"/>
        </g>
        <g transform="translate(55.89,27.86)" id="img-f0ee02ed-116">
          <path fill="none" d="M0,-25.86 L0,25.86 " class="primitive"/>
        </g>
        <g transform="translate(58.88,27.86)" id="img-f0ee02ed-117">
          <path fill="none" d="M0,-25.86 L0,25.86 " class="primitive"/>
        </g>
        <g transform="translate(61.88,27.86)" id="img-f0ee02ed-118">
          <path fill="none" d="M0,-25.86 L0,25.86 " class="primitive"/>
        </g>
        <g transform="translate(64.87,27.86)" id="img-f0ee02ed-119">
          <path fill="none" d="M0,-25.86 L0,25.86 " class="primitive"/>
        </g>
        <g transform="translate(67.87,27.86)" id="img-f0ee02ed-120">
          <path fill="none" d="M0,-25.86 L0,25.86 " class="primitive"/>
        </g>
      </g>
      <g class="plotpanel" id="img-f0ee02ed-121">
        <metadata>
          <boundingbox value="14.958333333333329mm 2.0mm 54.90833333333333mm 51.715mm"/>
          <unitbox value="0.7332132918644623 15.628733102797863 1.8335734162710755 -16.257466205595723"/>
        </metadata>
        <g stroke-width="0.3" fill="#000000" fill-opacity="0.000" class="geometry" id="img-f0ee02ed-122">
          <g transform="translate(37.17,49.36)" id="img-f0ee02ed-123" stroke-dasharray="none" class="color_Populations" stroke="#000000">
            <path fill="none" d="M-19.79,2.35 L-18.93,2.35 -18.93,2.35 -18.02,2.35 -18.02,2.35 -17.08,2.35 -17.08,2.35 -16.11,2.35 -16.11,2.35 -15.09,2.35 -15.09,2.35 -14.03,2.35 -14.03,-41.71 -12.93,-41.71 -12.93,2.35 -11.78,2.35 -11.78,2.35 -10.58,2.35 -10.58,2.35 -9.33,2.35 -9.33,2.35 -8.03,2.35 -8.03,-8.38 -6.67,-8.38 -6.67,2.35 -5.25,2.35 -5.25,2.35 -3.77,2.35 -3.77,2.35 -2.22,2.35 -2.22,2.35 -0.6,2.35 -0.6,2.35 1.1,2.35 1.1,2.35 2.87,2.35 2.87,-2.9 4.73,-2.9 4.73,2.35 6.67,2.35 6.67,2.35 8.71,2.35 8.71,2.35 10.84,2.35 10.84,2.35 13.08,2.35 13.08,2.35 15.44,2.35 15.44,2.35 17.91,2.35 17.91,-7.05 20.5,-7.05 20.5,2.35 23.23,2.35 23.23,2.35 26.1,2.35 26.1,2.35 29.12,2.35 29.12,2.35 " class="primitive"/>
          </g>
          <g transform="translate(37.17,49.3)" id="img-f0ee02ed-124" stroke-dasharray="none" class="color_Truncated" stroke="#4F94CD">
            <path fill="none" d="M-19.79,2.41 L-18.93,2.41 -18.93,2.41 -18.02,2.41 -18.02,2.41 -17.08,2.41 -17.08,2.41 -16.11,2.41 -16.11,2.41 -15.09,2.41 -15.09,2.41 -14.03,2.41 -14.03,-3.45 -12.93,-3.45 -12.93,-4.2 -11.78,-4.2 -11.78,-4.83 -10.58,-4.83 -10.58,-5.25 -9.33,-5.25 -9.33,-5.39 -8.03,-5.39 -8.03,-5.19 -6.67,-5.19 -6.67,-4.63 -5.25,-4.63 -5.25,-3.75 -3.77,-3.75 -3.77,-2.64 -2.22,-2.64 -2.22,-1.44 -0.6,-1.44 -0.6,-0.29 1.1,-0.29 1.1,0.68 2.87,0.68 2.87,1.41 4.73,1.41 4.73,1.9 6.67,1.9 6.67,2.18 8.71,2.18 8.71,2.33 10.84,2.33 10.84,2.39 13.08,2.39 13.08,2.41 15.44,2.41 15.44,2.41 17.91,2.41 17.91,2.41 20.5,2.41 20.5,2.41 23.23,2.41 23.23,2.41 26.1,2.41 26.1,2.41 29.12,2.41 29.12,2.41 " class="primitive"/>
          </g>
          <g transform="translate(37.17,49.76)" id="img-f0ee02ed-125" stroke-dasharray="none" class="color_Bimodal" stroke="#8B0000">
            <path fill="none" d="M-19.79,1.96 L-18.93,1.96 -18.93,1.96 -18.02,1.96 -18.02,1.95 -17.08,1.95 -17.08,1.95 -16.11,1.95 -16.11,1.95 -15.09,1.95 -15.09,1.95 -14.03,1.95 -14.03,1.94 -12.93,1.94 -12.93,1.92 -11.78,1.92 -11.78,1.83 -10.58,1.83 -10.58,1.47 -9.33,1.47 -9.33,0.33 -8.03,0.33 -8.03,-2.24 -6.67,-2.24 -6.67,-5.7 -5.25,-5.7 -5.25,-7.43 -3.77,-7.43 -3.77,-5.51 -2.22,-5.51 -2.22,-2.2 -0.6,-2.2 -0.6,-0.52 1.1,-0.52 1.1,-0.48 2.87,-0.48 2.87,-0.9 4.73,-0.9 4.73,-1.22 6.67,-1.22 6.67,-1.25 8.71,-1.25 8.71,-0.94 10.84,-0.94 10.84,-0.35 13.08,-0.35 13.08,0.37 15.44,0.37 15.44,1.04 17.91,1.04 17.91,1.51 20.5,1.51 20.5,1.79 23.23,1.79 23.23,1.9 26.1,1.9 26.1,1.94 29.12,1.94 29.12,1.95 " class="primitive"/>
          </g>
          <g transform="translate(37.17,49.94)" id="img-f0ee02ed-126" stroke-dasharray="none" class="color_Uniform" stroke="#B8860B">
            <path fill="none" d="M-19.79,1.77 L-18.93,1.77 -18.93,1.77 -18.02,1.77 -18.02,1.77 -17.08,1.77 -17.08,1.77 -16.11,1.77 -16.11,1.77 -15.09,1.77 -15.09,1.77 -14.03,1.77 -14.03,1.77 -12.93,1.77 -12.93,1.77 -11.78,1.77 -11.78,1.77 -10.58,1.77 -10.58,1.77 -9.33,1.77 -9.33,1.77 -8.03,1.77 -8.03,1.77 -6.67,1.77 -6.67,1.77 -5.25,1.77 -5.25,1.77 -3.77,1.77 -3.77,1.77 -2.22,1.77 -2.22,-5.69 -0.6,-5.69 -0.6,-5.69 1.1,-5.69 1.1,-5.69 2.87,-5.69 2.87,-5.69 4.73,-5.69 4.73,-5.69 6.67,-5.69 6.67,-5.69 8.71,-5.69 8.71,-5.69 10.84,-5.69 10.84,1.77 13.08,1.77 13.08,1.77 15.44,1.77 15.44,1.77 17.91,1.77 17.91,1.77 20.5,1.77 20.5,1.77 23.23,1.77 23.23,1.77 26.1,1.77 26.1,1.77 29.12,1.77 29.12,1.77 " class="primitive"/>
          </g>
        </g>
      </g>
    </g>
  </g>
  <g class="guide ylabels" font-size="2.82" font-family="'PT Sans Caption','Helvetica Neue','Helvetica',sans-serif" fill="#6C606B" id="img-f0ee02ed-127">
    <g transform="translate(13.96,51.72)" id="img-f0ee02ed-128">
      <g class="primitive">
        <text text-anchor="end" dy="0.35em">0</text>
      </g>
    </g>
    <g transform="translate(13.96,35.81)" id="img-f0ee02ed-129">
      <g class="primitive">
        <text text-anchor="end" dy="0.35em">5</text>
      </g>
    </g>
    <g transform="translate(13.96,19.91)" id="img-f0ee02ed-130">
      <g class="primitive">
        <text text-anchor="end" dy="0.35em">10</text>
      </g>
    </g>
    <g transform="translate(13.96,4)" id="img-f0ee02ed-131">
      <g class="primitive">
        <text text-anchor="end" dy="0.35em">15</text>
      </g>
    </g>
  </g>
  <g font-size="3.88" font-family="'PT Sans','Helvetica Neue','Helvetica',sans-serif" fill="#564A55" stroke="#000000" stroke-opacity="0.000" id="img-f0ee02ed-132">
    <g transform="translate(5.81,25.86)" id="img-f0ee02ed-133">
      <g class="primitive">
        <text text-anchor="middle" dy="0.35em" transform="rotate(-90,0, 2)">Probability Density (-)</text>
      </g>
    </g>
  </g>
</g>
<defs>
  <clipPath id="img-f0ee02ed-17">
    <path d="M104.96,2 L159.87,2 159.87,53.72 104.96,53.72 " />
  </clipPath>
  <clipPath id="img-f0ee02ed-93">
    <path d="M14.96,2 L69.87,2 69.87,53.72 14.96,53.72 " />
  </clipPath>
</defs>
</svg>
