<?xml version="1.0" encoding="UTF-8"?>
<svg xmlns="http://www.w3.org/2000/svg"
     xmlns:xlink="http://www.w3.org/1999/xlink"
     xmlns:gadfly="http://www.gadflyjl.org/ns"
     version="1.2"
     width="180mm" height="70mm" viewBox="0 0 180 70"
     stroke="none"
     fill="#000000"
     stroke-width="0.3"
     font-size="3.88"
>
<defs>
  <marker id="arrow" markerWidth="15" markerHeight="7" refX="5" refY="3.5" orient="auto" markerUnits="strokeWidth">
    <path d="M0,0 L15,3.5 L0,7 z" stroke="context-stroke" fill="context-stroke"/>
  </marker>
</defs>
<g class="plotroot xscalable yscalable" id="img-d6fab2f5-1">
  <g font-size="3.88" font-family="'PT Sans','Helvetica Neue','Helvetica',sans-serif" fill="#564A55" stroke="#000000" stroke-opacity="0.000" id="img-d6fab2f5-2">
    <g transform="translate(132.41,61.39)">
      <g class="primitive">
        <text text-anchor="middle" dy="0.6em">Apparent Growth Factor (-)</text>
      </g>
    </g>
  </g>
  <g class="guide xlabels" font-size="2.82" font-family="'PT Sans Caption','Helvetica Neue','Helvetica',sans-serif" fill="#6C606B" id="img-d6fab2f5-3">
    <g transform="translate(106.96,54.72)">
      <g class="primitive">
        <text text-anchor="middle" dy="0.6em"></text>
      </g>
    </g>
    <g transform="translate(109.95,54.72)">
      <g class="primitive">
        <text text-anchor="middle" dy="0.6em"></text>
      </g>
    </g>
    <g transform="translate(112.95,54.72)">
      <g class="primitive">
        <text text-anchor="middle" dy="0.6em">1.0</text>
      </g>
    </g>
    <g transform="translate(115.94,54.72)">
      <g class="primitive">
        <text text-anchor="middle" dy="0.6em"></text>
      </g>
    </g>
    <g transform="translate(118.94,54.72)">
      <g class="primitive">
        <text text-anchor="middle" dy="0.6em"></text>
      </g>
    </g>
    <g transform="translate(121.93,54.72)">
      <g class="primitive">
        <text text-anchor="middle" dy="0.6em"></text>
      </g>
    </g>
    <g transform="translate(124.93,54.72)">
      <g class="primitive">
        <text text-anchor="middle" dy="0.6em"></text>
      </g>
    </g>
    <g transform="translate(127.92,54.72)">
      <g class="primitive">
        <text text-anchor="middle" dy="0.6em">1.5</text>
      </g>
    </g>
    <g transform="translate(130.92,54.72)">
      <g class="primitive">
        <text text-anchor="middle" dy="0.6em"></text>
      </g>
    </g>
    <g transform="translate(133.91,54.72)">
      <g class="primitive">
        <text text-anchor="middle" dy="0.6em"></text>
      </g>
    </g>
    <g transform="translate(136.9,54.72)">
      <g class="primitive">
        <text text-anchor="middle" dy="0.6em"></text>
      </g>
    </g>
    <g transform="translate(139.9,54.72)">
      <g class="primitive">
        <text text-anchor="middle" dy="0.6em"></text>
      </g>
    </g>
    <g transform="translate(142.89,54.72)">
      <g class="primitive">
        <text text-anchor="middle" dy="0.6em">2.0</text>
      </g>
    </g>
    <g transform="translate(145.89,54.72)">
      <g class="primitive">
        <text text-anchor="middle" dy="0.6em"></text>
      </g>
    </g>
    <g transform="translate(148.88,54.72)">
      <g class="primitive">
        <text text-anchor="middle" dy="0.6em"></text>
      </g>
    </g>
    <g transform="translate(151.88,54.72)">
      <g class="primitive">
        <text text-anchor="middle" dy="0.6em"></text>
      </g>
    </g>
    <g transform="translate(154.87,54.72)">
      <g class="primitive">
        <text text-anchor="middle" dy="0.6em"></text>
      </g>
    </g>
    <g transform="translate(157.87,54.72)">
      <g class="primitive">
        <text text-anchor="middle" dy="0.6em">2.5</text>
      </g>
    </g>
  </g>
  <g class="guide colorkey" id="img-d6fab2f5-4">
    <g fill="#4C404B" font-size="2.82" font-family="'PT Sans','Helvetica Neue','Helvetica',sans-serif" id="img-d6fab2f5-5">
      <g transform="translate(163.68,24.23)" id="img-d6fab2f5-6" class="color_Populations">
        <g class="primitive">
          <text dy="0.35em">Populations</text>
        </g>
      </g>
      <g transform="translate(163.68,27.86)" id="img-d6fab2f5-7" class="color_Bimodal">
        <g class="primitive">
          <text dy="0.35em">Bimodal</text>
        </g>
      </g>
      <g transform="translate(163.68,31.48)" id="img-d6fab2f5-8" class="color_Truncated">
        <g class="primitive">
          <text dy="0.35em">Truncated</text>
        </g>
      </g>
      <g transform="translate(163.68,35.11)" id="img-d6fab2f5-9" class="color_Uniform">
        <g class="primitive">
          <text dy="0.35em">Uniform</text>
        </g>
      </g>
    </g>
    <g fill-opacity="1" id="img-d6fab2f5-10">
      <g transform="translate(161.77,24.23)" id="img-d6fab2f5-11" fill="#000000" stroke="#FFFFFF" class="color_Populations">
        <path d="M-0.91,-0.91 L0.91,-0.91 0.91,0.91 -0.91,0.91  z" class="primitive"/>
      </g>
      <g transform="translate(161.77,27.86)" id="img-d6fab2f5-12" fill="#8B0000" stroke="#FFFFFF" class="color_Bimodal">
        <path d="M-0.91,-0.91 L0.91,-0.91 0.91,0.91 -0.91,0.91  z" class="primitive"/>
      </g>
      <g transform="translate(161.77,31.48)" id="img-d6fab2f5-13" fill="#4F94CD" stroke="#FFFFFF" class="color_Truncated">
        <path d="M-0.91,-0.91 L0.91,-0.91 0.91,0.91 -0.91,0.91  z" class="primitive"/>
      </g>
      <g transform="translate(161.77,35.11)" id="img-d6fab2f5-14" fill="#B8860B" stroke="#FFFFFF" class="color_Uniform">
        <path d="M-0.91,-0.91 L0.91,-0.91 0.91,0.91 -0.91,0.91  z" class="primitive"/>
      </g>
    </g>
    <g fill="#362A35" font-size="3.88" font-family="'PT Sans','Helvetica Neue','Helvetica',sans-serif" stroke="#000000" stroke-opacity="0.000" id="img-d6fab2f5-15">
      <g transform="translate(160.87,20.41)" id="img-d6fab2f5-16">
        <g class="primitive">
          <text dy="-0em"></text>
        </g>
      </g>
    </g>
  </g>
  <g clip-path="url(#img-d6fab2f5-17)">
    <g id="img-d6fab2f5-18">
      <g pointer-events="visible" stroke-width="0.3" fill="#000000" fill-opacity="0.000" stroke="#000000" stroke-opacity="0.000" class="guide background" id="img-d6fab2f5-19">
        <g transform="translate(132.41,27.86)" id="img-d6fab2f5-20">
          <path d="M-27.45,-25.86 L27.45,-25.86 27.45,25.86 -27.45,25.86  z" class="primitive"/>
        </g>
      </g>
      <g class="guide ygridlines xfixed" stroke-dasharray="0.5,0.5" stroke-width="0.2" stroke="#D0D0E0" id="img-d6fab2f5-21">
        <g transform="translate(132.41,51.72)" id="img-d6fab2f5-22">
          <path fill="none" d="M-27.45,0 L27.45,0 " class="primitive"/>
        </g>
        <g transform="translate(132.41,35.81)" id="img-d6fab2f5-23">
          <path fill="none" d="M-27.45,0 L27.45,0 " class="primitive"/>
        </g>
        <g transform="translate(132.41,19.91)" id="img-d6fab2f5-24">
          <path fill="none" d="M-27.45,0 L27.45,0 " class="primitive"/>
        </g>
        <g transform="translate(132.41,4)" id="img-d6fab2f5-25">
          <path fill="none" d="M-27.45,0 L27.45,0 " class="primitive"/>
        </g>
      </g>
      <g class="guide xgridlines yfixed" stroke-dasharray="0.5,0.5" stroke-width="0.2" stroke="#D0D0E0" id="img-d6fab2f5-26">
        <g transform="translate(106.96,27.86)" id="img-d6fab2f5-27">
          <path fill="none" d="M0,-25.86 L0,25.86 " class="primitive"/>
        </g>
        <g transform="translate(109.95,27.86)" id="img-d6fab2f5-28">
          <path fill="none" d="M0,-25.86 L0,25.86 " class="primitive"/>
        </g>
        <g transform="translate(112.95,27.86)" id="img-d6fab2f5-29">
          <path fill="none" d="M0,-25.86 L0,25.86 " class="primitive"/>
        </g>
        <g transform="translate(115.94,27.86)" id="img-d6fab2f5-30">
          <path fill="none" d="M0,-25.86 L0,25.86 " class="primitive"/>
        </g>
        <g transform="translate(118.94,27.86)" id="img-d6fab2f5-31">
          <path fill="none" d="M0,-25.86 L0,25.86 " class="primitive"/>
        </g>
        <g transform="translate(121.93,27.86)" id="img-d6fab2f5-32">
          <path fill="none" d="M0,-25.86 L0,25.86 " class="primitive"/>
        </g>
        <g transform="translate(124.93,27.86)" id="img-d6fab2f5-33">
          <path fill="none" d="M0,-25.86 L0,25.86 " class="primitive"/>
        </g>
        <g transform="translate(127.92,27.86)" id="img-d6fab2f5-34">
          <path fill="none" d="M0,-25.86 L0,25.86 " class="primitive"/>
        </g>
        <g transform="translate(130.92,27.86)" id="img-d6fab2f5-35">
          <path fill="none" d="M0,-25.86 L0,25.86 " class="primitive"/>
        </g>
        <g transform="translate(133.91,27.86)" id="img-d6fab2f5-36">
          <path fill="none" d="M0,-25.86 L0,25.86 " class="primitive"/>
        </g>
        <g transform="translate(136.9,27.86)" id="img-d6fab2f5-37">
          <path fill="none" d="M0,-25.86 L0,25.86 " class="primitive"/>
        </g>
        <g transform="translate(139.9,27.86)" id="img-d6fab2f5-38">
          <path fill="none" d="M0,-25.86 L0,25.86 " class="primitive"/>
        </g>
        <g transform="translate(142.89,27.86)" id="img-d6fab2f5-39">
          <path fill="none" d="M0,-25.86 L0,25.86 " class="primitive"/>
        </g>
        <g transform="translate(145.89,27.86)" id="img-d6fab2f5-40">
          <path fill="none" d="M0,-25.86 L0,25.86 " class="primitive"/>
        </g>
        <g transform="translate(148.88,27.86)" id="img-d6fab2f5-41">
          <path fill="none" d="M0,-25.86 L0,25.86 " class="primitive"/>
        </g>
        <g transform="translate(151.88,27.86)" id="img-d6fab2f5-42">
          <path fill="none" d="M0,-25.86 L0,25.86 " class="primitive"/>
        </g>
        <g transform="translate(154.87,27.86)" id="img-d6fab2f5-43">
          <path fill="none" d="M0,-25.86 L0,25.86 " class="primitive"/>
        </g>
        <g transform="translate(157.87,27.86)" id="img-d6fab2f5-44">
          <path fill="none" d="M0,-25.86 L0,25.86 " class="primitive"/>
        </g>
      </g>
      <g class="plotpanel" id="img-d6fab2f5-45">
        <metadata>
          <boundingbox value="104.95833333333334mm 2.0mm 54.908333333333324mm 51.715mm"/>
          <unitbox value="0.7332132918644623 15.628733102797863 1.8335734162710755 -16.257466205595723"/>
        </metadata>
        <g stroke-width="0.3" fill="#000000" fill-opacity="0.000" class="geometry" id="img-d6fab2f5-46">
          <g transform="translate(148.36,44.26)" id="img-d6fab2f5-47" stroke-dasharray="none" stroke="#000000" class="color_Populations">
            <path fill="none" d="M-41.08,7.39 L-40.44,7.39 -40.44,6.99 -39.77,6.99 -39.77,5.76 -39.09,5.76 -39.09,3.08 -38.38,3.08 -38.38,-1.54 -37.65,-1.54 -37.65,-8.09 -36.9,-8.09 -36.9,-15.5 -36.13,-15.5 -36.13,-22.03 -35.33,-22.03 -35.33,-25.86 -34.51,-25.86 -34.51,-25.76 -33.67,-25.76 -33.67,-22.15 -32.79,-22.15 -32.79,-16.76 -31.89,-16.76 -31.89,-11.39 -30.96,-11.39 -30.96,-7.39 -30,-7.39 -30,-5.08 -29.01,-5.08 -29.01,-3.67 -27.99,-3.67 -27.99,-2.31 -26.93,-2.31 -26.93,-0.59 -25.84,-0.59 -25.84,1.45 -24.71,1.45 -24.71,3.24 -23.54,3.24 -23.54,4.2 -22.33,4.2 -22.33,4.16 -21.09,4.16 -21.09,3.29 -19.8,3.29 -19.8,2.08 -18.46,2.08 -18.46,1.11 -17.08,1.11 -17.08,0.79 -15.65,0.79 -15.65,1.14 -14.17,1.14 -14.17,1.8 -12.63,1.8 -12.63,2.11 -11.04,2.11 -11.04,1.45 -9.39,1.45 -9.39,-0.44 -7.68,-0.44 -7.68,-3.23 -5.91,-3.23 -5.91,-6.11 -4.07,-6.11 -4.07,-8.03 -2.16,-8.03 -2.16,-8.19 -0.18,-8.19 -0.18,-6.42 1.88,-6.42 1.88,-3.28 4.01,-3.28 4.01,0.28 6.24,0.28 6.24,3.39 8.54,3.39 8.54,5.55 10.95,5.55 10.95,6.75 13.44,6.75 13.44,7.27 16.04,7.27 16.04,7.43 18.74,7.43 18.74,7.46 21.56,7.46 21.56,7.46 24.49,7.46 24.49,7.46 27.55,7.46 27.55,7.46 30.73,7.46 30.73,7.46 34.05,7.46 34.05,7.46 37.51,7.46 37.51,7.46 41.11,7.46 41.11,7.46 44.88,7.46 44.88,7.46 48.81,7.46 48.81,7.46 52.91,7.46 52.91,7.46 57.19,7.46 57.19,7.46 61.66,7.46 61.66,7.46 66.32,7.46 66.32,7.46 71.2,7.46 71.2,7.46 76.3,7.46 76.3,7.46 81.62,7.46 81.62,7.46 " class="primitive"/>
          </g>
          <g transform="translate(148.36,44.19)" id="img-d6fab2f5-48" stroke-dasharray="none" stroke="#4F94CD" class="color_Truncated">
            <path fill="none" d="M-41.08,7.51 L-40.44,7.51 -40.44,7.46 -39.77,7.46 -39.77,7.28 -39.09,7.28 -39.09,6.8 -38.38,6.8 -38.38,5.79 -37.65,5.79 -37.65,4 -36.9,4 -36.9,1.27 -36.13,1.27 -36.13,-2.39 -35.33,-2.39 -35.33,-6.76 -34.51,-6.76 -34.51,-11.44 -33.67,-11.44 -33.67,-15.94 -32.79,-15.94 -32.79,-19.87 -31.89,-19.87 -31.89,-22.95 -30.96,-22.95 -30.96,-25.05 -30,-25.05 -30,-26.13 -29.01,-26.13 -29.01,-26.22 -27.99,-26.22 -27.99,-25.38 -26.93,-25.38 -26.93,-23.68 -25.84,-23.68 -25.84,-21.22 -24.71,-21.22 -24.71,-18.13 -23.54,-18.13 -23.54,-14.64 -22.33,-14.64 -22.33,-10.96 -21.09,-10.96 -21.09,-7.34 -19.8,-7.34 -19.8,-3.98 -18.46,-3.98 -18.46,-1.02 -17.08,-1.02 -17.08,1.45 -15.65,1.45 -15.65,3.4 -14.17,3.4 -14.17,4.85 -12.63,4.85 -12.63,5.88 -11.04,5.88 -11.04,6.56 -9.39,6.56 -9.39,6.99 -7.68,6.99 -7.68,7.25 -5.91,7.25 -5.91,7.39 -4.07,7.39 -4.07,7.46 -2.16,7.46 -2.16,7.5 -0.18,7.5 -0.18,7.51 1.88,7.51 1.88,7.52 4.01,7.52 4.01,7.52 6.24,7.52 6.24,7.52 8.54,7.52 8.54,7.52 10.95,7.52 10.95,7.52 13.44,7.52 13.44,7.52 16.04,7.52 16.04,7.52 18.74,7.52 18.74,7.52 21.56,7.52 21.56,7.52 24.49,7.52 24.49,7.52 27.55,7.52 27.55,7.52 30.73,7.52 30.73,7.52 34.05,7.52 34.05,7.52 37.51,7.52 37.51,7.52 41.11,7.52 41.11,7.52 44.88,7.52 44.88,7.52 48.81,7.52 48.81,7.52 52.91,7.52 52.91,7.52 57.19,7.52 57.19,7.52 61.66,7.52 61.66,7.52 66.32,7.52 66.32,7.52 71.2,7.52 71.2,7.52 76.3,7.52 76.3,7.52 81.62,7.52 81.62,7.52 " class="primitive"/>
          </g>
          <g transform="translate(148.36,44.24)" id="img-d6fab2f5-49" stroke-dasharray="none" stroke="#8B0000" class="color_Bimodal">
            <path fill="none" d="M-41.08,7.48 L-40.44,7.48 -40.44,7.48 -39.77,7.48 -39.77,7.47 -39.09,7.47 -39.09,7.47 -38.38,7.47 -38.38,7.46 -37.65,7.46 -37.65,7.44 -36.9,7.44 -36.9,7.4 -36.13,7.4 -36.13,7.28 -35.33,7.28 -35.33,7 -34.51,7 -34.51,6.4 -33.67,6.4 -33.67,5.24 -32.79,5.24 -32.79,3.22 -31.89,3.22 -31.89,0.1 -30.96,0.1 -30.96,-4.16 -30,-4.16 -30,-9.34 -29.01,-9.34 -29.01,-14.78 -27.99,-14.78 -27.99,-19.59 -26.93,-19.59 -26.93,-22.86 -25.84,-22.86 -25.84,-24.05 -24.71,-24.05 -24.71,-23.15 -23.54,-23.15 -23.54,-20.78 -22.33,-20.78 -22.33,-17.87 -21.09,-17.87 -21.09,-15.28 -19.8,-15.28 -19.8,-13.55 -18.46,-13.55 -18.46,-12.72 -17.08,-12.72 -17.08,-12.43 -15.65,-12.43 -15.65,-12.2 -14.17,-12.2 -14.17,-11.6 -12.63,-11.6 -12.63,-10.36 -11.04,-10.36 -11.04,-8.47 -9.39,-8.47 -9.39,-6.09 -7.68,-6.09 -7.68,-3.49 -5.91,-3.49 -5.91,-0.91 -4.07,-0.91 -4.07,1.42 -2.16,1.42 -2.16,3.37 -0.18,3.37 -0.18,4.86 1.88,4.86 1.88,5.92 4.01,5.92 4.01,6.62 6.24,6.62 6.24,7.04 8.54,7.04 8.54,7.27 10.95,7.27 10.95,7.39 13.44,7.39 13.44,7.44 16.04,7.44 16.04,7.47 18.74,7.47 18.74,7.48 21.56,7.48 21.56,7.48 24.49,7.48 24.49,7.48 27.55,7.48 27.55,7.48 30.73,7.48 30.73,7.48 34.05,7.48 34.05,7.48 37.51,7.48 37.51,7.48 41.11,7.48 41.11,7.48 44.88,7.48 44.88,7.48 48.81,7.48 48.81,7.48 52.91,7.48 52.91,7.48 57.19,7.48 57.19,7.48 61.66,7.48 61.66,7.48 66.32,7.48 66.32,7.48 71.2,7.48 71.2,7.48 76.3,7.48 76.3,7.48 81.62,7.48 81.62,7.48 " class="primitive"/>
          </g>
          <g transform="translate(148.36,44.25)" id="img-d6fab2f5-50" stroke-dasharray="none" stroke="#B8860B" class="color_Uniform">
            <path fill="none" d="M-41.08,7.46 L-40.44,7.46 -40.44,7.46 -39.77,7.46 -39.77,7.46 -39.09,7.46 -39.09,7.46 -38.38,7.46 -38.38,7.46 -37.65,7.46 -37.65,7.46 -36.9,7.46 -36.9,7.46 -36.13,7.46 -36.13,7.46 -35.33,7.46 -35.33,7.46 -34.51,7.46 -34.51,7.46 -33.67,7.46 -33.67,7.46 -32.79,7.46 -32.79,7.46 -31.89,7.46 -31.89,7.43 -30.96,7.43 -30.96,7.28 -30,7.28 -30,6.84 -29.01,6.84 -29.01,5.8 -27.99,5.8 -27.99,3.79 -26.93,3.79 -26.93,0.46 -25.84,0.46 -25.84,-4.28 -24.71,-4.28 -24.71,-10.24 -23.54,-10.24 -23.54,-16.82 -22.33,-16.82 -22.33,-23.24 -21.09,-23.24 -21.09,-28.79 -19.8,-28.79 -19.8,-32.93 -18.46,-32.93 -18.46,-35.36 -17.08,-35.36 -17.08,-35.93 -15.65,-35.93 -15.65,-34.5 -14.17,-34.5 -14.17,-30.99 -12.63,-30.99 -12.63,-25.55 -11.04,-25.55 -11.04,-18.73 -9.39,-18.73 -9.39,-11.5 -7.68,-11.5 -7.68,-4.86 -5.91,-4.86 -5.91,0.39 -4.07,0.39 -4.07,3.96 -2.16,3.96 -2.16,6.01 -0.18,6.01 -0.18,6.99 1.88,6.99 1.88,7.35 4.01,7.35 4.01,7.45 6.24,7.45 6.24,7.46 8.54,7.46 8.54,7.46 10.95,7.46 10.95,7.46 13.44,7.46 13.44,7.46 16.04,7.46 16.04,7.46 18.74,7.46 18.74,7.46 21.56,7.46 21.56,7.46 24.49,7.46 24.49,7.46 27.55,7.46 27.55,7.46 30.73,7.46 30.73,7.46 34.05,7.46 34.05,7.46 37.51,7.46 37.51,7.46 41.11,7.46 41.11,7.46 44.88,7.46 44.88,7.46 48.81,7.46 48.81,7.46 52.91,7.46 52.91,7.46 57.19,7.46 57.19,7.46 61.66,7.46 61.66,7.46 66.32,7.46 66.32,7.46 71.2,7.46 71.2,7.46 76.3,7.46 76.3,7.46 81.62,7.46 81.62,7.46 " class="primitive"/>
          </g>
        </g>
      </g>
    </g>
  </g>
  <g class="guide ylabels" font-size="2.82" font-family="'PT Sans Caption','Helvetica Neue','Helvetica',sans-serif" fill="#6C606B" id="img-d6fab2f5-51">
    <g transform="translate(103.96,51.72)" id="img-d6fab2f5-52">
      <g class="primitive">
        <text text-anchor="end" dy="0.35em">0</text>
      </g>
    </g>
    <g transform="translate(103.96,35.81)" id="img-d6fab2f5-53">
      <g class="primitive">
        <text text-anchor="end" dy="0.35em">5</text>
      </g>
    </g>
    <g transform="translate(103.96,19.91)" id="img-d6fab2f5-54">
      <g class="primitive">
        <text text-anchor="end" dy="0.35em">10</text>
      </g>
    </g>
    <g transform="translate(103.96,4)" id="img-d6fab2f5-55">
      <g class="primitive">
        <text text-anchor="end" dy="0.35em">15</text>
      </g>
    </g>
  </g>
  <g font-size="3.88" font-family="'PT Sans','Helvetica Neue','Helvetica',sans-serif" fill="#564A55" stroke="#000000" stroke-opacity="0.000" id="img-d6fab2f5-56">
    <g transform="translate(95.81,25.86)" id="img-d6fab2f5-57">
      <g class="primitive">
        <text text-anchor="middle" dy="0.35em" transform="rotate(-90,0, 2)">Concentration (cm⁻³)</text>
      </g>
    </g>
  </g>
</g>
<g class="plotroot xscalable yscalable" id="img-d6fab2f5-58">
  <g font-size="3.88" font-family="'PT Sans','Helvetica Neue','Helvetica',sans-serif" fill="#564A55" stroke="#000000" stroke-opacity="0.000" id="img-d6fab2f5-59">
    <g transform="translate(42.41,61.39)" id="img-d6fab2f5-60">
      <g class="primitive">
        <text text-anchor="middle" dy="0.6em">Growth Factor (-)</text>
      </g>
    </g>
  </g>
  <g class="guide xlabels" font-size="2.82" font-family="'PT Sans Caption','Helvetica Neue','Helvetica',sans-serif" fill="#6C606B" id="img-d6fab2f5-61">
    <g transform="translate(16.96,54.72)" id="img-d6fab2f5-62">
      <g class="primitive">
        <text text-anchor="middle" dy="0.6em"></text>
      </g>
    </g>
    <g transform="translate(19.95,54.72)" id="img-d6fab2f5-63">
      <g class="primitive">
        <text text-anchor="middle" dy="0.6em"></text>
      </g>
    </g>
    <g transform="translate(22.95,54.72)" id="img-d6fab2f5-64">
      <g class="primitive">
        <text text-anchor="middle" dy="0.6em">1.0</text>
      </g>
    </g>
    <g transform="translate(25.94,54.72)" id="img-d6fab2f5-65">
      <g class="primitive">
        <text text-anchor="middle" dy="0.6em"></text>
      </g>
    </g>
    <g transform="translate(28.94,54.72)" id="img-d6fab2f5-66">
      <g class="primitive">
        <text text-anchor="middle" dy="0.6em"></text>
      </g>
    </g>
    <g transform="translate(31.93,54.72)" id="img-d6fab2f5-67">
      <g class="primitive">
        <text text-anchor="middle" dy="0.6em"></text>
      </g>
    </g>
    <g transform="translate(34.93,54.72)" id="img-d6fab2f5-68">
      <g class="primitive">
        <text text-anchor="middle" dy="0.6em"></text>
      </g>
    </g>
    <g transform="translate(37.92,54.72)" id="img-d6fab2f5-69">
      <g class="primitive">
        <text text-anchor="middle" dy="0.6em">1.5</text>
      </g>
    </g>
    <g transform="translate(40.92,54.72)" id="img-d6fab2f5-70">
      <g class="primitive">
        <text text-anchor="middle" dy="0.6em"></text>
      </g>
    </g>
    <g transform="translate(43.91,54.72)" id="img-d6fab2f5-71">
      <g class="primitive">
        <text text-anchor="middle" dy="0.6em"></text>
      </g>
    </g>
    <g transform="translate(46.9,54.72)" id="img-d6fab2f5-72">
      <g class="primitive">
        <text text-anchor="middle" dy="0.6em"></text>
      </g>
    </g>
    <g transform="translate(49.9,54.72)" id="img-d6fab2f5-73">
      <g class="primitive">
        <text text-anchor="middle" dy="0.6em"></text>
      </g>
    </g>
    <g transform="translate(52.89,54.72)" id="img-d6fab2f5-74">
      <g class="primitive">
        <text text-anchor="middle" dy="0.6em">2.0</text>
      </g>
    </g>
    <g transform="translate(55.89,54.72)" id="img-d6fab2f5-75">
      <g class="primitive">
        <text text-anchor="middle" dy="0.6em"></text>
      </g>
    </g>
    <g transform="translate(58.88,54.72)" id="img-d6fab2f5-76">
      <g class="primitive">
        <text text-anchor="middle" dy="0.6em"></text>
      </g>
    </g>
    <g transform="translate(61.88,54.72)" id="img-d6fab2f5-77">
      <g class="primitive">
        <text text-anchor="middle" dy="0.6em"></text>
      </g>
    </g>
    <g transform="translate(64.87,54.72)" id="img-d6fab2f5-78">
      <g class="primitive">
        <text text-anchor="middle" dy="0.6em"></text>
      </g>
    </g>
    <g transform="translate(67.87,54.72)" id="img-d6fab2f5-79">
      <g class="primitive">
        <text text-anchor="middle" dy="0.6em">2.5</text>
      </g>
    </g>
  </g>
  <g class="guide colorkey" id="img-d6fab2f5-80">
    <g fill="#4C404B" font-size="2.82" font-family="'PT Sans','Helvetica Neue','Helvetica',sans-serif" id="img-d6fab2f5-81">
      <g transform="translate(73.68,24.23)" id="img-d6fab2f5-82" class="color_Populations">
        <g class="primitive">
          <text dy="0.35em">Populations</text>
        </g>
      </g>
      <g transform="translate(73.68,27.86)" id="img-d6fab2f5-83" class="color_Bimodal">
        <g class="primitive">
          <text dy="0.35em">Bimodal</text>
        </g>
      </g>
      <g transform="translate(73.68,31.48)" id="img-d6fab2f5-84" class="color_Truncated">
        <g class="primitive">
          <text dy="0.35em">Truncated</text>
        </g>
      </g>
      <g transform="translate(73.68,35.11)" id="img-d6fab2f5-85" class="color_Uniform">
        <g class="primitive">
          <text dy="0.35em">Uniform</text>
        </g>
      </g>
    </g>
    <g fill-opacity="1" id="img-d6fab2f5-86">
      <g transform="translate(71.77,24.23)" id="img-d6fab2f5-87" fill="#000000" stroke="#FFFFFF" class="color_Populations">
        <path d="M-0.91,-0.91 L0.91,-0.91 0.91,0.91 -0.91,0.91  z" class="primitive"/>
      </g>
      <g transform="translate(71.77,27.86)" id="img-d6fab2f5-88" fill="#8B0000" stroke="#FFFFFF" class="color_Bimodal">
        <path d="M-0.91,-0.91 L0.91,-0.91 0.91,0.91 -0.91,0.91  z" class="primitive"/>
      </g>
      <g transform="translate(71.77,31.48)" id="img-d6fab2f5-89" fill="#4F94CD" stroke="#FFFFFF" class="color_Truncated">
        <path d="M-0.91,-0.91 L0.91,-0.91 0.91,0.91 -0.91,0.91  z" class="primitive"/>
      </g>
      <g transform="translate(71.77,35.11)" id="img-d6fab2f5-90" fill="#B8860B" stroke="#FFFFFF" class="color_Uniform">
        <path d="M-0.91,-0.91 L0.91,-0.91 0.91,0.91 -0.91,0.91  z" class="primitive"/>
      </g>
    </g>
    <g fill="#362A35" font-size="3.88" font-family="'PT Sans','Helvetica Neue','Helvetica',sans-serif" stroke="#000000" stroke-opacity="0.000" id="img-d6fab2f5-91">
      <g transform="translate(70.87,20.41)" id="img-d6fab2f5-92">
        <g class="primitive">
          <text dy="-0em"></text>
        </g>
      </g>
    </g>
  </g>
  <g clip-path="url(#img-d6fab2f5-93)">
    <g id="img-d6fab2f5-94">
      <g pointer-events="visible" stroke-width="0.3" fill="#000000" fill-opacity="0.000" stroke="#000000" stroke-opacity="0.000" class="guide background" id="img-d6fab2f5-95">
        <g transform="translate(42.41,27.86)" id="img-d6fab2f5-96">
          <path d="M-27.45,-25.86 L27.45,-25.86 27.45,25.86 -27.45,25.86  z" class="primitive"/>
        </g>
      </g>
      <g class="guide ygridlines xfixed" stroke-dasharray="0.5,0.5" stroke-width="0.2" stroke="#D0D0E0" id="img-d6fab2f5-97">
        <g transform="translate(42.41,51.72)" id="img-d6fab2f5-98">
          <path fill="none" d="M-27.45,0 L27.45,0 " class="primitive"/>
        </g>
        <g transform="translate(42.41,39.79)" id="img-d6fab2f5-99">
          <path fill="none" d="M-27.45,0 L27.45,0 " class="primitive"/>
        </g>
        <g transform="translate(42.41,27.86)" id="img-d6fab2f5-100">
          <path fill="none" d="M-27.45,0 L27.45,0 " class="primitive"/>
        </g>
        <g transform="translate(42.41,15.93)" id="img-d6fab2f5-101">
          <path fill="none" d="M-27.45,0 L27.45,0 " class="primitive"/>
        </g>
        <g transform="translate(42.41,4)" id="img-d6fab2f5-102">
          <path fill="none" d="M-27.45,0 L27.45,0 " class="primitive"/>
        </g>
      </g>
      <g class="guide xgridlines yfixed" stroke-dasharray="0.5,0.5" stroke-width="0.2" stroke="#D0D0E0" id="img-d6fab2f5-103">
        <g transform="translate(16.96,27.86)" id="img-d6fab2f5-104">
          <path fill="none" d="M0,-25.86 L0,25.86 " class="primitive"/>
        </g>
        <g transform="translate(19.95,27.86)" id="img-d6fab2f5-105">
          <path fill="none" d="M0,-25.86 L0,25.86 " class="primitive"/>
        </g>
        <g transform="translate(22.95,27.86)" id="img-d6fab2f5-106">
          <path fill="none" d="M0,-25.86 L0,25.86 " class="primitive"/>
        </g>
        <g transform="translate(25.94,27.86)" id="img-d6fab2f5-107">
          <path fill="none" d="M0,-25.86 L0,25.86 " class="primitive"/>
        </g>
        <g transform="translate(28.94,27.86)" id="img-d6fab2f5-108">
          <path fill="none" d="M0,-25.86 L0,25.86 " class="primitive"/>
        </g>
        <g transform="translate(31.93,27.86)" id="img-d6fab2f5-109">
          <path fill="none" d="M0,-25.86 L0,25.86 " class="primitive"/>
        </g>
        <g transform="translate(34.93,27.86)" id="img-d6fab2f5-110">
          <path fill="none" d="M0,-25.86 L0,25.86 " class="primitive"/>
        </g>
        <g transform="translate(37.92,27.86)" id="img-d6fab2f5-111">
          <path fill="none" d="M0,-25.86 L0,25.86 " class="primitive"/>
        </g>
        <g transform="translate(40.92,27.86)" id="img-d6fab2f5-112">
          <path fill="none" d="M0,-25.86 L0,25.86 " class="primitive"/>
        </g>
        <g transform="translate(43.91,27.86)" id="img-d6fab2f5-113">
          <path fill="none" d="M0,-25.86 L0,25.86 " class="primitive"/>
        </g>
        <g transform="translate(46.9,27.86)" id="img-d6fab2f5-114">
          <path fill="none" d="M0,-25.86 L0,25.86 " class="primitive"/>
        </g>
        <g transform="translate(49.9,27.86)" id="img-d6fab2f5-115">
          <path fill="none" d="M0,-25.86 L0,25.86 " class="primitive"/>
        </g>
        <g transform="translate(52.89,27.86)" id="img-d6fab2f5-116">
          <path fill="none" d="M0,-25.86 L0,25.86 " class="primitive"/>
        </g>
        <g transform="translate(55.89,27.86)" id="img-d6fab2f5-117">
          <path fill="none" d="M0,-25.86 L0,25.86 " class="primitive"/>
        </g>
        <g transform="translate(58.88,27.86)" id="img-d6fab2f5-118">
          <path fill="none" d="M0,-25.86 L0,25.86 " class="primitive"/>
        </g>
        <g transform="translate(61.88,27.86)" id="img-d6fab2f5-119">
          <path fill="none" d="M0,-25.86 L0,25.86 " class="primitive"/>
        </g>
        <g transform="translate(64.87,27.86)" id="img-d6fab2f5-120">
          <path fill="none" d="M0,-25.86 L0,25.86 " class="primitive"/>
        </g>
        <g transform="translate(67.87,27.86)" id="img-d6fab2f5-121">
          <path fill="none" d="M0,-25.86 L0,25.86 " class="primitive"/>
        </g>
      </g>
      <g class="plotpanel" id="img-d6fab2f5-122">
        <metadata>
          <boundingbox value="14.958333333333329mm 2.0mm 54.90833333333333mm 51.715mm"/>
          <unitbox value="0.7332132918644623 20.838310803730483 1.8335734162710755 -21.676621607460966"/>
        </metadata>
        <g stroke-width="0.3" fill="#000000" fill-opacity="0.000" class="geometry" id="img-d6fab2f5-123">
          <g transform="translate(58.36,50.55)" id="img-d6fab2f5-124" stroke-dasharray="none" stroke="#000000" class="color_Populations">
            <path fill="none" d="M-41.08,1.16 L-40.44,1.16 -40.44,1.16 -39.77,1.16 -39.77,1.16 -39.09,1.16 -39.09,1.16 -38.38,1.16 -38.38,1.16 -37.65,1.16 -37.65,1.16 -36.9,1.16 -36.9,1.16 -36.13,1.16 -36.13,1.16 -35.33,1.16 -35.33,-43 -34.51,-43 -34.51,1.16 -33.67,1.16 -33.67,1.16 -32.79,1.16 -32.79,1.16 -31.89,1.16 -31.89,1.16 -30.96,1.16 -30.96,1.16 -30,1.16 -30,1.16 -29.01,1.16 -29.01,-9.48 -27.99,-9.48 -27.99,1.16 -26.93,1.16 -26.93,1.16 -25.84,1.16 -25.84,1.16 -24.71,1.16 -24.71,1.16 -23.54,1.16 -23.54,1.16 -22.33,1.16 -22.33,1.16 -21.09,1.16 -21.09,1.16 -19.8,1.16 -19.8,1.16 -18.46,1.16 -18.46,1.16 -17.08,1.16 -17.08,-3.92 -15.65,-3.92 -15.65,1.16 -14.17,1.16 -14.17,1.16 -12.63,1.16 -12.63,1.16 -11.04,1.16 -11.04,1.16 -9.39,1.16 -9.39,1.16 -7.68,1.16 -7.68,1.16 -5.91,1.16 -5.91,1.16 -4.07,1.16 -4.07,1.16 -2.16,1.16 -2.16,-8.02 -0.18,-8.02 -0.18,1.16 1.88,1.16 1.88,1.16 4.01,1.16 4.01,1.16 6.24,1.16 6.24,1.16 8.54,1.16 8.54,1.16 10.95,1.16 10.95,1.16 13.44,1.16 13.44,1.16 16.04,1.16 16.04,1.16 18.74,1.16 18.74,1.16 21.56,1.16 21.56,1.16 24.49,1.16 24.49,1.16 27.55,1.16 27.55,1.16 30.73,1.16 30.73,1.16 34.05,1.16 34.05,1.16 37.51,1.16 37.51,1.16 41.11,1.16 41.11,1.16 44.88,1.16 44.88,1.16 48.81,1.16 48.81,1.16 52.91,1.16 52.91,1.16 57.19,1.16 57.19,1.16 61.66,1.16 61.66,1.16 66.32,1.16 66.32,1.16 71.2,1.16 71.2,1.16 76.3,1.16 76.3,1.16 81.62,1.16 81.62,1.16 " class="primitive"/>
          </g>
          <g transform="translate(58.36,50.52)" id="img-d6fab2f5-125" stroke-dasharray="none" stroke="#4F94CD" class="color_Truncated">
            <path fill="none" d="M-41.08,1.19 L-40.44,1.19 -40.44,1.19 -39.77,1.19 -39.77,1.19 -39.09,1.19 -39.09,1.19 -38.38,1.19 -38.38,1.19 -37.65,1.19 -37.65,1.19 -36.9,1.19 -36.9,1.19 -36.13,1.19 -36.13,1.19 -35.33,1.19 -35.33,-3.15 -34.51,-3.15 -34.51,-3.58 -33.67,-3.58 -33.67,-3.97 -32.79,-3.97 -32.79,-4.3 -31.89,-4.3 -31.89,-4.54 -30.96,-4.54 -30.96,-4.66 -30,-4.66 -30,-4.64 -29.01,-4.64 -29.01,-4.47 -27.99,-4.47 -27.99,-4.14 -26.93,-4.14 -26.93,-3.68 -25.84,-3.68 -25.84,-3.11 -24.71,-3.11 -24.71,-2.46 -23.54,-2.46 -23.54,-1.78 -22.33,-1.78 -22.33,-1.12 -21.09,-1.12 -21.09,-0.52 -19.8,-0.52 -19.8,-0 -18.46,-0 -18.46,0.41 -17.08,0.41 -17.08,0.71 -15.65,0.71 -15.65,0.92 -14.17,0.92 -14.17,1.05 -12.63,1.05 -12.63,1.12 -11.04,1.12 -11.04,1.16 -9.39,1.16 -9.39,1.18 -7.68,1.18 -7.68,1.19 -5.91,1.19 -5.91,1.19 -4.07,1.19 -4.07,1.19 -2.16,1.19 -2.16,1.19 -0.18,1.19 -0.18,1.19 1.88,1.19 1.88,1.19 4.01,1.19 4.01,1.19 6.24,1.19 6.24,1.19 8.54,1.19 8.54,1.19 10.95,1.19 10.95,1.19 13.44,1.19 13.44,1.19 16.04,1.19 16.04,1.19 18.74,1.19 18.74,1.19 21.56,1.19 21.56,1.19 24.49,1.19 24.49,1.19 27.55,1.19 27.55,1.19 30.73,1.19 30.73,1.19 34.05,1.19 34.05,1.19 37.51,1.19 37.51,1.19 41.11,1.19 41.11,1.19 44.88,1.19 44.88,1.19 48.81,1.19 48.81,1.19 52.91,1.19 52.91,1.19 57.19,1.19 57.19,1.19 61.66,1.19 61.66,1.19 66.32,1.19 66.32,1.19 71.2,1.19 71.2,1.19 76.3,1.19 76.3,1.19 81.62,1.19 81.62,1.19 " class="primitive"/>
          </g>
          <g transform="translate(58.36,50.75)" id="img-d6fab2f5-126" stroke-dasharray="none" stroke="#8B0000" class="color_Bimodal">
            <path fill="none" d="M-41.08,0.97 L-40.44,0.97 -40.44,0.97 -39.77,0.97 -39.77,0.97 -39.09,0.97 -39.09,0.97 -38.38,0.97 -38.38,0.97 -37.65,0.97 -37.65,0.97 -36.9,0.97 -36.9,0.96 -36.13,0.96 -36.13,0.96 -35.33,0.96 -35.33,0.96 -34.51,0.96 -34.51,0.95 -33.67,0.95 -33.67,0.92 -32.79,0.92 -32.79,0.85 -31.89,0.85 -31.89,0.65 -30.96,0.65 -30.96,0.15 -30,0.15 -30,-0.88 -29.01,-0.88 -29.01,-2.56 -27.99,-2.56 -27.99,-4.54 -26.93,-4.54 -26.93,-5.92 -25.84,-5.92 -25.84,-5.79 -24.71,-5.79 -24.71,-4.23 -23.54,-4.23 -23.54,-2.34 -22.33,-2.34 -22.33,-1.14 -21.09,-1.14 -21.09,-0.79 -19.8,-0.79 -19.8,-0.91 -18.46,-0.91 -18.46,-1.15 -17.08,-1.15 -17.08,-1.35 -15.65,-1.35 -15.65,-1.45 -14.17,-1.45 -14.17,-1.41 -12.63,-1.41 -12.63,-1.23 -11.04,-1.23 -11.04,-0.92 -9.39,-0.92 -9.39,-0.53 -7.68,-0.53 -7.68,-0.12 -5.91,-0.12 -5.91,0.25 -4.07,0.25 -4.07,0.54 -2.16,0.54 -2.16,0.74 -0.18,0.74 -0.18,0.86 1.88,0.86 1.88,0.93 4.01,0.93 4.01,0.95 6.24,0.95 6.24,0.96 8.54,0.96 8.54,0.97 10.95,0.97 10.95,0.97 13.44,0.97 13.44,0.97 16.04,0.97 16.04,0.97 18.74,0.97 18.74,0.97 21.56,0.97 21.56,0.97 24.49,0.97 24.49,0.97 27.55,0.97 27.55,0.97 30.73,0.97 30.73,0.97 34.05,0.97 34.05,0.97 37.51,0.97 37.51,0.97 41.11,0.97 41.11,0.97 44.88,0.97 44.88,0.97 48.81,0.97 48.81,0.97 52.91,0.97 52.91,0.97 57.19,0.97 57.19,0.97 61.66,0.97 61.66,0.97 66.32,0.97 66.32,0.97 71.2,0.97 71.2,0.97 76.3,0.97 76.3,0.97 81.62,0.97 81.62,0.97 " class="primitive"/>
          </g>
          <g transform="translate(58.36,50.85)" id="img-d6fab2f5-127" stroke-dasharray="none" stroke="#B8860B" class="color_Uniform">
            <path fill="none" d="M-41.08,0.86 L-40.44,0.86 -40.44,0.86 -39.77,0.86 -39.77,0.86 -39.09,0.86 -39.09,0.86 -38.38,0.86 -38.38,0.86 -37.65,0.86 -37.65,0.86 -36.9,0.86 -36.9,0.86 -36.13,0.86 -36.13,0.86 -35.33,0.86 -35.33,0.86 -34.51,0.86 -34.51,0.86 -33.67,0.86 -33.67,0.86 -32.79,0.86 -32.79,0.86 -31.89,0.86 -31.89,0.86 -30.96,0.86 -30.96,0.86 -30,0.86 -30,0.86 -29.01,0.86 -29.01,0.86 -27.99,0.86 -27.99,0.86 -26.93,0.86 -26.93,0.86 -25.84,0.86 -25.84,0.86 -24.71,0.86 -24.71,0.86 -23.54,0.86 -23.54,-4.27 -22.33,-4.27 -22.33,-4.27 -21.09,-4.27 -21.09,-4.27 -19.8,-4.27 -19.8,-4.27 -18.46,-4.27 -18.46,-4.27 -17.08,-4.27 -17.08,-4.27 -15.65,-4.27 -15.65,-4.27 -14.17,-4.27 -14.17,-4.27 -12.63,-4.27 -12.63,-4.27 -11.04,-4.27 -11.04,-4.27 -9.39,-4.27 -9.39,0.86 -7.68,0.86 -7.68,0.86 -5.91,0.86 -5.91,0.86 -4.07,0.86 -4.07,0.86 -2.16,0.86 -2.16,0.86 -0.18,0.86 -0.18,0.86 1.88,0.86 1.88,0.86 4.01,0.86 4.01,0.86 6.24,0.86 6.24,0.86 8.54,0.86 8.54,0.86 10.95,0.86 10.95,0.86 13.44,0.86 13.44,0.86 16.04,0.86 16.04,0.86 18.74,0.86 18.74,0.86 21.56,0.86 21.56,0.86 24.49,0.86 24.49,0.86 27.55,0.86 27.55,0.86 30.73,0.86 30.73,0.86 34.05,0.86 34.05,0.86 37.51,0.86 37.51,0.86 41.11,0.86 41.11,0.86 44.88,0.86 44.88,0.86 48.81,0.86 48.81,0.86 52.91,0.86 52.91,0.86 57.19,0.86 57.19,0.86 61.66,0.86 61.66,0.86 66.32,0.86 66.32,0.86 71.2,0.86 71.2,0.86 76.3,0.86 76.3,0.86 81.62,0.86 81.62,0.86 " class="primitive"/>
          </g>
        </g>
      </g>
    </g>
  </g>
  <g class="guide ylabels" font-size="2.82" font-family="'PT Sans Caption','Helvetica Neue','Helvetica',sans-serif" fill="#6C606B" id="img-d6fab2f5-128">
    <g transform="translate(13.96,51.72)" id="img-d6fab2f5-129">
      <g class="primitive">
        <text text-anchor="end" dy="0.35em">0</text>
      </g>
    </g>
    <g transform="translate(13.96,39.79)" id="img-d6fab2f5-130">
      <g class="primitive">
        <text text-anchor="end" dy="0.35em">5</text>
      </g>
    </g>
    <g transform="translate(13.96,27.86)" id="img-d6fab2f5-131">
      <g class="primitive">
        <text text-anchor="end" dy="0.35em">10</text>
      </g>
    </g>
    <g transform="translate(13.96,15.93)" id="img-d6fab2f5-132">
      <g class="primitive">
        <text text-anchor="end" dy="0.35em">15</text>
      </g>
    </g>
    <g transform="translate(13.96,4)" id="img-d6fab2f5-133">
      <g class="primitive">
        <text text-anchor="end" dy="0.35em">20</text>
      </g>
    </g>
  </g>
  <g font-size="3.88" font-family="'PT Sans','Helvetica Neue','Helvetica',sans-serif" fill="#564A55" stroke="#000000" stroke-opacity="0.000" id="img-d6fab2f5-134">
    <g transform="translate(5.81,25.86)" id="img-d6fab2f5-135">
      <g class="primitive">
        <text text-anchor="middle" dy="0.35em" transform="rotate(-90,0, 2)">Probability Density (-)</text>
      </g>
    </g>
  </g>
</g>
<defs>
  <clipPath id="img-d6fab2f5-17">
    <path d="M104.96,2 L159.87,2 159.87,53.72 104.96,53.72 " />
  </clipPath>
  <clipPath id="img-d6fab2f5-93">
    <path d="M14.96,2 L69.87,2 69.87,53.72 14.96,53.72 " />
  </clipPath>
</defs>
</svg>
