<?xml version="1.0" encoding="UTF-8"?>
<svg xmlns="http://www.w3.org/2000/svg"
     xmlns:xlink="http://www.w3.org/1999/xlink"
     xmlns:gadfly="http://www.gadflyjl.org/ns"
     version="1.2"
     width="180mm" height="70mm" viewBox="0 0 180 70"
     stroke="none"
     fill="#000000"
     stroke-width="0.3"
     font-size="3.88"
>
<defs>
  <marker id="arrow" markerWidth="15" markerHeight="7" refX="5" refY="3.5" orient="auto" markerUnits="strokeWidth">
    <path d="M0,0 L15,3.5 L0,7 z" stroke="context-stroke" fill="context-stroke"/>
  </marker>
</defs>
<g class="plotroot xscalable yscalable" id="img-d6fab2f5-1">
  <g font-size="3.88" font-family="'PT Sans','Helvetica Neue','Helvetica',sans-serif" fill="#564A55" stroke="#000000" stroke-opacity="0.000" id="img-d6fab2f5-2">
    <g transform="translate(121.86,61.39)">
      <g class="primitive">
        <text text-anchor="middle" dy="0.6em">Growth Factor (-)</text>
      </g>
    </g>
  </g>
  <g class="guide xlabels" font-size="2.82" font-family="'PT Sans Caption','Helvetica Neue','Helvetica',sans-serif" fill="#6C606B" id="img-d6fab2f5-3">
    <g transform="translate(97.63,54.72)">
      <g class="primitive">
        <text text-anchor="middle" dy="0.6em"></text>
      </g>
    </g>
    <g transform="translate(100.48,54.72)">
      <g class="primitive">
        <text text-anchor="middle" dy="0.6em"></text>
      </g>
    </g>
    <g transform="translate(103.33,54.72)">
      <g class="primitive">
        <text text-anchor="middle" dy="0.6em">1.0</text>
      </g>
    </g>
    <g transform="translate(106.18,54.72)">
      <g class="primitive">
        <text text-anchor="middle" dy="0.6em"></text>
      </g>
    </g>
    <g transform="translate(109.04,54.72)">
      <g class="primitive">
        <text text-anchor="middle" dy="0.6em"></text>
      </g>
    </g>
    <g transform="translate(111.89,54.72)">
      <g class="primitive">
        <text text-anchor="middle" dy="0.6em"></text>
      </g>
    </g>
    <g transform="translate(114.74,54.72)">
      <g class="primitive">
        <text text-anchor="middle" dy="0.6em"></text>
      </g>
    </g>
    <g transform="translate(117.59,54.72)">
      <g class="primitive">
        <text text-anchor="middle" dy="0.6em">1.5</text>
      </g>
    </g>
    <g transform="translate(120.44,54.72)">
      <g class="primitive">
        <text text-anchor="middle" dy="0.6em"></text>
      </g>
    </g>
    <g transform="translate(123.29,54.72)">
      <g class="primitive">
        <text text-anchor="middle" dy="0.6em"></text>
      </g>
    </g>
    <g transform="translate(126.14,54.72)">
      <g class="primitive">
        <text text-anchor="middle" dy="0.6em"></text>
      </g>
    </g>
    <g transform="translate(128.99,54.72)">
      <g class="primitive">
        <text text-anchor="middle" dy="0.6em"></text>
      </g>
    </g>
    <g transform="translate(131.84,54.72)">
      <g class="primitive">
        <text text-anchor="middle" dy="0.6em">2.0</text>
      </g>
    </g>
    <g transform="translate(134.69,54.72)">
      <g class="primitive">
        <text text-anchor="middle" dy="0.6em"></text>
      </g>
    </g>
    <g transform="translate(137.54,54.72)">
      <g class="primitive">
        <text text-anchor="middle" dy="0.6em"></text>
      </g>
    </g>
    <g transform="translate(140.39,54.72)">
      <g class="primitive">
        <text text-anchor="middle" dy="0.6em"></text>
      </g>
    </g>
    <g transform="translate(143.25,54.72)">
      <g class="primitive">
        <text text-anchor="middle" dy="0.6em"></text>
      </g>
    </g>
    <g transform="translate(146.1,54.72)">
      <g class="primitive">
        <text text-anchor="middle" dy="0.6em">2.5</text>
      </g>
    </g>
  </g>
  <g class="guide colorkey" id="img-d6fab2f5-4">
    <g fill="#4C404B" font-size="2.82" font-family="'PT Sans','Helvetica Neue','Helvetica',sans-serif" id="img-d6fab2f5-5">
      <g transform="translate(152.57,25.39)" id="img-d6fab2f5-6" class="color_Truth">
        <g class="primitive">
          <text dy="0.35em">Truth</text>
        </g>
      </g>
      <g transform="translate(152.57,30.33)" id="img-d6fab2f5-7" class="color_L0D1e-3B[0,1],_0.002">
        <g class="primitive">
          <text dy="0.35em">L<tspan dy="0.4em" font-size="83%">0</tspan><tspan dy="-0.3320em">D</tspan><tspan dy="0.4em" font-size="83%">1e-3</tspan><tspan dy="-0.3320em">B</tspan><tspan dy="0.4em" font-size="83%">[0,1]</tspan><tspan dy="-0.3320em">, 0.002</tspan></text>
        </g>
      </g>
      <g transform="translate(152.57,35.27)" id="img-d6fab2f5-8" class="color_L2x0B[0,1],_0.003">
        <g class="primitive">
          <text dy="0.35em">L<tspan dy="0.4em" font-size="83%">2</tspan><tspan dy="-0.3320em">x</tspan><tspan dy="0.4em" font-size="83%">0</tspan><tspan dy="-0.3320em">B</tspan><tspan dy="0.4em" font-size="83%">[0,1]</tspan><tspan dy="-0.3320em">, 0.003</tspan></text>
        </g>
      </g>
    </g>
    <g fill-opacity="1" id="img-d6fab2f5-9">
      <g transform="translate(150.33,25.39)" id="img-d6fab2f5-10" fill="#000000" stroke="#FFFFFF" class="color_Truth">
        <path d="M-1.24,-1.24 L1.24,-1.24 1.24,1.24 -1.24,1.24  z" class="primitive"/>
      </g>
      <g transform="translate(150.33,30.33)" id="img-d6fab2f5-11" fill="#8B0000" stroke="#FFFFFF" class="color_L0D1e-3B[0,1],_0.002">
        <path d="M-1.24,-1.24 L1.24,-1.24 1.24,1.24 -1.24,1.24  z" class="primitive"/>
      </g>
      <g transform="translate(150.33,35.27)" id="img-d6fab2f5-12" fill="#4F94CD" stroke="#FFFFFF" class="color_L2x0B[0,1],_0.003">
        <path d="M-1.24,-1.24 L1.24,-1.24 1.24,1.24 -1.24,1.24  z" class="primitive"/>
      </g>
    </g>
    <g fill="#362A35" font-size="3.88" font-family="'PT Sans','Helvetica Neue','Helvetica',sans-serif" stroke="#000000" stroke-opacity="0.000" id="img-d6fab2f5-13">
      <g transform="translate(149.1,20.25)" id="img-d6fab2f5-14">
        <g class="primitive">
          <text dy="-0em"></text>
        </g>
      </g>
    </g>
  </g>
  <g clip-path="url(#img-d6fab2f5-15)">
    <g id="img-d6fab2f5-16">
      <g pointer-events="visible" stroke-width="0.3" fill="#000000" fill-opacity="0.000" stroke="#000000" stroke-opacity="0.000" class="guide background" id="img-d6fab2f5-17">
        <g transform="translate(121.86,27.86)" id="img-d6fab2f5-18">
          <path d="M-26.23,-25.86 L26.23,-25.86 26.23,25.86 -26.23,25.86  z" class="primitive"/>
        </g>
      </g>
      <g class="guide ygridlines xfixed" stroke-dasharray="0.5,0.5" stroke-width="0.2" stroke="#D0D0E0" id="img-d6fab2f5-19">
        <g transform="translate(121.86,51.72)" id="img-d6fab2f5-20">
          <path fill="none" d="M-26.23,0 L26.23,0 " class="primitive"/>
        </g>
        <g transform="translate(121.86,42.17)" id="img-d6fab2f5-21">
          <path fill="none" d="M-26.23,0 L26.23,0 " class="primitive"/>
        </g>
        <g transform="translate(121.86,32.63)" id="img-d6fab2f5-22">
          <path fill="none" d="M-26.23,0 L26.23,0 " class="primitive"/>
        </g>
        <g transform="translate(121.86,23.09)" id="img-d6fab2f5-23">
          <path fill="none" d="M-26.23,0 L26.23,0 " class="primitive"/>
        </g>
        <g transform="translate(121.86,13.54)" id="img-d6fab2f5-24">
          <path fill="none" d="M-26.23,0 L26.23,0 " class="primitive"/>
        </g>
        <g transform="translate(121.86,4)" id="img-d6fab2f5-25">
          <path fill="none" d="M-26.23,0 L26.23,0 " class="primitive"/>
        </g>
      </g>
      <g class="guide xgridlines yfixed" stroke-dasharray="0.5,0.5" stroke-width="0.2" stroke="#D0D0E0" id="img-d6fab2f5-26">
        <g transform="translate(97.63,27.86)" id="img-d6fab2f5-27">
          <path fill="none" d="M0,-25.86 L0,25.86 " class="primitive"/>
        </g>
        <g transform="translate(100.48,27.86)" id="img-d6fab2f5-28">
          <path fill="none" d="M0,-25.86 L0,25.86 " class="primitive"/>
        </g>
        <g transform="translate(103.33,27.86)" id="img-d6fab2f5-29">
          <path fill="none" d="M0,-25.86 L0,25.86 " class="primitive"/>
        </g>
        <g transform="translate(106.18,27.86)" id="img-d6fab2f5-30">
          <path fill="none" d="M0,-25.86 L0,25.86 " class="primitive"/>
        </g>
        <g transform="translate(109.04,27.86)" id="img-d6fab2f5-31">
          <path fill="none" d="M0,-25.86 L0,25.86 " class="primitive"/>
        </g>
        <g transform="translate(111.89,27.86)" id="img-d6fab2f5-32">
          <path fill="none" d="M0,-25.86 L0,25.86 " class="primitive"/>
        </g>
        <g transform="translate(114.74,27.86)" id="img-d6fab2f5-33">
          <path fill="none" d="M0,-25.86 L0,25.86 " class="primitive"/>
        </g>
        <g transform="translate(117.59,27.86)" id="img-d6fab2f5-34">
          <path fill="none" d="M0,-25.86 L0,25.86 " class="primitive"/>
        </g>
        <g transform="translate(120.44,27.86)" id="img-d6fab2f5-35">
          <path fill="none" d="M0,-25.86 L0,25.86 " class="primitive"/>
        </g>
        <g transform="translate(123.29,27.86)" id="img-d6fab2f5-36">
          <path fill="none" d="M0,-25.86 L0,25.86 " class="primitive"/>
        </g>
        <g transform="translate(126.14,27.86)" id="img-d6fab2f5-37">
          <path fill="none" d="M0,-25.86 L0,25.86 " class="primitive"/>
        </g>
        <g transform="translate(128.99,27.86)" id="img-d6fab2f5-38">
          <path fill="none" d="M0,-25.86 L0,25.86 " class="primitive"/>
        </g>
        <g transform="translate(131.84,27.86)" id="img-d6fab2f5-39">
          <path fill="none" d="M0,-25.86 L0,25.86 " class="primitive"/>
        </g>
        <g transform="translate(134.69,27.86)" id="img-d6fab2f5-40">
          <path fill="none" d="M0,-25.86 L0,25.86 " class="primitive"/>
        </g>
        <g transform="translate(137.54,27.86)" id="img-d6fab2f5-41">
          <path fill="none" d="M0,-25.86 L0,25.86 " class="primitive"/>
        </g>
        <g transform="translate(140.39,27.86)" id="img-d6fab2f5-42">
          <path fill="none" d="M0,-25.86 L0,25.86 " class="primitive"/>
        </g>
        <g transform="translate(143.25,27.86)" id="img-d6fab2f5-43">
          <path fill="none" d="M0,-25.86 L0,25.86 " class="primitive"/>
        </g>
        <g transform="translate(146.1,27.86)" id="img-d6fab2f5-44">
          <path fill="none" d="M0,-25.86 L0,25.86 " class="primitive"/>
        </g>
      </g>
      <g class="plotpanel" id="img-d6fab2f5-45">
        <metadata>
          <boundingbox value="95.63166666666667mm 2.0mm 52.465mm 51.715mm"/>
          <unitbox value="0.7298462808212112 2.6047888504663104 1.8403074383575777 -2.7095777009326207"/>
        </metadata>
        <g stroke-width="0.3" fill="#000000" fill-opacity="0.000" class="geometry" id="img-d6fab2f5-46">
          <g transform="translate(137.04,43.86)" id="img-d6fab2f5-47" stroke-dasharray="none" stroke="#000000" class="color_Truth">
            <path fill="none" d="M-39.11,7.79 L-38.5,7.79 -38.5,7.77 -37.86,7.77 -37.86,7.74 -37.21,7.74 -37.21,7.7 -36.54,7.7 -36.54,7.64 -35.85,7.64 -35.85,7.55 -35.13,7.55 -35.13,7.41 -34.4,7.41 -34.4,7.15 -33.64,7.15 -33.64,6.69 -32.86,6.69 -32.86,5.85 -32.05,5.85 -32.05,4.37 -31.22,4.37 -31.22,1.87 -30.36,1.87 -30.36,-2.06 -29.47,-2.06 -29.47,-7.72 -28.56,-7.72 -28.56,-14.96 -27.62,-14.96 -27.62,-22.94 -26.64,-22.94 -26.64,-29.99 -25.64,-29.99 -25.64,-34.13 -24.6,-34.13 -24.6,-33.93 -23.52,-33.93 -23.52,-29.47 -22.41,-29.47 -22.41,-22.53 -21.26,-22.53 -21.26,-15.65 -20.07,-15.65 -20.07,-10.72 -18.85,-10.72 -18.85,-8.25 -17.58,-8.25 -17.58,-7.57 -16.26,-7.57 -16.26,-7.64 -14.9,-7.64 -14.9,-7.68 -13.49,-7.68 -13.49,-7.29 -12.03,-7.29 -12.03,-6.34 -10.51,-6.34 -10.51,-4.86 -8.94,-4.86 -8.94,-2.98 -7.31,-2.98 -7.31,-0.87 -5.63,-0.87 -5.63,1.25 -3.88,1.25 -3.88,3.19 -2.06,3.19 -2.06,4.8 -0.17,4.8 -0.17,6.02 1.79,6.02 1.79,6.85 3.82,6.85 3.82,7.36 5.94,7.36 5.94,7.63 8.13,7.63 8.13,7.77 10.42,7.77 10.42,7.83 12.8,7.83 12.8,7.85 15.27,7.85 15.27,7.85 17.85,7.85 17.85,7.86 20.53,7.86 20.53,7.86 23.32,7.86 23.32,7.86 26.22,7.86 26.22,7.86 29.25,7.86 29.25,7.86 32.41,7.86 32.41,7.86 35.71,7.86 35.71,7.86 39.14,7.86 39.14,7.86 42.72,7.86 42.72,7.86 46.46,7.86 46.46,7.86 50.37,7.86 50.37,7.86 54.44,7.86 54.44,7.86 58.7,7.86 58.7,7.86 63.14,7.86 63.14,7.86 67.78,7.86 67.78,7.86 72.63,7.86 72.63,7.86 77.7,7.86 77.7,7.86 " class="primitive"/>
          </g>
          <g transform="translate(137.04,44.01)" id="img-d6fab2f5-48" stroke-dasharray="none" stroke="#4F94CD" class="color_L2x0B[0,1],_0.003">
            <path fill="none" d="M-39.11,7.69 L-38.5,7.69 -38.5,7.54 -37.86,7.54 -37.86,6.71 -37.21,6.71 -37.21,6.66 -36.54,6.66 -36.54,6.99 -35.85,6.99 -35.85,7.03 -35.13,7.03 -35.13,7.27 -34.4,7.27 -34.4,7.71 -33.64,7.71 -33.64,7.71 -32.86,7.71 -32.86,7.6 -32.05,7.6 -32.05,6.88 -31.22,6.88 -31.22,3.88 -30.36,3.88 -30.36,-2.68 -29.47,-2.68 -29.47,-8.88 -28.56,-8.88 -28.56,-17.82 -27.62,-17.82 -27.62,-28.45 -26.64,-28.45 -26.64,-28.32 -25.64,-28.32 -25.64,-30.6 -24.6,-30.6 -24.6,-31.42 -23.52,-31.42 -23.52,-27.87 -22.41,-27.87 -22.41,-24.3 -21.26,-24.3 -21.26,-17.47 -20.07,-17.47 -20.07,-10.7 -18.85,-10.7 -18.85,-11.22 -17.58,-11.22 -17.58,-5.05 -16.26,-5.05 -16.26,-7.15 -14.9,-7.15 -14.9,-5.41 -13.49,-5.41 -13.49,-4.89 -12.03,-4.89 -12.03,-5.09 -10.51,-5.09 -10.51,-3.76 -8.94,-3.76 -8.94,-4.14 -7.31,-4.14 -7.31,-0.5 -5.63,-0.5 -5.63,0.46 -3.88,0.46 -3.88,2.69 -2.06,2.69 -2.06,3.7 -0.17,3.7 -0.17,5.49 1.79,5.49 1.79,6.71 3.82,6.71 3.82,7.71 5.94,7.71 5.94,7.71 8.13,7.71 8.13,7.71 10.42,7.71 10.42,7.71 12.8,7.71 12.8,7.71 15.27,7.71 15.27,7.65 17.85,7.65 17.85,7.59 20.53,7.59 20.53,7.62 23.32,7.62 23.32,7.63 26.22,7.63 26.22,7.67 29.25,7.67 29.25,7.7 32.41,7.7 32.41,7.71 35.71,7.71 35.71,7.71 39.14,7.71 39.14,7.71 42.72,7.71 42.72,7.71 46.46,7.71 46.46,7.71 50.37,7.71 50.37,7.7 54.44,7.7 54.44,7.7 58.7,7.7 58.7,7.7 63.14,7.7 63.14,7.7 67.78,7.7 67.78,7.7 72.63,7.7 72.63,7.71 77.7,7.71 77.7,7.71 " class="primitive"/>
          </g>
          <g transform="translate(137.04,43.96)" id="img-d6fab2f5-49" stroke-dasharray="none" stroke="#8B0000" class="color_L0D1e-3B[0,1],_0.002">
            <path fill="none" d="M-39.11,6.86 L-38.5,6.86 -38.5,6.88 -37.86,6.88 -37.86,6.91 -37.21,6.91 -37.21,6.93 -36.54,6.93 -36.54,6.96 -35.85,6.96 -35.85,6.98 -35.13,6.98 -35.13,6.32 -34.4,6.32 -34.4,6.22 -33.64,6.22 -33.64,6.87 -32.86,6.87 -32.86,7.07 -32.05,7.07 -32.05,7.09 -31.22,7.09 -31.22,5.3 -30.36,5.3 -30.36,-0.38 -29.47,-0.38 -29.47,-9 -28.56,-9 -28.56,-18.19 -27.62,-18.19 -27.62,-25.66 -26.64,-25.66 -26.64,-30.41 -25.64,-30.41 -25.64,-32.29 -24.6,-32.29 -24.6,-31.13 -23.52,-31.13 -23.52,-27.71 -22.41,-27.71 -22.41,-22.4 -21.26,-22.4 -21.26,-16.67 -20.07,-16.67 -20.07,-11.62 -18.85,-11.62 -18.85,-7.94 -17.58,-7.94 -17.58,-6.34 -16.26,-6.34 -16.26,-5.86 -14.9,-5.86 -14.9,-6.17 -13.49,-6.17 -13.49,-5.98 -12.03,-5.98 -12.03,-5.22 -10.51,-5.22 -10.51,-4.04 -8.94,-4.04 -8.94,-2.46 -7.31,-2.46 -7.31,-0.6 -5.63,-0.6 -5.63,1.07 -3.88,1.07 -3.88,2.41 -2.06,2.41 -2.06,3.83 -0.17,3.83 -0.17,5.28 1.79,5.28 1.79,6.67 3.82,6.67 3.82,7.49 5.94,7.49 5.94,7.5 8.13,7.5 8.13,7.51 10.42,7.51 10.42,7.52 12.8,7.52 12.8,7.53 15.27,7.53 15.27,7.46 17.85,7.46 17.85,7.51 20.53,7.51 20.53,7.55 23.32,7.55 23.32,7.56 26.22,7.56 26.22,7.57 29.25,7.57 29.25,7.58 32.41,7.58 32.41,7.58 35.71,7.58 35.71,7.59 39.14,7.59 39.14,7.6 42.72,7.6 42.72,7.6 46.46,7.6 46.46,7.61 50.37,7.61 50.37,7.62 54.44,7.62 54.44,7.62 58.7,7.62 58.7,7.63 63.14,7.63 63.14,7.63 67.78,7.63 67.78,7.64 72.63,7.64 72.63,7.64 77.7,7.64 77.7,7.75 " class="primitive"/>
          </g>
        </g>
      </g>
    </g>
  </g>
  <g class="guide ylabels" font-size="2.82" font-family="'PT Sans Caption','Helvetica Neue','Helvetica',sans-serif" fill="#6C606B" id="img-d6fab2f5-50">
    <g transform="translate(94.63,51.72)" id="img-d6fab2f5-51">
      <g class="primitive">
        <text text-anchor="end" dy="0.35em">0.0</text>
      </g>
    </g>
    <g transform="translate(94.63,42.17)" id="img-d6fab2f5-52">
      <g class="primitive">
        <text text-anchor="end" dy="0.35em">0.5</text>
      </g>
    </g>
    <g transform="translate(94.63,32.63)" id="img-d6fab2f5-53">
      <g class="primitive">
        <text text-anchor="end" dy="0.35em">1.0</text>
      </g>
    </g>
    <g transform="translate(94.63,23.09)" id="img-d6fab2f5-54">
      <g class="primitive">
        <text text-anchor="end" dy="0.35em">1.5</text>
      </g>
    </g>
    <g transform="translate(94.63,13.54)" id="img-d6fab2f5-55">
      <g class="primitive">
        <text text-anchor="end" dy="0.35em">2.0</text>
      </g>
    </g>
    <g transform="translate(94.63,4)" id="img-d6fab2f5-56">
      <g class="primitive">
        <text text-anchor="end" dy="0.35em">2.5</text>
      </g>
    </g>
  </g>
  <g font-size="3.88" font-family="'PT Sans','Helvetica Neue','Helvetica',sans-serif" fill="#564A55" stroke="#000000" stroke-opacity="0.000" id="img-d6fab2f5-57">
    <g transform="translate(85.81,25.86)" id="img-d6fab2f5-58">
      <g class="primitive">
        <text text-anchor="middle" dy="0.35em" transform="rotate(-90,0, 2)">Probability Density (-)</text>
      </g>
    </g>
  </g>
</g>
<g class="plotroot xscalable yscalable" id="img-d6fab2f5-59">
  <g font-size="3.88" font-family="'PT Sans','Helvetica Neue','Helvetica',sans-serif" fill="#564A55" stroke="#000000" stroke-opacity="0.000" id="img-d6fab2f5-60">
    <g transform="translate(39.05,61.39)" id="img-d6fab2f5-61">
      <g class="primitive">
        <text text-anchor="middle" dy="0.6em">Apparent Growth Factor (-)</text>
      </g>
    </g>
  </g>
  <g class="guide xlabels" font-size="2.82" font-family="'PT Sans Caption','Helvetica Neue','Helvetica',sans-serif" fill="#6C606B" id="img-d6fab2f5-62">
    <g transform="translate(14.96,54.72)" id="img-d6fab2f5-63">
      <g class="primitive">
        <text text-anchor="middle" dy="0.6em"></text>
      </g>
    </g>
    <g transform="translate(17.79,54.72)" id="img-d6fab2f5-64">
      <g class="primitive">
        <text text-anchor="middle" dy="0.6em"></text>
      </g>
    </g>
    <g transform="translate(20.63,54.72)" id="img-d6fab2f5-65">
      <g class="primitive">
        <text text-anchor="middle" dy="0.6em">1.0</text>
      </g>
    </g>
    <g transform="translate(23.46,54.72)" id="img-d6fab2f5-66">
      <g class="primitive">
        <text text-anchor="middle" dy="0.6em"></text>
      </g>
    </g>
    <g transform="translate(26.29,54.72)" id="img-d6fab2f5-67">
      <g class="primitive">
        <text text-anchor="middle" dy="0.6em"></text>
      </g>
    </g>
    <g transform="translate(29.13,54.72)" id="img-d6fab2f5-68">
      <g class="primitive">
        <text text-anchor="middle" dy="0.6em"></text>
      </g>
    </g>
    <g transform="translate(31.96,54.72)" id="img-d6fab2f5-69">
      <g class="primitive">
        <text text-anchor="middle" dy="0.6em"></text>
      </g>
    </g>
    <g transform="translate(34.8,54.72)" id="img-d6fab2f5-70">
      <g class="primitive">
        <text text-anchor="middle" dy="0.6em">1.5</text>
      </g>
    </g>
    <g transform="translate(37.63,54.72)" id="img-d6fab2f5-71">
      <g class="primitive">
        <text text-anchor="middle" dy="0.6em"></text>
      </g>
    </g>
    <g transform="translate(40.46,54.72)" id="img-d6fab2f5-72">
      <g class="primitive">
        <text text-anchor="middle" dy="0.6em"></text>
      </g>
    </g>
    <g transform="translate(43.3,54.72)" id="img-d6fab2f5-73">
      <g class="primitive">
        <text text-anchor="middle" dy="0.6em"></text>
      </g>
    </g>
    <g transform="translate(46.13,54.72)" id="img-d6fab2f5-74">
      <g class="primitive">
        <text text-anchor="middle" dy="0.6em"></text>
      </g>
    </g>
    <g transform="translate(48.96,54.72)" id="img-d6fab2f5-75">
      <g class="primitive">
        <text text-anchor="middle" dy="0.6em">2.0</text>
      </g>
    </g>
    <g transform="translate(51.8,54.72)" id="img-d6fab2f5-76">
      <g class="primitive">
        <text text-anchor="middle" dy="0.6em"></text>
      </g>
    </g>
    <g transform="translate(54.63,54.72)" id="img-d6fab2f5-77">
      <g class="primitive">
        <text text-anchor="middle" dy="0.6em"></text>
      </g>
    </g>
    <g transform="translate(57.47,54.72)" id="img-d6fab2f5-78">
      <g class="primitive">
        <text text-anchor="middle" dy="0.6em"></text>
      </g>
    </g>
    <g transform="translate(60.3,54.72)" id="img-d6fab2f5-79">
      <g class="primitive">
        <text text-anchor="middle" dy="0.6em"></text>
      </g>
    </g>
    <g transform="translate(63.13,54.72)" id="img-d6fab2f5-80">
      <g class="primitive">
        <text text-anchor="middle" dy="0.6em">2.5</text>
      </g>
    </g>
  </g>
  <g class="guide colorkey" id="img-d6fab2f5-81">
    <g fill="#4C404B" font-size="2.82" font-family="'PT Sans','Helvetica Neue','Helvetica',sans-serif" id="img-d6fab2f5-82">
      <g transform="translate(68.95,27.86)" id="img-d6fab2f5-83" class="color_No_noise">
        <g class="primitive">
          <text dy="0.35em">No noise</text>
        </g>
      </g>
      <g transform="translate(68.95,31.48)" id="img-d6fab2f5-84" class="color_Q_=_1lpm">
        <g class="primitive">
          <text dy="0.35em">Q = 1lpm</text>
        </g>
      </g>
    </g>
    <g fill-opacity="1" id="img-d6fab2f5-85">
      <g transform="translate(67.04,27.86)" id="img-d6fab2f5-86" fill="#000000" stroke="#FFFFFF" class="color_No_noise">
        <path d="M-0.91,-0.91 L0.91,-0.91 0.91,0.91 -0.91,0.91  z" class="primitive"/>
      </g>
      <g transform="translate(67.04,31.48)" id="img-d6fab2f5-87" fill="#8B0000" stroke="#FFFFFF" class="color_Q_=_1lpm">
        <path d="M-0.91,-0.91 L0.91,-0.91 0.91,0.91 -0.91,0.91  z" class="primitive"/>
      </g>
    </g>
    <g fill="#362A35" font-size="3.88" font-family="'PT Sans','Helvetica Neue','Helvetica',sans-serif" stroke="#000000" stroke-opacity="0.000" id="img-d6fab2f5-88">
      <g transform="translate(66.13,24.04)" id="img-d6fab2f5-89">
        <g class="primitive">
          <text dy="-0em"></text>
        </g>
      </g>
    </g>
  </g>
  <g clip-path="url(#img-d6fab2f5-90)">
    <g id="img-d6fab2f5-91">
      <g pointer-events="visible" stroke-width="0.3" fill="#000000" fill-opacity="0.000" stroke="#000000" stroke-opacity="0.000" class="guide background" id="img-d6fab2f5-92">
        <g transform="translate(39.05,27.86)" id="img-d6fab2f5-93">
          <path d="M-26.09,-25.86 L26.09,-25.86 26.09,25.86 -26.09,25.86  z" class="primitive"/>
        </g>
      </g>
      <g class="guide ygridlines xfixed" stroke-dasharray="0.5,0.5" stroke-width="0.2" stroke="#D0D0E0" id="img-d6fab2f5-94">
        <g transform="translate(39.05,51.72)" id="img-d6fab2f5-95">
          <path fill="none" d="M-26.09,0 L26.09,0 " class="primitive"/>
        </g>
        <g transform="translate(39.05,27.86)" id="img-d6fab2f5-96">
          <path fill="none" d="M-26.09,0 L26.09,0 " class="primitive"/>
        </g>
        <g transform="translate(39.05,4)" id="img-d6fab2f5-97">
          <path fill="none" d="M-26.09,0 L26.09,0 " class="primitive"/>
        </g>
      </g>
      <g class="guide xgridlines yfixed" stroke-dasharray="0.5,0.5" stroke-width="0.2" stroke="#D0D0E0" id="img-d6fab2f5-98">
        <g transform="translate(14.96,27.86)" id="img-d6fab2f5-99">
          <path fill="none" d="M0,-25.86 L0,25.86 " class="primitive"/>
        </g>
        <g transform="translate(17.79,27.86)" id="img-d6fab2f5-100">
          <path fill="none" d="M0,-25.86 L0,25.86 " class="primitive"/>
        </g>
        <g transform="translate(20.63,27.86)" id="img-d6fab2f5-101">
          <path fill="none" d="M0,-25.86 L0,25.86 " class="primitive"/>
        </g>
        <g transform="translate(23.46,27.86)" id="img-d6fab2f5-102">
          <path fill="none" d="M0,-25.86 L0,25.86 " class="primitive"/>
        </g>
        <g transform="translate(26.29,27.86)" id="img-d6fab2f5-103">
          <path fill="none" d="M0,-25.86 L0,25.86 " class="primitive"/>
        </g>
        <g transform="translate(29.13,27.86)" id="img-d6fab2f5-104">
          <path fill="none" d="M0,-25.86 L0,25.86 " class="primitive"/>
        </g>
        <g transform="translate(31.96,27.86)" id="img-d6fab2f5-105">
          <path fill="none" d="M0,-25.86 L0,25.86 " class="primitive"/>
        </g>
        <g transform="translate(34.8,27.86)" id="img-d6fab2f5-106">
          <path fill="none" d="M0,-25.86 L0,25.86 " class="primitive"/>
        </g>
        <g transform="translate(37.63,27.86)" id="img-d6fab2f5-107">
          <path fill="none" d="M0,-25.86 L0,25.86 " class="primitive"/>
        </g>
        <g transform="translate(40.46,27.86)" id="img-d6fab2f5-108">
          <path fill="none" d="M0,-25.86 L0,25.86 " class="primitive"/>
        </g>
        <g transform="translate(43.3,27.86)" id="img-d6fab2f5-109">
          <path fill="none" d="M0,-25.86 L0,25.86 " class="primitive"/>
        </g>
        <g transform="translate(46.13,27.86)" id="img-d6fab2f5-110">
          <path fill="none" d="M0,-25.86 L0,25.86 " class="primitive"/>
        </g>
        <g transform="translate(48.96,27.86)" id="img-d6fab2f5-111">
          <path fill="none" d="M0,-25.86 L0,25.86 " class="primitive"/>
        </g>
        <g transform="translate(51.8,27.86)" id="img-d6fab2f5-112">
          <path fill="none" d="M0,-25.86 L0,25.86 " class="primitive"/>
        </g>
        <g transform="translate(54.63,27.86)" id="img-d6fab2f5-113">
          <path fill="none" d="M0,-25.86 L0,25.86 " class="primitive"/>
        </g>
        <g transform="translate(57.47,27.86)" id="img-d6fab2f5-114">
          <path fill="none" d="M0,-25.86 L0,25.86 " class="primitive"/>
        </g>
        <g transform="translate(60.3,27.86)" id="img-d6fab2f5-115">
          <path fill="none" d="M0,-25.86 L0,25.86 " class="primitive"/>
        </g>
        <g transform="translate(63.13,27.86)" id="img-d6fab2f5-116">
          <path fill="none" d="M0,-25.86 L0,25.86 " class="primitive"/>
        </g>
      </g>
      <g class="plotpanel" id="img-d6fab2f5-117">
        <metadata>
          <boundingbox value="12.958333333333336mm 2.0mm 52.17499999999999mm 51.715mm"/>
          <unitbox value="0.7294239750908148 10.419155401865241 1.8411520498183707 -10.838310803730483"/>
        </metadata>
        <g stroke-width="0.3" fill="#000000" fill-opacity="0.000" class="geometry" id="img-d6fab2f5-118">
          <g transform="translate(54.14,40.5)" id="img-d6fab2f5-119" stroke-dasharray="none" stroke="#000000" class="color_No_noise">
            <path fill="none" d="M-38.88,11.17 L-38.27,11.17 -38.27,11.14 -37.64,11.14 -37.64,11.09 -36.99,11.09 -36.99,11.02 -36.32,11.02 -36.32,10.9 -35.63,10.9 -35.63,10.68 -34.92,10.68 -34.92,10.31 -34.19,10.31 -34.19,9.66 -33.44,9.66 -33.44,8.58 -32.66,8.58 -32.66,6.86 -31.86,6.86 -31.86,4.28 -31.03,4.28 -31.03,0.64 -30.18,0.64 -30.18,-4.09 -29.3,-4.09 -29.3,-9.79 -28.39,-9.79 -28.39,-16.04 -27.45,-16.04 -27.45,-22.18 -26.48,-22.18 -26.48,-27.42 -25.48,-27.42 -25.48,-31.03 -24.45,-31.03 -24.45,-32.55 -23.38,-32.55 -23.38,-31.93 -22.28,-31.93 -22.28,-29.62 -21.13,-29.62 -21.13,-26.37 -19.95,-26.37 -19.95,-22.95 -18.73,-22.95 -18.73,-19.97 -17.47,-19.97 -17.47,-17.72 -16.16,-17.72 -16.16,-16.11 -14.81,-16.11 -14.81,-14.85 -13.41,-14.85 -13.41,-13.58 -11.95,-13.58 -11.95,-12 -10.45,-12 -10.45,-9.94 -8.89,-9.94 -8.89,-7.45 -7.27,-7.45 -7.27,-4.64 -5.59,-4.64 -5.59,-1.72 -3.85,-1.72 -3.85,1.12 -2.05,1.12 -2.05,3.7 -0.17,3.7 -0.17,5.9 1.78,5.9 1.78,7.65 3.8,7.65 3.8,8.95 5.9,8.95 5.9,9.86 8.09,9.86 8.09,10.45 10.36,10.45 10.36,10.81 12.72,10.81 12.72,11.02 15.18,11.02 15.18,11.13 17.74,11.13 17.74,11.18 20.4,11.18 20.4,11.2 23.18,11.2 23.18,11.21 26.07,11.21 26.07,11.22 29.08,11.22 29.08,11.22 32.22,11.22 32.22,11.22 35.49,11.22 35.49,11.22 38.91,11.22 38.91,11.22 42.47,11.22 42.47,11.22 46.19,11.22 46.19,11.22 50.07,11.22 50.07,11.22 54.12,11.22 54.12,11.22 58.35,11.22 58.35,11.22 62.76,11.22 62.76,11.22 67.38,11.22 67.38,11.22 72.2,11.22 72.2,11.22 77.24,11.22 77.24,11.22 " class="primitive"/>
          </g>
          <g transform="translate(54.14,40.81)" id="img-d6fab2f5-120" stroke-dasharray="none" stroke="#8B0000" class="color_Q_=_1lpm">
            <path fill="none" d="M-38.88,10.91 L-38.27,10.91 -38.27,10.91 -37.64,10.91 -37.64,10.48 -36.99,10.48 -36.99,10.62 -36.32,10.62 -36.32,10.91 -35.63,10.91 -35.63,10.62 -34.92,10.62 -34.92,10.05 -34.19,10.05 -34.19,10.05 -33.44,10.05 -33.44,9.33 -32.66,9.33 -32.66,6.47 -31.86,6.47 -31.86,5.04 -31.03,5.04 -31.03,2.18 -30.18,2.18 -30.18,-3.55 -29.3,-3.55 -29.3,-8.42 -28.39,-8.42 -28.39,-16.29 -27.45,-16.29 -27.45,-26.88 -26.48,-26.88 -26.48,-26.31 -25.48,-26.31 -25.48,-29.89 -24.45,-29.89 -24.45,-33.18 -23.38,-33.18 -23.38,-32.04 -22.28,-32.04 -22.28,-31.32 -21.13,-31.32 -21.13,-25.88 -19.95,-25.88 -19.95,-19.44 -18.73,-19.44 -18.73,-22.3 -17.47,-22.3 -17.47,-13.86 -16.16,-13.86 -16.16,-17.01 -14.81,-17.01 -14.81,-13.43 -13.41,-13.43 -13.41,-11.57 -11.95,-11.57 -11.95,-11.14 -10.45,-11.14 -10.45,-8.42 -8.89,-8.42 -8.89,-9.42 -7.27,-9.42 -7.27,-3.12 -5.59,-3.12 -5.59,-2.26 -3.85,-2.26 -3.85,1.17 -2.05,1.17 -2.05,2.18 -0.17,2.18 -0.17,5.18 1.78,5.18 1.78,7.33 3.8,7.33 3.8,9.62 5.9,9.62 5.9,10.34 8.09,10.34 8.09,10.48 10.36,10.48 10.36,10.34 12.72,10.34 12.72,10.91 15.18,10.91 15.18,10.76 17.74,10.76 17.74,10.76 20.4,10.76 20.4,10.91 23.18,10.91 23.18,10.91 26.07,10.91 26.07,10.91 29.08,10.91 29.08,10.91 32.22,10.91 32.22,10.91 35.49,10.91 35.49,10.91 38.91,10.91 38.91,10.91 42.47,10.91 42.47,10.91 46.19,10.91 46.19,10.91 50.07,10.91 50.07,10.91 54.12,10.91 54.12,10.91 58.35,10.91 58.35,10.91 62.76,10.91 62.76,10.91 67.38,10.91 67.38,10.91 72.2,10.91 72.2,10.91 77.24,10.91 77.24,10.91 " class="primitive"/>
          </g>
        </g>
      </g>
    </g>
  </g>
  <g class="guide ylabels" font-size="2.82" font-family="'PT Sans Caption','Helvetica Neue','Helvetica',sans-serif" fill="#6C606B" id="img-d6fab2f5-121">
    <g transform="translate(11.96,51.72)" id="img-d6fab2f5-122">
      <g class="primitive">
        <text text-anchor="end" dy="0.35em">0</text>
      </g>
    </g>
    <g transform="translate(11.96,27.86)" id="img-d6fab2f5-123">
      <g class="primitive">
        <text text-anchor="end" dy="0.35em">5</text>
      </g>
    </g>
    <g transform="translate(11.96,4)" id="img-d6fab2f5-124">
      <g class="primitive">
        <text text-anchor="end" dy="0.35em">10</text>
      </g>
    </g>
  </g>
  <g font-size="3.88" font-family="'PT Sans','Helvetica Neue','Helvetica',sans-serif" fill="#564A55" stroke="#000000" stroke-opacity="0.000" id="img-d6fab2f5-125">
    <g transform="translate(3.81,25.86)" id="img-d6fab2f5-126">
      <g class="primitive">
        <text text-anchor="middle" dy="0.35em" transform="rotate(-90,0, 2)">Concentration (cm⁻³)</text>
      </g>
    </g>
  </g>
</g>
<defs>
  <clipPath id="img-d6fab2f5-15">
    <path d="M95.63,2 L148.1,2 148.1,53.72 95.63,53.72 " />
  </clipPath>
  <clipPath id="img-d6fab2f5-90">
    <path d="M12.96,2 L65.13,2 65.13,53.72 12.96,53.72 " />
  </clipPath>
</defs>
</svg>
