<?xml version="1.0" encoding="UTF-8"?>
<svg xmlns="http://www.w3.org/2000/svg"
     xmlns:xlink="http://www.w3.org/1999/xlink"
     xmlns:gadfly="http://www.gadflyjl.org/ns"
     version="1.2"
     width="180mm" height="70mm" viewBox="0 0 180 70"
     stroke="none"
     fill="#000000"
     stroke-width="0.3"
     font-size="3.88"
>
<defs>
  <marker id="arrow" markerWidth="15" markerHeight="7" refX="5" refY="3.5" orient="auto" markerUnits="strokeWidth">
    <path d="M0,0 L15,3.5 L0,7 z" stroke="context-stroke" fill="context-stroke"/>
  </marker>
</defs>
<g class="plotroot xscalable yscalable" id="img-1603cc5e-1">
  <g font-size="3.88" font-family="'PT Sans','Helvetica Neue','Helvetica',sans-serif" fill="#564A55" stroke="#000000" stroke-opacity="0.000" id="img-1603cc5e-2">
    <g transform="translate(121.86,61.39)">
      <g class="primitive">
        <text text-anchor="middle" dy="0.6em">Growth Factor (-)</text>
      </g>
    </g>
  </g>
  <g class="guide xlabels" font-size="2.82" font-family="'PT Sans Caption','Helvetica Neue','Helvetica',sans-serif" fill="#6C606B" id="img-1603cc5e-3">
    <g transform="translate(97.63,54.72)">
      <g class="primitive">
        <text text-anchor="middle" dy="0.6em"></text>
      </g>
    </g>
    <g transform="translate(100.48,54.72)">
      <g class="primitive">
        <text text-anchor="middle" dy="0.6em"></text>
      </g>
    </g>
    <g transform="translate(103.33,54.72)">
      <g class="primitive">
        <text text-anchor="middle" dy="0.6em">1.0</text>
      </g>
    </g>
    <g transform="translate(106.18,54.72)">
      <g class="primitive">
        <text text-anchor="middle" dy="0.6em"></text>
      </g>
    </g>
    <g transform="translate(109.04,54.72)">
      <g class="primitive">
        <text text-anchor="middle" dy="0.6em"></text>
      </g>
    </g>
    <g transform="translate(111.89,54.72)">
      <g class="primitive">
        <text text-anchor="middle" dy="0.6em"></text>
      </g>
    </g>
    <g transform="translate(114.74,54.72)">
      <g class="primitive">
        <text text-anchor="middle" dy="0.6em"></text>
      </g>
    </g>
    <g transform="translate(117.59,54.72)">
      <g class="primitive">
        <text text-anchor="middle" dy="0.6em">1.5</text>
      </g>
    </g>
    <g transform="translate(120.44,54.72)">
      <g class="primitive">
        <text text-anchor="middle" dy="0.6em"></text>
      </g>
    </g>
    <g transform="translate(123.29,54.72)">
      <g class="primitive">
        <text text-anchor="middle" dy="0.6em"></text>
      </g>
    </g>
    <g transform="translate(126.14,54.72)">
      <g class="primitive">
        <text text-anchor="middle" dy="0.6em"></text>
      </g>
    </g>
    <g transform="translate(128.99,54.72)">
      <g class="primitive">
        <text text-anchor="middle" dy="0.6em"></text>
      </g>
    </g>
    <g transform="translate(131.84,54.72)">
      <g class="primitive">
        <text text-anchor="middle" dy="0.6em">2.0</text>
      </g>
    </g>
    <g transform="translate(134.69,54.72)">
      <g class="primitive">
        <text text-anchor="middle" dy="0.6em"></text>
      </g>
    </g>
    <g transform="translate(137.54,54.72)">
      <g class="primitive">
        <text text-anchor="middle" dy="0.6em"></text>
      </g>
    </g>
    <g transform="translate(140.39,54.72)">
      <g class="primitive">
        <text text-anchor="middle" dy="0.6em"></text>
      </g>
    </g>
    <g transform="translate(143.25,54.72)">
      <g class="primitive">
        <text text-anchor="middle" dy="0.6em"></text>
      </g>
    </g>
    <g transform="translate(146.1,54.72)">
      <g class="primitive">
        <text text-anchor="middle" dy="0.6em">2.5</text>
      </g>
    </g>
  </g>
  <g class="guide colorkey" id="img-1603cc5e-4">
    <g fill="#4C404B" font-size="2.82" font-family="'PT Sans','Helvetica Neue','Helvetica',sans-serif" id="img-1603cc5e-5">
      <g transform="translate(152.57,25.39)" id="img-1603cc5e-6" class="color_Truth">
        <g class="primitive">
          <text dy="0.35em">Truth</text>
        </g>
      </g>
      <g transform="translate(152.57,30.33)" id="img-1603cc5e-7" class="color_L0D1e-3B[0,1],_0.026">
        <g class="primitive">
          <text dy="0.35em">L<tspan dy="0.4em" font-size="83%">0</tspan><tspan dy="-0.3320em">D</tspan><tspan dy="0.4em" font-size="83%">1e-3</tspan><tspan dy="-0.3320em">B</tspan><tspan dy="0.4em" font-size="83%">[0,1]</tspan><tspan dy="-0.3320em">, 0.026</tspan></text>
        </g>
      </g>
      <g transform="translate(152.57,35.27)" id="img-1603cc5e-8" class="color_L2x0B[0,1],_0.019">
        <g class="primitive">
          <text dy="0.35em">L<tspan dy="0.4em" font-size="83%">2</tspan><tspan dy="-0.3320em">x</tspan><tspan dy="0.4em" font-size="83%">0</tspan><tspan dy="-0.3320em">B</tspan><tspan dy="0.4em" font-size="83%">[0,1]</tspan><tspan dy="-0.3320em">, 0.019</tspan></text>
        </g>
      </g>
    </g>
    <g fill-opacity="1" id="img-1603cc5e-9">
      <g transform="translate(150.33,25.39)" id="img-1603cc5e-10" class="color_Truth" fill="#000000" stroke="#FFFFFF">
        <path d="M-1.24,-1.24 L1.24,-1.24 1.24,1.24 -1.24,1.24  z" class="primitive"/>
      </g>
      <g transform="translate(150.33,30.33)" id="img-1603cc5e-11" class="color_L0D1e-3B[0,1],_0.026" fill="#8B0000" stroke="#FFFFFF">
        <path d="M-1.24,-1.24 L1.24,-1.24 1.24,1.24 -1.24,1.24  z" class="primitive"/>
      </g>
      <g transform="translate(150.33,35.27)" id="img-1603cc5e-12" class="color_L2x0B[0,1],_0.019" fill="#4F94CD" stroke="#FFFFFF">
        <path d="M-1.24,-1.24 L1.24,-1.24 1.24,1.24 -1.24,1.24  z" class="primitive"/>
      </g>
    </g>
    <g fill="#362A35" font-size="3.88" font-family="'PT Sans','Helvetica Neue','Helvetica',sans-serif" stroke="#000000" stroke-opacity="0.000" id="img-1603cc5e-13">
      <g transform="translate(149.1,20.25)" id="img-1603cc5e-14">
        <g class="primitive">
          <text dy="-0em"></text>
        </g>
      </g>
    </g>
  </g>
  <g clip-path="url(#img-1603cc5e-15)">
    <g id="img-1603cc5e-16">
      <g pointer-events="visible" stroke-width="0.3" fill="#000000" fill-opacity="0.000" stroke="#000000" stroke-opacity="0.000" class="guide background" id="img-1603cc5e-17">
        <g transform="translate(121.86,27.86)" id="img-1603cc5e-18">
          <path d="M-26.23,-25.86 L26.23,-25.86 26.23,25.86 -26.23,25.86  z" class="primitive"/>
        </g>
      </g>
      <g class="guide ygridlines xfixed" stroke-dasharray="0.5,0.5" stroke-width="0.2" stroke="#D0D0E0" id="img-1603cc5e-19">
        <g transform="translate(121.86,51.72)" id="img-1603cc5e-20">
          <path fill="none" d="M-26.23,0 L26.23,0 " class="primitive"/>
        </g>
        <g transform="translate(121.86,42.17)" id="img-1603cc5e-21">
          <path fill="none" d="M-26.23,0 L26.23,0 " class="primitive"/>
        </g>
        <g transform="translate(121.86,32.63)" id="img-1603cc5e-22">
          <path fill="none" d="M-26.23,0 L26.23,0 " class="primitive"/>
        </g>
        <g transform="translate(121.86,23.09)" id="img-1603cc5e-23">
          <path fill="none" d="M-26.23,0 L26.23,0 " class="primitive"/>
        </g>
        <g transform="translate(121.86,13.54)" id="img-1603cc5e-24">
          <path fill="none" d="M-26.23,0 L26.23,0 " class="primitive"/>
        </g>
        <g transform="translate(121.86,4)" id="img-1603cc5e-25">
          <path fill="none" d="M-26.23,0 L26.23,0 " class="primitive"/>
        </g>
      </g>
      <g class="guide xgridlines yfixed" stroke-dasharray="0.5,0.5" stroke-width="0.2" stroke="#D0D0E0" id="img-1603cc5e-26">
        <g transform="translate(97.63,27.86)" id="img-1603cc5e-27">
          <path fill="none" d="M0,-25.86 L0,25.86 " class="primitive"/>
        </g>
        <g transform="translate(100.48,27.86)" id="img-1603cc5e-28">
          <path fill="none" d="M0,-25.86 L0,25.86 " class="primitive"/>
        </g>
        <g transform="translate(103.33,27.86)" id="img-1603cc5e-29">
          <path fill="none" d="M0,-25.86 L0,25.86 " class="primitive"/>
        </g>
        <g transform="translate(106.18,27.86)" id="img-1603cc5e-30">
          <path fill="none" d="M0,-25.86 L0,25.86 " class="primitive"/>
        </g>
        <g transform="translate(109.04,27.86)" id="img-1603cc5e-31">
          <path fill="none" d="M0,-25.86 L0,25.86 " class="primitive"/>
        </g>
        <g transform="translate(111.89,27.86)" id="img-1603cc5e-32">
          <path fill="none" d="M0,-25.86 L0,25.86 " class="primitive"/>
        </g>
        <g transform="translate(114.74,27.86)" id="img-1603cc5e-33">
          <path fill="none" d="M0,-25.86 L0,25.86 " class="primitive"/>
        </g>
        <g transform="translate(117.59,27.86)" id="img-1603cc5e-34">
          <path fill="none" d="M0,-25.86 L0,25.86 " class="primitive"/>
        </g>
        <g transform="translate(120.44,27.86)" id="img-1603cc5e-35">
          <path fill="none" d="M0,-25.86 L0,25.86 " class="primitive"/>
        </g>
        <g transform="translate(123.29,27.86)" id="img-1603cc5e-36">
          <path fill="none" d="M0,-25.86 L0,25.86 " class="primitive"/>
        </g>
        <g transform="translate(126.14,27.86)" id="img-1603cc5e-37">
          <path fill="none" d="M0,-25.86 L0,25.86 " class="primitive"/>
        </g>
        <g transform="translate(128.99,27.86)" id="img-1603cc5e-38">
          <path fill="none" d="M0,-25.86 L0,25.86 " class="primitive"/>
        </g>
        <g transform="translate(131.84,27.86)" id="img-1603cc5e-39">
          <path fill="none" d="M0,-25.86 L0,25.86 " class="primitive"/>
        </g>
        <g transform="translate(134.69,27.86)" id="img-1603cc5e-40">
          <path fill="none" d="M0,-25.86 L0,25.86 " class="primitive"/>
        </g>
        <g transform="translate(137.54,27.86)" id="img-1603cc5e-41">
          <path fill="none" d="M0,-25.86 L0,25.86 " class="primitive"/>
        </g>
        <g transform="translate(140.39,27.86)" id="img-1603cc5e-42">
          <path fill="none" d="M0,-25.86 L0,25.86 " class="primitive"/>
        </g>
        <g transform="translate(143.25,27.86)" id="img-1603cc5e-43">
          <path fill="none" d="M0,-25.86 L0,25.86 " class="primitive"/>
        </g>
        <g transform="translate(146.1,27.86)" id="img-1603cc5e-44">
          <path fill="none" d="M0,-25.86 L0,25.86 " class="primitive"/>
        </g>
      </g>
      <g class="plotpanel" id="img-1603cc5e-45">
        <metadata>
          <boundingbox value="95.63166666666667mm 2.0mm 52.465mm 51.715mm"/>
          <unitbox value="0.7298462808212112 0.520957770093262 1.8403074383575777 -0.5419155401865241"/>
        </metadata>
        <g stroke-width="0.3" fill="#000000" fill-opacity="0.000" class="geometry" id="img-1603cc5e-46">
          <g transform="translate(116.88,39.13)" id="img-1603cc5e-47" stroke="#000000" class="color_Truth" stroke-dasharray="none">
            <path fill="none" d="M-18.84,12.55 L-18.02,12.55 -18.02,12.53 -17.16,12.53 -17.16,12.5 -16.26,12.5 -16.26,12.45 -15.33,12.45 -15.33,12.35 -14.37,12.35 -14.37,12.15 -13.36,12.15 -13.36,11.7 -12.31,11.7 -12.31,10.68 -11.21,10.68 -11.21,8.47 -10.07,8.47 -10.07,4.17 -8.88,4.17 -8.88,-3 -7.64,-3 -7.64,-12.67 -6.35,-12.67 -6.35,-22.26 -5,-22.26 -5,-27.47 -3.58,-27.47 -3.58,-25.41 -2.11,-25.41 -2.11,-17.82 -0.57,-17.82 -0.57,-10.01 1.05,-10.01 1.05,-5.96 2.73,-5.96 2.73,-5.58 4.5,-5.58 4.5,-6.6 6.35,-6.6 6.35,-7.18 8.29,-7.18 8.29,-6.49 10.32,-6.49 10.32,-4.4 12.46,-4.4 12.46,-1.2 14.7,-1.2 14.7,2.53 17.05,2.53 17.05,6.1 19.52,6.1 19.52,8.95 22.12,8.95 22.12,10.84 24.85,10.84 24.85,11.89 27.72,11.89 27.72,12.36 " class="primitive"/>
          </g>
          <g transform="translate(116.88,38.83)" id="img-1603cc5e-48" stroke="#4F94CD" class="color_L2x0B[0,1],_0.019" stroke-dasharray="none">
            <path fill="none" d="M-18.84,12.89 L-18.02,12.89 -18.02,12.69 -17.16,12.69 -17.16,11.95 -16.26,11.95 -16.26,12.22 -15.33,12.22 -15.33,12.89 -14.37,12.89 -14.37,12.89 -13.36,12.89 -13.36,12.29 -12.31,12.29 -12.31,9.1 -11.21,9.1 -11.21,6.27 -10.07,6.27 -10.07,3.92 -8.88,3.92 -8.88,-0.11 -7.64,-0.11 -7.64,-9.52 -6.35,-9.52 -6.35,-22.72 -5,-22.72 -5,-30.97 -3.58,-30.97 -3.58,-29.43 -2.11,-29.43 -2.11,-18.68 -0.57,-18.68 -0.57,-7.22 1.05,-7.22 1.05,-2.6 2.73,-2.6 2.73,-5.15 4.5,-5.15 4.5,-9.03 6.35,-9.03 6.35,-9.08 8.29,-9.08 8.29,-6.11 10.32,-6.11 10.32,-2.8 12.46,-2.8 12.46,0.48 14.7,0.48 14.7,2.8 17.05,2.8 17.05,5.17 19.52,5.17 19.52,8.03 22.12,8.03 22.12,10.62 24.85,10.62 24.85,12.77 27.72,12.77 27.72,12.89 " class="primitive"/>
          </g>
          <g transform="translate(116.88,38.77)" id="img-1603cc5e-49" stroke="#8B0000" class="color_L0D1e-3B[0,1],_0.026" stroke-dasharray="none">
            <path fill="none" d="M-18.84,12.85 L-18.02,12.85 -18.02,12.85 -17.16,12.85 -17.16,11.67 -16.26,11.67 -16.26,11.55 -15.33,11.55 -15.33,12.85 -14.37,12.85 -14.37,12.85 -13.36,12.85 -13.36,12.85 -12.31,12.85 -12.31,9.44 -11.21,9.44 -11.21,4.83 -10.07,4.83 -10.07,2.61 -8.88,2.61 -8.88,0.56 -7.64,0.56 -7.64,-7.52 -6.35,-7.52 -6.35,-21.8 -5,-21.8 -5,-32.34 -3.58,-32.34 -3.58,-31.1 -2.11,-31.1 -2.11,-17.95 -0.57,-17.95 -0.57,-4.88 1.05,-4.88 1.05,-2.14 2.73,-2.14 2.73,-6.96 4.5,-6.96 4.5,-10.26 6.35,-10.26 6.35,-8.05 8.29,-8.05 8.29,-4.34 10.32,-4.34 10.32,-2.72 12.46,-2.72 12.46,-0.8 14.7,-0.8 14.7,2.5 17.05,2.5 17.05,5.97 19.52,5.97 19.52,8.64 22.12,8.64 22.12,10.18 24.85,10.18 24.85,12.22 27.72,12.22 27.72,12.94 " class="primitive"/>
          </g>
        </g>
      </g>
    </g>
  </g>
  <g class="guide ylabels" font-size="2.82" font-family="'PT Sans Caption','Helvetica Neue','Helvetica',sans-serif" fill="#6C606B" id="img-1603cc5e-50">
    <g transform="translate(94.63,51.72)" id="img-1603cc5e-51">
      <g class="primitive">
        <text text-anchor="end" dy="0.35em">0.0</text>
      </g>
    </g>
    <g transform="translate(94.63,42.17)" id="img-1603cc5e-52">
      <g class="primitive">
        <text text-anchor="end" dy="0.35em">0.1</text>
      </g>
    </g>
    <g transform="translate(94.63,32.63)" id="img-1603cc5e-53">
      <g class="primitive">
        <text text-anchor="end" dy="0.35em">0.2</text>
      </g>
    </g>
    <g transform="translate(94.63,23.09)" id="img-1603cc5e-54">
      <g class="primitive">
        <text text-anchor="end" dy="0.35em">0.3</text>
      </g>
    </g>
    <g transform="translate(94.63,13.54)" id="img-1603cc5e-55">
      <g class="primitive">
        <text text-anchor="end" dy="0.35em">0.4</text>
      </g>
    </g>
    <g transform="translate(94.63,4)" id="img-1603cc5e-56">
      <g class="primitive">
        <text text-anchor="end" dy="0.35em">0.5</text>
      </g>
    </g>
  </g>
  <g font-size="3.88" font-family="'PT Sans','Helvetica Neue','Helvetica',sans-serif" fill="#564A55" stroke="#000000" stroke-opacity="0.000" id="img-1603cc5e-57">
    <g transform="translate(85.81,25.86)" id="img-1603cc5e-58">
      <g class="primitive">
        <text text-anchor="middle" dy="0.35em" transform="rotate(-90,0, 2)">Frequency (-)</text>
      </g>
    </g>
  </g>
</g>
<g class="plotroot xscalable yscalable" id="img-1603cc5e-59">
  <g font-size="3.88" font-family="'PT Sans','Helvetica Neue','Helvetica',sans-serif" fill="#564A55" stroke="#000000" stroke-opacity="0.000" id="img-1603cc5e-60">
    <g transform="translate(39.05,61.39)" id="img-1603cc5e-61">
      <g class="primitive">
        <text text-anchor="middle" dy="0.6em">Apparent Growth Factor (-)</text>
      </g>
    </g>
  </g>
  <g class="guide xlabels" font-size="2.82" font-family="'PT Sans Caption','Helvetica Neue','Helvetica',sans-serif" fill="#6C606B" id="img-1603cc5e-62">
    <g transform="translate(14.96,54.71)" id="img-1603cc5e-63">
      <g class="primitive">
        <text text-anchor="middle" dy="0.6em"></text>
      </g>
    </g>
    <g transform="translate(17.79,54.71)" id="img-1603cc5e-64">
      <g class="primitive">
        <text text-anchor="middle" dy="0.6em"></text>
      </g>
    </g>
    <g transform="translate(20.63,54.71)" id="img-1603cc5e-65">
      <g class="primitive">
        <text text-anchor="middle" dy="0.6em">1.0</text>
      </g>
    </g>
    <g transform="translate(23.46,54.71)" id="img-1603cc5e-66">
      <g class="primitive">
        <text text-anchor="middle" dy="0.6em"></text>
      </g>
    </g>
    <g transform="translate(26.29,54.71)" id="img-1603cc5e-67">
      <g class="primitive">
        <text text-anchor="middle" dy="0.6em"></text>
      </g>
    </g>
    <g transform="translate(29.13,54.71)" id="img-1603cc5e-68">
      <g class="primitive">
        <text text-anchor="middle" dy="0.6em"></text>
      </g>
    </g>
    <g transform="translate(31.96,54.71)" id="img-1603cc5e-69">
      <g class="primitive">
        <text text-anchor="middle" dy="0.6em"></text>
      </g>
    </g>
    <g transform="translate(34.8,54.71)" id="img-1603cc5e-70">
      <g class="primitive">
        <text text-anchor="middle" dy="0.6em">1.5</text>
      </g>
    </g>
    <g transform="translate(37.63,54.71)" id="img-1603cc5e-71">
      <g class="primitive">
        <text text-anchor="middle" dy="0.6em"></text>
      </g>
    </g>
    <g transform="translate(40.46,54.71)" id="img-1603cc5e-72">
      <g class="primitive">
        <text text-anchor="middle" dy="0.6em"></text>
      </g>
    </g>
    <g transform="translate(43.3,54.71)" id="img-1603cc5e-73">
      <g class="primitive">
        <text text-anchor="middle" dy="0.6em"></text>
      </g>
    </g>
    <g transform="translate(46.13,54.71)" id="img-1603cc5e-74">
      <g class="primitive">
        <text text-anchor="middle" dy="0.6em"></text>
      </g>
    </g>
    <g transform="translate(48.96,54.71)" id="img-1603cc5e-75">
      <g class="primitive">
        <text text-anchor="middle" dy="0.6em">2.0</text>
      </g>
    </g>
    <g transform="translate(51.8,54.71)" id="img-1603cc5e-76">
      <g class="primitive">
        <text text-anchor="middle" dy="0.6em"></text>
      </g>
    </g>
    <g transform="translate(54.63,54.71)" id="img-1603cc5e-77">
      <g class="primitive">
        <text text-anchor="middle" dy="0.6em"></text>
      </g>
    </g>
    <g transform="translate(57.47,54.71)" id="img-1603cc5e-78">
      <g class="primitive">
        <text text-anchor="middle" dy="0.6em"></text>
      </g>
    </g>
    <g transform="translate(60.3,54.71)" id="img-1603cc5e-79">
      <g class="primitive">
        <text text-anchor="middle" dy="0.6em"></text>
      </g>
    </g>
    <g transform="translate(63.13,54.71)" id="img-1603cc5e-80">
      <g class="primitive">
        <text text-anchor="middle" dy="0.6em">2.5</text>
      </g>
    </g>
  </g>
  <g class="guide colorkey" id="img-1603cc5e-81">
    <g fill="#4C404B" font-size="2.82" font-family="'PT Sans','Helvetica Neue','Helvetica',sans-serif" id="img-1603cc5e-82">
      <g transform="translate(68.95,27.86)" id="img-1603cc5e-83" class="color_No_noise">
        <g class="primitive">
          <text dy="0.35em">No noise</text>
        </g>
      </g>
      <g transform="translate(68.95,31.48)" id="img-1603cc5e-84" class="color_Q_=_1lpm">
        <g class="primitive">
          <text dy="0.35em">Q = 1lpm</text>
        </g>
      </g>
    </g>
    <g fill-opacity="1" id="img-1603cc5e-85">
      <g transform="translate(67.04,27.86)" id="img-1603cc5e-86" fill="#000000" stroke="#FFFFFF" class="color_No_noise">
        <path d="M-0.91,-0.91 L0.91,-0.91 0.91,0.91 -0.91,0.91  z" class="primitive"/>
      </g>
      <g transform="translate(67.04,31.48)" id="img-1603cc5e-87" fill="#8B0000" stroke="#FFFFFF" class="color_Q_=_1lpm">
        <path d="M-0.91,-0.91 L0.91,-0.91 0.91,0.91 -0.91,0.91  z" class="primitive"/>
      </g>
    </g>
    <g fill="#362A35" font-size="3.88" font-family="'PT Sans','Helvetica Neue','Helvetica',sans-serif" stroke="#000000" stroke-opacity="0.000" id="img-1603cc5e-88">
      <g transform="translate(66.13,24.04)" id="img-1603cc5e-89">
        <g class="primitive">
          <text dy="-0em"></text>
        </g>
      </g>
    </g>
  </g>
  <g clip-path="url(#img-1603cc5e-90)">
    <g id="img-1603cc5e-91">
      <g pointer-events="visible" stroke-width="0.3" fill="#000000" fill-opacity="0.000" stroke="#000000" stroke-opacity="0.000" class="guide background" id="img-1603cc5e-92">
        <g transform="translate(39.05,27.86)" id="img-1603cc5e-93">
          <path d="M-26.09,-25.86 L26.09,-25.86 26.09,25.86 -26.09,25.86  z" class="primitive"/>
        </g>
      </g>
      <g class="guide ygridlines xfixed" stroke-dasharray="0.5,0.5" stroke-width="0.2" stroke="#D0D0E0" id="img-1603cc5e-94">
        <g transform="translate(39.05,51.71)" id="img-1603cc5e-95">
          <path fill="none" d="M-26.09,0 L26.09,0 " class="primitive"/>
        </g>
        <g transform="translate(39.05,42.17)" id="img-1603cc5e-96">
          <path fill="none" d="M-26.09,0 L26.09,0 " class="primitive"/>
        </g>
        <g transform="translate(39.05,32.63)" id="img-1603cc5e-97">
          <path fill="none" d="M-26.09,0 L26.09,0 " class="primitive"/>
        </g>
        <g transform="translate(39.05,23.09)" id="img-1603cc5e-98">
          <path fill="none" d="M-26.09,0 L26.09,0 " class="primitive"/>
        </g>
        <g transform="translate(39.05,13.54)" id="img-1603cc5e-99">
          <path fill="none" d="M-26.09,0 L26.09,0 " class="primitive"/>
        </g>
        <g transform="translate(39.05,4)" id="img-1603cc5e-100">
          <path fill="none" d="M-26.09,0 L26.09,0 " class="primitive"/>
        </g>
      </g>
      <g class="guide xgridlines yfixed" stroke-dasharray="0.5,0.5" stroke-width="0.2" stroke="#D0D0E0" id="img-1603cc5e-101">
        <g transform="translate(14.96,27.86)" id="img-1603cc5e-102">
          <path fill="none" d="M0,-25.86 L0,25.86 " class="primitive"/>
        </g>
        <g transform="translate(17.79,27.86)" id="img-1603cc5e-103">
          <path fill="none" d="M0,-25.86 L0,25.86 " class="primitive"/>
        </g>
        <g transform="translate(20.63,27.86)" id="img-1603cc5e-104">
          <path fill="none" d="M0,-25.86 L0,25.86 " class="primitive"/>
        </g>
        <g transform="translate(23.46,27.86)" id="img-1603cc5e-105">
          <path fill="none" d="M0,-25.86 L0,25.86 " class="primitive"/>
        </g>
        <g transform="translate(26.29,27.86)" id="img-1603cc5e-106">
          <path fill="none" d="M0,-25.86 L0,25.86 " class="primitive"/>
        </g>
        <g transform="translate(29.13,27.86)" id="img-1603cc5e-107">
          <path fill="none" d="M0,-25.86 L0,25.86 " class="primitive"/>
        </g>
        <g transform="translate(31.96,27.86)" id="img-1603cc5e-108">
          <path fill="none" d="M0,-25.86 L0,25.86 " class="primitive"/>
        </g>
        <g transform="translate(34.8,27.86)" id="img-1603cc5e-109">
          <path fill="none" d="M0,-25.86 L0,25.86 " class="primitive"/>
        </g>
        <g transform="translate(37.63,27.86)" id="img-1603cc5e-110">
          <path fill="none" d="M0,-25.86 L0,25.86 " class="primitive"/>
        </g>
        <g transform="translate(40.46,27.86)" id="img-1603cc5e-111">
          <path fill="none" d="M0,-25.86 L0,25.86 " class="primitive"/>
        </g>
        <g transform="translate(43.3,27.86)" id="img-1603cc5e-112">
          <path fill="none" d="M0,-25.86 L0,25.86 " class="primitive"/>
        </g>
        <g transform="translate(46.13,27.86)" id="img-1603cc5e-113">
          <path fill="none" d="M0,-25.86 L0,25.86 " class="primitive"/>
        </g>
        <g transform="translate(48.96,27.86)" id="img-1603cc5e-114">
          <path fill="none" d="M0,-25.86 L0,25.86 " class="primitive"/>
        </g>
        <g transform="translate(51.8,27.86)" id="img-1603cc5e-115">
          <path fill="none" d="M0,-25.86 L0,25.86 " class="primitive"/>
        </g>
        <g transform="translate(54.63,27.86)" id="img-1603cc5e-116">
          <path fill="none" d="M0,-25.86 L0,25.86 " class="primitive"/>
        </g>
        <g transform="translate(57.47,27.86)" id="img-1603cc5e-117">
          <path fill="none" d="M0,-25.86 L0,25.86 " class="primitive"/>
        </g>
        <g transform="translate(60.3,27.86)" id="img-1603cc5e-118">
          <path fill="none" d="M0,-25.86 L0,25.86 " class="primitive"/>
        </g>
        <g transform="translate(63.13,27.86)" id="img-1603cc5e-119">
          <path fill="none" d="M0,-25.86 L0,25.86 " class="primitive"/>
        </g>
      </g>
      <g class="plotpanel" id="img-1603cc5e-120">
        <metadata>
          <boundingbox value="12.958333333333336mm 2.0mm 52.17499999999999mm 51.714999999999996mm"/>
          <unitbox value="0.7294239750908148 52.095777009326206 1.8411520498183707 -54.19155401865241"/>
        </metadata>
        <g stroke-width="0.3" fill="#000000" fill-opacity="0.000" class="geometry" id="img-1603cc5e-121">
          <g transform="translate(34.09,36.04)" id="img-1603cc5e-122" stroke="#000000" class="color_No_noise" stroke-dasharray="none">
            <path fill="none" d="M-18.73,15.62 L-17.91,15.62 -17.91,15.58 -17.06,15.58 -17.06,15.49 -16.17,15.49 -16.17,15.33 -15.24,15.33 -15.24,15 -14.28,15 -14.28,14.3 -13.28,14.3 -13.28,12.95 -12.23,12.95 -12.23,10.51 -11.15,10.51 -11.15,6.54 -10.01,6.54 -10.01,0.82 -8.83,0.82 -8.83,-6.36 -7.6,-6.36 -7.6,-13.95 -6.31,-13.95 -6.31,-20.38 -4.97,-20.38 -4.97,-24.09 -3.56,-24.09 -3.56,-24.37 -2.1,-24.37 -2.1,-21.7 -0.56,-21.7 -0.56,-17.57 1.04,-17.57 1.04,-13.59 2.72,-13.59 2.72,-10.7 4.47,-10.7 4.47,-8.86 6.31,-8.86 6.31,-7.41 8.24,-7.41 8.24,-5.61 10.26,-5.61 10.26,-3.06 12.38,-3.06 12.38,0.19 14.61,0.19 14.61,3.79 16.94,3.79 16.94,7.28 19.4,7.28 19.4,10.26 21.98,10.26 21.98,12.5 24.7,12.5 24.7,14.01 27.56,14.01 27.56,14.92 " class="primitive"/>
          </g>
          <g transform="translate(34.09,35.76)" id="img-1603cc5e-123" stroke="#8B0000" class="color_Q_=_1lpm" stroke-dasharray="none">
            <path fill="none" d="M-18.73,15.92 L-17.91,15.92 -17.91,15.78 -17.06,15.78 -17.06,15.75 -16.17,15.75 -16.17,15.55 -15.24,15.55 -15.24,15.21 -14.28,15.21 -14.28,14.55 -13.28,14.55 -13.28,13.09 -12.23,13.09 -12.23,10.63 -11.15,10.63 -11.15,6.53 -10.01,6.53 -10.01,-0.2 -8.83,-0.2 -8.83,-5.69 -7.6,-5.69 -7.6,-12.73 -6.31,-12.73 -6.31,-21.95 -4.97,-21.95 -4.97,-24.62 -3.56,-24.62 -3.56,-25.88 -2.1,-25.88 -2.1,-22.44 -0.56,-22.44 -0.56,-17.2 1.04,-17.2 1.04,-12.56 2.72,-12.56 2.72,-10.7 4.47,-10.7 4.47,-10.07 6.31,-10.07 6.31,-7.01 8.24,-7.01 8.24,-4.69 10.26,-4.69 10.26,-3.86 12.38,-3.86 12.38,0.81 14.61,0.81 14.61,3.98 16.94,3.98 16.94,7.08 19.4,7.08 19.4,10.57 21.98,10.57 21.98,12.17 24.7,12.17 24.7,14.26 27.56,14.26 27.56,15.44 " class="primitive"/>
          </g>
        </g>
      </g>
    </g>
  </g>
  <g class="guide ylabels" font-size="2.82" font-family="'PT Sans Caption','Helvetica Neue','Helvetica',sans-serif" fill="#6C606B" id="img-1603cc5e-124">
    <g transform="translate(11.96,51.71)" id="img-1603cc5e-125">
      <g class="primitive">
        <text text-anchor="end" dy="0.35em">0</text>
      </g>
    </g>
    <g transform="translate(11.96,42.17)" id="img-1603cc5e-126">
      <g class="primitive">
        <text text-anchor="end" dy="0.35em">10</text>
      </g>
    </g>
    <g transform="translate(11.96,32.63)" id="img-1603cc5e-127">
      <g class="primitive">
        <text text-anchor="end" dy="0.35em">20</text>
      </g>
    </g>
    <g transform="translate(11.96,23.09)" id="img-1603cc5e-128">
      <g class="primitive">
        <text text-anchor="end" dy="0.35em">30</text>
      </g>
    </g>
    <g transform="translate(11.96,13.54)" id="img-1603cc5e-129">
      <g class="primitive">
        <text text-anchor="end" dy="0.35em">40</text>
      </g>
    </g>
    <g transform="translate(11.96,4)" id="img-1603cc5e-130">
      <g class="primitive">
        <text text-anchor="end" dy="0.35em">50</text>
      </g>
    </g>
  </g>
  <g font-size="3.88" font-family="'PT Sans','Helvetica Neue','Helvetica',sans-serif" fill="#564A55" stroke="#000000" stroke-opacity="0.000" id="img-1603cc5e-131">
    <g transform="translate(3.81,25.86)" id="img-1603cc5e-132">
      <g class="primitive">
        <text text-anchor="middle" dy="0.35em" transform="rotate(-90,0, 2)">Number concentration (cm⁻³)</text>
      </g>
    </g>
  </g>
</g>
<defs>
  <clipPath id="img-1603cc5e-15">
    <path d="M95.63,2 L148.1,2 148.1,53.72 95.63,53.72 " />
  </clipPath>
  <clipPath id="img-1603cc5e-90">
    <path d="M12.96,2 L65.13,2 65.13,53.71 12.96,53.71 " />
  </clipPath>
</defs>
</svg>
