<?xml version="1.0" encoding="UTF-8"?>
<svg xmlns="http://www.w3.org/2000/svg"
     xmlns:xlink="http://www.w3.org/1999/xlink"
     xmlns:gadfly="http://www.gadflyjl.org/ns"
     version="1.2"
     width="180mm" height="70mm" viewBox="0 0 180 70"
     stroke="none"
     fill="#000000"
     stroke-width="0.3"
     font-size="3.88"
>
<defs>
  <marker id="arrow" markerWidth="15" markerHeight="7" refX="5" refY="3.5" orient="auto" markerUnits="strokeWidth">
    <path d="M0,0 L15,3.5 L0,7 z" stroke="context-stroke" fill="context-stroke"/>
  </marker>
</defs>
<g class="plotroot xscalable yscalable" id="img-f0ee02ed-1">
  <g font-size="3.88" font-family="'PT Sans','Helvetica Neue','Helvetica',sans-serif" fill="#564A55" stroke="#000000" stroke-opacity="0.000" id="img-f0ee02ed-2">
    <g transform="translate(121.86,61.39)">
      <g class="primitive">
        <text text-anchor="middle" dy="0.6em">Growth Factor (-)</text>
      </g>
    </g>
  </g>
  <g class="guide xlabels" font-size="2.82" font-family="'PT Sans Caption','Helvetica Neue','Helvetica',sans-serif" fill="#6C606B" id="img-f0ee02ed-3">
    <g transform="translate(97.63,54.72)">
      <g class="primitive">
        <text text-anchor="middle" dy="0.6em"></text>
      </g>
    </g>
    <g transform="translate(100.48,54.72)">
      <g class="primitive">
        <text text-anchor="middle" dy="0.6em"></text>
      </g>
    </g>
    <g transform="translate(103.33,54.72)">
      <g class="primitive">
        <text text-anchor="middle" dy="0.6em">1.0</text>
      </g>
    </g>
    <g transform="translate(106.18,54.72)">
      <g class="primitive">
        <text text-anchor="middle" dy="0.6em"></text>
      </g>
    </g>
    <g transform="translate(109.04,54.72)">
      <g class="primitive">
        <text text-anchor="middle" dy="0.6em"></text>
      </g>
    </g>
    <g transform="translate(111.89,54.72)">
      <g class="primitive">
        <text text-anchor="middle" dy="0.6em"></text>
      </g>
    </g>
    <g transform="translate(114.74,54.72)">
      <g class="primitive">
        <text text-anchor="middle" dy="0.6em"></text>
      </g>
    </g>
    <g transform="translate(117.59,54.72)">
      <g class="primitive">
        <text text-anchor="middle" dy="0.6em">1.5</text>
      </g>
    </g>
    <g transform="translate(120.44,54.72)">
      <g class="primitive">
        <text text-anchor="middle" dy="0.6em"></text>
      </g>
    </g>
    <g transform="translate(123.29,54.72)">
      <g class="primitive">
        <text text-anchor="middle" dy="0.6em"></text>
      </g>
    </g>
    <g transform="translate(126.14,54.72)">
      <g class="primitive">
        <text text-anchor="middle" dy="0.6em"></text>
      </g>
    </g>
    <g transform="translate(128.99,54.72)">
      <g class="primitive">
        <text text-anchor="middle" dy="0.6em"></text>
      </g>
    </g>
    <g transform="translate(131.84,54.72)">
      <g class="primitive">
        <text text-anchor="middle" dy="0.6em">2.0</text>
      </g>
    </g>
    <g transform="translate(134.69,54.72)">
      <g class="primitive">
        <text text-anchor="middle" dy="0.6em"></text>
      </g>
    </g>
    <g transform="translate(137.54,54.72)">
      <g class="primitive">
        <text text-anchor="middle" dy="0.6em"></text>
      </g>
    </g>
    <g transform="translate(140.39,54.72)">
      <g class="primitive">
        <text text-anchor="middle" dy="0.6em"></text>
      </g>
    </g>
    <g transform="translate(143.25,54.72)">
      <g class="primitive">
        <text text-anchor="middle" dy="0.6em"></text>
      </g>
    </g>
    <g transform="translate(146.1,54.72)">
      <g class="primitive">
        <text text-anchor="middle" dy="0.6em">2.5</text>
      </g>
    </g>
  </g>
  <g class="guide colorkey" id="img-f0ee02ed-4">
    <g fill="#4C404B" font-size="2.82" font-family="'PT Sans','Helvetica Neue','Helvetica',sans-serif" id="img-f0ee02ed-5">
      <g transform="translate(152.57,25.39)" id="img-f0ee02ed-6" class="color_Truth">
        <g class="primitive">
          <text dy="0.35em">Truth</text>
        </g>
      </g>
      <g transform="translate(152.57,30.33)" id="img-f0ee02ed-7" class="color_L0D1e-3B[0,1],_0.007">
        <g class="primitive">
          <text dy="0.35em">L<tspan dy="0.4em" font-size="83%">0</tspan><tspan dy="-0.3320em">D</tspan><tspan dy="0.4em" font-size="83%">1e-3</tspan><tspan dy="-0.3320em">B</tspan><tspan dy="0.4em" font-size="83%">[0,1]</tspan><tspan dy="-0.3320em">, 0.007</tspan></text>
        </g>
      </g>
      <g transform="translate(152.57,35.27)" id="img-f0ee02ed-8" class="color_L2x0B[0,1],_0.006">
        <g class="primitive">
          <text dy="0.35em">L<tspan dy="0.4em" font-size="83%">2</tspan><tspan dy="-0.3320em">x</tspan><tspan dy="0.4em" font-size="83%">0</tspan><tspan dy="-0.3320em">B</tspan><tspan dy="0.4em" font-size="83%">[0,1]</tspan><tspan dy="-0.3320em">, 0.006</tspan></text>
        </g>
      </g>
    </g>
    <g fill-opacity="1" id="img-f0ee02ed-9">
      <g transform="translate(150.33,25.39)" id="img-f0ee02ed-10" fill="#000000" class="color_Truth" stroke="#FFFFFF">
        <path d="M-1.24,-1.24 L1.24,-1.24 1.24,1.24 -1.24,1.24  z" class="primitive"/>
      </g>
      <g transform="translate(150.33,30.33)" id="img-f0ee02ed-11" fill="#8B0000" class="color_L0D1e-3B[0,1],_0.007" stroke="#FFFFFF">
        <path d="M-1.24,-1.24 L1.24,-1.24 1.24,1.24 -1.24,1.24  z" class="primitive"/>
      </g>
      <g transform="translate(150.33,35.27)" id="img-f0ee02ed-12" fill="#4F94CD" class="color_L2x0B[0,1],_0.006" stroke="#FFFFFF">
        <path d="M-1.24,-1.24 L1.24,-1.24 1.24,1.24 -1.24,1.24  z" class="primitive"/>
      </g>
    </g>
    <g fill="#362A35" font-size="3.88" font-family="'PT Sans','Helvetica Neue','Helvetica',sans-serif" stroke="#000000" stroke-opacity="0.000" id="img-f0ee02ed-13">
      <g transform="translate(149.1,20.25)" id="img-f0ee02ed-14">
        <g class="primitive">
          <text dy="-0em"></text>
        </g>
      </g>
    </g>
  </g>
  <g clip-path="url(#img-f0ee02ed-15)">
    <g id="img-f0ee02ed-16">
      <g pointer-events="visible" stroke-width="0.3" fill="#000000" fill-opacity="0.000" stroke="#000000" stroke-opacity="0.000" class="guide background" id="img-f0ee02ed-17">
        <g transform="translate(121.86,27.86)" id="img-f0ee02ed-18">
          <path d="M-26.23,-25.86 L26.23,-25.86 26.23,25.86 -26.23,25.86  z" class="primitive"/>
        </g>
      </g>
      <g class="guide ygridlines xfixed" stroke-dasharray="0.5,0.5" stroke-width="0.2" stroke="#D0D0E0" id="img-f0ee02ed-19">
        <g transform="translate(121.86,51.72)" id="img-f0ee02ed-20">
          <path fill="none" d="M-26.23,0 L26.23,0 " class="primitive"/>
        </g>
        <g transform="translate(121.86,42.17)" id="img-f0ee02ed-21">
          <path fill="none" d="M-26.23,0 L26.23,0 " class="primitive"/>
        </g>
        <g transform="translate(121.86,32.63)" id="img-f0ee02ed-22">
          <path fill="none" d="M-26.23,0 L26.23,0 " class="primitive"/>
        </g>
        <g transform="translate(121.86,23.09)" id="img-f0ee02ed-23">
          <path fill="none" d="M-26.23,0 L26.23,0 " class="primitive"/>
        </g>
        <g transform="translate(121.86,13.54)" id="img-f0ee02ed-24">
          <path fill="none" d="M-26.23,0 L26.23,0 " class="primitive"/>
        </g>
        <g transform="translate(121.86,4)" id="img-f0ee02ed-25">
          <path fill="none" d="M-26.23,0 L26.23,0 " class="primitive"/>
        </g>
      </g>
      <g class="guide xgridlines yfixed" stroke-dasharray="0.5,0.5" stroke-width="0.2" stroke="#D0D0E0" id="img-f0ee02ed-26">
        <g transform="translate(97.63,27.86)" id="img-f0ee02ed-27">
          <path fill="none" d="M0,-25.86 L0,25.86 " class="primitive"/>
        </g>
        <g transform="translate(100.48,27.86)" id="img-f0ee02ed-28">
          <path fill="none" d="M0,-25.86 L0,25.86 " class="primitive"/>
        </g>
        <g transform="translate(103.33,27.86)" id="img-f0ee02ed-29">
          <path fill="none" d="M0,-25.86 L0,25.86 " class="primitive"/>
        </g>
        <g transform="translate(106.18,27.86)" id="img-f0ee02ed-30">
          <path fill="none" d="M0,-25.86 L0,25.86 " class="primitive"/>
        </g>
        <g transform="translate(109.04,27.86)" id="img-f0ee02ed-31">
          <path fill="none" d="M0,-25.86 L0,25.86 " class="primitive"/>
        </g>
        <g transform="translate(111.89,27.86)" id="img-f0ee02ed-32">
          <path fill="none" d="M0,-25.86 L0,25.86 " class="primitive"/>
        </g>
        <g transform="translate(114.74,27.86)" id="img-f0ee02ed-33">
          <path fill="none" d="M0,-25.86 L0,25.86 " class="primitive"/>
        </g>
        <g transform="translate(117.59,27.86)" id="img-f0ee02ed-34">
          <path fill="none" d="M0,-25.86 L0,25.86 " class="primitive"/>
        </g>
        <g transform="translate(120.44,27.86)" id="img-f0ee02ed-35">
          <path fill="none" d="M0,-25.86 L0,25.86 " class="primitive"/>
        </g>
        <g transform="translate(123.29,27.86)" id="img-f0ee02ed-36">
          <path fill="none" d="M0,-25.86 L0,25.86 " class="primitive"/>
        </g>
        <g transform="translate(126.14,27.86)" id="img-f0ee02ed-37">
          <path fill="none" d="M0,-25.86 L0,25.86 " class="primitive"/>
        </g>
        <g transform="translate(128.99,27.86)" id="img-f0ee02ed-38">
          <path fill="none" d="M0,-25.86 L0,25.86 " class="primitive"/>
        </g>
        <g transform="translate(131.84,27.86)" id="img-f0ee02ed-39">
          <path fill="none" d="M0,-25.86 L0,25.86 " class="primitive"/>
        </g>
        <g transform="translate(134.69,27.86)" id="img-f0ee02ed-40">
          <path fill="none" d="M0,-25.86 L0,25.86 " class="primitive"/>
        </g>
        <g transform="translate(137.54,27.86)" id="img-f0ee02ed-41">
          <path fill="none" d="M0,-25.86 L0,25.86 " class="primitive"/>
        </g>
        <g transform="translate(140.39,27.86)" id="img-f0ee02ed-42">
          <path fill="none" d="M0,-25.86 L0,25.86 " class="primitive"/>
        </g>
        <g transform="translate(143.25,27.86)" id="img-f0ee02ed-43">
          <path fill="none" d="M0,-25.86 L0,25.86 " class="primitive"/>
        </g>
        <g transform="translate(146.1,27.86)" id="img-f0ee02ed-44">
          <path fill="none" d="M0,-25.86 L0,25.86 " class="primitive"/>
        </g>
      </g>
      <g class="plotpanel" id="img-f0ee02ed-45">
        <metadata>
          <boundingbox value="95.63166666666667mm 2.0mm 52.465mm 51.715mm"/>
          <unitbox value="0.7298462808212112 2.6047888504663104 1.8403074383575777 -2.7095777009326207"/>
        </metadata>
        <g stroke-width="0.3" fill="#000000" fill-opacity="0.000" class="geometry" id="img-f0ee02ed-46">
          <g transform="translate(116.88,39.8)" id="img-f0ee02ed-47" stroke-dasharray="none" class="color_Truth" stroke="#000000">
            <path fill="none" d="M-18.84,11.84 L-18.02,11.84 -18.02,11.81 -17.16,11.81 -17.16,11.77 -16.26,11.77 -16.26,11.69 -15.33,11.69 -15.33,11.55 -14.37,11.55 -14.37,11.26 -13.36,11.26 -13.36,10.65 -12.31,10.65 -12.31,9.3 -11.21,9.3 -11.21,6.51 -10.07,6.51 -10.07,1.32 -8.88,1.32 -8.88,-6.89 -7.64,-6.89 -7.64,-17.28 -6.35,-17.28 -6.35,-26.67 -5,-26.67 -5,-30.56 -3.58,-30.56 -3.58,-26.65 -2.11,-26.65 -2.11,-17.62 -0.57,-17.62 -0.57,-9.08 1.05,-9.08 1.05,-4.56 2.73,-4.56 2.73,-3.5 4.5,-3.5 4.5,-3.64 6.35,-3.64 6.35,-3.37 8.29,-3.37 8.29,-2.16 10.32,-2.16 10.32,-0.04 12.46,-0.04 12.46,2.67 14.7,2.67 14.7,5.49 17.05,5.49 17.05,7.97 19.52,7.97 19.52,9.8 22.12,9.8 22.12,10.95 24.85,10.95 24.85,11.55 27.72,11.55 27.72,11.8 " class="primitive"/>
          </g>
          <g transform="translate(116.88,39.45)" id="img-f0ee02ed-48" stroke-dasharray="none" class="color_L2x0B[0,1],_0.006" stroke="#4F94CD">
            <path fill="none" d="M-18.84,12.06 L-18.02,12.06 -18.02,11.82 -17.16,11.82 -17.16,11.44 -16.26,11.44 -16.26,12.2 -15.33,12.2 -15.33,11.88 -14.37,11.88 -14.37,12.27 -13.36,12.27 -13.36,12.27 -12.31,12.27 -12.31,10 -11.21,10 -11.21,5.57 -10.07,5.57 -10.07,-1.27 -8.88,-1.27 -8.88,-10.73 -7.64,-10.73 -7.64,-19.21 -6.35,-19.21 -6.35,-25.46 -5,-25.46 -5,-29.66 -3.58,-29.66 -3.58,-22.23 -2.11,-22.23 -2.11,-16 -0.57,-16 -0.57,-14.57 1.05,-14.57 1.05,-8.11 2.73,-8.11 2.73,-6.23 4.5,-6.23 4.5,-2.11 6.35,-2.11 6.35,-1.65 8.29,-1.65 8.29,0.11 10.32,0.11 10.32,0.67 12.46,0.67 12.46,4.04 14.7,4.04 14.7,5.81 17.05,5.81 17.05,8.45 19.52,8.45 19.52,9.33 22.12,9.33 22.12,11.32 24.85,11.32 24.85,11.87 27.72,11.87 27.72,12.17 " class="primitive"/>
          </g>
          <g transform="translate(116.88,39.45)" id="img-f0ee02ed-49" stroke-dasharray="none" class="color_L0D1e-3B[0,1],_0.007" stroke="#8B0000">
            <path fill="none" d="M-18.84,11.55 L-18.02,11.55 -18.02,11.62 -17.16,11.62 -17.16,11.65 -16.26,11.65 -16.26,11.67 -15.33,11.67 -15.33,11.69 -14.37,11.69 -14.37,11.02 -13.36,11.02 -13.36,8.69 -12.31,8.69 -12.31,8.12 -11.21,8.12 -11.21,8.2 -10.07,8.2 -10.07,4.31 -8.88,4.31 -8.88,-6.88 -7.64,-6.88 -7.64,-21.9 -6.35,-21.9 -6.35,-31.61 -5,-31.61 -5,-30.32 -3.58,-30.32 -3.58,-21.24 -2.11,-21.24 -2.11,-13.11 -0.57,-13.11 -0.57,-10.61 1.05,-10.61 1.05,-10.05 2.73,-10.05 2.73,-7.33 4.5,-7.33 4.5,-2.91 6.35,-2.91 6.35,-0.24 8.29,-0.24 8.29,0.29 10.32,0.29 10.32,0.78 12.46,0.78 12.46,3.15 14.7,3.15 14.7,6.18 17.05,6.18 17.05,8.46 19.52,8.46 19.52,9.8 22.12,9.8 22.12,10.94 24.85,10.94 24.85,11.93 27.72,11.93 27.72,12.27 " class="primitive"/>
          </g>
        </g>
      </g>
    </g>
  </g>
  <g class="guide ylabels" font-size="2.82" font-family="'PT Sans Caption','Helvetica Neue','Helvetica',sans-serif" fill="#6C606B" id="img-f0ee02ed-50">
    <g transform="translate(94.63,51.72)" id="img-f0ee02ed-51">
      <g class="primitive">
        <text text-anchor="end" dy="0.35em">0.0</text>
      </g>
    </g>
    <g transform="translate(94.63,42.17)" id="img-f0ee02ed-52">
      <g class="primitive">
        <text text-anchor="end" dy="0.35em">0.5</text>
      </g>
    </g>
    <g transform="translate(94.63,32.63)" id="img-f0ee02ed-53">
      <g class="primitive">
        <text text-anchor="end" dy="0.35em">1.0</text>
      </g>
    </g>
    <g transform="translate(94.63,23.09)" id="img-f0ee02ed-54">
      <g class="primitive">
        <text text-anchor="end" dy="0.35em">1.5</text>
      </g>
    </g>
    <g transform="translate(94.63,13.54)" id="img-f0ee02ed-55">
      <g class="primitive">
        <text text-anchor="end" dy="0.35em">2.0</text>
      </g>
    </g>
    <g transform="translate(94.63,4)" id="img-f0ee02ed-56">
      <g class="primitive">
        <text text-anchor="end" dy="0.35em">2.5</text>
      </g>
    </g>
  </g>
  <g font-size="3.88" font-family="'PT Sans','Helvetica Neue','Helvetica',sans-serif" fill="#564A55" stroke="#000000" stroke-opacity="0.000" id="img-f0ee02ed-57">
    <g transform="translate(85.81,25.86)" id="img-f0ee02ed-58">
      <g class="primitive">
        <text text-anchor="middle" dy="0.35em" transform="rotate(-90,0, 2)">Probability Density (-)</text>
      </g>
    </g>
  </g>
</g>
<g class="plotroot xscalable yscalable" id="img-f0ee02ed-59">
  <g font-size="3.88" font-family="'PT Sans','Helvetica Neue','Helvetica',sans-serif" fill="#564A55" stroke="#000000" stroke-opacity="0.000" id="img-f0ee02ed-60">
    <g transform="translate(39.05,61.39)" id="img-f0ee02ed-61">
      <g class="primitive">
        <text text-anchor="middle" dy="0.6em">Apparent Growth Factor (-)</text>
      </g>
    </g>
  </g>
  <g class="guide xlabels" font-size="2.82" font-family="'PT Sans Caption','Helvetica Neue','Helvetica',sans-serif" fill="#6C606B" id="img-f0ee02ed-62">
    <g transform="translate(14.96,54.72)" id="img-f0ee02ed-63">
      <g class="primitive">
        <text text-anchor="middle" dy="0.6em"></text>
      </g>
    </g>
    <g transform="translate(17.79,54.72)" id="img-f0ee02ed-64">
      <g class="primitive">
        <text text-anchor="middle" dy="0.6em"></text>
      </g>
    </g>
    <g transform="translate(20.63,54.72)" id="img-f0ee02ed-65">
      <g class="primitive">
        <text text-anchor="middle" dy="0.6em">1.0</text>
      </g>
    </g>
    <g transform="translate(23.46,54.72)" id="img-f0ee02ed-66">
      <g class="primitive">
        <text text-anchor="middle" dy="0.6em"></text>
      </g>
    </g>
    <g transform="translate(26.29,54.72)" id="img-f0ee02ed-67">
      <g class="primitive">
        <text text-anchor="middle" dy="0.6em"></text>
      </g>
    </g>
    <g transform="translate(29.13,54.72)" id="img-f0ee02ed-68">
      <g class="primitive">
        <text text-anchor="middle" dy="0.6em"></text>
      </g>
    </g>
    <g transform="translate(31.96,54.72)" id="img-f0ee02ed-69">
      <g class="primitive">
        <text text-anchor="middle" dy="0.6em"></text>
      </g>
    </g>
    <g transform="translate(34.8,54.72)" id="img-f0ee02ed-70">
      <g class="primitive">
        <text text-anchor="middle" dy="0.6em">1.5</text>
      </g>
    </g>
    <g transform="translate(37.63,54.72)" id="img-f0ee02ed-71">
      <g class="primitive">
        <text text-anchor="middle" dy="0.6em"></text>
      </g>
    </g>
    <g transform="translate(40.46,54.72)" id="img-f0ee02ed-72">
      <g class="primitive">
        <text text-anchor="middle" dy="0.6em"></text>
      </g>
    </g>
    <g transform="translate(43.3,54.72)" id="img-f0ee02ed-73">
      <g class="primitive">
        <text text-anchor="middle" dy="0.6em"></text>
      </g>
    </g>
    <g transform="translate(46.13,54.72)" id="img-f0ee02ed-74">
      <g class="primitive">
        <text text-anchor="middle" dy="0.6em"></text>
      </g>
    </g>
    <g transform="translate(48.96,54.72)" id="img-f0ee02ed-75">
      <g class="primitive">
        <text text-anchor="middle" dy="0.6em">2.0</text>
      </g>
    </g>
    <g transform="translate(51.8,54.72)" id="img-f0ee02ed-76">
      <g class="primitive">
        <text text-anchor="middle" dy="0.6em"></text>
      </g>
    </g>
    <g transform="translate(54.63,54.72)" id="img-f0ee02ed-77">
      <g class="primitive">
        <text text-anchor="middle" dy="0.6em"></text>
      </g>
    </g>
    <g transform="translate(57.47,54.72)" id="img-f0ee02ed-78">
      <g class="primitive">
        <text text-anchor="middle" dy="0.6em"></text>
      </g>
    </g>
    <g transform="translate(60.3,54.72)" id="img-f0ee02ed-79">
      <g class="primitive">
        <text text-anchor="middle" dy="0.6em"></text>
      </g>
    </g>
    <g transform="translate(63.13,54.72)" id="img-f0ee02ed-80">
      <g class="primitive">
        <text text-anchor="middle" dy="0.6em">2.5</text>
      </g>
    </g>
  </g>
  <g class="guide colorkey" id="img-f0ee02ed-81">
    <g fill="#4C404B" font-size="2.82" font-family="'PT Sans','Helvetica Neue','Helvetica',sans-serif" id="img-f0ee02ed-82">
      <g transform="translate(68.95,27.86)" id="img-f0ee02ed-83" class="color_No_noise">
        <g class="primitive">
          <text dy="0.35em">No noise</text>
        </g>
      </g>
      <g transform="translate(68.95,31.48)" id="img-f0ee02ed-84" class="color_Q_=_1lpm">
        <g class="primitive">
          <text dy="0.35em">Q = 1lpm</text>
        </g>
      </g>
    </g>
    <g fill-opacity="1" id="img-f0ee02ed-85">
      <g transform="translate(67.04,27.86)" id="img-f0ee02ed-86" fill="#000000" class="color_No_noise" stroke="#FFFFFF">
        <path d="M-0.91,-0.91 L0.91,-0.91 0.91,0.91 -0.91,0.91  z" class="primitive"/>
      </g>
      <g transform="translate(67.04,31.48)" id="img-f0ee02ed-87" fill="#8B0000" class="color_Q_=_1lpm" stroke="#FFFFFF">
        <path d="M-0.91,-0.91 L0.91,-0.91 0.91,0.91 -0.91,0.91  z" class="primitive"/>
      </g>
    </g>
    <g fill="#362A35" font-size="3.88" font-family="'PT Sans','Helvetica Neue','Helvetica',sans-serif" stroke="#000000" stroke-opacity="0.000" id="img-f0ee02ed-88">
      <g transform="translate(66.13,24.04)" id="img-f0ee02ed-89">
        <g class="primitive">
          <text dy="-0em"></text>
        </g>
      </g>
    </g>
  </g>
  <g clip-path="url(#img-f0ee02ed-90)">
    <g id="img-f0ee02ed-91">
      <g pointer-events="visible" stroke-width="0.3" fill="#000000" fill-opacity="0.000" stroke="#000000" stroke-opacity="0.000" class="guide background" id="img-f0ee02ed-92">
        <g transform="translate(39.05,27.86)" id="img-f0ee02ed-93">
          <path d="M-26.09,-25.86 L26.09,-25.86 26.09,25.86 -26.09,25.86  z" class="primitive"/>
        </g>
      </g>
      <g class="guide ygridlines xfixed" stroke-dasharray="0.5,0.5" stroke-width="0.2" stroke="#D0D0E0" id="img-f0ee02ed-94">
        <g transform="translate(39.05,51.72)" id="img-f0ee02ed-95">
          <path fill="none" d="M-26.09,0 L26.09,0 " class="primitive"/>
        </g>
        <g transform="translate(39.05,35.81)" id="img-f0ee02ed-96">
          <path fill="none" d="M-26.09,0 L26.09,0 " class="primitive"/>
        </g>
        <g transform="translate(39.05,19.91)" id="img-f0ee02ed-97">
          <path fill="none" d="M-26.09,0 L26.09,0 " class="primitive"/>
        </g>
        <g transform="translate(39.05,4)" id="img-f0ee02ed-98">
          <path fill="none" d="M-26.09,0 L26.09,0 " class="primitive"/>
        </g>
      </g>
      <g class="guide xgridlines yfixed" stroke-dasharray="0.5,0.5" stroke-width="0.2" stroke="#D0D0E0" id="img-f0ee02ed-99">
        <g transform="translate(14.96,27.86)" id="img-f0ee02ed-100">
          <path fill="none" d="M0,-25.86 L0,25.86 " class="primitive"/>
        </g>
        <g transform="translate(17.79,27.86)" id="img-f0ee02ed-101">
          <path fill="none" d="M0,-25.86 L0,25.86 " class="primitive"/>
        </g>
        <g transform="translate(20.63,27.86)" id="img-f0ee02ed-102">
          <path fill="none" d="M0,-25.86 L0,25.86 " class="primitive"/>
        </g>
        <g transform="translate(23.46,27.86)" id="img-f0ee02ed-103">
          <path fill="none" d="M0,-25.86 L0,25.86 " class="primitive"/>
        </g>
        <g transform="translate(26.29,27.86)" id="img-f0ee02ed-104">
          <path fill="none" d="M0,-25.86 L0,25.86 " class="primitive"/>
        </g>
        <g transform="translate(29.13,27.86)" id="img-f0ee02ed-105">
          <path fill="none" d="M0,-25.86 L0,25.86 " class="primitive"/>
        </g>
        <g transform="translate(31.96,27.86)" id="img-f0ee02ed-106">
          <path fill="none" d="M0,-25.86 L0,25.86 " class="primitive"/>
        </g>
        <g transform="translate(34.8,27.86)" id="img-f0ee02ed-107">
          <path fill="none" d="M0,-25.86 L0,25.86 " class="primitive"/>
        </g>
        <g transform="translate(37.63,27.86)" id="img-f0ee02ed-108">
          <path fill="none" d="M0,-25.86 L0,25.86 " class="primitive"/>
        </g>
        <g transform="translate(40.46,27.86)" id="img-f0ee02ed-109">
          <path fill="none" d="M0,-25.86 L0,25.86 " class="primitive"/>
        </g>
        <g transform="translate(43.3,27.86)" id="img-f0ee02ed-110">
          <path fill="none" d="M0,-25.86 L0,25.86 " class="primitive"/>
        </g>
        <g transform="translate(46.13,27.86)" id="img-f0ee02ed-111">
          <path fill="none" d="M0,-25.86 L0,25.86 " class="primitive"/>
        </g>
        <g transform="translate(48.96,27.86)" id="img-f0ee02ed-112">
          <path fill="none" d="M0,-25.86 L0,25.86 " class="primitive"/>
        </g>
        <g transform="translate(51.8,27.86)" id="img-f0ee02ed-113">
          <path fill="none" d="M0,-25.86 L0,25.86 " class="primitive"/>
        </g>
        <g transform="translate(54.63,27.86)" id="img-f0ee02ed-114">
          <path fill="none" d="M0,-25.86 L0,25.86 " class="primitive"/>
        </g>
        <g transform="translate(57.47,27.86)" id="img-f0ee02ed-115">
          <path fill="none" d="M0,-25.86 L0,25.86 " class="primitive"/>
        </g>
        <g transform="translate(60.3,27.86)" id="img-f0ee02ed-116">
          <path fill="none" d="M0,-25.86 L0,25.86 " class="primitive"/>
        </g>
        <g transform="translate(63.13,27.86)" id="img-f0ee02ed-117">
          <path fill="none" d="M0,-25.86 L0,25.86 " class="primitive"/>
        </g>
      </g>
      <g class="plotpanel" id="img-f0ee02ed-118">
        <metadata>
          <boundingbox value="12.958333333333336mm 2.0mm 52.17499999999999mm 51.715mm"/>
          <unitbox value="0.7294239750908148 15.628733102797863 1.8411520498183707 -16.257466205595723"/>
        </metadata>
        <g stroke-width="0.3" fill="#000000" fill-opacity="0.000" class="geometry" id="img-f0ee02ed-119">
          <g transform="translate(34.09,40.34)" id="img-f0ee02ed-120" stroke-dasharray="none" class="color_No_noise" stroke="#000000">
            <path fill="none" d="M-18.73,11.34 L-17.91,11.34 -17.91,11.3 -17.06,11.3 -17.06,11.25 -16.17,11.25 -16.17,11.13 -15.24,11.13 -15.24,10.89 -14.28,10.89 -14.28,10.39 -13.28,10.39 -13.28,9.4 -12.23,9.4 -12.23,7.61 -11.15,7.61 -11.15,4.7 -10.01,4.7 -10.01,0.51 -8.83,0.51 -8.83,-4.7 -7.6,-4.7 -7.6,-10.19 -6.31,-10.19 -6.31,-14.79 -4.97,-14.79 -4.97,-17.42 -3.56,-17.42 -3.56,-17.57 -2.1,-17.57 -2.1,-15.63 -0.56,-15.63 -0.56,-12.66 1.04,-12.66 1.04,-9.82 2.72,-9.82 2.72,-7.77 4.47,-7.77 4.47,-6.46 6.31,-6.46 6.31,-5.41 8.24,-5.41 8.24,-4.09 10.26,-4.09 10.26,-2.21 12.38,-2.21 12.38,0.18 14.61,0.18 14.61,2.79 16.94,2.79 16.94,5.29 19.4,5.29 19.4,7.41 21.98,7.41 21.98,9.02 24.7,9.02 24.7,10.13 27.56,10.13 27.56,10.8 " class="primitive"/>
          </g>
          <g transform="translate(34.09,40.11)" id="img-f0ee02ed-121" stroke-dasharray="none" class="color_Q_=_1lpm" stroke="#8B0000">
            <path fill="none" d="M-18.73,11.61 L-17.91,11.61 -17.91,11.61 -17.06,11.61 -17.06,11.41 -16.17,11.41 -16.17,11.61 -15.24,11.61 -15.24,10.84 -14.28,10.84 -14.28,11.03 -13.28,11.03 -13.28,9.41 -12.23,9.41 -12.23,7.31 -11.15,7.31 -11.15,4.45 -10.01,4.45 -10.01,0.54 -8.83,0.54 -8.83,-5.09 -7.6,-5.09 -7.6,-10.53 -6.31,-10.53 -6.31,-15.5 -4.97,-15.5 -4.97,-20.46 -3.56,-20.46 -3.56,-16.45 -2.1,-16.45 -2.1,-13.68 -0.56,-13.68 -0.56,-15.12 1.04,-15.12 1.04,-10.63 2.72,-10.63 2.72,-9.77 4.47,-9.77 4.47,-5.57 6.31,-5.57 6.31,-5 8.24,-5 8.24,-2.8 10.26,-2.8 10.26,-2.33 12.38,-2.33 12.38,1.59 14.61,1.59 14.61,3.21 16.94,3.21 16.94,6.17 19.4,6.17 19.4,6.74 21.98,6.74 21.98,9.51 24.7,9.51 24.7,10.36 27.56,10.36 27.56,11.13 " class="primitive"/>
          </g>
        </g>
      </g>
    </g>
  </g>
  <g class="guide ylabels" font-size="2.82" font-family="'PT Sans Caption','Helvetica Neue','Helvetica',sans-serif" fill="#6C606B" id="img-f0ee02ed-122">
    <g transform="translate(11.96,51.72)" id="img-f0ee02ed-123">
      <g class="primitive">
        <text text-anchor="end" dy="0.35em">0</text>
      </g>
    </g>
    <g transform="translate(11.96,35.81)" id="img-f0ee02ed-124">
      <g class="primitive">
        <text text-anchor="end" dy="0.35em">5</text>
      </g>
    </g>
    <g transform="translate(11.96,19.91)" id="img-f0ee02ed-125">
      <g class="primitive">
        <text text-anchor="end" dy="0.35em">10</text>
      </g>
    </g>
    <g transform="translate(11.96,4)" id="img-f0ee02ed-126">
      <g class="primitive">
        <text text-anchor="end" dy="0.35em">15</text>
      </g>
    </g>
  </g>
  <g font-size="3.88" font-family="'PT Sans','Helvetica Neue','Helvetica',sans-serif" fill="#564A55" stroke="#000000" stroke-opacity="0.000" id="img-f0ee02ed-127">
    <g transform="translate(3.81,25.86)" id="img-f0ee02ed-128">
      <g class="primitive">
        <text text-anchor="middle" dy="0.35em" transform="rotate(-90,0, 2)">Concentration (cm⁻³)</text>
      </g>
    </g>
  </g>
</g>
<defs>
  <clipPath id="img-f0ee02ed-15">
    <path d="M95.63,2 L148.1,2 148.1,53.72 95.63,53.72 " />
  </clipPath>
  <clipPath id="img-f0ee02ed-90">
    <path d="M12.96,2 L65.13,2 65.13,53.72 12.96,53.72 " />
  </clipPath>
</defs>
</svg>
