<?xml version="1.0" encoding="UTF-8"?>
<svg xmlns="http://www.w3.org/2000/svg"
     xmlns:xlink="http://www.w3.org/1999/xlink"
     xmlns:gadfly="http://www.gadflyjl.org/ns"
     version="1.2"
     width="180mm" height="70mm" viewBox="0 0 180 70"
     stroke="none"
     fill="#000000"
     stroke-width="0.3"
     font-size="3.88"
>
<defs>
  <marker id="arrow" markerWidth="15" markerHeight="7" refX="5" refY="3.5" orient="auto" markerUnits="strokeWidth">
    <path d="M0,0 L15,3.5 L0,7 z" stroke="context-stroke" fill="context-stroke"/>
  </marker>
</defs>
<g class="plotroot xscalable yscalable" id="img-cbc90c60-1">
  <g font-size="3.88" font-family="'PT Sans','Helvetica Neue','Helvetica',sans-serif" fill="#564A55" stroke="#000000" stroke-opacity="0.000" id="img-cbc90c60-2">
    <g transform="translate(124.53,61.39)">
      <g class="primitive">
        <text text-anchor="middle" dy="0.6em">Growth Factor (-)</text>
      </g>
    </g>
  </g>
  <g class="guide xlabels" font-size="2.82" font-family="'PT Sans Caption','Helvetica Neue','Helvetica',sans-serif" fill="#6C606B" id="img-cbc90c60-3">
    <g transform="translate(102.96,54.72)">
      <g class="primitive">
        <text text-anchor="middle" dy="0.6em"></text>
      </g>
    </g>
    <g transform="translate(105.5,54.72)">
      <g class="primitive">
        <text text-anchor="middle" dy="0.6em"></text>
      </g>
    </g>
    <g transform="translate(108.03,54.72)">
      <g class="primitive">
        <text text-anchor="middle" dy="0.6em">1.0</text>
      </g>
    </g>
    <g transform="translate(110.57,54.72)">
      <g class="primitive">
        <text text-anchor="middle" dy="0.6em"></text>
      </g>
    </g>
    <g transform="translate(113.11,54.72)">
      <g class="primitive">
        <text text-anchor="middle" dy="0.6em"></text>
      </g>
    </g>
    <g transform="translate(115.65,54.72)">
      <g class="primitive">
        <text text-anchor="middle" dy="0.6em"></text>
      </g>
    </g>
    <g transform="translate(118.18,54.72)">
      <g class="primitive">
        <text text-anchor="middle" dy="0.6em"></text>
      </g>
    </g>
    <g transform="translate(120.72,54.72)">
      <g class="primitive">
        <text text-anchor="middle" dy="0.6em">1.5</text>
      </g>
    </g>
    <g transform="translate(123.26,54.72)">
      <g class="primitive">
        <text text-anchor="middle" dy="0.6em"></text>
      </g>
    </g>
    <g transform="translate(125.8,54.72)">
      <g class="primitive">
        <text text-anchor="middle" dy="0.6em"></text>
      </g>
    </g>
    <g transform="translate(128.33,54.72)">
      <g class="primitive">
        <text text-anchor="middle" dy="0.6em"></text>
      </g>
    </g>
    <g transform="translate(130.87,54.72)">
      <g class="primitive">
        <text text-anchor="middle" dy="0.6em"></text>
      </g>
    </g>
    <g transform="translate(133.41,54.72)">
      <g class="primitive">
        <text text-anchor="middle" dy="0.6em">2.0</text>
      </g>
    </g>
    <g transform="translate(135.95,54.72)">
      <g class="primitive">
        <text text-anchor="middle" dy="0.6em"></text>
      </g>
    </g>
    <g transform="translate(138.48,54.72)">
      <g class="primitive">
        <text text-anchor="middle" dy="0.6em"></text>
      </g>
    </g>
    <g transform="translate(141.02,54.72)">
      <g class="primitive">
        <text text-anchor="middle" dy="0.6em"></text>
      </g>
    </g>
    <g transform="translate(143.56,54.72)">
      <g class="primitive">
        <text text-anchor="middle" dy="0.6em"></text>
      </g>
    </g>
    <g transform="translate(146.1,54.72)">
      <g class="primitive">
        <text text-anchor="middle" dy="0.6em">2.5</text>
      </g>
    </g>
  </g>
  <g class="guide colorkey" id="img-cbc90c60-4">
    <g fill="#4C404B" font-size="2.82" font-family="'PT Sans','Helvetica Neue','Helvetica',sans-serif" id="img-cbc90c60-5">
      <g transform="translate(152.57,22.92)" id="img-cbc90c60-6" class="color_Truth">
        <g class="primitive">
          <text dy="0.35em">Truth</text>
        </g>
      </g>
      <g transform="translate(152.57,27.86)" id="img-cbc90c60-7" class="color_L2x0B[0,1],_0.134">
        <g class="primitive">
          <text dy="0.35em">L<tspan dy="0.4em" font-size="83%">2</tspan><tspan dy="-0.3320em">x</tspan><tspan dy="0.4em" font-size="83%">0</tspan><tspan dy="-0.3320em">B</tspan><tspan dy="0.4em" font-size="83%">[0,1]</tspan><tspan dy="-0.3320em">, 0.134</tspan></text>
        </g>
      </g>
      <g transform="translate(152.57,32.8)" id="img-cbc90c60-8" class="color_L0D1e-3B[0,1],_0.035">
        <g class="primitive">
          <text dy="0.35em">L<tspan dy="0.4em" font-size="83%">0</tspan><tspan dy="-0.3320em">D</tspan><tspan dy="0.4em" font-size="83%">1e-3</tspan><tspan dy="-0.3320em">B</tspan><tspan dy="0.4em" font-size="83%">[0,1]</tspan><tspan dy="-0.3320em">, 0.035</tspan></text>
        </g>
      </g>
      <g transform="translate(152.57,37.74)" id="img-cbc90c60-9" class="color_LSQ1,_0.003">
        <g class="primitive">
          <text dy="0.35em">LSQ<tspan dy="0.4em" font-size="83%">1</tspan><tspan dy="-0.3320em">, 0.003</tspan></text>
        </g>
      </g>
    </g>
    <g fill-opacity="1" id="img-cbc90c60-10">
      <g transform="translate(150.33,22.92)" id="img-cbc90c60-11" fill="#000000" stroke="#FFFFFF" class="color_Truth">
        <path d="M-1.24,-1.24 L1.24,-1.24 1.24,1.24 -1.24,1.24  z" class="primitive"/>
      </g>
      <g transform="translate(150.33,27.86)" id="img-cbc90c60-12" fill="#8B0000" stroke="#FFFFFF" class="color_L2x0B[0,1],_0.134">
        <path d="M-1.24,-1.24 L1.24,-1.24 1.24,1.24 -1.24,1.24  z" class="primitive"/>
      </g>
      <g transform="translate(150.33,32.8)" id="img-cbc90c60-13" fill="#4F94CD" stroke="#FFFFFF" class="color_L0D1e-3B[0,1],_0.035">
        <path d="M-1.24,-1.24 L1.24,-1.24 1.24,1.24 -1.24,1.24  z" class="primitive"/>
      </g>
      <g transform="translate(150.33,37.74)" id="img-cbc90c60-14" fill="#B8860B" stroke="#FFFFFF" class="color_LSQ1,_0.003">
        <path d="M-1.24,-1.24 L1.24,-1.24 1.24,1.24 -1.24,1.24  z" class="primitive"/>
      </g>
    </g>
    <g fill="#362A35" font-size="3.88" font-family="'PT Sans','Helvetica Neue','Helvetica',sans-serif" stroke="#000000" stroke-opacity="0.000" id="img-cbc90c60-15">
      <g transform="translate(149.1,17.78)" id="img-cbc90c60-16">
        <g class="primitive">
          <text dy="-0em"></text>
        </g>
      </g>
    </g>
  </g>
  <g clip-path="url(#img-cbc90c60-17)">
    <g id="img-cbc90c60-18">
      <g pointer-events="visible" stroke-width="0.3" fill="#000000" fill-opacity="0.000" stroke="#000000" stroke-opacity="0.000" class="guide background" id="img-cbc90c60-19">
        <g transform="translate(124.53,27.86)" id="img-cbc90c60-20">
          <path d="M-23.57,-25.86 L23.57,-25.86 23.57,25.86 -23.57,25.86  z" class="primitive"/>
        </g>
      </g>
      <g class="guide ygridlines xfixed" stroke-dasharray="0.5,0.5" stroke-width="0.2" stroke="#D0D0E0" id="img-cbc90c60-21">
        <g transform="translate(124.53,51.72)" id="img-cbc90c60-22">
          <path fill="none" d="M-23.57,0 L23.57,0 " class="primitive"/>
        </g>
        <g transform="translate(124.53,39.79)" id="img-cbc90c60-23">
          <path fill="none" d="M-23.57,0 L23.57,0 " class="primitive"/>
        </g>
        <g transform="translate(124.53,27.86)" id="img-cbc90c60-24">
          <path fill="none" d="M-23.57,0 L23.57,0 " class="primitive"/>
        </g>
        <g transform="translate(124.53,15.93)" id="img-cbc90c60-25">
          <path fill="none" d="M-23.57,0 L23.57,0 " class="primitive"/>
        </g>
        <g transform="translate(124.53,4)" id="img-cbc90c60-26">
          <path fill="none" d="M-23.57,0 L23.57,0 " class="primitive"/>
        </g>
      </g>
      <g class="guide xgridlines yfixed" stroke-dasharray="0.5,0.5" stroke-width="0.2" stroke="#D0D0E0" id="img-cbc90c60-27">
        <g transform="translate(102.96,27.86)" id="img-cbc90c60-28">
          <path fill="none" d="M0,-25.86 L0,25.86 " class="primitive"/>
        </g>
        <g transform="translate(105.5,27.86)" id="img-cbc90c60-29">
          <path fill="none" d="M0,-25.86 L0,25.86 " class="primitive"/>
        </g>
        <g transform="translate(108.03,27.86)" id="img-cbc90c60-30">
          <path fill="none" d="M0,-25.86 L0,25.86 " class="primitive"/>
        </g>
        <g transform="translate(110.57,27.86)" id="img-cbc90c60-31">
          <path fill="none" d="M0,-25.86 L0,25.86 " class="primitive"/>
        </g>
        <g transform="translate(113.11,27.86)" id="img-cbc90c60-32">
          <path fill="none" d="M0,-25.86 L0,25.86 " class="primitive"/>
        </g>
        <g transform="translate(115.65,27.86)" id="img-cbc90c60-33">
          <path fill="none" d="M0,-25.86 L0,25.86 " class="primitive"/>
        </g>
        <g transform="translate(118.18,27.86)" id="img-cbc90c60-34">
          <path fill="none" d="M0,-25.86 L0,25.86 " class="primitive"/>
        </g>
        <g transform="translate(120.72,27.86)" id="img-cbc90c60-35">
          <path fill="none" d="M0,-25.86 L0,25.86 " class="primitive"/>
        </g>
        <g transform="translate(123.26,27.86)" id="img-cbc90c60-36">
          <path fill="none" d="M0,-25.86 L0,25.86 " class="primitive"/>
        </g>
        <g transform="translate(125.8,27.86)" id="img-cbc90c60-37">
          <path fill="none" d="M0,-25.86 L0,25.86 " class="primitive"/>
        </g>
        <g transform="translate(128.33,27.86)" id="img-cbc90c60-38">
          <path fill="none" d="M0,-25.86 L0,25.86 " class="primitive"/>
        </g>
        <g transform="translate(130.87,27.86)" id="img-cbc90c60-39">
          <path fill="none" d="M0,-25.86 L0,25.86 " class="primitive"/>
        </g>
        <g transform="translate(133.41,27.86)" id="img-cbc90c60-40">
          <path fill="none" d="M0,-25.86 L0,25.86 " class="primitive"/>
        </g>
        <g transform="translate(135.95,27.86)" id="img-cbc90c60-41">
          <path fill="none" d="M0,-25.86 L0,25.86 " class="primitive"/>
        </g>
        <g transform="translate(138.48,27.86)" id="img-cbc90c60-42">
          <path fill="none" d="M0,-25.86 L0,25.86 " class="primitive"/>
        </g>
        <g transform="translate(141.02,27.86)" id="img-cbc90c60-43">
          <path fill="none" d="M0,-25.86 L0,25.86 " class="primitive"/>
        </g>
        <g transform="translate(143.56,27.86)" id="img-cbc90c60-44">
          <path fill="none" d="M0,-25.86 L0,25.86 " class="primitive"/>
        </g>
        <g transform="translate(146.1,27.86)" id="img-cbc90c60-45">
          <path fill="none" d="M0,-25.86 L0,25.86 " class="primitive"/>
        </g>
      </g>
      <g class="plotpanel" id="img-cbc90c60-46">
        <metadata>
          <boundingbox value="100.95833333333333mm 2.0mm 47.138333333333335mm 51.715mm"/>
          <unitbox value="0.7211837885871035 20.838310803730483 1.857632422825793 -21.676621607460966"/>
        </metadata>
        <g stroke-width="0.3" fill="#000000" fill-opacity="0.000" class="geometry" id="img-cbc90c60-47">
          <g transform="translate(120.09,50.38)" id="img-cbc90c60-48" stroke-dasharray="none" stroke="#000000" class="color_Truth">
            <path fill="none" d="M-16.77,1.34 L-16.04,1.34 -16.04,1.34 -15.27,1.34 -15.27,1.34 -14.48,1.34 -14.48,1.34 -13.65,1.34 -13.65,1.34 -12.79,1.34 -12.79,1.34 -11.89,1.34 -11.89,1.34 -10.95,1.34 -10.95,1.34 -9.98,1.34 -9.98,1.34 -8.97,1.34 -8.97,1.34 -7.91,1.34 -7.91,1.34 -6.8,1.34 -6.8,1.34 -5.65,1.34 -5.65,1.34 -4.45,1.34 -4.45,1.34 -3.19,1.34 -3.19,1.34 -1.88,1.34 -1.88,1.34 -0.5,1.34 -0.5,1.34 0.93,1.34 0.93,1.34 2.43,1.34 2.43,-38.06 4.01,-38.06 4.01,1.34 5.65,1.34 5.65,1.34 7.38,1.34 7.38,1.34 9.19,1.34 9.19,1.34 11.09,1.34 11.09,1.34 13.08,1.34 13.08,1.34 15.17,1.34 15.17,1.34 17.37,1.34 17.37,1.34 19.68,1.34 19.68,1.34 22.12,1.34 22.12,1.34 24.68,1.34 24.68,1.34 " class="primitive"/>
          </g>
          <g transform="translate(120.09,50.27)" id="img-cbc90c60-49" stroke-dasharray="none" stroke="#4F94CD" class="color_L0D1e-3B[0,1],_0.035">
            <path fill="none" d="M-16.77,1.37 L-16.04,1.37 -16.04,1.37 -15.27,1.37 -15.27,1.29 -14.48,1.29 -14.48,1.45 -13.65,1.45 -13.65,1.38 -12.79,1.38 -12.79,1.38 -11.89,1.38 -11.89,1.38 -10.95,1.38 -10.95,1.45 -9.98,1.45 -9.98,1.44 -8.97,1.44 -8.97,1.39 -7.91,1.39 -7.91,1.39 -6.8,1.39 -6.8,1.33 -5.65,1.33 -5.65,1.45 -4.45,1.45 -4.45,1.44 -3.19,1.44 -3.19,1.4 -1.88,1.4 -1.88,1.4 -0.5,1.4 -0.5,1.45 0.93,1.45 0.93,-4.71 2.43,-4.71 2.43,-33.34 4.01,-33.34 4.01,1.45 5.65,1.45 5.65,0.74 7.38,0.74 7.38,1.41 9.19,1.41 9.19,1.42 11.09,1.42 11.09,1.42 13.08,1.42 13.08,1.42 15.17,1.42 15.17,1.45 17.37,1.45 17.37,1.41 19.68,1.41 19.68,1.42 22.12,1.42 22.12,1.42 24.68,1.42 24.68,1.45 " class="primitive"/>
          </g>
          <g transform="translate(120.09,49.76)" id="img-cbc90c60-50" stroke-dasharray="none" stroke="#8B0000" class="color_L2x0B[0,1],_0.134">
            <path fill="none" d="M-16.77,1.96 L-16.04,1.96 -16.04,1.96 -15.27,1.96 -15.27,0.97 -14.48,0.97 -14.48,1.22 -13.65,1.22 -13.65,1.96 -12.79,1.96 -12.79,1.96 -11.89,1.96 -11.89,1.84 -10.95,1.84 -10.95,-0.02 -9.98,-0.02 -9.98,0.89 -8.97,0.89 -8.97,1.96 -7.91,1.96 -7.91,1.96 -6.8,1.96 -6.8,1.05 -5.65,1.05 -5.65,-2.01 -4.45,-2.01 -4.45,0.77 -3.19,0.77 -3.19,1.96 -1.88,1.96 -1.88,1.96 -0.5,1.96 -0.5,-2.33 0.93,-2.33 0.93,-12.67 2.43,-12.67 2.43,-14.73 4.01,-14.73 4.01,-7.14 5.65,-7.14 5.65,0.3 7.38,0.3 7.38,1.96 9.19,1.96 9.19,1.96 11.09,1.96 11.09,1.79 13.08,1.79 13.08,1.71 15.17,1.71 15.17,1.96 17.37,1.96 17.37,1.96 19.68,1.96 19.68,1.96 22.12,1.96 22.12,1.93 24.68,1.93 24.68,1.96 " class="primitive"/>
          </g>
          <g transform="translate(120.09,50.4)" id="img-cbc90c60-51" stroke-dasharray="none" stroke="#B8860B" class="color_LSQ1,_0.003">
            <path fill="none" d="M-16.77,1.32 L-16.04,1.32 -16.04,1.32 -15.27,1.32 -15.27,1.32 -14.48,1.32 -14.48,1.32 -13.65,1.32 -13.65,1.32 -12.79,1.32 -12.79,1.32 -11.89,1.32 -11.89,1.32 -10.95,1.32 -10.95,1.32 -9.98,1.32 -9.98,1.32 -8.97,1.32 -8.97,1.32 -7.91,1.32 -7.91,1.32 -6.8,1.32 -6.8,1.32 -5.65,1.32 -5.65,1.32 -4.45,1.32 -4.45,1.32 -3.19,1.32 -3.19,1.32 -1.88,1.32 -1.88,1.32 -0.5,1.32 -0.5,1.32 0.93,1.32 0.93,1.32 2.43,1.32 2.43,-37.53 4.01,-37.53 4.01,1.32 5.65,1.32 5.65,1.32 7.38,1.32 7.38,1.32 9.19,1.32 9.19,1.32 11.09,1.32 11.09,1.32 13.08,1.32 13.08,1.32 15.17,1.32 15.17,1.32 17.37,1.32 17.37,1.32 19.68,1.32 19.68,1.32 22.12,1.32 22.12,1.32 24.68,1.32 24.68,1.32 " class="primitive"/>
          </g>
        </g>
      </g>
    </g>
  </g>
  <g class="guide ylabels" font-size="2.82" font-family="'PT Sans Caption','Helvetica Neue','Helvetica',sans-serif" fill="#6C606B" id="img-cbc90c60-52">
    <g transform="translate(99.96,51.72)" id="img-cbc90c60-53">
      <g class="primitive">
        <text text-anchor="end" dy="0.35em">0</text>
      </g>
    </g>
    <g transform="translate(99.96,39.79)" id="img-cbc90c60-54">
      <g class="primitive">
        <text text-anchor="end" dy="0.35em">5</text>
      </g>
    </g>
    <g transform="translate(99.96,27.86)" id="img-cbc90c60-55">
      <g class="primitive">
        <text text-anchor="end" dy="0.35em">10</text>
      </g>
    </g>
    <g transform="translate(99.96,15.93)" id="img-cbc90c60-56">
      <g class="primitive">
        <text text-anchor="end" dy="0.35em">15</text>
      </g>
    </g>
    <g transform="translate(99.96,4)" id="img-cbc90c60-57">
      <g class="primitive">
        <text text-anchor="end" dy="0.35em">20</text>
      </g>
    </g>
  </g>
  <g font-size="3.88" font-family="'PT Sans','Helvetica Neue','Helvetica',sans-serif" fill="#564A55" stroke="#000000" stroke-opacity="0.000" id="img-cbc90c60-58">
    <g transform="translate(91.81,25.86)" id="img-cbc90c60-59">
      <g class="primitive">
        <text text-anchor="middle" dy="0.35em" transform="rotate(-90,0, 2)">Probability Density (-)</text>
      </g>
    </g>
  </g>
</g>
<g class="plotroot xscalable yscalable" id="img-cbc90c60-60">
  <g font-size="3.88" font-family="'PT Sans','Helvetica Neue','Helvetica',sans-serif" fill="#564A55" stroke="#000000" stroke-opacity="0.000" id="img-cbc90c60-61">
    <g transform="translate(37.03,61.39)" id="img-cbc90c60-62">
      <g class="primitive">
        <text text-anchor="middle" dy="0.6em">Apparent Growth Factor (-)</text>
      </g>
    </g>
  </g>
  <g class="guide xlabels" font-size="2.82" font-family="'PT Sans Caption','Helvetica Neue','Helvetica',sans-serif" fill="#6C606B" id="img-cbc90c60-63">
    <g transform="translate(14.96,54.72)" id="img-cbc90c60-64">
      <g class="primitive">
        <text text-anchor="middle" dy="0.6em"></text>
      </g>
    </g>
    <g transform="translate(17.55,54.72)" id="img-cbc90c60-65">
      <g class="primitive">
        <text text-anchor="middle" dy="0.6em"></text>
      </g>
    </g>
    <g transform="translate(20.15,54.72)" id="img-cbc90c60-66">
      <g class="primitive">
        <text text-anchor="middle" dy="0.6em">1.0</text>
      </g>
    </g>
    <g transform="translate(22.75,54.72)" id="img-cbc90c60-67">
      <g class="primitive">
        <text text-anchor="middle" dy="0.6em"></text>
      </g>
    </g>
    <g transform="translate(25.34,54.72)" id="img-cbc90c60-68">
      <g class="primitive">
        <text text-anchor="middle" dy="0.6em"></text>
      </g>
    </g>
    <g transform="translate(27.94,54.72)" id="img-cbc90c60-69">
      <g class="primitive">
        <text text-anchor="middle" dy="0.6em"></text>
      </g>
    </g>
    <g transform="translate(30.54,54.72)" id="img-cbc90c60-70">
      <g class="primitive">
        <text text-anchor="middle" dy="0.6em"></text>
      </g>
    </g>
    <g transform="translate(33.13,54.72)" id="img-cbc90c60-71">
      <g class="primitive">
        <text text-anchor="middle" dy="0.6em">1.5</text>
      </g>
    </g>
    <g transform="translate(35.73,54.72)" id="img-cbc90c60-72">
      <g class="primitive">
        <text text-anchor="middle" dy="0.6em"></text>
      </g>
    </g>
    <g transform="translate(38.33,54.72)" id="img-cbc90c60-73">
      <g class="primitive">
        <text text-anchor="middle" dy="0.6em"></text>
      </g>
    </g>
    <g transform="translate(40.92,54.72)" id="img-cbc90c60-74">
      <g class="primitive">
        <text text-anchor="middle" dy="0.6em"></text>
      </g>
    </g>
    <g transform="translate(43.52,54.72)" id="img-cbc90c60-75">
      <g class="primitive">
        <text text-anchor="middle" dy="0.6em"></text>
      </g>
    </g>
    <g transform="translate(46.11,54.72)" id="img-cbc90c60-76">
      <g class="primitive">
        <text text-anchor="middle" dy="0.6em">2.0</text>
      </g>
    </g>
    <g transform="translate(48.71,54.72)" id="img-cbc90c60-77">
      <g class="primitive">
        <text text-anchor="middle" dy="0.6em"></text>
      </g>
    </g>
    <g transform="translate(51.31,54.72)" id="img-cbc90c60-78">
      <g class="primitive">
        <text text-anchor="middle" dy="0.6em"></text>
      </g>
    </g>
    <g transform="translate(53.9,54.72)" id="img-cbc90c60-79">
      <g class="primitive">
        <text text-anchor="middle" dy="0.6em"></text>
      </g>
    </g>
    <g transform="translate(56.5,54.72)" id="img-cbc90c60-80">
      <g class="primitive">
        <text text-anchor="middle" dy="0.6em"></text>
      </g>
    </g>
    <g transform="translate(59.1,54.72)" id="img-cbc90c60-81">
      <g class="primitive">
        <text text-anchor="middle" dy="0.6em">2.5</text>
      </g>
    </g>
  </g>
  <g class="guide colorkey" id="img-cbc90c60-82">
    <g fill="#4C404B" font-size="2.82" font-family="'PT Sans','Helvetica Neue','Helvetica',sans-serif" id="img-cbc90c60-83">
      <g transform="translate(65.57,22.92)" id="img-cbc90c60-84" class="color_Input">
        <g class="primitive">
          <text dy="0.35em">Input</text>
        </g>
      </g>
      <g transform="translate(65.57,27.86)" id="img-cbc90c60-85" class="color_𝐁*L2x0B[0,1]">
        <g class="primitive">
          <text dy="0.35em">𝐁*L<tspan dy="0.4em" font-size="83%">2</tspan><tspan dy="-0.3320em">x</tspan><tspan dy="0.4em" font-size="83%">0</tspan><tspan dy="-0.3320em">B</tspan><tspan dy="0.4em" font-size="83%">[0,1]</tspan></text>
        </g>
      </g>
      <g transform="translate(65.57,32.8)" id="img-cbc90c60-86" class="color_𝐁*L0D1e-3B[0,1]">
        <g class="primitive">
          <text dy="0.35em">𝐁*L<tspan dy="0.4em" font-size="83%">0</tspan><tspan dy="-0.3320em">D</tspan><tspan dy="0.4em" font-size="83%">1e-3</tspan><tspan dy="-0.3320em">B</tspan><tspan dy="0.4em" font-size="83%">[0,1]</tspan></text>
        </g>
      </g>
      <g transform="translate(65.57,37.74)" id="img-cbc90c60-87" class="color_𝐁*LSQ1">
        <g class="primitive">
          <text dy="0.35em">𝐁*LSQ<tspan dy="0.4em" font-size="83%">1</tspan></text>
        </g>
      </g>
    </g>
    <g fill-opacity="1" id="img-cbc90c60-88">
      <g transform="translate(63.33,22.92)" id="img-cbc90c60-89" fill="#000000" stroke="#FFFFFF" class="color_Input">
        <path d="M-1.24,-1.24 L1.24,-1.24 1.24,1.24 -1.24,1.24  z" class="primitive"/>
      </g>
      <g transform="translate(63.33,27.86)" id="img-cbc90c60-90" fill="#8B0000" stroke="#FFFFFF" class="color_𝐁*L2x0B[0,1]">
        <path d="M-1.24,-1.24 L1.24,-1.24 1.24,1.24 -1.24,1.24  z" class="primitive"/>
      </g>
      <g transform="translate(63.33,32.8)" id="img-cbc90c60-91" fill="#4F94CD" stroke="#FFFFFF" class="color_𝐁*L0D1e-3B[0,1]">
        <path d="M-1.24,-1.24 L1.24,-1.24 1.24,1.24 -1.24,1.24  z" class="primitive"/>
      </g>
      <g transform="translate(63.33,37.74)" id="img-cbc90c60-92" fill="#B8860B" stroke="#FFFFFF" class="color_𝐁*LSQ1">
        <path d="M-1.24,-1.24 L1.24,-1.24 1.24,1.24 -1.24,1.24  z" class="primitive"/>
      </g>
    </g>
    <g fill="#362A35" font-size="3.88" font-family="'PT Sans','Helvetica Neue','Helvetica',sans-serif" stroke="#000000" stroke-opacity="0.000" id="img-cbc90c60-93">
      <g transform="translate(62.1,17.78)" id="img-cbc90c60-94">
        <g class="primitive">
          <text dy="-0em"></text>
        </g>
      </g>
    </g>
  </g>
  <g clip-path="url(#img-cbc90c60-95)">
    <g id="img-cbc90c60-96">
      <g pointer-events="visible" stroke-width="0.3" fill="#000000" fill-opacity="0.000" stroke="#000000" stroke-opacity="0.000" class="guide background" id="img-cbc90c60-97">
        <g transform="translate(37.03,27.86)" id="img-cbc90c60-98">
          <path d="M-24.07,-25.86 L24.07,-25.86 24.07,25.86 -24.07,25.86  z" class="primitive"/>
        </g>
      </g>
      <g class="guide ygridlines xfixed" stroke-dasharray="0.5,0.5" stroke-width="0.2" stroke="#D0D0E0" id="img-cbc90c60-99">
        <g transform="translate(37.03,51.72)" id="img-cbc90c60-100">
          <path fill="none" d="M-24.07,0 L24.07,0 " class="primitive"/>
        </g>
        <g transform="translate(37.03,42.17)" id="img-cbc90c60-101">
          <path fill="none" d="M-24.07,0 L24.07,0 " class="primitive"/>
        </g>
        <g transform="translate(37.03,32.63)" id="img-cbc90c60-102">
          <path fill="none" d="M-24.07,0 L24.07,0 " class="primitive"/>
        </g>
        <g transform="translate(37.03,23.09)" id="img-cbc90c60-103">
          <path fill="none" d="M-24.07,0 L24.07,0 " class="primitive"/>
        </g>
        <g transform="translate(37.03,13.54)" id="img-cbc90c60-104">
          <path fill="none" d="M-24.07,0 L24.07,0 " class="primitive"/>
        </g>
        <g transform="translate(37.03,4)" id="img-cbc90c60-105">
          <path fill="none" d="M-24.07,0 L24.07,0 " class="primitive"/>
        </g>
      </g>
      <g class="guide xgridlines yfixed" stroke-dasharray="0.5,0.5" stroke-width="0.2" stroke="#D0D0E0" id="img-cbc90c60-106">
        <g transform="translate(14.96,27.86)" id="img-cbc90c60-107">
          <path fill="none" d="M0,-25.86 L0,25.86 " class="primitive"/>
        </g>
        <g transform="translate(17.55,27.86)" id="img-cbc90c60-108">
          <path fill="none" d="M0,-25.86 L0,25.86 " class="primitive"/>
        </g>
        <g transform="translate(20.15,27.86)" id="img-cbc90c60-109">
          <path fill="none" d="M0,-25.86 L0,25.86 " class="primitive"/>
        </g>
        <g transform="translate(22.75,27.86)" id="img-cbc90c60-110">
          <path fill="none" d="M0,-25.86 L0,25.86 " class="primitive"/>
        </g>
        <g transform="translate(25.34,27.86)" id="img-cbc90c60-111">
          <path fill="none" d="M0,-25.86 L0,25.86 " class="primitive"/>
        </g>
        <g transform="translate(27.94,27.86)" id="img-cbc90c60-112">
          <path fill="none" d="M0,-25.86 L0,25.86 " class="primitive"/>
        </g>
        <g transform="translate(30.54,27.86)" id="img-cbc90c60-113">
          <path fill="none" d="M0,-25.86 L0,25.86 " class="primitive"/>
        </g>
        <g transform="translate(33.13,27.86)" id="img-cbc90c60-114">
          <path fill="none" d="M0,-25.86 L0,25.86 " class="primitive"/>
        </g>
        <g transform="translate(35.73,27.86)" id="img-cbc90c60-115">
          <path fill="none" d="M0,-25.86 L0,25.86 " class="primitive"/>
        </g>
        <g transform="translate(38.33,27.86)" id="img-cbc90c60-116">
          <path fill="none" d="M0,-25.86 L0,25.86 " class="primitive"/>
        </g>
        <g transform="translate(40.92,27.86)" id="img-cbc90c60-117">
          <path fill="none" d="M0,-25.86 L0,25.86 " class="primitive"/>
        </g>
        <g transform="translate(43.52,27.86)" id="img-cbc90c60-118">
          <path fill="none" d="M0,-25.86 L0,25.86 " class="primitive"/>
        </g>
        <g transform="translate(46.11,27.86)" id="img-cbc90c60-119">
          <path fill="none" d="M0,-25.86 L0,25.86 " class="primitive"/>
        </g>
        <g transform="translate(48.71,27.86)" id="img-cbc90c60-120">
          <path fill="none" d="M0,-25.86 L0,25.86 " class="primitive"/>
        </g>
        <g transform="translate(51.31,27.86)" id="img-cbc90c60-121">
          <path fill="none" d="M0,-25.86 L0,25.86 " class="primitive"/>
        </g>
        <g transform="translate(53.9,27.86)" id="img-cbc90c60-122">
          <path fill="none" d="M0,-25.86 L0,25.86 " class="primitive"/>
        </g>
        <g transform="translate(56.5,27.86)" id="img-cbc90c60-123">
          <path fill="none" d="M0,-25.86 L0,25.86 " class="primitive"/>
        </g>
        <g transform="translate(59.1,27.86)" id="img-cbc90c60-124">
          <path fill="none" d="M0,-25.86 L0,25.86 " class="primitive"/>
        </g>
      </g>
      <g class="plotpanel" id="img-cbc90c60-125">
        <metadata>
          <boundingbox value="12.958333333333329mm 2.0mm 48.13833333333334mm 51.715mm"/>
          <unitbox value="0.7229694521013481 26.047888504663103 1.854061095797304 -27.095777009326206"/>
        </metadata>
        <g stroke-width="0.3" fill="#000000" fill-opacity="0.000" class="geometry" id="img-cbc90c60-126">
          <g transform="translate(32.49,44.96)" id="img-cbc90c60-127" stroke-dasharray="none" stroke="#000000" class="color_Input">
            <path fill="none" d="M-17.16,6.76 L-16.41,6.76 -16.41,6.76 -15.63,6.76 -15.63,6.76 -14.81,6.76 -14.81,6.76 -13.97,6.76 -13.97,6.76 -13.08,6.76 -13.08,6.76 -12.17,6.76 -12.17,6.76 -11.21,6.76 -11.21,6.76 -10.21,6.76 -10.21,6.76 -9.17,6.76 -9.17,6.76 -8.09,6.76 -8.09,6.76 -6.96,6.76 -6.96,6.76 -5.78,6.76 -5.78,6.3 -4.55,6.3 -4.55,5.15 -3.26,5.15 -3.26,0.46 -1.92,0.46 -1.92,-6.58 -0.52,-6.58 -0.52,-19.47 0.95,-19.47 0.95,-29.66 2.49,-29.66 2.49,-34.3 4.1,-34.3 4.1,-26.11 5.78,-26.11 5.78,-16.6 7.55,-16.6 7.55,-5.95 9.4,-5.95 9.4,2.63 11.34,2.63 11.34,5.95 13.38,5.95 13.38,6.7 15.52,6.7 15.52,6.76 17.78,6.76 17.78,6.76 20.14,6.76 20.14,6.76 22.63,6.76 22.63,6.76 25.25,6.76 25.25,6.76 " class="primitive"/>
          </g>
          <g transform="translate(32.49,44.38)" id="img-cbc90c60-128" stroke-dasharray="none" stroke="#4F94CD" class="color_𝐁*L0D1e-3B[0,1]">
            <path fill="none" d="M-17.16,7.23 L-16.41,7.23 -16.41,7.19 -15.63,7.19 -15.63,7.16 -14.81,7.16 -14.81,7.15 -13.97,7.15 -13.97,7.16 -13.08,7.16 -13.08,7.17 -12.17,7.17 -12.17,7.19 -11.21,7.19 -11.21,7.2 -10.21,7.2 -10.21,7.19 -9.17,7.19 -9.17,7.17 -8.09,7.17 -8.09,7.16 -6.96,7.16 -6.96,7.09 -5.78,7.09 -5.78,6.64 -4.55,6.64 -4.55,4.73 -3.26,4.73 -3.26,-0.29 -1.92,-0.29 -1.92,-9.43 -0.52,-9.43 -0.52,-21.36 0.95,-21.36 0.95,-31.45 2.49,-31.45 2.49,-34.32 4.1,-34.32 4.1,-28.06 5.78,-28.06 5.78,-16.24 7.55,-16.24 7.55,-4.67 9.4,-4.67 9.4,2.81 11.34,2.81 11.34,6.11 13.38,6.11 13.38,7.02 15.52,7.02 15.52,7.16 17.78,7.16 17.78,7.19 20.14,7.19 20.14,7.21 22.63,7.21 22.63,7.24 25.25,7.24 25.25,7.28 " class="primitive"/>
          </g>
          <g transform="translate(32.49,42.33)" id="img-cbc90c60-129" stroke-dasharray="none" stroke="#8B0000" class="color_𝐁*L2x0B[0,1]">
            <path fill="none" d="M-17.16,9.02 L-16.41,9.02 -16.41,8.77 -15.63,8.77 -15.63,8.53 -14.81,8.53 -14.81,8.34 -13.97,8.34 -13.97,8.15 -13.08,8.15 -13.08,7.9 -12.17,7.9 -12.17,7.55 -11.21,7.55 -11.21,7.18 -10.21,7.18 -10.21,6.8 -9.17,6.8 -9.17,6.31 -8.09,6.31 -8.09,5.59 -6.96,5.59 -6.96,4.64 -5.78,4.64 -5.78,3.31 -4.55,3.31 -4.55,0.79 -3.26,0.79 -3.26,-4.36 -1.92,-4.36 -1.92,-12.9 -0.52,-12.9 -0.52,-23.26 0.95,-23.26 0.95,-31.37 2.49,-31.37 2.49,-32.96 4.1,-32.96 4.1,-26.82 5.78,-26.82 5.78,-15.86 7.55,-15.86 7.55,-4.85 9.4,-4.85 9.4,2.91 11.34,2.91 11.34,6.9 13.38,6.9 13.38,8.43 15.52,8.43 15.52,8.92 17.78,8.92 17.78,9.12 20.14,9.12 20.14,9.24 22.63,9.24 22.63,9.31 25.25,9.31 25.25,9.35 " class="primitive"/>
          </g>
          <g transform="translate(32.49,44.96)" id="img-cbc90c60-130" stroke-dasharray="none" stroke="#B8860B" class="color_𝐁*LSQ1">
            <path fill="none" d="M-17.16,6.76 L-16.41,6.76 -16.41,6.76 -15.63,6.76 -15.63,6.76 -14.81,6.76 -14.81,6.76 -13.97,6.76 -13.97,6.76 -13.08,6.76 -13.08,6.76 -12.17,6.76 -12.17,6.76 -11.21,6.76 -11.21,6.76 -10.21,6.76 -10.21,6.76 -9.17,6.76 -9.17,6.76 -8.09,6.76 -8.09,6.76 -6.96,6.76 -6.96,6.73 -5.78,6.73 -5.78,6.45 -4.55,6.45 -4.55,4.99 -3.26,4.99 -3.26,0.75 -1.92,0.75 -1.92,-7.52 -0.52,-7.52 -0.52,-19 0.95,-19 0.95,-29.43 2.49,-29.43 2.49,-33.25 4.1,-33.25 4.1,-27.91 5.78,-27.91 5.78,-16.55 7.55,-16.55 7.55,-5.03 9.4,-5.03 9.4,2.53 11.34,2.53 11.34,5.82 13.38,5.82 13.38,6.68 15.52,6.68 15.52,6.76 17.78,6.76 17.78,6.76 20.14,6.76 20.14,6.76 22.63,6.76 22.63,6.76 25.25,6.76 25.25,6.76 " class="primitive"/>
          </g>
        </g>
      </g>
    </g>
  </g>
  <g class="guide ylabels" font-size="2.82" font-family="'PT Sans Caption','Helvetica Neue','Helvetica',sans-serif" fill="#6C606B" id="img-cbc90c60-131">
    <g transform="translate(11.96,51.72)" id="img-cbc90c60-132">
      <g class="primitive">
        <text text-anchor="end" dy="0.35em">0</text>
      </g>
    </g>
    <g transform="translate(11.96,42.17)" id="img-cbc90c60-133">
      <g class="primitive">
        <text text-anchor="end" dy="0.35em">5</text>
      </g>
    </g>
    <g transform="translate(11.96,32.63)" id="img-cbc90c60-134">
      <g class="primitive">
        <text text-anchor="end" dy="0.35em">10</text>
      </g>
    </g>
    <g transform="translate(11.96,23.09)" id="img-cbc90c60-135">
      <g class="primitive">
        <text text-anchor="end" dy="0.35em">15</text>
      </g>
    </g>
    <g transform="translate(11.96,13.54)" id="img-cbc90c60-136">
      <g class="primitive">
        <text text-anchor="end" dy="0.35em">20</text>
      </g>
    </g>
    <g transform="translate(11.96,4)" id="img-cbc90c60-137">
      <g class="primitive">
        <text text-anchor="end" dy="0.35em">25</text>
      </g>
    </g>
  </g>
  <g font-size="3.88" font-family="'PT Sans','Helvetica Neue','Helvetica',sans-serif" fill="#564A55" stroke="#000000" stroke-opacity="0.000" id="img-cbc90c60-138">
    <g transform="translate(3.81,25.86)" id="img-cbc90c60-139">
      <g class="primitive">
        <text text-anchor="middle" dy="0.35em" transform="rotate(-90,0, 2)">Concentration (cm⁻³)</text>
      </g>
    </g>
  </g>
</g>
<defs>
  <clipPath id="img-cbc90c60-17">
    <path d="M100.96,2 L148.1,2 148.1,53.72 100.96,53.72 " />
  </clipPath>
  <clipPath id="img-cbc90c60-95">
    <path d="M12.96,2 L61.1,2 61.1,53.72 12.96,53.72 " />
  </clipPath>
</defs>
</svg>
