<?xml version="1.0" encoding="UTF-8"?>
<svg xmlns="http://www.w3.org/2000/svg"
     xmlns:xlink="http://www.w3.org/1999/xlink"
     xmlns:gadfly="http://www.gadflyjl.org/ns"
     version="1.2"
     width="180mm" height="70mm" viewBox="0 0 180 70"
     stroke="none"
     fill="#000000"
     stroke-width="0.3"
     font-size="3.88"
>
<defs>
  <marker id="arrow" markerWidth="15" markerHeight="7" refX="5" refY="3.5" orient="auto" markerUnits="strokeWidth">
    <path d="M0,0 L15,3.5 L0,7 z" stroke="context-stroke" fill="context-stroke"/>
  </marker>
</defs>
<g class="plotroot xscalable yscalable" id="img-d6fab2f5-1">
  <g font-size="3.88" font-family="'PT Sans','Helvetica Neue','Helvetica',sans-serif" fill="#564A55" stroke="#000000" stroke-opacity="0.000" id="img-d6fab2f5-2">
    <g transform="translate(124.53,61.39)">
      <g class="primitive">
        <text text-anchor="middle" dy="0.6em">Growth Factor (-)</text>
      </g>
    </g>
  </g>
  <g class="guide xlabels" font-size="2.82" font-family="'PT Sans Caption','Helvetica Neue','Helvetica',sans-serif" fill="#6C606B" id="img-d6fab2f5-3">
    <g transform="translate(102.96,54.72)">
      <g class="primitive">
        <text text-anchor="middle" dy="0.6em"></text>
      </g>
    </g>
    <g transform="translate(105.5,54.72)">
      <g class="primitive">
        <text text-anchor="middle" dy="0.6em"></text>
      </g>
    </g>
    <g transform="translate(108.03,54.72)">
      <g class="primitive">
        <text text-anchor="middle" dy="0.6em">1.0</text>
      </g>
    </g>
    <g transform="translate(110.57,54.72)">
      <g class="primitive">
        <text text-anchor="middle" dy="0.6em"></text>
      </g>
    </g>
    <g transform="translate(113.11,54.72)">
      <g class="primitive">
        <text text-anchor="middle" dy="0.6em"></text>
      </g>
    </g>
    <g transform="translate(115.65,54.72)">
      <g class="primitive">
        <text text-anchor="middle" dy="0.6em"></text>
      </g>
    </g>
    <g transform="translate(118.18,54.72)">
      <g class="primitive">
        <text text-anchor="middle" dy="0.6em"></text>
      </g>
    </g>
    <g transform="translate(120.72,54.72)">
      <g class="primitive">
        <text text-anchor="middle" dy="0.6em">1.5</text>
      </g>
    </g>
    <g transform="translate(123.26,54.72)">
      <g class="primitive">
        <text text-anchor="middle" dy="0.6em"></text>
      </g>
    </g>
    <g transform="translate(125.8,54.72)">
      <g class="primitive">
        <text text-anchor="middle" dy="0.6em"></text>
      </g>
    </g>
    <g transform="translate(128.33,54.72)">
      <g class="primitive">
        <text text-anchor="middle" dy="0.6em"></text>
      </g>
    </g>
    <g transform="translate(130.87,54.72)">
      <g class="primitive">
        <text text-anchor="middle" dy="0.6em"></text>
      </g>
    </g>
    <g transform="translate(133.41,54.72)">
      <g class="primitive">
        <text text-anchor="middle" dy="0.6em">2.0</text>
      </g>
    </g>
    <g transform="translate(135.95,54.72)">
      <g class="primitive">
        <text text-anchor="middle" dy="0.6em"></text>
      </g>
    </g>
    <g transform="translate(138.48,54.72)">
      <g class="primitive">
        <text text-anchor="middle" dy="0.6em"></text>
      </g>
    </g>
    <g transform="translate(141.02,54.72)">
      <g class="primitive">
        <text text-anchor="middle" dy="0.6em"></text>
      </g>
    </g>
    <g transform="translate(143.56,54.72)">
      <g class="primitive">
        <text text-anchor="middle" dy="0.6em"></text>
      </g>
    </g>
    <g transform="translate(146.1,54.72)">
      <g class="primitive">
        <text text-anchor="middle" dy="0.6em">2.5</text>
      </g>
    </g>
  </g>
  <g class="guide colorkey" id="img-d6fab2f5-4">
    <g fill="#4C404B" font-size="2.82" font-family="'PT Sans','Helvetica Neue','Helvetica',sans-serif" id="img-d6fab2f5-5">
      <g transform="translate(152.57,22.92)" id="img-d6fab2f5-6" class="color_Truth">
        <g class="primitive">
          <text dy="0.35em">Truth</text>
        </g>
      </g>
      <g transform="translate(152.57,27.86)" id="img-d6fab2f5-7" class="color_L2x0B[0,1],_0.107">
        <g class="primitive">
          <text dy="0.35em">L<tspan dy="0.4em" font-size="83%">2</tspan><tspan dy="-0.3320em">x</tspan><tspan dy="0.4em" font-size="83%">0</tspan><tspan dy="-0.3320em">B</tspan><tspan dy="0.4em" font-size="83%">[0,1]</tspan><tspan dy="-0.3320em">, 0.107</tspan></text>
        </g>
      </g>
      <g transform="translate(152.57,32.8)" id="img-d6fab2f5-8" class="color_L0D1e-3B[0,1],_0.086">
        <g class="primitive">
          <text dy="0.35em">L<tspan dy="0.4em" font-size="83%">0</tspan><tspan dy="-0.3320em">D</tspan><tspan dy="0.4em" font-size="83%">1e-3</tspan><tspan dy="-0.3320em">B</tspan><tspan dy="0.4em" font-size="83%">[0,1]</tspan><tspan dy="-0.3320em">, 0.086</tspan></text>
        </g>
      </g>
      <g transform="translate(152.57,37.74)" id="img-d6fab2f5-9" class="color_LSQ1,_0.001">
        <g class="primitive">
          <text dy="0.35em">LSQ<tspan dy="0.4em" font-size="83%">1</tspan><tspan dy="-0.3320em">, 0.001</tspan></text>
        </g>
      </g>
    </g>
    <g fill-opacity="1" id="img-d6fab2f5-10">
      <g transform="translate(150.33,22.92)" id="img-d6fab2f5-11" fill="#000000" stroke="#FFFFFF" class="color_Truth">
        <path d="M-1.24,-1.24 L1.24,-1.24 1.24,1.24 -1.24,1.24  z" class="primitive"/>
      </g>
      <g transform="translate(150.33,27.86)" id="img-d6fab2f5-12" fill="#8B0000" stroke="#FFFFFF" class="color_L2x0B[0,1],_0.107">
        <path d="M-1.24,-1.24 L1.24,-1.24 1.24,1.24 -1.24,1.24  z" class="primitive"/>
      </g>
      <g transform="translate(150.33,32.8)" id="img-d6fab2f5-13" fill="#4F94CD" stroke="#FFFFFF" class="color_L0D1e-3B[0,1],_0.086">
        <path d="M-1.24,-1.24 L1.24,-1.24 1.24,1.24 -1.24,1.24  z" class="primitive"/>
      </g>
      <g transform="translate(150.33,37.74)" id="img-d6fab2f5-14" fill="#B8860B" stroke="#FFFFFF" class="color_LSQ1,_0.001">
        <path d="M-1.24,-1.24 L1.24,-1.24 1.24,1.24 -1.24,1.24  z" class="primitive"/>
      </g>
    </g>
    <g fill="#362A35" font-size="3.88" font-family="'PT Sans','Helvetica Neue','Helvetica',sans-serif" stroke="#000000" stroke-opacity="0.000" id="img-d6fab2f5-15">
      <g transform="translate(149.1,17.78)" id="img-d6fab2f5-16">
        <g class="primitive">
          <text dy="-0em"></text>
        </g>
      </g>
    </g>
  </g>
  <g clip-path="url(#img-d6fab2f5-17)">
    <g id="img-d6fab2f5-18">
      <g pointer-events="visible" stroke-width="0.3" fill="#000000" fill-opacity="0.000" stroke="#000000" stroke-opacity="0.000" class="guide background" id="img-d6fab2f5-19">
        <g transform="translate(124.53,27.86)" id="img-d6fab2f5-20">
          <path d="M-23.57,-25.86 L23.57,-25.86 23.57,25.86 -23.57,25.86  z" class="primitive"/>
        </g>
      </g>
      <g class="guide ygridlines xfixed" stroke-dasharray="0.5,0.5" stroke-width="0.2" stroke="#D0D0E0" id="img-d6fab2f5-21">
        <g transform="translate(124.53,51.72)" id="img-d6fab2f5-22">
          <path fill="none" d="M-23.57,0 L23.57,0 " class="primitive"/>
        </g>
        <g transform="translate(124.53,42.17)" id="img-d6fab2f5-23">
          <path fill="none" d="M-23.57,0 L23.57,0 " class="primitive"/>
        </g>
        <g transform="translate(124.53,32.63)" id="img-d6fab2f5-24">
          <path fill="none" d="M-23.57,0 L23.57,0 " class="primitive"/>
        </g>
        <g transform="translate(124.53,23.09)" id="img-d6fab2f5-25">
          <path fill="none" d="M-23.57,0 L23.57,0 " class="primitive"/>
        </g>
        <g transform="translate(124.53,13.54)" id="img-d6fab2f5-26">
          <path fill="none" d="M-23.57,0 L23.57,0 " class="primitive"/>
        </g>
        <g transform="translate(124.53,4)" id="img-d6fab2f5-27">
          <path fill="none" d="M-23.57,0 L23.57,0 " class="primitive"/>
        </g>
      </g>
      <g class="guide xgridlines yfixed" stroke-dasharray="0.5,0.5" stroke-width="0.2" stroke="#D0D0E0" id="img-d6fab2f5-28">
        <g transform="translate(102.96,27.86)" id="img-d6fab2f5-29">
          <path fill="none" d="M0,-25.86 L0,25.86 " class="primitive"/>
        </g>
        <g transform="translate(105.5,27.86)" id="img-d6fab2f5-30">
          <path fill="none" d="M0,-25.86 L0,25.86 " class="primitive"/>
        </g>
        <g transform="translate(108.03,27.86)" id="img-d6fab2f5-31">
          <path fill="none" d="M0,-25.86 L0,25.86 " class="primitive"/>
        </g>
        <g transform="translate(110.57,27.86)" id="img-d6fab2f5-32">
          <path fill="none" d="M0,-25.86 L0,25.86 " class="primitive"/>
        </g>
        <g transform="translate(113.11,27.86)" id="img-d6fab2f5-33">
          <path fill="none" d="M0,-25.86 L0,25.86 " class="primitive"/>
        </g>
        <g transform="translate(115.65,27.86)" id="img-d6fab2f5-34">
          <path fill="none" d="M0,-25.86 L0,25.86 " class="primitive"/>
        </g>
        <g transform="translate(118.18,27.86)" id="img-d6fab2f5-35">
          <path fill="none" d="M0,-25.86 L0,25.86 " class="primitive"/>
        </g>
        <g transform="translate(120.72,27.86)" id="img-d6fab2f5-36">
          <path fill="none" d="M0,-25.86 L0,25.86 " class="primitive"/>
        </g>
        <g transform="translate(123.26,27.86)" id="img-d6fab2f5-37">
          <path fill="none" d="M0,-25.86 L0,25.86 " class="primitive"/>
        </g>
        <g transform="translate(125.8,27.86)" id="img-d6fab2f5-38">
          <path fill="none" d="M0,-25.86 L0,25.86 " class="primitive"/>
        </g>
        <g transform="translate(128.33,27.86)" id="img-d6fab2f5-39">
          <path fill="none" d="M0,-25.86 L0,25.86 " class="primitive"/>
        </g>
        <g transform="translate(130.87,27.86)" id="img-d6fab2f5-40">
          <path fill="none" d="M0,-25.86 L0,25.86 " class="primitive"/>
        </g>
        <g transform="translate(133.41,27.86)" id="img-d6fab2f5-41">
          <path fill="none" d="M0,-25.86 L0,25.86 " class="primitive"/>
        </g>
        <g transform="translate(135.95,27.86)" id="img-d6fab2f5-42">
          <path fill="none" d="M0,-25.86 L0,25.86 " class="primitive"/>
        </g>
        <g transform="translate(138.48,27.86)" id="img-d6fab2f5-43">
          <path fill="none" d="M0,-25.86 L0,25.86 " class="primitive"/>
        </g>
        <g transform="translate(141.02,27.86)" id="img-d6fab2f5-44">
          <path fill="none" d="M0,-25.86 L0,25.86 " class="primitive"/>
        </g>
        <g transform="translate(143.56,27.86)" id="img-d6fab2f5-45">
          <path fill="none" d="M0,-25.86 L0,25.86 " class="primitive"/>
        </g>
        <g transform="translate(146.1,27.86)" id="img-d6fab2f5-46">
          <path fill="none" d="M0,-25.86 L0,25.86 " class="primitive"/>
        </g>
      </g>
      <g class="plotpanel" id="img-d6fab2f5-47">
        <metadata>
          <boundingbox value="100.95833333333333mm 2.0mm 47.138333333333335mm 51.715mm"/>
          <unitbox value="0.7211837885871035 26.047888504663103 1.857632422825793 -27.095777009326206"/>
        </metadata>
        <g stroke-width="0.3" fill="#000000" fill-opacity="0.000" class="geometry" id="img-d6fab2f5-48">
          <g transform="translate(138.04,51.03)" id="img-d6fab2f5-49" stroke-dasharray="none" stroke="#000000" class="color_Truth">
            <path fill="none" d="M-34.81,0.68 L-34.27,0.68 -34.27,0.68 -33.7,0.68 -33.7,0.68 -33.12,0.68 -33.12,0.68 -32.52,0.68 -32.52,0.68 -31.91,0.68 -31.91,0.68 -31.27,0.68 -31.27,0.68 -30.62,0.68 -30.62,0.68 -29.94,0.68 -29.94,0.68 -29.25,0.68 -29.25,0.68 -28.53,0.68 -28.53,0.68 -27.79,0.68 -27.79,0.68 -27.02,0.68 -27.02,0.68 -26.23,0.68 -26.23,0.68 -25.42,0.68 -25.42,0.68 -24.58,0.68 -24.58,0.68 -23.71,0.68 -23.71,0.68 -22.82,0.68 -22.82,0.68 -21.89,0.68 -21.89,0.68 -20.94,0.68 -20.94,0.68 -19.95,0.68 -19.95,0.68 -18.93,0.68 -18.93,0.68 -17.87,0.68 -17.87,0.68 -16.77,0.68 -16.77,0.68 -15.64,0.68 -15.64,0.68 -14.47,0.68 -14.47,-39.97 -13.26,-39.97 -13.26,0.68 -12,0.68 -12,0.68 -10.7,0.68 -10.7,0.68 -9.36,0.68 -9.36,0.68 -7.96,0.68 -7.96,0.68 -6.51,0.68 -6.51,0.68 -5.01,0.68 -5.01,0.68 -3.45,0.68 -3.45,0.68 -1.83,0.68 -1.83,0.68 -0.15,0.68 -0.15,0.68 1.59,0.68 1.59,0.68 3.4,0.68 3.4,0.68 5.28,0.68 5.28,0.68 7.24,0.68 7.24,0.68 9.27,0.68 9.27,0.68 11.39,0.68 11.39,0.68 13.59,0.68 13.59,0.68 15.88,0.68 15.88,0.68 18.27,0.68 18.27,0.68 20.75,0.68 20.75,0.68 23.34,0.68 23.34,0.68 26.04,0.68 26.04,0.68 28.85,0.68 28.85,0.68 31.78,0.68 31.78,0.68 34.84,0.68 34.84,0.68 38.03,0.68 38.03,0.68 41.36,0.68 41.36,0.68 44.83,0.68 44.83,0.68 48.46,0.68 48.46,0.68 52.25,0.68 52.25,0.68 56.2,0.68 56.2,0.68 60.33,0.68 60.33,0.68 64.65,0.68 64.65,0.68 69.16,0.68 69.16,0.68 " class="primitive"/>
          </g>
          <g transform="translate(138.04,50.96)" id="img-d6fab2f5-50" stroke-dasharray="none" stroke="#4F94CD" class="color_L0D1e-3B[0,1],_0.086">
            <path fill="none" d="M-34.81,0.69 L-34.27,0.69 -34.27,0.7 -33.7,0.7 -33.7,0.7 -33.12,0.7 -33.12,0.74 -32.52,0.74 -32.52,0.76 -31.91,0.76 -31.91,0.7 -31.27,0.7 -31.27,0.7 -30.62,0.7 -30.62,0.7 -29.94,0.7 -29.94,0.7 -29.25,0.7 -29.25,0.72 -28.53,0.72 -28.53,0.76 -27.79,0.76 -27.79,0.73 -27.02,0.73 -27.02,0.7 -26.23,0.7 -26.23,0.7 -25.42,0.7 -25.42,0.7 -24.58,0.7 -24.58,0.61 -23.71,0.61 -23.71,0.37 -22.82,0.37 -22.82,0.76 -21.89,0.76 -21.89,0.62 -20.94,0.62 -20.94,0.71 -19.95,0.71 -19.95,0.71 -18.93,0.71 -18.93,0.71 -17.87,0.71 -17.87,0.76 -16.77,0.76 -16.77,0.76 -15.64,0.76 -15.64,-15.51 -14.47,-15.51 -14.47,-18.76 -13.26,-18.76 -13.26,-4.49 -12,-4.49 -12,-0.7 -10.7,-0.7 -10.7,0.12 -9.36,0.12 -9.36,0.72 -7.96,0.72 -7.96,0.73 -6.51,0.73 -6.51,0.73 -5.01,0.73 -5.01,0.69 -3.45,0.69 -3.45,0.76 -1.83,0.76 -1.83,0.73 -0.15,0.73 -0.15,0.73 1.59,0.73 1.59,0.73 3.4,0.73 3.4,0.73 5.28,0.73 5.28,0.74 7.24,0.74 7.24,0.76 9.27,0.76 9.27,0.76 11.39,0.76 11.39,0.74 13.59,0.74 13.59,0.75 15.88,0.75 15.88,0.75 18.27,0.75 18.27,0.75 20.75,0.75 20.75,0.75 23.34,0.75 23.34,0.75 26.04,0.75 26.04,0.75 28.85,0.75 28.85,0.75 31.78,0.75 31.78,0.75 34.84,0.75 34.84,0.75 38.03,0.75 38.03,0.75 41.36,0.75 41.36,0.75 44.83,0.75 44.83,0.75 48.46,0.75 48.46,0.75 52.25,0.75 52.25,0.75 56.2,0.75 56.2,0.75 60.33,0.75 60.33,0.75 64.65,0.75 64.65,0.75 69.16,0.75 69.16,0.76 " class="primitive"/>
          </g>
          <g transform="translate(138.04,50.81)" id="img-d6fab2f5-51" stroke-dasharray="none" stroke="#8B0000" class="color_L2x0B[0,1],_0.107">
            <path fill="none" d="M-34.81,0.91 L-34.27,0.91 -34.27,0.91 -33.7,0.91 -33.7,0.81 -33.12,0.81 -33.12,0.55 -32.52,0.55 -32.52,0.59 -31.91,0.59 -31.91,0.91 -31.27,0.91 -31.27,0.91 -30.62,0.91 -30.62,0.91 -29.94,0.91 -29.94,0.91 -29.25,0.91 -29.25,0.41 -28.53,0.41 -28.53,0.17 -27.79,0.17 -27.79,0.57 -27.02,0.57 -27.02,0.91 -26.23,0.91 -26.23,0.91 -25.42,0.91 -25.42,0.91 -24.58,0.91 -24.58,0.56 -23.71,0.56 -23.71,-0.56 -22.82,-0.56 -22.82,-0.57 -21.89,-0.57 -21.89,0.75 -20.94,0.75 -20.94,0.91 -19.95,0.91 -19.95,0.91 -18.93,0.91 -18.93,0.91 -17.87,0.91 -17.87,-1.61 -16.77,-1.61 -16.77,-6.18 -15.64,-6.18 -15.64,-9.78 -14.47,-9.78 -14.47,-10.44 -13.26,-10.44 -13.26,-8.15 -12,-8.15 -12,-3.91 -10.7,-3.91 -10.7,-0.47 -9.36,-0.47 -9.36,0.91 -7.96,0.91 -7.96,0.91 -6.51,0.91 -6.51,0.91 -5.01,0.91 -5.01,0.76 -3.45,0.76 -3.45,0.39 -1.83,0.39 -1.83,0.58 -0.15,0.58 -0.15,0.91 1.59,0.91 1.59,0.91 3.4,0.91 3.4,0.91 5.28,0.91 5.28,0.91 7.24,0.91 7.24,0.81 9.27,0.81 9.27,0.8 11.39,0.8 11.39,0.88 13.59,0.88 13.59,0.91 15.88,0.91 15.88,0.91 18.27,0.91 18.27,0.91 20.75,0.91 20.75,0.89 23.34,0.89 23.34,0.88 26.04,0.88 26.04,0.89 28.85,0.89 28.85,0.91 31.78,0.91 31.78,0.91 34.84,0.91 34.84,0.91 38.03,0.91 38.03,0.9 41.36,0.9 41.36,0.9 44.83,0.9 44.83,0.9 48.46,0.9 48.46,0.91 52.25,0.91 52.25,0.91 56.2,0.91 56.2,0.91 60.33,0.91 60.33,0.91 64.65,0.91 64.65,0.9 69.16,0.9 69.16,0.91 " class="primitive"/>
          </g>
          <g transform="translate(138.04,51.04)" id="img-d6fab2f5-52" stroke-dasharray="none" stroke="#B8860B" class="color_LSQ1,_0.001">
            <path fill="none" d="M-34.81,0.68 L-34.27,0.68 -34.27,0.68 -33.7,0.68 -33.7,0.68 -33.12,0.68 -33.12,0.68 -32.52,0.68 -32.52,0.68 -31.91,0.68 -31.91,0.68 -31.27,0.68 -31.27,0.68 -30.62,0.68 -30.62,0.68 -29.94,0.68 -29.94,0.68 -29.25,0.68 -29.25,0.68 -28.53,0.68 -28.53,0.68 -27.79,0.68 -27.79,0.68 -27.02,0.68 -27.02,0.68 -26.23,0.68 -26.23,0.68 -25.42,0.68 -25.42,0.68 -24.58,0.68 -24.58,0.68 -23.71,0.68 -23.71,0.68 -22.82,0.68 -22.82,0.68 -21.89,0.68 -21.89,0.68 -20.94,0.68 -20.94,0.68 -19.95,0.68 -19.95,0.68 -18.93,0.68 -18.93,0.68 -17.87,0.68 -17.87,0.68 -16.77,0.68 -16.77,0.68 -15.64,0.68 -15.64,0.68 -14.47,0.68 -14.47,-39.76 -13.26,-39.76 -13.26,0.68 -12,0.68 -12,0.68 -10.7,0.68 -10.7,0.68 -9.36,0.68 -9.36,0.68 -7.96,0.68 -7.96,0.68 -6.51,0.68 -6.51,0.68 -5.01,0.68 -5.01,0.68 -3.45,0.68 -3.45,0.68 -1.83,0.68 -1.83,0.68 -0.15,0.68 -0.15,0.68 1.59,0.68 1.59,0.68 3.4,0.68 3.4,0.68 5.28,0.68 5.28,0.68 7.24,0.68 7.24,0.68 9.27,0.68 9.27,0.68 11.39,0.68 11.39,0.68 13.59,0.68 13.59,0.68 15.88,0.68 15.88,0.68 18.27,0.68 18.27,0.68 20.75,0.68 20.75,0.68 23.34,0.68 23.34,0.68 26.04,0.68 26.04,0.68 28.85,0.68 28.85,0.68 31.78,0.68 31.78,0.68 34.84,0.68 34.84,0.68 38.03,0.68 38.03,0.68 41.36,0.68 41.36,0.68 44.83,0.68 44.83,0.68 48.46,0.68 48.46,0.68 52.25,0.68 52.25,0.68 56.2,0.68 56.2,0.68 60.33,0.68 60.33,0.68 64.65,0.68 64.65,0.68 69.16,0.68 69.16,0.68 " class="primitive"/>
          </g>
        </g>
      </g>
    </g>
  </g>
  <g class="guide ylabels" font-size="2.82" font-family="'PT Sans Caption','Helvetica Neue','Helvetica',sans-serif" fill="#6C606B" id="img-d6fab2f5-53">
    <g transform="translate(99.96,51.72)" id="img-d6fab2f5-54">
      <g class="primitive">
        <text text-anchor="end" dy="0.35em">0</text>
      </g>
    </g>
    <g transform="translate(99.96,42.17)" id="img-d6fab2f5-55">
      <g class="primitive">
        <text text-anchor="end" dy="0.35em">5</text>
      </g>
    </g>
    <g transform="translate(99.96,32.63)" id="img-d6fab2f5-56">
      <g class="primitive">
        <text text-anchor="end" dy="0.35em">10</text>
      </g>
    </g>
    <g transform="translate(99.96,23.09)" id="img-d6fab2f5-57">
      <g class="primitive">
        <text text-anchor="end" dy="0.35em">15</text>
      </g>
    </g>
    <g transform="translate(99.96,13.54)" id="img-d6fab2f5-58">
      <g class="primitive">
        <text text-anchor="end" dy="0.35em">20</text>
      </g>
    </g>
    <g transform="translate(99.96,4)" id="img-d6fab2f5-59">
      <g class="primitive">
        <text text-anchor="end" dy="0.35em">25</text>
      </g>
    </g>
  </g>
  <g font-size="3.88" font-family="'PT Sans','Helvetica Neue','Helvetica',sans-serif" fill="#564A55" stroke="#000000" stroke-opacity="0.000" id="img-d6fab2f5-60">
    <g transform="translate(91.81,25.86)" id="img-d6fab2f5-61">
      <g class="primitive">
        <text text-anchor="middle" dy="0.35em" transform="rotate(-90,0, 2)">Probability Density (-)</text>
      </g>
    </g>
  </g>
</g>
<g class="plotroot xscalable yscalable" id="img-d6fab2f5-62">
  <g font-size="3.88" font-family="'PT Sans','Helvetica Neue','Helvetica',sans-serif" fill="#564A55" stroke="#000000" stroke-opacity="0.000" id="img-d6fab2f5-63">
    <g transform="translate(37.03,61.39)" id="img-d6fab2f5-64">
      <g class="primitive">
        <text text-anchor="middle" dy="0.6em">Apparent Growth Factor (-)</text>
      </g>
    </g>
  </g>
  <g class="guide xlabels" font-size="2.82" font-family="'PT Sans Caption','Helvetica Neue','Helvetica',sans-serif" fill="#6C606B" id="img-d6fab2f5-65">
    <g transform="translate(14.96,54.72)" id="img-d6fab2f5-66">
      <g class="primitive">
        <text text-anchor="middle" dy="0.6em"></text>
      </g>
    </g>
    <g transform="translate(17.55,54.72)" id="img-d6fab2f5-67">
      <g class="primitive">
        <text text-anchor="middle" dy="0.6em"></text>
      </g>
    </g>
    <g transform="translate(20.15,54.72)" id="img-d6fab2f5-68">
      <g class="primitive">
        <text text-anchor="middle" dy="0.6em">1.0</text>
      </g>
    </g>
    <g transform="translate(22.75,54.72)" id="img-d6fab2f5-69">
      <g class="primitive">
        <text text-anchor="middle" dy="0.6em"></text>
      </g>
    </g>
    <g transform="translate(25.34,54.72)" id="img-d6fab2f5-70">
      <g class="primitive">
        <text text-anchor="middle" dy="0.6em"></text>
      </g>
    </g>
    <g transform="translate(27.94,54.72)" id="img-d6fab2f5-71">
      <g class="primitive">
        <text text-anchor="middle" dy="0.6em"></text>
      </g>
    </g>
    <g transform="translate(30.54,54.72)" id="img-d6fab2f5-72">
      <g class="primitive">
        <text text-anchor="middle" dy="0.6em"></text>
      </g>
    </g>
    <g transform="translate(33.13,54.72)" id="img-d6fab2f5-73">
      <g class="primitive">
        <text text-anchor="middle" dy="0.6em">1.5</text>
      </g>
    </g>
    <g transform="translate(35.73,54.72)" id="img-d6fab2f5-74">
      <g class="primitive">
        <text text-anchor="middle" dy="0.6em"></text>
      </g>
    </g>
    <g transform="translate(38.33,54.72)" id="img-d6fab2f5-75">
      <g class="primitive">
        <text text-anchor="middle" dy="0.6em"></text>
      </g>
    </g>
    <g transform="translate(40.92,54.72)" id="img-d6fab2f5-76">
      <g class="primitive">
        <text text-anchor="middle" dy="0.6em"></text>
      </g>
    </g>
    <g transform="translate(43.52,54.72)" id="img-d6fab2f5-77">
      <g class="primitive">
        <text text-anchor="middle" dy="0.6em"></text>
      </g>
    </g>
    <g transform="translate(46.11,54.72)" id="img-d6fab2f5-78">
      <g class="primitive">
        <text text-anchor="middle" dy="0.6em">2.0</text>
      </g>
    </g>
    <g transform="translate(48.71,54.72)" id="img-d6fab2f5-79">
      <g class="primitive">
        <text text-anchor="middle" dy="0.6em"></text>
      </g>
    </g>
    <g transform="translate(51.31,54.72)" id="img-d6fab2f5-80">
      <g class="primitive">
        <text text-anchor="middle" dy="0.6em"></text>
      </g>
    </g>
    <g transform="translate(53.9,54.72)" id="img-d6fab2f5-81">
      <g class="primitive">
        <text text-anchor="middle" dy="0.6em"></text>
      </g>
    </g>
    <g transform="translate(56.5,54.72)" id="img-d6fab2f5-82">
      <g class="primitive">
        <text text-anchor="middle" dy="0.6em"></text>
      </g>
    </g>
    <g transform="translate(59.1,54.72)" id="img-d6fab2f5-83">
      <g class="primitive">
        <text text-anchor="middle" dy="0.6em">2.5</text>
      </g>
    </g>
  </g>
  <g class="guide colorkey" id="img-d6fab2f5-84">
    <g fill="#4C404B" font-size="2.82" font-family="'PT Sans','Helvetica Neue','Helvetica',sans-serif" id="img-d6fab2f5-85">
      <g transform="translate(65.57,22.92)" id="img-d6fab2f5-86" class="color_Input">
        <g class="primitive">
          <text dy="0.35em">Input</text>
        </g>
      </g>
      <g transform="translate(65.57,27.86)" id="img-d6fab2f5-87" class="color_𝐁*L2x0B[0,1]">
        <g class="primitive">
          <text dy="0.35em">𝐁*L<tspan dy="0.4em" font-size="83%">2</tspan><tspan dy="-0.3320em">x</tspan><tspan dy="0.4em" font-size="83%">0</tspan><tspan dy="-0.3320em">B</tspan><tspan dy="0.4em" font-size="83%">[0,1]</tspan></text>
        </g>
      </g>
      <g transform="translate(65.57,32.8)" id="img-d6fab2f5-88" class="color_𝐁*L0D1e-3B[0,1]">
        <g class="primitive">
          <text dy="0.35em">𝐁*L<tspan dy="0.4em" font-size="83%">0</tspan><tspan dy="-0.3320em">D</tspan><tspan dy="0.4em" font-size="83%">1e-3</tspan><tspan dy="-0.3320em">B</tspan><tspan dy="0.4em" font-size="83%">[0,1]</tspan></text>
        </g>
      </g>
      <g transform="translate(65.57,37.74)" id="img-d6fab2f5-89" class="color_𝐁*LSQ1">
        <g class="primitive">
          <text dy="0.35em">𝐁*LSQ<tspan dy="0.4em" font-size="83%">1</tspan></text>
        </g>
      </g>
    </g>
    <g fill-opacity="1" id="img-d6fab2f5-90">
      <g transform="translate(63.33,22.92)" id="img-d6fab2f5-91" fill="#000000" stroke="#FFFFFF" class="color_Input">
        <path d="M-1.24,-1.24 L1.24,-1.24 1.24,1.24 -1.24,1.24  z" class="primitive"/>
      </g>
      <g transform="translate(63.33,27.86)" id="img-d6fab2f5-92" fill="#8B0000" stroke="#FFFFFF" class="color_𝐁*L2x0B[0,1]">
        <path d="M-1.24,-1.24 L1.24,-1.24 1.24,1.24 -1.24,1.24  z" class="primitive"/>
      </g>
      <g transform="translate(63.33,32.8)" id="img-d6fab2f5-93" fill="#4F94CD" stroke="#FFFFFF" class="color_𝐁*L0D1e-3B[0,1]">
        <path d="M-1.24,-1.24 L1.24,-1.24 1.24,1.24 -1.24,1.24  z" class="primitive"/>
      </g>
      <g transform="translate(63.33,37.74)" id="img-d6fab2f5-94" fill="#B8860B" stroke="#FFFFFF" class="color_𝐁*LSQ1">
        <path d="M-1.24,-1.24 L1.24,-1.24 1.24,1.24 -1.24,1.24  z" class="primitive"/>
      </g>
    </g>
    <g fill="#362A35" font-size="3.88" font-family="'PT Sans','Helvetica Neue','Helvetica',sans-serif" stroke="#000000" stroke-opacity="0.000" id="img-d6fab2f5-95">
      <g transform="translate(62.1,17.78)" id="img-d6fab2f5-96">
        <g class="primitive">
          <text dy="-0em"></text>
        </g>
      </g>
    </g>
  </g>
  <g clip-path="url(#img-d6fab2f5-97)">
    <g id="img-d6fab2f5-98">
      <g pointer-events="visible" stroke-width="0.3" fill="#000000" fill-opacity="0.000" stroke="#000000" stroke-opacity="0.000" class="guide background" id="img-d6fab2f5-99">
        <g transform="translate(37.03,27.86)" id="img-d6fab2f5-100">
          <path d="M-24.07,-25.86 L24.07,-25.86 24.07,25.86 -24.07,25.86  z" class="primitive"/>
        </g>
      </g>
      <g class="guide ygridlines xfixed" stroke-dasharray="0.5,0.5" stroke-width="0.2" stroke="#D0D0E0" id="img-d6fab2f5-101">
        <g transform="translate(37.03,51.72)" id="img-d6fab2f5-102">
          <path fill="none" d="M-24.07,0 L24.07,0 " class="primitive"/>
        </g>
        <g transform="translate(37.03,42.17)" id="img-d6fab2f5-103">
          <path fill="none" d="M-24.07,0 L24.07,0 " class="primitive"/>
        </g>
        <g transform="translate(37.03,32.63)" id="img-d6fab2f5-104">
          <path fill="none" d="M-24.07,0 L24.07,0 " class="primitive"/>
        </g>
        <g transform="translate(37.03,23.09)" id="img-d6fab2f5-105">
          <path fill="none" d="M-24.07,0 L24.07,0 " class="primitive"/>
        </g>
        <g transform="translate(37.03,13.54)" id="img-d6fab2f5-106">
          <path fill="none" d="M-24.07,0 L24.07,0 " class="primitive"/>
        </g>
        <g transform="translate(37.03,4)" id="img-d6fab2f5-107">
          <path fill="none" d="M-24.07,0 L24.07,0 " class="primitive"/>
        </g>
      </g>
      <g class="guide xgridlines yfixed" stroke-dasharray="0.5,0.5" stroke-width="0.2" stroke="#D0D0E0" id="img-d6fab2f5-108">
        <g transform="translate(14.96,27.86)" id="img-d6fab2f5-109">
          <path fill="none" d="M0,-25.86 L0,25.86 " class="primitive"/>
        </g>
        <g transform="translate(17.55,27.86)" id="img-d6fab2f5-110">
          <path fill="none" d="M0,-25.86 L0,25.86 " class="primitive"/>
        </g>
        <g transform="translate(20.15,27.86)" id="img-d6fab2f5-111">
          <path fill="none" d="M0,-25.86 L0,25.86 " class="primitive"/>
        </g>
        <g transform="translate(22.75,27.86)" id="img-d6fab2f5-112">
          <path fill="none" d="M0,-25.86 L0,25.86 " class="primitive"/>
        </g>
        <g transform="translate(25.34,27.86)" id="img-d6fab2f5-113">
          <path fill="none" d="M0,-25.86 L0,25.86 " class="primitive"/>
        </g>
        <g transform="translate(27.94,27.86)" id="img-d6fab2f5-114">
          <path fill="none" d="M0,-25.86 L0,25.86 " class="primitive"/>
        </g>
        <g transform="translate(30.54,27.86)" id="img-d6fab2f5-115">
          <path fill="none" d="M0,-25.86 L0,25.86 " class="primitive"/>
        </g>
        <g transform="translate(33.13,27.86)" id="img-d6fab2f5-116">
          <path fill="none" d="M0,-25.86 L0,25.86 " class="primitive"/>
        </g>
        <g transform="translate(35.73,27.86)" id="img-d6fab2f5-117">
          <path fill="none" d="M0,-25.86 L0,25.86 " class="primitive"/>
        </g>
        <g transform="translate(38.33,27.86)" id="img-d6fab2f5-118">
          <path fill="none" d="M0,-25.86 L0,25.86 " class="primitive"/>
        </g>
        <g transform="translate(40.92,27.86)" id="img-d6fab2f5-119">
          <path fill="none" d="M0,-25.86 L0,25.86 " class="primitive"/>
        </g>
        <g transform="translate(43.52,27.86)" id="img-d6fab2f5-120">
          <path fill="none" d="M0,-25.86 L0,25.86 " class="primitive"/>
        </g>
        <g transform="translate(46.11,27.86)" id="img-d6fab2f5-121">
          <path fill="none" d="M0,-25.86 L0,25.86 " class="primitive"/>
        </g>
        <g transform="translate(48.71,27.86)" id="img-d6fab2f5-122">
          <path fill="none" d="M0,-25.86 L0,25.86 " class="primitive"/>
        </g>
        <g transform="translate(51.31,27.86)" id="img-d6fab2f5-123">
          <path fill="none" d="M0,-25.86 L0,25.86 " class="primitive"/>
        </g>
        <g transform="translate(53.9,27.86)" id="img-d6fab2f5-124">
          <path fill="none" d="M0,-25.86 L0,25.86 " class="primitive"/>
        </g>
        <g transform="translate(56.5,27.86)" id="img-d6fab2f5-125">
          <path fill="none" d="M0,-25.86 L0,25.86 " class="primitive"/>
        </g>
        <g transform="translate(59.1,27.86)" id="img-d6fab2f5-126">
          <path fill="none" d="M0,-25.86 L0,25.86 " class="primitive"/>
        </g>
      </g>
      <g class="plotpanel" id="img-d6fab2f5-127">
        <metadata>
          <boundingbox value="12.958333333333329mm 2.0mm 48.13833333333334mm 51.715mm"/>
          <unitbox value="0.7229694521013481 26.047888504663103 1.854061095797304 -27.095777009326206"/>
        </metadata>
        <g stroke-width="0.3" fill="#000000" fill-opacity="0.000" class="geometry" id="img-d6fab2f5-128">
          <g transform="translate(50.85,47.23)" id="img-d6fab2f5-129" stroke-dasharray="none" stroke="#000000" class="color_Input">
            <path fill="none" d="M-35.62,4.48 L-35.06,4.48 -35.06,4.48 -34.48,4.48 -34.48,4.48 -33.89,4.48 -33.89,4.48 -33.28,4.48 -33.28,4.48 -32.65,4.48 -32.65,4.48 -32,4.48 -32,4.48 -31.33,4.48 -31.33,4.48 -30.64,4.48 -30.64,4.48 -29.92,4.48 -29.92,4.48 -29.19,4.48 -29.19,4.48 -28.43,4.48 -28.43,4.48 -27.65,4.48 -27.65,4.48 -26.84,4.48 -26.84,4.48 -26.01,4.48 -26.01,4.48 -25.15,4.48 -25.15,4.48 -24.26,4.48 -24.26,4.37 -23.35,4.37 -23.35,4.31 -22.4,4.31 -22.4,2.99 -21.42,2.99 -21.42,0.87 -20.41,0.87 -20.41,-3.82 -19.36,-3.82 -19.36,-10.92 -18.28,-10.92 -18.28,-20.25 -17.16,-20.25 -17.16,-27.01 -16.01,-27.01 -16.01,-33.02 -14.81,-33.02 -14.81,-34.34 -13.57,-34.34 -13.57,-31.31 -12.28,-31.31 -12.28,-22.55 -10.95,-22.55 -10.95,-16.13 -9.57,-16.13 -9.57,-7.66 -8.14,-7.66 -8.14,-1.47 -6.66,-1.47 -6.66,1.73 -5.12,1.73 -5.12,4.02 -3.53,4.02 -3.53,4.25 -1.88,4.25 -1.88,4.48 -0.16,4.48 -0.16,4.48 1.63,4.48 1.63,4.48 3.48,4.48 3.48,4.48 5.41,4.48 5.41,4.48 7.41,4.48 7.41,4.48 9.49,4.48 9.49,4.48 11.65,4.48 11.65,4.48 13.91,4.48 13.91,4.48 16.25,4.48 16.25,4.48 18.69,4.48 18.69,4.48 21.24,4.48 21.24,4.48 23.88,4.48 23.88,4.48 26.64,4.48 26.64,4.48 29.52,4.48 29.52,4.48 32.52,4.48 32.52,4.48 35.65,4.48 35.65,4.48 38.91,4.48 38.91,4.48 42.32,4.48 42.32,4.48 45.87,4.48 45.87,4.48 49.58,4.48 49.58,4.48 53.46,4.48 53.46,4.48 57.5,4.48 57.5,4.48 61.73,4.48 61.73,4.48 66.15,4.48 66.15,4.48 70.77,4.48 70.77,4.48 " class="primitive"/>
          </g>
          <g transform="translate(50.85,46.82)" id="img-d6fab2f5-130" stroke-dasharray="none" stroke="#4F94CD" class="color_𝐁*L0D1e-3B[0,1]">
            <path fill="none" d="M-35.62,4.83 L-35.06,4.83 -35.06,4.81 -34.48,4.81 -34.48,4.79 -33.89,4.79 -33.89,4.78 -33.28,4.78 -33.28,4.77 -32.65,4.77 -32.65,4.76 -32,4.76 -32,4.75 -31.33,4.75 -31.33,4.75 -30.64,4.75 -30.64,4.74 -29.92,4.74 -29.92,4.73 -29.19,4.73 -29.19,4.71 -28.43,4.71 -28.43,4.66 -27.65,4.66 -27.65,4.6 -26.84,4.6 -26.84,4.51 -26.01,4.51 -26.01,4.42 -25.15,4.42 -25.15,4.34 -24.26,4.34 -24.26,4.18 -23.35,4.18 -23.35,3.7 -22.4,3.7 -22.4,2.37 -21.42,2.37 -21.42,-0.51 -20.41,-0.51 -20.41,-5.53 -19.36,-5.53 -19.36,-12.7 -18.28,-12.7 -18.28,-21.15 -17.16,-21.15 -17.16,-29.08 -16.01,-29.08 -16.01,-34.25 -14.81,-34.25 -14.81,-34.99 -13.57,-34.99 -13.57,-31.09 -12.28,-31.09 -12.28,-23.76 -10.95,-23.76 -10.95,-15.14 -9.57,-15.14 -9.57,-7.34 -8.14,-7.34 -8.14,-1.59 -6.66,-1.59 -6.66,1.92 -5.12,1.92 -5.12,3.67 -3.53,3.67 -3.53,4.37 -1.88,4.37 -1.88,4.61 -0.16,4.61 -0.16,4.69 1.63,4.69 1.63,4.72 3.48,4.72 3.48,4.74 5.41,4.74 5.41,4.76 7.41,4.76 7.41,4.78 9.49,4.78 9.49,4.79 11.65,4.79 11.65,4.79 13.91,4.79 13.91,4.79 16.25,4.79 16.25,4.79 18.69,4.79 18.69,4.8 21.24,4.8 21.24,4.8 23.88,4.8 23.88,4.8 26.64,4.8 26.64,4.8 29.52,4.8 29.52,4.8 32.52,4.8 32.52,4.8 35.65,4.8 35.65,4.8 38.91,4.8 38.91,4.8 42.32,4.8 42.32,4.8 45.87,4.8 45.87,4.79 49.58,4.79 49.58,4.79 53.46,4.79 53.46,4.8 57.5,4.8 57.5,4.8 61.73,4.8 61.73,4.82 66.15,4.82 66.15,4.84 70.77,4.84 70.77,4.86 " class="primitive"/>
          </g>
          <g transform="translate(50.85,45.93)" id="img-d6fab2f5-131" stroke-dasharray="none" stroke="#8B0000" class="color_𝐁*L2x0B[0,1]">
            <path fill="none" d="M-35.62,5.64 L-35.06,5.64 -35.06,5.56 -34.48,5.56 -34.48,5.48 -33.89,5.48 -33.89,5.41 -33.28,5.41 -33.28,5.35 -32.65,5.35 -32.65,5.29 -32,5.29 -32,5.21 -31.33,5.21 -31.33,5.11 -30.64,5.11 -30.64,4.98 -29.92,4.98 -29.92,4.84 -29.19,4.84 -29.19,4.71 -28.43,4.71 -28.43,4.57 -27.65,4.57 -27.65,4.38 -26.84,4.38 -26.84,4.11 -26.01,4.11 -26.01,3.76 -25.15,3.76 -25.15,3.35 -24.26,3.35 -24.26,2.83 -23.35,2.83 -23.35,1.98 -22.4,1.98 -22.4,0.31 -21.42,0.31 -21.42,-2.8 -20.41,-2.8 -20.41,-7.82 -19.36,-7.82 -19.36,-14.61 -18.28,-14.61 -18.28,-22.29 -17.16,-22.29 -17.16,-29.28 -16.01,-29.28 -16.01,-33.75 -14.81,-33.75 -14.81,-34.44 -13.57,-34.44 -13.57,-31.13 -12.28,-31.13 -12.28,-24.72 -10.95,-24.72 -10.95,-16.87 -9.57,-16.87 -9.57,-9.36 -8.14,-9.36 -8.14,-3.42 -6.66,-3.42 -6.66,0.55 -5.12,0.55 -5.12,2.79 -3.53,2.79 -3.53,3.89 -1.88,3.89 -1.88,4.42 -0.16,4.42 -0.16,4.72 1.63,4.72 1.63,4.96 3.48,4.96 3.48,5.15 5.41,5.15 5.41,5.27 7.41,5.27 7.41,5.35 9.49,5.35 9.49,5.4 11.65,5.4 11.65,5.45 13.91,5.45 13.91,5.51 16.25,5.51 16.25,5.57 18.69,5.57 18.69,5.61 21.24,5.61 21.24,5.64 23.88,5.64 23.88,5.66 26.64,5.66 26.64,5.68 29.52,5.68 29.52,5.7 32.52,5.7 32.52,5.71 35.65,5.71 35.65,5.73 38.91,5.73 38.91,5.73 42.32,5.73 42.32,5.74 45.87,5.74 45.87,5.74 49.58,5.74 49.58,5.75 53.46,5.75 53.46,5.76 57.5,5.76 57.5,5.76 61.73,5.76 61.73,5.77 66.15,5.77 66.15,5.77 70.77,5.77 70.77,5.77 " class="primitive"/>
          </g>
          <g transform="translate(50.85,47.28)" id="img-d6fab2f5-132" stroke-dasharray="none" stroke="#B8860B" class="color_𝐁*LSQ1">
            <path fill="none" d="M-35.62,4.43 L-35.06,4.43 -35.06,4.43 -34.48,4.43 -34.48,4.43 -33.89,4.43 -33.89,4.43 -33.28,4.43 -33.28,4.43 -32.65,4.43 -32.65,4.43 -32,4.43 -32,4.43 -31.33,4.43 -31.33,4.43 -30.64,4.43 -30.64,4.43 -29.92,4.43 -29.92,4.43 -29.19,4.43 -29.19,4.43 -28.43,4.43 -28.43,4.43 -27.65,4.43 -27.65,4.43 -26.84,4.43 -26.84,4.43 -26.01,4.43 -26.01,4.43 -25.15,4.43 -25.15,4.42 -24.26,4.42 -24.26,4.37 -23.35,4.37 -23.35,4.08 -22.4,4.08 -22.4,3.1 -21.42,3.1 -21.42,0.74 -20.41,0.74 -20.41,-3.71 -19.36,-3.71 -19.36,-10.46 -18.28,-10.46 -18.28,-18.88 -17.16,-18.88 -17.16,-27.29 -16.01,-27.29 -16.01,-33.31 -14.81,-33.31 -14.81,-34.86 -13.57,-34.86 -13.57,-31.38 -12.28,-31.38 -12.28,-24 -10.95,-24 -10.95,-15.04 -9.57,-15.04 -9.57,-6.86 -8.14,-6.86 -8.14,-0.98 -6.66,-0.98 -6.66,2.4 -5.12,2.4 -5.12,3.9 -3.53,3.9 -3.53,4.35 -1.88,4.35 -1.88,4.43 -0.16,4.43 -0.16,4.43 1.63,4.43 1.63,4.43 3.48,4.43 3.48,4.43 5.41,4.43 5.41,4.43 7.41,4.43 7.41,4.43 9.49,4.43 9.49,4.43 11.65,4.43 11.65,4.43 13.91,4.43 13.91,4.43 16.25,4.43 16.25,4.43 18.69,4.43 18.69,4.43 21.24,4.43 21.24,4.43 23.88,4.43 23.88,4.43 26.64,4.43 26.64,4.43 29.52,4.43 29.52,4.43 32.52,4.43 32.52,4.43 35.65,4.43 35.65,4.43 38.91,4.43 38.91,4.43 42.32,4.43 42.32,4.43 45.87,4.43 45.87,4.43 49.58,4.43 49.58,4.43 53.46,4.43 53.46,4.43 57.5,4.43 57.5,4.43 61.73,4.43 61.73,4.43 66.15,4.43 66.15,4.43 70.77,4.43 70.77,4.43 " class="primitive"/>
          </g>
        </g>
      </g>
    </g>
  </g>
  <g class="guide ylabels" font-size="2.82" font-family="'PT Sans Caption','Helvetica Neue','Helvetica',sans-serif" fill="#6C606B" id="img-d6fab2f5-133">
    <g transform="translate(11.96,51.72)" id="img-d6fab2f5-134">
      <g class="primitive">
        <text text-anchor="end" dy="0.35em">0</text>
      </g>
    </g>
    <g transform="translate(11.96,42.17)" id="img-d6fab2f5-135">
      <g class="primitive">
        <text text-anchor="end" dy="0.35em">5</text>
      </g>
    </g>
    <g transform="translate(11.96,32.63)" id="img-d6fab2f5-136">
      <g class="primitive">
        <text text-anchor="end" dy="0.35em">10</text>
      </g>
    </g>
    <g transform="translate(11.96,23.09)" id="img-d6fab2f5-137">
      <g class="primitive">
        <text text-anchor="end" dy="0.35em">15</text>
      </g>
    </g>
    <g transform="translate(11.96,13.54)" id="img-d6fab2f5-138">
      <g class="primitive">
        <text text-anchor="end" dy="0.35em">20</text>
      </g>
    </g>
    <g transform="translate(11.96,4)" id="img-d6fab2f5-139">
      <g class="primitive">
        <text text-anchor="end" dy="0.35em">25</text>
      </g>
    </g>
  </g>
  <g font-size="3.88" font-family="'PT Sans','Helvetica Neue','Helvetica',sans-serif" fill="#564A55" stroke="#000000" stroke-opacity="0.000" id="img-d6fab2f5-140">
    <g transform="translate(3.81,25.86)" id="img-d6fab2f5-141">
      <g class="primitive">
        <text text-anchor="middle" dy="0.35em" transform="rotate(-90,0, 2)">Concentration (cm⁻³)</text>
      </g>
    </g>
  </g>
</g>
<defs>
  <clipPath id="img-d6fab2f5-17">
    <path d="M100.96,2 L148.1,2 148.1,53.72 100.96,53.72 " />
  </clipPath>
  <clipPath id="img-d6fab2f5-97">
    <path d="M12.96,2 L61.1,2 61.1,53.72 12.96,53.72 " />
  </clipPath>
</defs>
</svg>
