<?xml version="1.0" encoding="UTF-8"?>
<svg xmlns="http://www.w3.org/2000/svg"
     xmlns:xlink="http://www.w3.org/1999/xlink"
     xmlns:gadfly="http://www.gadflyjl.org/ns"
     version="1.2"
     width="180mm" height="70mm" viewBox="0 0 180 70"
     stroke="none"
     fill="#000000"
     stroke-width="0.3"
     font-size="3.88"
>
<defs>
  <marker id="arrow" markerWidth="15" markerHeight="7" refX="5" refY="3.5" orient="auto" markerUnits="strokeWidth">
    <path d="M0,0 L15,3.5 L0,7 z" stroke="context-stroke" fill="context-stroke"/>
  </marker>
</defs>
<g class="plotroot xscalable yscalable" id="img-1603cc5e-1">
  <g font-size="3.88" font-family="'PT Sans','Helvetica Neue','Helvetica',sans-serif" fill="#564A55" stroke="#000000" stroke-opacity="0.000" id="img-1603cc5e-2">
    <g transform="translate(129.12,61.39)">
      <g class="primitive">
        <text text-anchor="middle" dy="0.6em">Mobility Diameter (nm)</text>
      </g>
    </g>
  </g>
  <g class="guide xlabels" font-size="2.82" font-family="'PT Sans Caption','Helvetica Neue','Helvetica',sans-serif" fill="#6C606B" id="img-1603cc5e-3">
    <g transform="translate(101.3,54.72)">
      <g class="primitive">
        <text text-anchor="middle" dy="0.6em">10</text>
      </g>
    </g>
    <g transform="translate(110.72,54.72)">
      <g class="primitive">
        <text text-anchor="middle" dy="0.6em"></text>
      </g>
    </g>
    <g transform="translate(116.23,54.72)">
      <g class="primitive">
        <text text-anchor="middle" dy="0.6em"></text>
      </g>
    </g>
    <g transform="translate(120.14,54.72)">
      <g class="primitive">
        <text text-anchor="middle" dy="0.6em"></text>
      </g>
    </g>
    <g transform="translate(123.18,54.72)">
      <g class="primitive">
        <text text-anchor="middle" dy="0.6em">50</text>
      </g>
    </g>
    <g transform="translate(125.65,54.72)">
      <g class="primitive">
        <text text-anchor="middle" dy="0.6em"></text>
      </g>
    </g>
    <g transform="translate(127.75,54.72)">
      <g class="primitive">
        <text text-anchor="middle" dy="0.6em"></text>
      </g>
    </g>
    <g transform="translate(129.56,54.72)">
      <g class="primitive">
        <text text-anchor="middle" dy="0.6em"></text>
      </g>
    </g>
    <g transform="translate(131.16,54.72)">
      <g class="primitive">
        <text text-anchor="middle" dy="0.6em"></text>
      </g>
    </g>
    <g transform="translate(132.59,54.72)">
      <g class="primitive">
        <text text-anchor="middle" dy="0.6em">100</text>
      </g>
    </g>
    <g transform="translate(142.01,54.72)">
      <g class="primitive">
        <text text-anchor="middle" dy="0.6em"></text>
      </g>
    </g>
    <g transform="translate(147.52,54.72)">
      <g class="primitive">
        <text text-anchor="middle" dy="0.6em"></text>
      </g>
    </g>
    <g transform="translate(151.43,54.72)">
      <g class="primitive">
        <text text-anchor="middle" dy="0.6em"></text>
      </g>
    </g>
    <g transform="translate(154.47,54.72)">
      <g class="primitive">
        <text text-anchor="middle" dy="0.6em">500</text>
      </g>
    </g>
    <g transform="translate(156.94,54.72)">
      <g class="primitive">
        <text text-anchor="middle" dy="0.6em"></text>
      </g>
    </g>
  </g>
  <g class="guide colorkey" id="img-1603cc5e-4">
    <g fill="#4C404B" font-size="2.82" font-family="'PT Sans','Helvetica Neue','Helvetica',sans-serif" id="img-1603cc5e-5">
      <g transform="translate(163.41,25.39)" id="img-1603cc5e-6" class="color_L₀x₀B[0,∞]">
        <g class="primitive">
          <text dy="0.35em">L₀x₀B<tspan dy="0.4em" font-size="83%">[0,∞]</tspan></text>
        </g>
      </g>
      <g transform="translate(163.41,30.33)" id="img-1603cc5e-7" class="color_L₂B[0,∞]">
        <g class="primitive">
          <text dy="0.35em">L₂B<tspan dy="0.4em" font-size="83%">[0,∞]</tspan></text>
        </g>
      </g>
      <g transform="translate(163.41,35.27)" id="img-1603cc5e-8" class="color_x₀">
        <g class="primitive">
          <text dy="0.35em">x₀</text>
        </g>
      </g>
    </g>
    <g fill-opacity="1" id="img-1603cc5e-9">
      <g transform="translate(161.18,25.39)" id="img-1603cc5e-10" class="color_L₀x₀B[0,∞]" fill="#000000" stroke="#FFFFFF">
        <path d="M-1.24,-1.24 L1.24,-1.24 1.24,1.24 -1.24,1.24  z" class="primitive"/>
      </g>
      <g transform="translate(161.18,30.33)" id="img-1603cc5e-11" class="color_L₂B[0,∞]" fill="#8B0000" stroke="#FFFFFF">
        <path d="M-1.24,-1.24 L1.24,-1.24 1.24,1.24 -1.24,1.24  z" class="primitive"/>
      </g>
      <g transform="translate(161.18,35.27)" id="img-1603cc5e-12" class="color_x₀" fill="#808080" stroke="#FFFFFF">
        <path d="M-1.24,-1.24 L1.24,-1.24 1.24,1.24 -1.24,1.24  z" class="primitive"/>
      </g>
    </g>
    <g fill="#362A35" font-size="3.88" font-family="'PT Sans','Helvetica Neue','Helvetica',sans-serif" stroke="#000000" stroke-opacity="0.000" id="img-1603cc5e-13">
      <g transform="translate(159.94,20.25)" id="img-1603cc5e-14">
        <g class="primitive">
          <text dy="-0em"></text>
        </g>
      </g>
    </g>
  </g>
  <g clip-path="url(#img-1603cc5e-15)">
    <g id="img-1603cc5e-16">
      <g pointer-events="visible" stroke-width="0.3" fill="#000000" fill-opacity="0.000" stroke="#000000" stroke-opacity="0.000" class="guide background" id="img-1603cc5e-17">
        <g transform="translate(129.12,27.86)" id="img-1603cc5e-18">
          <path d="M-29.82,-25.86 L29.82,-25.86 29.82,25.86 -29.82,25.86  z" class="primitive"/>
        </g>
      </g>
      <g class="guide ygridlines xfixed" stroke-dasharray="0.5,0.5" stroke-width="0.2" stroke="#D0D0E0" id="img-1603cc5e-19">
        <g transform="translate(129.12,51.72)" id="img-1603cc5e-20">
          <path fill="none" d="M-29.82,0 L29.82,0 " class="primitive"/>
        </g>
        <g transform="translate(129.12,35.81)" id="img-1603cc5e-21">
          <path fill="none" d="M-29.82,0 L29.82,0 " class="primitive"/>
        </g>
        <g transform="translate(129.12,19.9)" id="img-1603cc5e-22">
          <path fill="none" d="M-29.82,0 L29.82,0 " class="primitive"/>
        </g>
        <g transform="translate(129.12,4)" id="img-1603cc5e-23">
          <path fill="none" d="M-29.82,0 L29.82,0 " class="primitive"/>
        </g>
      </g>
      <g class="guide xgridlines yfixed" stroke-dasharray="0.5,0.5" stroke-width="0.2" stroke="#D0D0E0" id="img-1603cc5e-24">
        <g transform="translate(101.3,27.86)" id="img-1603cc5e-25">
          <path fill="none" d="M0,-25.86 L0,25.86 " class="primitive"/>
        </g>
        <g transform="translate(110.72,27.86)" id="img-1603cc5e-26">
          <path fill="none" d="M0,-25.86 L0,25.86 " class="primitive"/>
        </g>
        <g transform="translate(116.23,27.86)" id="img-1603cc5e-27">
          <path fill="none" d="M0,-25.86 L0,25.86 " class="primitive"/>
        </g>
        <g transform="translate(120.14,27.86)" id="img-1603cc5e-28">
          <path fill="none" d="M0,-25.86 L0,25.86 " class="primitive"/>
        </g>
        <g transform="translate(123.18,27.86)" id="img-1603cc5e-29">
          <path fill="none" d="M0,-25.86 L0,25.86 " class="primitive"/>
        </g>
        <g transform="translate(125.65,27.86)" id="img-1603cc5e-30">
          <path fill="none" d="M0,-25.86 L0,25.86 " class="primitive"/>
        </g>
        <g transform="translate(127.75,27.86)" id="img-1603cc5e-31">
          <path fill="none" d="M0,-25.86 L0,25.86 " class="primitive"/>
        </g>
        <g transform="translate(129.56,27.86)" id="img-1603cc5e-32">
          <path fill="none" d="M0,-25.86 L0,25.86 " class="primitive"/>
        </g>
        <g transform="translate(131.16,27.86)" id="img-1603cc5e-33">
          <path fill="none" d="M0,-25.86 L0,25.86 " class="primitive"/>
        </g>
        <g transform="translate(132.59,27.86)" id="img-1603cc5e-34">
          <path fill="none" d="M0,-25.86 L0,25.86 " class="primitive"/>
        </g>
        <g transform="translate(142.01,27.86)" id="img-1603cc5e-35">
          <path fill="none" d="M0,-25.86 L0,25.86 " class="primitive"/>
        </g>
        <g transform="translate(147.52,27.86)" id="img-1603cc5e-36">
          <path fill="none" d="M0,-25.86 L0,25.86 " class="primitive"/>
        </g>
        <g transform="translate(151.43,27.86)" id="img-1603cc5e-37">
          <path fill="none" d="M0,-25.86 L0,25.86 " class="primitive"/>
        </g>
        <g transform="translate(154.47,27.86)" id="img-1603cc5e-38">
          <path fill="none" d="M0,-25.86 L0,25.86 " class="primitive"/>
        </g>
        <g transform="translate(156.94,27.86)" id="img-1603cc5e-39">
          <path fill="none" d="M0,-25.86 L0,25.86 " class="primitive"/>
        </g>
      </g>
      <g class="plotpanel" id="img-1603cc5e-40">
        <metadata>
          <boundingbox value="99.30499999999999mm 2.0mm 59.638333333333335mm 51.715mm"/>
          <unitbox value="0.9360817931144483 1562.8733102797862 1.9059876641547469 -1625.7466205595724"/>
        </metadata>
        <g stroke-width="0.3" fill="#000000" fill-opacity="0.000" class="geometry" id="img-1603cc5e-41">
          <g transform="translate(127.92,34.48)" id="img-1603cc5e-42" stroke="#000000" class="color_L₀x₀B[0,∞]" stroke-dasharray="none">
            <path fill="none" d="M-23.95,17.23 L-23.57,17.23 -23.57,17.23 -23.19,17.23 -23.19,17.23 -22.82,17.23 -22.82,17.23 -22.44,17.23 -22.44,17.23 -22.06,17.23 -22.06,17.23 -21.68,17.23 -21.68,16.1 -21.31,16.1 -21.31,10.21 -20.93,10.21 -20.93,17.23 -20.55,17.23 -20.55,14.52 -20.17,14.52 -20.17,7.54 -19.8,7.54 -19.8,17.23 -19.42,17.23 -19.42,17.23 -19.04,17.23 -19.04,16.63 -18.66,16.63 -18.66,12.92 -18.28,12.92 -18.28,5.4 -17.9,5.4 -17.9,5.41 -17.52,5.41 -17.52,11.4 -17.14,11.4 -17.14,4.63 -16.76,4.63 -16.76,1.64 -16.38,1.64 -16.38,4.75 -16,4.75 -16,4.46 -15.62,4.46 -15.62,8.35 -15.23,8.35 -15.23,-4.23 -14.85,-4.23 -14.85,4.21 -14.47,4.21 -14.47,-4.84 -14.09,-4.84 -14.09,5.28 -13.7,5.28 -13.7,2.48 -13.32,2.48 -13.32,-0.12 -12.94,-0.12 -12.94,-1.86 -12.55,-1.86 -12.55,-9.65 -12.17,-9.65 -12.17,-5.28 -11.78,-5.28 -11.78,-18.12 -11.4,-18.12 -11.4,-4.98 -11.01,-4.98 -11.01,-3.35 -10.62,-3.35 -10.62,-4.76 -10.24,-4.76 -10.24,-5.2 -9.85,-5.2 -9.85,-2.39 -9.46,-2.39 -9.46,-24.06 -9.07,-24.06 -9.07,-13.57 -8.68,-13.57 -8.68,-12.44 -8.29,-12.44 -8.29,-6.95 -7.9,-6.95 -7.9,-10.08 -7.51,-10.08 -7.51,-9.35 -7.12,-9.35 -7.12,-9.53 -6.72,-9.53 -6.72,-8.74 -6.33,-8.74 -6.33,-20.31 -5.94,-20.31 -5.94,-12.78 -5.54,-12.78 -5.54,-6.49 -5.15,-6.49 -5.15,-4.08 -4.75,-4.08 -4.75,-13.35 -4.35,-13.35 -4.35,-13.58 -3.96,-13.58 -3.96,-15.16 -3.56,-15.16 -3.56,-23.14 -3.16,-23.14 -3.16,-23.71 -2.76,-23.71 -2.76,-18.43 -2.35,-18.43 -2.35,-16.23 -1.95,-16.23 -1.95,-12.09 -1.55,-12.09 -1.55,-27.8 -1.14,-27.8 -1.14,-23.9 -0.74,-23.9 -0.74,-17.96 -0.33,-17.96 -0.33,-20.91 0.08,-20.91 0.08,-22.66 0.49,-22.66 0.49,-22.84 0.9,-22.84 0.9,-20.04 1.31,-20.04 1.31,-24.35 1.73,-24.35 1.73,-21.46 2.14,-21.46 2.14,-22.31 2.56,-22.31 2.56,-20.33 2.98,-20.33 2.98,-19.76 3.4,-19.76 3.4,-15.82 3.82,-15.82 3.82,-11.04 4.24,-11.04 4.24,-7.61 4.67,-7.61 4.67,-16.81 5.09,-16.81 5.09,-5.98 5.52,-5.98 5.52,-12.58 5.95,-12.58 5.95,-8.58 6.38,-8.58 6.38,-8.7 6.82,-8.7 6.82,-12.33 7.26,-12.33 7.26,-7.29 7.7,-7.29 7.7,-0.86 8.14,-0.86 8.14,-4.16 8.58,-4.16 8.58,-1.93 9.03,-1.93 9.03,-3.37 9.48,-3.37 9.48,-1.59 9.93,-1.59 9.93,-0.57 10.38,-0.57 10.38,-4.97 10.84,-4.97 10.84,0.54 11.3,0.54 11.3,2.57 11.76,2.57 11.76,6.02 12.23,6.02 12.23,8.21 12.7,8.21 12.7,9.55 13.17,9.55 13.17,9.76 13.65,9.76 13.65,9.2 14.13,9.2 14.13,12.86 14.61,12.86 14.61,11.44 15.1,11.44 15.1,10.19 15.59,10.19 15.59,12.27 16.08,12.27 16.08,10.9 16.58,10.9 16.58,13.61 17.09,13.61 17.09,15.26 17.59,15.26 17.59,15.49 18.11,15.49 18.11,15.44 18.62,15.44 18.62,15.15 19.14,15.15 19.14,14.59 19.67,14.59 19.67,15.89 20.2,15.89 20.2,14.99 20.73,14.99 20.73,16.86 21.27,16.86 21.27,16.64 21.82,16.64 21.82,16.97 22.37,16.97 22.37,15.94 22.92,15.94 22.92,16.92 23.48,16.92 23.48,17.23 24.04,17.23 24.04,17.23 24.61,17.23 24.61,17.23 25.19,17.23 25.19,17.23 25.77,17.23 25.77,17.08 26.35,17.08 26.35,17.13 26.94,17.13 26.94,17.23 27.53,17.23 27.53,17.23 " class="primitive"/>
          </g>
          <g transform="translate(127.92,35.55)" id="img-1603cc5e-43" stroke="#808080" class="color_x₀" stroke-dasharray="none">
            <path fill="none" d="M-23.95,16.16 L-23.57,16.16 -23.57,16.16 -23.19,16.16 -23.19,16.16 -22.82,16.16 -22.82,16.16 -22.44,16.16 -22.44,16.16 -22.06,16.16 -22.06,16.16 -21.68,16.16 -21.68,15.02 -21.31,15.02 -21.31,9.13 -20.93,9.13 -20.93,16.16 -20.55,16.16 -20.55,13.43 -20.17,13.43 -20.17,6.41 -19.8,6.41 -19.8,16.16 -19.42,16.16 -19.42,16.16 -19.04,16.16 -19.04,15.42 -18.66,15.42 -18.66,11.72 -18.28,11.72 -18.28,4.22 -17.9,4.22 -17.9,4.26 -17.52,4.26 -17.52,10.26 -17.14,10.26 -17.14,3.49 -16.76,3.49 -16.76,0.48 -16.38,0.48 -16.38,3.56 -16,3.56 -16,3.26 -15.62,3.26 -15.62,7.19 -15.23,7.19 -15.23,-5.38 -14.85,-5.38 -14.85,2.99 -14.47,2.99 -14.47,-6.22 -14.09,-6.22 -14.09,3.71 -13.7,3.71 -13.7,0.81 -13.32,0.81 -13.32,-1.72 -12.94,-1.72 -12.94,-3.14 -12.55,-3.14 -12.55,-10.61 -12.17,-10.61 -12.17,-6.03 -11.78,-6.03 -11.78,-18.89 -11.4,-18.89 -11.4,-6.23 -11.01,-6.23 -11.01,-5.16 -10.62,-5.16 -10.62,-6.67 -10.24,-6.67 -10.24,-6.89 -9.85,-6.89 -9.85,-3.62 -9.46,-3.62 -9.46,-24.74 -9.07,-24.74 -9.07,-14.21 -8.68,-14.21 -8.68,-13.46 -8.29,-13.46 -8.29,-8.54 -7.9,-8.54 -7.9,-12.03 -7.51,-12.03 -7.51,-11.2 -7.12,-11.2 -7.12,-11.06 -6.72,-11.06 -6.72,-9.96 -6.33,-9.96 -6.33,-21.49 -5.94,-21.49 -5.94,-14.66 -5.54,-14.66 -5.54,-9.49 -5.15,-9.49 -5.15,-7.69 -4.75,-7.69 -4.75,-16.42 -4.35,-16.42 -4.35,-15.77 -3.96,-15.77 -3.96,-16.39 -3.56,-16.39 -3.56,-23.63 -3.16,-23.63 -3.16,-24.49 -2.76,-24.49 -2.76,-19.64 -2.35,-19.64 -2.35,-17.68 -1.95,-17.68 -1.95,-13.29 -1.55,-13.29 -1.55,-27.91 -1.14,-27.91 -1.14,-23.8 -0.74,-23.8 -0.74,-18.09 -0.33,-18.09 -0.33,-20.75 0.08,-20.75 0.08,-21.89 0.49,-21.89 0.49,-22.02 0.9,-22.02 0.9,-19.19 1.31,-19.19 1.31,-22.56 1.73,-22.56 1.73,-18.77 2.14,-18.77 2.14,-19.03 2.56,-19.03 2.56,-17.24 2.98,-17.24 2.98,-17.27 3.4,-17.27 3.4,-13.8 3.82,-13.8 3.82,-9.94 4.24,-9.94 4.24,-6.45 4.67,-6.45 4.67,-15.04 5.09,-15.04 5.09,-4.53 5.52,-4.53 5.52,-9.74 5.95,-9.74 5.95,-4.85 6.38,-4.85 6.38,-4.43 6.82,-4.43 6.82,-7.61 7.26,-7.61 7.26,-3.37 7.7,-3.37 7.7,2.34 8.14,2.34 8.14,-0.98 8.58,-0.98 8.58,1.23 9.03,1.23 9.03,0.19 9.48,0.19 9.48,2.24 9.93,2.24 9.93,4.3 10.38,4.3 10.38,0.74 10.84,0.74 10.84,5.19 11.3,5.19 11.3,6.19 11.76,6.19 11.76,8.58 12.23,8.58 12.23,10.3 12.7,10.3 12.7,10.91 13.17,10.91 13.17,10.69 13.65,10.69 13.65,10.09 14.13,10.09 14.13,13.42 14.61,13.42 14.61,12.52 15.1,12.52 15.1,11.68 15.59,11.68 15.59,13.54 16.08,13.54 16.08,12.12 16.58,12.12 16.58,14.29 17.09,14.29 17.09,15.15 17.59,15.15 17.59,14.97 18.11,14.97 18.11,14.84 18.62,14.84 18.62,14.75 19.14,14.75 19.14,14.17 19.67,14.17 19.67,15.54 20.2,15.54 20.2,14.63 20.73,14.63 20.73,16.16 21.27,16.16 21.27,15.92 21.82,15.92 21.82,16.16 22.37,16.16 22.37,15.07 22.92,15.07 22.92,15.91 23.48,15.91 23.48,16.16 24.04,16.16 24.04,16.16 24.61,16.16 24.61,16.16 25.19,16.16 25.19,16.16 25.77,16.16 25.77,16.16 26.35,16.16 26.35,16.16 26.94,16.16 26.94,16.16 27.53,16.16 27.53,15.79 " class="primitive"/>
          </g>
          <g transform="translate(127.92,34.4)" id="img-1603cc5e-44" stroke="#8B0000" class="color_L₂B[0,∞]" stroke-dasharray="none">
            <path fill="none" d="M-23.95,17.25 L-23.57,17.25 -23.57,17.13 -23.19,17.13 -23.19,16.95 -22.82,16.95 -22.82,16.71 -22.44,16.71 -22.44,16.41 -22.06,16.41 -22.06,16.06 -21.68,16.06 -21.68,15.66 -21.31,15.66 -21.31,15.2 -20.93,15.2 -20.93,14.69 -20.55,14.69 -20.55,14.14 -20.17,14.14 -20.17,13.53 -19.8,13.53 -19.8,12.88 -19.42,12.88 -19.42,12.19 -19.04,12.19 -19.04,11.45 -18.66,11.45 -18.66,10.68 -18.28,10.68 -18.28,9.86 -17.9,9.86 -17.9,9.02 -17.52,9.02 -17.52,8.15 -17.14,8.15 -17.14,7.26 -16.76,7.26 -16.76,6.35 -16.38,6.35 -16.38,5.43 -16,5.43 -16,4.49 -15.62,4.49 -15.62,3.54 -15.23,3.54 -15.23,2.6 -14.85,2.6 -14.85,1.65 -14.47,1.65 -14.47,0.7 -14.09,0.7 -14.09,-0.24 -13.7,-0.24 -13.7,-1.17 -13.32,-1.17 -13.32,-2.07 -12.94,-2.07 -12.94,-2.95 -12.55,-2.95 -12.55,-3.8 -12.17,-3.8 -12.17,-4.6 -11.78,-4.6 -11.78,-5.35 -11.4,-5.35 -11.4,-6.04 -11.01,-6.04 -11.01,-6.68 -10.62,-6.68 -10.62,-7.27 -10.24,-7.27 -10.24,-7.8 -9.85,-7.8 -9.85,-8.27 -9.46,-8.27 -9.46,-8.69 -9.07,-8.69 -9.07,-9.06 -8.68,-9.06 -8.68,-9.39 -8.29,-9.39 -8.29,-9.69 -7.9,-9.69 -7.9,-9.97 -7.51,-9.97 -7.51,-10.26 -7.12,-10.26 -7.12,-10.58 -6.72,-10.58 -6.72,-10.94 -6.33,-10.94 -6.33,-11.36 -5.94,-11.36 -5.94,-11.86 -5.54,-11.86 -5.54,-12.45 -5.15,-12.45 -5.15,-13.13 -4.75,-13.13 -4.75,-13.91 -4.35,-13.91 -4.35,-14.76 -3.96,-14.76 -3.96,-15.66 -3.56,-15.66 -3.56,-16.58 -3.16,-16.58 -3.16,-17.49 -2.76,-17.49 -2.76,-18.37 -2.35,-18.37 -2.35,-19.2 -1.95,-19.2 -1.95,-19.95 -1.55,-19.95 -1.55,-20.62 -1.14,-20.62 -1.14,-21.18 -0.74,-21.18 -0.74,-21.62 -0.33,-21.62 -0.33,-21.92 0.08,-21.92 0.08,-22.06 0.49,-22.06 0.49,-22.03 0.9,-22.03 0.9,-21.82 1.31,-21.82 1.31,-21.42 1.73,-21.42 1.73,-20.83 2.14,-20.83 2.14,-20.06 2.56,-20.06 2.56,-19.13 2.98,-19.13 2.98,-18.07 3.4,-18.07 3.4,-16.93 3.82,-16.93 3.82,-15.76 4.24,-15.76 4.24,-14.58 4.67,-14.58 4.67,-13.43 5.09,-13.43 5.09,-12.32 5.52,-12.32 5.52,-11.26 5.95,-11.26 5.95,-10.24 6.38,-10.24 6.38,-9.25 6.82,-9.25 6.82,-8.27 7.26,-8.27 7.26,-7.3 7.7,-7.3 7.7,-6.32 8.14,-6.32 8.14,-5.34 8.58,-5.34 8.58,-4.32 9.03,-4.32 9.03,-3.27 9.48,-3.27 9.48,-2.17 9.93,-2.17 9.93,-1.01 10.38,-1.01 10.38,0.23 10.84,0.23 10.84,1.52 11.3,1.52 11.3,2.86 11.76,2.86 11.76,4.21 12.23,4.21 12.23,5.53 12.7,5.53 12.7,6.8 13.17,6.8 13.17,7.98 13.65,7.98 13.65,9.05 14.13,9.05 14.13,10.02 14.61,10.02 14.61,10.89 15.1,10.89 15.1,11.67 15.59,11.67 15.59,12.38 16.08,12.38 16.08,13.02 16.58,13.02 16.58,13.62 17.09,13.62 17.09,14.16 17.59,14.16 17.59,14.66 18.11,14.66 18.11,15.11 18.62,15.11 18.62,15.51 19.14,15.51 19.14,15.85 19.67,15.85 19.67,16.15 20.2,16.15 20.2,16.41 20.73,16.41 20.73,16.62 21.27,16.62 21.27,16.81 21.82,16.81 21.82,16.96 22.37,16.96 22.37,17.09 22.92,17.09 22.92,17.19 23.48,17.19 23.48,17.26 24.04,17.26 24.04,17.31 24.61,17.31 24.61,17.31 25.19,17.31 25.19,17.31 25.77,17.31 25.77,17.31 26.35,17.31 26.35,17.31 26.94,17.31 26.94,17.31 27.53,17.31 27.53,17.31 " class="primitive"/>
          </g>
        </g>
      </g>
    </g>
  </g>
  <g class="guide ylabels" font-size="2.82" font-family="'PT Sans Caption','Helvetica Neue','Helvetica',sans-serif" fill="#6C606B" id="img-1603cc5e-45">
    <g transform="translate(98.3,51.72)" id="img-1603cc5e-46">
      <g class="primitive">
        <text text-anchor="end" dy="0.35em">0</text>
      </g>
    </g>
    <g transform="translate(98.3,35.81)" id="img-1603cc5e-47">
      <g class="primitive">
        <text text-anchor="end" dy="0.35em">500</text>
      </g>
    </g>
    <g transform="translate(98.3,19.9)" id="img-1603cc5e-48">
      <g class="primitive">
        <text text-anchor="end" dy="0.35em">1000</text>
      </g>
    </g>
    <g transform="translate(98.3,4)" id="img-1603cc5e-49">
      <g class="primitive">
        <text text-anchor="end" dy="0.35em">1500</text>
      </g>
    </g>
  </g>
  <g font-size="3.88" font-family="'PT Sans','Helvetica Neue','Helvetica',sans-serif" fill="#564A55" stroke="#000000" stroke-opacity="0.000" id="img-1603cc5e-50">
    <g transform="translate(86.81,25.86)" id="img-1603cc5e-51">
      <g class="primitive">
        <text text-anchor="middle" dy="0.35em" transform="rotate(-90,0, 2)">dN/dlnD (cm⁻³)</text>
      </g>
    </g>
  </g>
</g>
<g class="plotroot xscalable yscalable" id="img-1603cc5e-52">
  <g font-size="3.88" font-family="'PT Sans','Helvetica Neue','Helvetica',sans-serif" fill="#564A55" stroke="#000000" stroke-opacity="0.000" id="img-1603cc5e-53">
    <g transform="translate(44.98,61.39)" id="img-1603cc5e-54">
      <g class="primitive">
        <text text-anchor="middle" dy="0.6em">Apparent +1 Mobility Diameter (nm)</text>
      </g>
    </g>
  </g>
  <g class="guide xlabels" font-size="2.82" font-family="'PT Sans Caption','Helvetica Neue','Helvetica',sans-serif" fill="#6C606B" id="img-1603cc5e-55">
    <g transform="translate(16.96,54.71)" id="img-1603cc5e-56">
      <g class="primitive">
        <text text-anchor="middle" dy="0.6em">10</text>
      </g>
    </g>
    <g transform="translate(26.45,54.71)" id="img-1603cc5e-57">
      <g class="primitive">
        <text text-anchor="middle" dy="0.6em"></text>
      </g>
    </g>
    <g transform="translate(32,54.71)" id="img-1603cc5e-58">
      <g class="primitive">
        <text text-anchor="middle" dy="0.6em"></text>
      </g>
    </g>
    <g transform="translate(35.93,54.71)" id="img-1603cc5e-59">
      <g class="primitive">
        <text text-anchor="middle" dy="0.6em"></text>
      </g>
    </g>
    <g transform="translate(38.99,54.71)" id="img-1603cc5e-60">
      <g class="primitive">
        <text text-anchor="middle" dy="0.6em">50</text>
      </g>
    </g>
    <g transform="translate(41.48,54.71)" id="img-1603cc5e-61">
      <g class="primitive">
        <text text-anchor="middle" dy="0.6em"></text>
      </g>
    </g>
    <g transform="translate(43.59,54.71)" id="img-1603cc5e-62">
      <g class="primitive">
        <text text-anchor="middle" dy="0.6em"></text>
      </g>
    </g>
    <g transform="translate(45.42,54.71)" id="img-1603cc5e-63">
      <g class="primitive">
        <text text-anchor="middle" dy="0.6em"></text>
      </g>
    </g>
    <g transform="translate(47.03,54.71)" id="img-1603cc5e-64">
      <g class="primitive">
        <text text-anchor="middle" dy="0.6em"></text>
      </g>
    </g>
    <g transform="translate(48.48,54.71)" id="img-1603cc5e-65">
      <g class="primitive">
        <text text-anchor="middle" dy="0.6em">100</text>
      </g>
    </g>
    <g transform="translate(57.96,54.71)" id="img-1603cc5e-66">
      <g class="primitive">
        <text text-anchor="middle" dy="0.6em"></text>
      </g>
    </g>
    <g transform="translate(63.51,54.71)" id="img-1603cc5e-67">
      <g class="primitive">
        <text text-anchor="middle" dy="0.6em"></text>
      </g>
    </g>
    <g transform="translate(67.45,54.71)" id="img-1603cc5e-68">
      <g class="primitive">
        <text text-anchor="middle" dy="0.6em"></text>
      </g>
    </g>
    <g transform="translate(70.5,54.71)" id="img-1603cc5e-69">
      <g class="primitive">
        <text text-anchor="middle" dy="0.6em">500</text>
      </g>
    </g>
    <g transform="translate(73,54.71)" id="img-1603cc5e-70">
      <g class="primitive">
        <text text-anchor="middle" dy="0.6em"></text>
      </g>
    </g>
  </g>
  <g clip-path="url(#img-1603cc5e-71)">
    <g id="img-1603cc5e-72">
      <g pointer-events="visible" stroke-width="0.3" fill="#000000" fill-opacity="0.000" stroke="#000000" stroke-opacity="0.000" class="guide background" id="img-1603cc5e-73">
        <g transform="translate(44.98,27.86)" id="img-1603cc5e-74">
          <path d="M-30.02,-25.86 L30.02,-25.86 30.02,25.86 -30.02,25.86  z" class="primitive"/>
        </g>
      </g>
      <g class="guide ygridlines xfixed" stroke-dasharray="0.5,0.5" stroke-width="0.2" stroke="#D0D0E0" id="img-1603cc5e-75">
        <g transform="translate(44.98,51.71)" id="img-1603cc5e-76">
          <path fill="none" d="M-30.02,0 L30.02,0 " class="primitive"/>
        </g>
        <g transform="translate(44.98,42.17)" id="img-1603cc5e-77">
          <path fill="none" d="M-30.02,0 L30.02,0 " class="primitive"/>
        </g>
        <g transform="translate(44.98,32.63)" id="img-1603cc5e-78">
          <path fill="none" d="M-30.02,0 L30.02,0 " class="primitive"/>
        </g>
        <g transform="translate(44.98,23.09)" id="img-1603cc5e-79">
          <path fill="none" d="M-30.02,0 L30.02,0 " class="primitive"/>
        </g>
        <g transform="translate(44.98,13.54)" id="img-1603cc5e-80">
          <path fill="none" d="M-30.02,0 L30.02,0 " class="primitive"/>
        </g>
        <g transform="translate(44.98,4)" id="img-1603cc5e-81">
          <path fill="none" d="M-30.02,0 L30.02,0 " class="primitive"/>
        </g>
      </g>
      <g class="guide xgridlines yfixed" stroke-dasharray="0.5,0.5" stroke-width="0.2" stroke="#D0D0E0" id="img-1603cc5e-82">
        <g transform="translate(16.96,27.86)" id="img-1603cc5e-83">
          <path fill="none" d="M0,-25.86 L0,25.86 " class="primitive"/>
        </g>
        <g transform="translate(26.45,27.86)" id="img-1603cc5e-84">
          <path fill="none" d="M0,-25.86 L0,25.86 " class="primitive"/>
        </g>
        <g transform="translate(32,27.86)" id="img-1603cc5e-85">
          <path fill="none" d="M0,-25.86 L0,25.86 " class="primitive"/>
        </g>
        <g transform="translate(35.93,27.86)" id="img-1603cc5e-86">
          <path fill="none" d="M0,-25.86 L0,25.86 " class="primitive"/>
        </g>
        <g transform="translate(38.99,27.86)" id="img-1603cc5e-87">
          <path fill="none" d="M0,-25.86 L0,25.86 " class="primitive"/>
        </g>
        <g transform="translate(41.48,27.86)" id="img-1603cc5e-88">
          <path fill="none" d="M0,-25.86 L0,25.86 " class="primitive"/>
        </g>
        <g transform="translate(43.59,27.86)" id="img-1603cc5e-89">
          <path fill="none" d="M0,-25.86 L0,25.86 " class="primitive"/>
        </g>
        <g transform="translate(45.42,27.86)" id="img-1603cc5e-90">
          <path fill="none" d="M0,-25.86 L0,25.86 " class="primitive"/>
        </g>
        <g transform="translate(47.03,27.86)" id="img-1603cc5e-91">
          <path fill="none" d="M0,-25.86 L0,25.86 " class="primitive"/>
        </g>
        <g transform="translate(48.48,27.86)" id="img-1603cc5e-92">
          <path fill="none" d="M0,-25.86 L0,25.86 " class="primitive"/>
        </g>
        <g transform="translate(57.96,27.86)" id="img-1603cc5e-93">
          <path fill="none" d="M0,-25.86 L0,25.86 " class="primitive"/>
        </g>
        <g transform="translate(63.51,27.86)" id="img-1603cc5e-94">
          <path fill="none" d="M0,-25.86 L0,25.86 " class="primitive"/>
        </g>
        <g transform="translate(67.45,27.86)" id="img-1603cc5e-95">
          <path fill="none" d="M0,-25.86 L0,25.86 " class="primitive"/>
        </g>
        <g transform="translate(70.5,27.86)" id="img-1603cc5e-96">
          <path fill="none" d="M0,-25.86 L0,25.86 " class="primitive"/>
        </g>
        <g transform="translate(73,27.86)" id="img-1603cc5e-97">
          <path fill="none" d="M0,-25.86 L0,25.86 " class="primitive"/>
        </g>
      </g>
      <g class="plotpanel" id="img-1603cc5e-98">
        <metadata>
          <boundingbox value="14.958333333333329mm 2.0mm 60.04166666666667mm 51.714999999999996mm"/>
          <unitbox value="0.9365418141127027 52.095777009326206 1.9050676221582379 -54.19155401865241"/>
        </metadata>
        <g stroke-width="0.3" fill="#000000" fill-opacity="0.000" class="geometry" id="img-1603cc5e-99">
          <g class="color_RGB{N0f8}(0.0,0.0,0.0)" stroke-dasharray="none" stroke="#000000" id="img-1603cc5e-100">
            <g transform="translate(43.76,39.03)" id="img-1603cc5e-101">
              <path fill="none" d="M-24.12,12.69 L-23.74,12.69 -23.74,12.69 -23.36,12.69 -23.36,12.69 -22.98,12.69 -22.98,12.69 -22.6,12.69 -22.6,12.69 -22.22,12.69 -22.22,12.69 -21.84,12.69 -21.84,12.6 -21.46,12.6 -21.46,12.11 -21.08,12.11 -21.08,12.69 -20.7,12.69 -20.7,12.43 -20.32,12.43 -20.32,11.69 -19.94,11.69 -19.94,12.69 -19.56,12.69 -19.56,12.69 -19.18,12.69 -19.18,12.59 -18.79,12.59 -18.79,12.09 -18.41,12.09 -18.41,10.97 -18.03,10.97 -18.03,10.86 -17.65,10.86 -17.65,11.73 -17.26,11.73 -17.26,10.5 -16.88,10.5 -16.88,9.82 -16.5,9.82 -16.5,10.25 -16.11,10.25 -16.11,10.06 -15.73,10.06 -15.73,10.76 -15.34,10.76 -15.34,7.81 -14.96,7.81 -14.96,9.55 -14.57,9.55 -14.57,7.09 -14.19,7.09 -14.19,9.42 -13.8,9.42 -13.8,8.46 -13.42,8.46 -13.42,7.53 -13.03,7.53 -13.03,6.87 -12.64,6.87 -12.64,4.25 -12.26,4.25 -12.26,5.38 -11.87,5.38 -11.87,0.65 -11.48,0.65 -11.48,4.67 -11.09,4.67 -11.09,4.73 -10.7,4.73 -10.7,3.82 -10.31,3.82 -10.31,3.38 -9.92,3.38 -9.92,4.38 -9.53,4.38 -9.53,-5.15 -9.14,-5.15 -9.14,-1.06 -8.74,-1.06 -8.74,-1.22 -8.35,-1.22 -8.35,0.67 -7.96,0.67 -7.96,-1.52 -7.56,-1.52 -7.56,-1.6 -7.17,-1.6 -7.17,-2.02 -6.77,-2.02 -6.77,-1.9 -6.38,-1.9 -6.38,-9.05 -5.98,-9.05 -5.98,-5.7 -5.58,-5.7 -5.58,-3.12 -5.18,-3.12 -5.18,-2.48 -4.79,-2.48 -4.79,-8.68 -4.38,-8.68 -4.38,-8.91 -3.98,-8.91 -3.98,-10 -3.58,-10 -3.58,-15.89 -3.18,-15.89 -3.18,-17.37 -2.78,-17.37 -2.78,-14.56 -2.37,-14.56 -2.37,-13.82 -1.97,-13.82 -1.97,-11.04 -1.56,-11.04 -1.56,-23.81 -1.15,-23.81 -1.15,-21.33 -0.74,-21.33 -0.74,-17.27 -0.33,-17.27 -0.33,-20.48 0.08,-20.48 0.08,-22.41 0.49,-22.41 0.49,-23.46 0.91,-23.46 0.91,-21.65 1.32,-21.65 1.32,-25.89 1.74,-25.89 1.74,-23.01 2.16,-23.01 2.16,-24.17 2.58,-24.17 2.58,-23.17 3,-23.17 3,-24.08 3.42,-24.08 3.42,-21.06 3.85,-21.06 3.85,-17.41 4.27,-17.41 4.27,-14 4.7,-14 4.7,-25 5.13,-25 5.13,-12.88 5.56,-12.88 5.56,-20.04 5.99,-20.04 5.99,-14.46 6.43,-14.46 6.43,-14.5 6.87,-14.5 6.87,-19.38 7.31,-19.38 7.31,-14.23 7.75,-14.23 7.75,-6.76 8.2,-6.76 8.2,-11.92 8.64,-11.92 8.64,-9.19 9.09,-9.19 9.09,-11.16 9.54,-11.16 9.54,-8.51 10,-8.51 10,-5.7 10.46,-5.7 10.46,-11.61 10.92,-11.61 10.92,-4.86 11.38,-4.86 11.38,-3.48 11.85,-3.48 11.85,0.24 12.32,0.24 12.32,2.98 12.79,2.98 12.79,3.94 13.27,3.94 13.27,3.54 13.75,3.54 13.75,2.5 14.23,2.5 14.23,8.09 14.72,8.09 14.72,6.62 15.21,6.62 15.21,5.29 15.7,5.29 15.7,8.41 16.2,8.41 16.2,6.21 16.7,6.21 16.7,9.74 17.21,9.74 17.21,11.15 17.72,11.15 17.72,10.92 18.24,10.92 18.24,10.77 18.76,10.77 18.76,10.68 19.28,10.68 19.28,9.94 19.81,9.94 19.81,11.86 20.34,11.86 20.34,10.78 20.88,10.78 20.88,12.69 21.43,12.69 21.43,12.43 21.97,12.43 21.97,12.69 22.53,12.69 22.53,11.67 23.09,11.67 23.09,12.46 23.65,12.46 23.65,12.69 24.22,12.69 24.22,12.69 24.79,12.69 24.79,12.69 25.37,12.69 25.37,12.69 25.95,12.69 25.95,12.69 26.54,12.69 26.54,12.69 27.13,12.69 27.13,12.69 27.73,12.69 27.73,12.51 " class="primitive"/>
            </g>
          </g>
        </g>
      </g>
    </g>
  </g>
  <g class="guide ylabels" font-size="2.82" font-family="'PT Sans Caption','Helvetica Neue','Helvetica',sans-serif" fill="#6C606B" id="img-1603cc5e-102">
    <g transform="translate(13.96,51.71)" id="img-1603cc5e-103">
      <g class="primitive">
        <text text-anchor="end" dy="0.35em">0</text>
      </g>
    </g>
    <g transform="translate(13.96,42.17)" id="img-1603cc5e-104">
      <g class="primitive">
        <text text-anchor="end" dy="0.35em">10</text>
      </g>
    </g>
    <g transform="translate(13.96,32.63)" id="img-1603cc5e-105">
      <g class="primitive">
        <text text-anchor="end" dy="0.35em">20</text>
      </g>
    </g>
    <g transform="translate(13.96,23.09)" id="img-1603cc5e-106">
      <g class="primitive">
        <text text-anchor="end" dy="0.35em">30</text>
      </g>
    </g>
    <g transform="translate(13.96,13.54)" id="img-1603cc5e-107">
      <g class="primitive">
        <text text-anchor="end" dy="0.35em">40</text>
      </g>
    </g>
    <g transform="translate(13.96,4)" id="img-1603cc5e-108">
      <g class="primitive">
        <text text-anchor="end" dy="0.35em">50</text>
      </g>
    </g>
  </g>
  <g font-size="3.88" font-family="'PT Sans','Helvetica Neue','Helvetica',sans-serif" fill="#564A55" stroke="#000000" stroke-opacity="0.000" id="img-1603cc5e-109">
    <g transform="translate(5.81,25.86)" id="img-1603cc5e-110">
      <g class="primitive">
        <text text-anchor="middle" dy="0.35em" transform="rotate(-90,0, 2)">Number concentration (cm⁻³)</text>
      </g>
    </g>
  </g>
</g>
<defs>
  <clipPath id="img-1603cc5e-15">
    <path d="M99.3,2 L158.94,2 158.94,53.72 99.3,53.72 " />
  </clipPath>
  <clipPath id="img-1603cc5e-71">
    <path d="M14.96,2 L75,2 75,53.71 14.96,53.71 " />
  </clipPath>
</defs>
</svg>
